<svg class="main-svg" xmlns="http://www.w3.org/2000/svg" xmlns:xlink="http://www.w3.org/1999/xlink" width="800" height="500" style="" viewBox="0 0 800 500"><rect x="0" y="0" width="800" height="500" style="fill: rgb(255, 255, 255); fill-opacity: 1;"/><defs id="defs-28d886"><g class="clips"><clipPath id="clip28d886xyplot" class="plotclip"><rect width="724" height="380"/></clipPath><clipPath class="axesclip" id="clip28d886x"><rect x="64" y="0" width="724" height="500"/></clipPath><clipPath class="axesclip" id="clip28d886y"><rect x="0" y="60" width="800" height="380"/></clipPath><clipPath class="axesclip" id="clip28d886xy"><rect x="64" y="60" width="724" height="380"/></clipPath></g><g class="gradients"/><g class="patterns"/></defs><g class="bglayer"/><g class="layer-below"><g class="imagelayer"/><g class="shapelayer"/></g><g class="cartesianlayer"><g class="subplot xy"><g class="layer-subplot"><g class="shapelayer"/><g class="imagelayer"/></g><g class="minor-gridlayer"><g class="x"/><g class="y"/></g><g class="gridlayer"><g class="x"><path class="xgrid crisp" transform="translate(145.1,0)" d="M0,60v380" style="stroke: rgb(204, 204, 204); stroke-opacity: 1; stroke-width: 1px;"/><path class="xgrid crisp" transform="translate(234.99,0)" d="M0,60v380" style="stroke: rgb(204, 204, 204); stroke-opacity: 1; stroke-width: 1px;"/><path class="xgrid crisp" transform="translate(322.92,0)" d="M0,60v380" style="stroke: rgb(204, 204, 204); stroke-opacity: 1; stroke-width: 1px;"/><path class="xgrid crisp" transform="translate(411.83,0)" d="M0,60v380" style="stroke: rgb(204, 204, 204); stroke-opacity: 1; stroke-width: 1px;"/><path class="xgrid crisp" transform="translate(501.72,0)" d="M0,60v380" style="stroke: rgb(204, 204, 204); stroke-opacity: 1; stroke-width: 1px;"/><path class="xgrid crisp" transform="translate(591.61,0)" d="M0,60v380" style="stroke: rgb(204, 204, 204); stroke-opacity: 1; stroke-width: 1px;"/><path class="xgrid crisp" transform="translate(679.55,0)" d="M0,60v380" style="stroke: rgb(204, 204, 204); stroke-opacity: 1; stroke-width: 1px;"/><path class="xgrid crisp" transform="translate(768.46,0)" d="M0,60v380" style="stroke: rgb(204, 204, 204); stroke-opacity: 1; stroke-width: 1px;"/></g><g class="y"><path class="ygrid crisp" transform="translate(0,395.95)" d="M64,0h724" style="stroke: rgb(204, 204, 204); stroke-opacity: 1; stroke-width: 1px;"/><path class="ygrid crisp" transform="translate(0,351.52)" d="M64,0h724" style="stroke: rgb(204, 204, 204); stroke-opacity: 1; stroke-width: 1px;"/><path class="ygrid crisp" transform="translate(0,262.66999999999996)" d="M64,0h724" style="stroke: rgb(204, 204, 204); stroke-opacity: 1; stroke-width: 1px;"/><path class="ygrid crisp" transform="translate(0,218.24)" d="M64,0h724" style="stroke: rgb(204, 204, 204); stroke-opacity: 1; stroke-width: 1px;"/><path class="ygrid crisp" transform="translate(0,173.82)" d="M64,0h724" style="stroke: rgb(204, 204, 204); stroke-opacity: 1; stroke-width: 1px;"/><path class="ygrid crisp" transform="translate(0,129.39)" d="M64,0h724" style="stroke: rgb(204, 204, 204); stroke-opacity: 1; stroke-width: 1px;"/><path class="ygrid crisp" transform="translate(0,84.97)" d="M64,0h724" style="stroke: rgb(204, 204, 204); stroke-opacity: 1; stroke-width: 1px;"/></g></g><g class="zerolinelayer"><path class="yzl zl crisp" transform="translate(0,307.1)" d="M64,0h724" style="stroke: rgb(204, 204, 204); stroke-opacity: 1; stroke-width: 1px;"/></g><g class="layer-between"><g class="shapelayer"/><g class="imagelayer"/></g><path class="xlines-below"/><path class="ylines-below"/><g class="overlines-below"/><g class="xaxislayer-below"/><g class="yaxislayer-below"/><g class="overaxes-below"/><g class="overplot"><g class="xy" transform="translate(64,60)" clip-path="url(#clip28d886xyplot)"><g class="scatterlayer mlayer"><g class="trace scatter trace37acd4" style="stroke-miterlimit: 2; opacity: 1;"><g class="fills"/><g class="errorbars"/><g class="lines"><path class="js-line" d="M0,212.53Q0.74,222.49 0.98,223.82C1.12,224.56 1.68,226.65 1.95,227.24C2.28,227.97 4.56,230.92 4.89,231.81C5.27,232.83 5.71,238.88 5.86,238.88C6.04,238.88 6.67,227.81 6.84,227.81C7,227.81 7.68,236.27 7.82,238.3C8.02,241.12 8.11,256.38 8.79,258.47C9.14,259.54 11.39,262.06 11.72,262.91C12.09,263.87 12.41,268.92 12.7,269.53C12.84,269.81 13.54,270.64 13.68,270.6C13.98,270.51 14.5,263.53 14.66,263.53C14.82,263.53 15.36,269.1 15.63,270.33C15.96,271.84 18.21,278.95 18.56,280.24C18.78,281.06 19.39,284.33 19.54,284.32C19.74,284.31 20.34,276.68 20.52,276.68C20.67,276.68 21.36,281.16 21.5,282.41C21.76,284.77 21.55,302.35 22.47,302.89C22.84,303.11 25.07,301.85 25.4,301.43C25.78,300.95 26.24,298.06 26.38,297.12C26.63,295.4 27.02,283.67 27.36,282.32C27.49,281.78 28.16,280.48 28.33,280.15C28.48,279.86 29.15,279.02 29.31,278.59C29.81,277.27 31.9,261.12 32.24,261.13C32.47,261.14 32.86,269.14 33.22,269.31C33.36,269.37 34.06,268.64 34.2,268.69C34.42,268.76 35.03,270.79 35.17,271.35C35.39,272.25 35.73,278.42 36.15,278.55C36.48,278.65 38.73,275.19 39.08,275.22C39.3,275.24 39.91,276.75 40.06,276.73C40.24,276.71 40.87,274.55 41.04,274.15C41.2,273.78 41.87,272.52 42.01,272.06C42.24,271.27 42.78,266.8 42.99,265.4C43.35,263.02 45.49,246.16 45.92,246.12C46.09,246.11 46.67,248.79 46.9,249.09C47.04,249.28 47.74,249.53 47.88,249.76C48.27,250.42 48.63,258.38 48.85,259.62C48.99,260.39 49.46,262.83 49.83,263.31C50.23,263.83 53.33,264.9 53.74,265.44C54.15,265.98 54.47,269.31 54.72,269.75C54.86,269.99 55.55,270.38 55.69,270.68C56.21,271.82 55.74,289.47 56.67,290.14C57.04,290.4 59.23,289.04 59.6,289.3C60.53,289.96 60.33,306.36 60.58,308.62C60.72,309.85 61.41,314.28 61.55,314.27C61.79,314.26 62.19,298.71 62.53,297.12C62.67,296.48 63.21,294.83 63.51,294.5C63.84,294.14 66.09,293.6 66.44,293.08C67.15,292.03 67.25,281.97 67.42,279.93C67.57,278.14 68.23,271.59 68.39,269.89C68.55,268.15 69.21,261.06 69.37,259.31C69.53,257.58 70.07,248.97 70.35,248.96C70.68,248.94 72.85,262.15 73.28,263.49C73.45,264.03 74.12,265.09 74.26,265.66C74.68,267.42 74.82,286.34 75.23,288.14C75.37,288.74 76.07,290.47 76.21,290.45C76.46,290.41 76.82,282.07 77.19,282.01C77.52,281.96 79.77,288.21 80.12,288.14C80.73,288.02 80.94,270.53 81.1,267.04C81.26,263.59 81.92,250.21 82.07,246.47C82.25,241.99 82.66,219.42 83.05,216.93C83.19,216.07 83.87,214.37 84.03,213.51C84.51,211.03 86.63,184.13 86.96,184.14C87.29,184.15 87.75,213.91 87.94,213.91C88.09,213.91 88.67,198.43 88.91,196.27C89.05,195.01 89.75,190.31 89.89,190.32C90.1,190.33 90.45,201.56 90.87,203.43C91.2,204.91 93.45,209.37 93.8,211.11C94.46,214.41 94.5,237.48 94.77,240.74C94.91,242.36 95.51,247.95 95.75,247.98C95.89,248 96.59,245.74 96.73,245.76C97.09,245.82 97.28,262.46 97.71,262.51C98.04,262.55 100.31,254.97 100.64,253.09C101.11,250.44 101.44,233.5 101.61,233.5C101.77,233.5 102.38,250.02 102.59,250.03C102.73,250.04 103.43,244.12 103.57,242.52C103.81,239.74 104.27,219.61 104.55,219.6C104.88,219.59 106.87,249.62 107.48,251.63C107.63,252.13 108.28,253.12 108.45,253.4C108.61,253.66 109.28,254.84 109.43,254.83C109.61,254.81 110.27,252.66 110.41,252.69C110.8,252.76 110.9,271.86 111.38,271.93C111.72,271.98 113.99,263.05 114.32,263.09C114.7,263.14 115.14,275.62 115.29,275.62C115.47,275.62 116.04,259.94 116.27,257.67C116.41,256.28 117.11,250.95 117.25,250.96C117.52,250.97 117.73,273.26 118.22,276.68C118.56,279.01 120.83,288.25 121.16,288.23C121.45,288.21 121.99,280.92 122.13,279.08C122.34,276.31 122.76,260.07 123.11,258.2C123.25,257.48 123.95,255.29 124.09,255.31C124.36,255.34 124.82,267.17 125.06,267.18C125.4,267.19 127.64,243.99 127.99,243.99C128.2,243.99 128.82,250.63 128.97,252.16C129.16,254.12 129.79,265.62 129.95,265.62C130.12,265.62 130.75,253.07 130.93,250.87C131.08,249.09 131.68,241.19 131.9,241.19C132.24,241.19 134.5,264.34 134.83,264.33C135.18,264.31 135.12,238.57 135.81,237.41C135.95,237.17 136.64,236.76 136.79,236.83C137.3,237.07 138.08,248.66 138.74,250.07C139.12,250.88 141.33,253.47 141.67,253.36C142.16,253.2 142.51,244.12 142.65,244.12C142.86,244.13 143.35,262.67 143.63,264.87C143.76,265.91 144.43,268.69 144.6,269.44C144.76,270.16 145.24,273.55 145.58,273.66C145.91,273.76 148.16,271.7 148.51,271C149.12,269.76 149.35,261.12 149.49,258.73C149.69,255.36 149.99,234.47 150.47,234.35C150.61,234.32 151.3,236.05 151.44,236.03C151.67,235.99 152.1,230.49 152.42,230.44C152.75,230.38 155.02,235.74 155.35,235.68C155.7,235.62 156.19,228.97 156.33,228.97C156.53,228.98 157.08,240.05 157.31,241.63C157.45,242.59 158.02,246.12 158.28,246.21C158.42,246.26 159.09,245.32 159.26,245.36C159.7,245.47 161.76,252.57 162.19,253.23C162.36,253.5 163.02,254.25 163.17,254.2C163.6,254.06 164.86,244.54 165.12,242.87C165.32,241.56 165.66,236.68 166.1,235.81C166.43,235.15 168.69,233.61 169.03,232.92C169.53,231.89 169.75,225.36 170.01,223.95C170.25,222.65 171.71,216.57 171.96,216.58C172.2,216.59 172.63,223.6 172.94,223.64C173.27,223.68 175.54,217.43 175.87,216.26C176.15,215.25 176.58,211.01 176.85,210.44C176.98,210.16 177.67,209.65 177.82,209.33C178.25,208.41 179.33,198.97 179.78,197.12C180.17,195.52 182.38,188.28 182.71,188.32C183.17,188.38 183.52,205.78 183.69,205.78C183.85,205.78 184.46,189.4 184.66,189.39C184.8,189.39 185.33,197 185.64,197.78C185.78,198.13 186.42,198.79 186.62,199.12C187.08,199.89 190.13,206.04 190.53,207.29C190.84,208.26 191.22,212.22 191.5,212.71C191.64,212.95 192.34,213.59 192.48,213.55C192.69,213.49 193.25,210.8 193.46,210.8C193.82,210.8 196.01,218.07 196.39,218.93C196.58,219.35 197.23,220.37 197.37,220.75C197.58,221.33 198.18,224.53 198.34,225.33C198.51,226.22 199.13,230.15 199.32,230.97C199.47,231.63 199.94,234.13 200.3,234.48C200.63,234.8 202.88,234.79 203.23,235.19C203.89,235.95 204.06,243.94 204.21,245.85C204.39,248.08 204.72,259.41 205.18,260.33C205.32,260.61 206.01,261.01 206.16,261.18C206.34,261.38 206.97,262.63 207.14,262.6C207.58,262.52 209.75,251.11 210.07,251.14C210.39,251.17 210.89,260.55 211.04,262.73C211.23,265.53 211.74,281.9 212.02,281.92C212.16,281.93 212.86,277.52 213,277.53C213.25,277.55 213.39,292.09 213.98,292.23C214.41,292.33 217.48,286.79 217.88,285.66C218.25,284.62 218.72,280.47 218.86,279.21C219.06,277.45 219.67,266.51 219.84,266.51C220,266.51 220.42,276.7 220.82,276.77C221.15,276.83 223.42,270.36 223.75,270.42C224.16,270.49 224.53,281.16 224.72,281.17C224.87,281.17 225.54,275.83 225.7,274.73C225.87,273.59 226.47,268.64 226.68,267.71C226.82,267.08 227.44,264.6 227.65,264.6C228.01,264.6 230.1,273.5 230.59,273.71C230.75,273.78 231.42,273.18 231.56,273.26C232.08,273.57 232.23,288.64 232.54,288.68C232.68,288.7 233.38,286.5 233.52,285.83C233.81,284.41 234.01,272.15 234.49,272.06C234.82,272 237.02,277.6 237.43,278.1C237.61,278.31 238.26,278.86 238.4,278.81C238.63,278.73 239.24,275.64 239.38,275.66C239.65,275.69 240.2,288.5 240.36,288.5C240.53,288.5 240.71,275.63 241.33,274.11C241.68,273.26 243.87,270.74 244.26,270.64C244.45,270.59 245.1,270.87 245.24,271.04C245.54,271.4 246.05,276.1 246.22,276.1C246.38,276.1 246.99,271.65 247.2,271.62C247.34,271.6 248.01,273.38 248.17,273.35C248.66,273.26 250.66,255.27 251.1,255.22C251.27,255.2 251.94,257.78 252.08,257.76C252.4,257.71 252.79,244.15 253.06,242.47C253.2,241.62 253.9,238.69 254.04,238.7C254.3,238.72 254.71,253.34 255.01,253.36C255.34,253.38 257.6,238.4 257.94,236.12C258.17,234.63 258.72,229.75 258.92,228.7C259.07,227.92 259.76,224.65 259.9,224.66C260.18,224.69 260.73,239.31 260.87,242.79C261.07,247.53 261.31,272.12 261.85,276.37C262.19,279.02 264.26,288.93 264.78,289.12C264.94,289.18 265.62,288.63 265.76,288.37C266.28,287.4 266.59,271.22 266.74,271.22C266.92,271.22 267.53,295.3 267.71,295.3C267.86,295.3 268.2,279.16 268.69,279.08C269.03,279.02 271.29,284.95 271.62,286.01C271.89,286.86 272.46,290.78 272.6,290.77C272.84,290.75 273.41,278.82 273.58,276.5C273.74,274.28 274.21,263.52 274.55,263.49C274.95,263.46 278.05,280.83 278.46,280.81C278.73,280.8 279.3,272.91 279.44,272.91C279.65,272.92 280.14,291.05 280.42,291.08C280.55,291.09 281.2,287.1 281.39,287.08C281.54,287.07 282.17,288.89 282.37,289.39C282.73,290.3 284.97,295.83 285.3,297.12C285.61,298.33 286.14,302.78 286.28,304.36C286.53,307.29 287.02,329.54 287.26,329.55C287.4,329.56 288.07,321.73 288.23,321.73C288.4,321.73 288.98,330.2 289.21,330.21C289.55,330.22 291.8,315.94 292.14,312.27C292.67,306.53 292.43,270.2 293.12,267.89C293.26,267.42 293.95,266.77 294.09,266.33C294.56,264.82 294.87,244.65 295.07,244.65C295.22,244.65 295.8,256.55 296.05,256.56C296.38,256.57 298.45,237.57 298.98,236.08C299.14,235.63 299.78,234.46 299.96,234.43C300.11,234.4 300.8,234.98 300.93,235.23C301.29,235.89 301.73,242.79 301.91,244.16C302.06,245.33 302.63,249.46 302.89,250.65C303.22,252.16 305.49,260.81 305.82,260.78C306.14,260.75 306.65,250.74 306.8,250.74C306.98,250.74 307.59,266.02 307.77,266.02C307.92,266.02 308.39,254.84 308.75,254.74C308.89,254.7 309.52,255.72 309.73,256.02C310.17,256.65 313.21,262.22 313.64,262.11C314.22,261.96 314.39,250.34 314.61,248.61C314.75,247.51 315.45,244.4 315.59,243.27C315.83,241.33 316,229.26 316.57,227.41C316.91,226.3 319.16,223.57 319.5,222.48C320.04,220.75 320.26,209.91 320.48,208.09C320.62,206.96 321.31,202.62 321.45,202.63C321.66,202.64 322.28,214.93 322.43,214.93C322.61,214.93 323.09,197.31 323.41,197.29C323.74,197.27 326.01,212.53 326.34,215.15C326.6,217.18 327.16,226.04 327.31,226.04C327.5,226.04 328.12,208.58 328.29,208.58C328.45,208.58 329.13,223.28 329.27,223.28C329.49,223.28 329.74,190.97 330.25,186.06C330.59,182.8 332.85,172.58 333.18,169.93C333.49,167.38 333.89,154.84 334.15,154.82C334.29,154.81 334.78,158.54 335.13,158.87C335.37,159.1 336.8,158.95 337.09,159.27C338.34,160.68 339.69,191.26 340.02,197.03C340.3,201.91 340.45,223.93 340.99,224.08C341.13,224.12 341.83,222.98 341.97,222.62C342.25,221.89 342.77,215.38 342.95,215.38C343.1,215.38 343.58,220.58 343.92,220.66C344.25,220.74 346.53,217.39 346.86,216.71C347.15,216.11 347.6,213.42 347.83,213.02C347.97,212.78 348.67,211.99 348.81,212.04C349.17,212.17 349.41,221.9 349.79,221.95C350.2,222 353.2,211.29 353.7,211.2C353.88,211.17 354.54,212.01 354.67,212.31C355,213.05 355.49,219.48 355.65,220.97C355.82,222.56 356.48,230.84 356.63,230.84C356.81,230.84 357.38,215.55 357.6,215.55C357.95,215.55 359.77,252.4 360.53,254.34C360.68,254.73 361.37,255.21 361.51,255.58C362.03,256.97 362.19,277.67 362.49,277.7C362.63,277.71 363.33,273.25 363.47,273.26C363.74,273.28 363.65,290.04 364.44,291.61C364.8,292.33 367.04,293.5 367.37,294.05C367.74,294.67 368.21,298.82 368.35,298.81C368.69,298.78 369.17,273.42 369.33,268.24C369.5,262.89 370.05,235.64 370.3,235.63C370.44,235.63 370.94,245.41 371.28,245.45C371.61,245.49 373.88,238.72 374.21,237.1C374.64,234.99 375,224.22 375.19,222.08C375.34,220.48 376,213.73 376.17,213.73C376.33,213.73 377,219.6 377.14,221.24C377.39,224.32 377.27,245.49 378.12,247.89C378.48,248.92 380.71,250.89 381.05,251.8C381.62,253.32 381.84,263.29 382.03,265.22C382.18,266.69 382.8,271.93 383.01,272.95C383.15,273.63 383.84,276.34 383.98,276.33C384.22,276.31 384.69,265.05 384.96,265.04C385.29,265.03 387.56,281.9 387.89,281.88C388.17,281.87 388.45,269.73 388.87,269.57C389.01,269.52 389.71,270.51 389.85,270.46C390.17,270.35 390.68,263.31 390.82,263.31C391.02,263.32 391.27,278.16 391.8,278.28C392.14,278.36 394.4,272.89 394.73,272.95C395.06,273.01 395.57,279.18 395.71,279.17C395.91,279.16 396.51,269.03 396.69,267.22C396.84,265.7 397.46,258.88 397.66,258.87C397.8,258.86 398.44,263.04 398.64,263.04C399,263.04 401.24,249.51 401.57,249.54C401.97,249.57 402.34,267.38 402.55,270.15C402.69,272.03 403.23,278.64 403.52,279.57C403.66,280 404.31,281.3 404.5,281.35C404.65,281.39 405.32,281 405.48,280.77C406.19,279.74 408.93,258.57 409.39,258.56C409.59,258.55 410.2,262.64 410.36,262.64C410.52,262.64 411.19,258.56 411.34,258.56C411.52,258.57 412.01,264.15 412.32,264.2C412.65,264.25 414.91,259.16 415.25,258.38C415.47,257.87 416.09,256.41 416.23,255.8C416.52,254.49 416.98,243.02 417.2,243.01C417.34,243 418.03,247.89 418.18,247.89C418.35,247.89 418.92,241.64 419.16,241.63C419.5,241.62 421.76,253.66 422.09,253.63C422.5,253.59 422.85,234.93 423.07,234.92C423.21,234.91 423.85,242.69 424.04,242.7C424.19,242.71 424.88,238.38 425.02,238.39C425.25,238.41 425.37,249.62 426,250.83C426.35,251.5 428.6,253.38 428.93,253.27C429.29,253.15 429.73,249.5 429.91,248.83C430.06,248.27 430.74,246.48 430.88,245.81C431.13,244.57 431.51,235.02 431.86,234.92C432,234.88 432.68,235.84 432.84,236.21C433.38,237.49 435.36,253.12 435.77,255C435.95,255.82 436.61,257.68 436.74,258.47C437.01,260.04 437.34,272.81 437.72,272.91C437.86,272.94 438.56,271.71 438.7,271.35C438.95,270.69 439.47,266.57 439.68,265.31C440.03,263.2 442.18,248.42 442.61,248.38C442.78,248.36 443.43,250.88 443.58,250.87C443.75,250.86 444.42,247.65 444.56,247.67C444.84,247.7 445.36,259.99 445.54,262.16C445.69,263.93 445.91,271.05 446.52,271.8C446.87,272.23 449.11,272.32 449.45,272.73C449.99,273.39 450.26,279.22 450.42,280.59C450.59,282.1 451.15,289.05 451.4,290.14C451.54,290.73 452.23,292.82 452.38,292.81C452.55,292.8 453.1,289.89 453.35,289.25C453.68,288.41 455.94,284.4 456.29,283.66C456.51,283.18 457.04,281.38 457.26,281.26C457.4,281.19 458.1,281.58 458.24,281.48C458.73,281.12 458.9,269.01 459.22,268.95C459.35,268.92 459.99,270.49 460.19,270.91C460.55,271.64 462.8,276.95 463.13,276.9C463.46,276.85 463.95,271.42 464.1,270.2C464.28,268.74 464.88,261.88 465.08,260.56C465.22,259.62 465.92,256.78 466.06,255.8C466.28,254.22 466.41,243.67 467.03,243.41C467.38,243.26 469.62,245.22 469.96,245.85C470.49,246.85 470.76,253.76 470.94,255.22C471.09,256.5 471.75,261.24 471.92,262.42C472.08,263.57 472.75,269.26 472.9,269.26C473.08,269.26 473.64,261.69 473.87,259.8C474.21,256.96 476.43,241.01 476.8,238.57C477,237.28 477.64,232.65 477.78,232.66C477.99,232.67 478.36,245.28 478.76,245.41C478.9,245.46 479.6,244.63 479.74,244.3C480.2,243.19 479.87,228.44 480.71,227.86C481.07,227.61 483.3,229 483.64,228.79C484.13,228.48 484.48,222.21 484.62,222.22C484.82,222.23 485.41,232.84 485.6,234.66C485.75,236.08 486.44,240.55 486.57,242.25C486.84,245.72 486.86,273.81 487.55,273.93C487.9,273.99 490.15,266.3 490.48,266.33C490.74,266.35 491.32,271.45 491.46,271.44C491.68,271.43 491.98,258.27 492.44,258.16C492.68,258.1 494.04,261.28 494.39,261.27C494.83,261.26 496.99,256.18 497.32,256.25C497.7,256.33 498.03,264.1 498.3,264.15C498.44,264.18 499.14,262.81 499.28,262.38C499.56,261.49 500.09,255.14 500.25,253.63C500.42,252 500.9,243.53 501.23,243.5C501.56,243.47 503.83,251.64 504.16,253.09C504.43,254.25 504.81,259.07 505.14,259.49C505.28,259.66 505.98,259.7 506.12,259.89C506.6,260.55 506.94,272.86 507.09,272.86C507.26,272.86 507.46,256.77 508.07,256.6C508.42,256.5 510.65,259.82 511,260.87C511.71,262.98 511.71,281.77 511.98,281.79C512.12,281.8 512.79,276.55 512.96,276.55C513.11,276.55 513.79,280.69 513.93,280.68C514.17,280.66 514.58,269.99 514.91,267.89C515.24,265.81 517.51,257.58 517.84,255.58C518.14,253.72 518.63,244.66 518.82,244.65C518.96,244.65 519.54,249.79 519.79,250.78C520.03,251.75 521.34,256.34 521.75,256.38C522.16,256.42 524.26,251.58 524.68,251.4C524.86,251.33 525.52,251.47 525.66,251.63C526.08,252.11 526.28,261.25 526.63,261.31C526.87,261.35 528.18,257.73 528.59,257.09C529,256.46 531.18,253.56 531.52,253.67C532.12,253.87 532.32,265.33 532.5,267.44C532.65,269.23 533.33,277.35 533.47,277.35C533.69,277.34 534.26,257.14 534.45,253.67C534.6,250.95 534.63,239.84 535.43,239.14C535.79,238.82 537.99,239.65 538.36,239.32C539.3,238.48 539.14,222.86 539.34,220.17C539.48,218.21 540.17,210 540.31,210C540.5,210 541.12,228.57 541.29,228.57C541.45,228.57 541.41,214.77 542.27,213.6C542.73,212.98 545.75,212.3 546.18,212.13C546.4,212.04 547.01,211.65 547.15,211.73C547.65,212.04 547.8,225.84 548.13,225.9C548.27,225.92 548.9,223.68 549.11,223.68C549.47,223.68 551.71,230.05 552.04,229.99C552.51,229.9 552.86,218.84 553.01,216.35C553.19,213.35 553.73,198.73 553.99,196.45C554.13,195.24 554.66,191.09 554.97,190.94C555.11,190.87 555.8,191.22 555.95,191.43C556.6,192.32 558.54,210.59 558.88,210.58C559.11,210.57 559.68,202.92 559.85,201.43C560.01,200 560.65,193.07 560.83,193.07C560.98,193.07 561.67,198.9 561.81,198.89C562.01,198.88 562.43,187.56 562.79,187.52C563.12,187.48 565.39,194.65 565.72,196.32C566.13,198.4 566.42,210.68 566.69,210.71C566.83,210.72 567.53,207.31 567.67,207.33C568.04,207.38 568.4,230.15 568.65,233.19C568.79,234.85 569.35,240.87 569.62,240.88C570.03,240.9 573.12,226.54 573.53,223.55C573.96,220.42 574.1,205.65 574.51,204.14C574.65,203.64 575.33,202.27 575.49,202.27C575.65,202.27 576.28,204.16 576.46,204.14C576.85,204.11 579.07,195.03 579.4,195.07C579.87,195.13 579.97,213.82 580.37,213.91C580.51,213.94 581.21,211.97 581.35,212C581.71,212.07 582.12,227.01 582.33,227.02C582.47,227.03 583.06,221.6 583.3,220.31C583.63,218.53 585.9,210.12 586.23,207.65C586.68,204.28 587.05,187.5 587.21,183.39C587.38,179.16 588.04,162.23 588.19,157.58C588.37,152.12 589.02,128.44 589.17,121.99C589.35,114.3 589.8,79.67 590.14,71.39C590.47,63.4 592.74,24.34 593.07,24.35C593.51,24.36 593.76,107.5 594.05,107.51C594.19,107.51 594.89,93.06 595.03,89.08C595.28,81.74 595.72,33.07 596.01,26.44C596.14,23.35 596.69,12.85 596.98,12.84C597.31,12.82 599.58,30.37 599.91,30.35C600.24,30.33 600.66,14.07 600.89,11.73C601.03,10.3 601.73,4.84 601.87,4.85C602.16,4.87 602.29,36.02 602.84,36.16C602.98,36.19 603.67,34.39 603.82,34.43C604.71,34.64 606.41,102.4 606.75,102.4C606.98,102.4 607.46,72.65 607.73,72.64C607.87,72.63 608.57,79.98 608.71,79.97C608.98,79.96 609.53,55.06 609.68,49.76C609.85,43.88 609.55,15.26 610.66,12.53C611.04,11.6 613.2,9.23 613.59,9.38C614.91,9.88 614.39,51.44 614.57,59.04C614.72,65.49 615.41,94.81 615.55,94.81C615.75,94.81 616.02,27.66 616.52,27.64C616.94,27.63 620.01,66.41 620.43,74.9C620.91,84.8 621.26,127.17 621.41,139.32C621.6,155.16 622.21,248.78 622.39,248.78C622.54,248.78 623.13,170.33 623.36,170.33C623.5,170.33 624.03,194.66 624.34,199.65C624.67,204.86 626.94,225.66 627.27,231.55C627.68,238.84 628.04,280.55 628.25,280.55C628.39,280.55 628.89,259.71 629.23,257.58C629.36,256.74 630.06,254.09 630.2,254.11C630.71,254.18 630.73,304.61 631.18,304.63C631.51,304.64 633.75,277.26 634.11,277.26C634.31,277.26 634.95,285.8 635.09,285.79C635.46,285.77 635.67,222.77 636.06,222.75C636.2,222.74 636.83,230.24 637.04,230.26C637.18,230.27 637.82,227.02 638.02,227.02C638.39,227.03 640.62,236.52 640.95,238.21C641.22,239.59 641.79,245.81 641.93,245.81C642.14,245.8 642.45,229.96 642.9,229.81C643.04,229.76 643.74,230.62 643.88,230.92C644.2,231.63 644.66,237.25 644.86,239.01C645.23,242.31 647.46,263.18 647.79,267.49C648.06,271.07 648.62,283.54 648.77,287.17C648.95,291.67 649.6,317.38 649.74,317.38C649.96,317.38 650.4,245.24 650.72,245.23C650.86,245.23 651.42,258.19 651.7,258.2C652.03,258.21 654.28,242.52 654.63,240.21C654.85,238.77 655.47,234.8 655.61,233.19C655.9,229.69 655.82,201.07 656.58,199.69C656.72,199.43 657.42,199.2 657.56,199.03C657.77,198.78 658.39,197.43 658.54,196.76C659.41,192.91 661.13,115.64 661.47,115.64C661.71,115.64 662.29,149.91 662.45,157.05C662.62,164.69 663.23,197.78 663.42,204.54C663.57,209.57 664.19,227.28 664.4,230.88C664.54,233.39 664.81,241.97 665.38,243.63C665.8,244.86 668.81,248.02 669.28,249.49C670.3,252.68 670.04,278.25 670.26,282.55C670.4,285.31 671.1,293.39 671.24,296.14C671.46,300.35 671.86,328.21 672.22,328.22C672.55,328.23 674.82,305.75 675.15,301.69C675.43,298.27 675.9,282.73 676.12,282.72C676.26,282.71 676.89,290.48 677.1,290.5C677.24,290.51 677.94,288 678.08,287.21C678.4,285.36 678.42,270.35 679.06,268.29C679.41,267.17 681.65,263.44 681.99,263.53C682.59,263.68 682.63,279.09 682.96,280.72C683.1,281.4 683.8,282.8 683.94,283.52C684.35,285.67 684.67,306.86 684.92,310C685.06,311.74 685.66,316.47 685.89,318.09C686.23,320.56 688.5,333.16 688.83,336.75C689.28,341.57 689.49,367.4 689.8,370.86C689.94,372.38 690.53,377.35 690.78,377.39C690.92,377.41 691.58,376.05 691.76,375.57C692.29,374.13 695.22,359.26 695.67,357.4C695.87,356.57 696.5,353.79 696.64,353.8C696.9,353.83 697.46,367.84 697.62,367.84C697.79,367.84 698.38,353.2 698.6,351.05C698.74,349.71 699.26,345.6 699.57,344.52C699.9,343.39 702.04,338.08 702.5,337.81C702.67,337.71 703.34,337.75 703.48,337.9C704.16,338.61 704.18,358.34 704.46,360.78C704.6,361.94 705.14,364.96 705.44,365.89C705.84,367.13 708.91,374.28 709.34,374.2C709.96,374.08 710.17,358.39 710.32,355C710.49,351.18 711.08,330.62 711.3,330.61C711.44,330.61 712.11,340.61 712.28,340.61C712.44,340.61 713.04,333.56 713.25,331.68C713.6,328.49 715.85,309.76 716.18,305.78Q716.46,302.4 717.16,286.99" style="vector-effect: none; fill: none; stroke: rgb(255, 73, 73); stroke-opacity: 1; stroke-width: 2px; opacity: 1;"/></g><g class="points"/><g class="text"/></g></g></g></g><g class="zerolinelayer-above"/><path class="xlines-above crisp" d="M63,440.5H789M63,59.5H789" style="fill: none; stroke-width: 1px; stroke: rgb(204, 204, 204); stroke-opacity: 1;"/><path class="ylines-above crisp" d="M63.5,60V440M788.5,60V440" style="fill: none; stroke-width: 1px; stroke: rgb(204, 204, 204); stroke-opacity: 1;"/><g class="overlines-above"/><g class="xaxislayer-above"><g class="xtick"><text text-anchor="middle" x="0" y="455.4" transform="translate(145.1,0)" style="font-family: Arial, sans-serif; font-size: 12px; fill: rgb(51, 51, 51); fill-opacity: 1; white-space: pre;">Oct 2024</text></g><g class="xtick"><text text-anchor="middle" x="0" y="455.4" style="font-family: Arial, sans-serif; font-size: 12px; fill: rgb(51, 51, 51); fill-opacity: 1; white-space: pre;" transform="translate(234.99,0)">Jan 2025</text></g><g class="xtick"><text text-anchor="middle" x="0" y="455.4" style="font-family: Arial, sans-serif; font-size: 12px; fill: rgb(51, 51, 51); fill-opacity: 1; white-space: pre;" transform="translate(322.92,0)">Apr 2025</text></g><g class="xtick"><text text-anchor="middle" x="0" y="455.4" style="font-family: Arial, sans-serif; font-size: 12px; fill: rgb(51, 51, 51); fill-opacity: 1; white-space: pre;" transform="translate(411.83,0)">Jul 2025</text></g><g class="xtick"><text text-anchor="middle" x="0" y="455.4" style="font-family: Arial, sans-serif; font-size: 12px; fill: rgb(51, 51, 51); fill-opacity: 1; white-space: pre;" transform="translate(501.72,0)">Oct 2025</text></g><g class="xtick"><text text-anchor="middle" x="0" y="455.4" style="font-family: Arial, sans-serif; font-size: 12px; fill: rgb(51, 51, 51); fill-opacity: 1; white-space: pre;" transform="translate(591.61,0)">Jan 2026</text></g><g class="xtick"><text text-anchor="middle" x="0" y="455.4" style="font-family: Arial, sans-serif; font-size: 12px; fill: rgb(51, 51, 51); fill-opacity: 1; white-space: pre;" transform="translate(679.55,0)">Apr 2026</text></g><g class="xtick"><text text-anchor="middle" x="0" y="455.4" style="font-family: Arial, sans-serif; font-size: 12px; fill: rgb(51, 51, 51); fill-opacity: 1; white-space: pre;" transform="translate(768.46,0)">Jul 2026</text></g></g><g class="yaxislayer-above"><path class="ytick ticks crisp" d="M63,0h-6" transform="translate(0,395.95)" style="stroke: rgb(255, 255, 255); stroke-opacity: 1; stroke-width: 1px;"/><path class="ytick ticks crisp" d="M63,0h-6" transform="translate(0,351.52)" style="stroke: rgb(255, 255, 255); stroke-opacity: 1; stroke-width: 1px;"/><path class="ytick ticks crisp" d="M63,0h-6" transform="translate(0,307.1)" style="stroke: rgb(255, 255, 255); stroke-opacity: 1; stroke-width: 1px;"/><path class="ytick ticks crisp" d="M63,0h-6" transform="translate(0,262.66999999999996)" style="stroke: rgb(255, 255, 255); stroke-opacity: 1; stroke-width: 1px;"/><path class="ytick ticks crisp" d="M63,0h-6" transform="translate(0,218.24)" style="stroke: rgb(255, 255, 255); stroke-opacity: 1; stroke-width: 1px;"/><path class="ytick ticks crisp" d="M63,0h-6" transform="translate(0,173.82)" style="stroke: rgb(255, 255, 255); stroke-opacity: 1; stroke-width: 1px;"/><path class="ytick ticks crisp" d="M63,0h-6" transform="translate(0,129.39)" style="stroke: rgb(255, 255, 255); stroke-opacity: 1; stroke-width: 1px;"/><path class="ytick ticks crisp" d="M63,0h-6" transform="translate(0,84.97)" style="stroke: rgb(255, 255, 255); stroke-opacity: 1; stroke-width: 1px;"/><g class="ytick"><text text-anchor="end" x="54.6" y="4.199999999999999" transform="translate(0,395.95)" style="font-family: Arial, sans-serif; font-size: 12px; fill: rgb(51, 51, 51); fill-opacity: 1; white-space: pre;">−20</text></g><g class="ytick"><text text-anchor="end" x="54.6" y="4.199999999999999" style="font-family: Arial, sans-serif; font-size: 12px; fill: rgb(51, 51, 51); fill-opacity: 1; white-space: pre;" transform="translate(0,351.52)">−10</text></g><g class="ytick"><text text-anchor="end" x="54.6" y="4.199999999999999" style="font-family: Arial, sans-serif; font-size: 12px; fill: rgb(51, 51, 51); fill-opacity: 1; white-space: pre;" transform="translate(0,307.1)">0</text></g><g class="ytick"><text text-anchor="end" x="54.6" y="4.199999999999999" style="font-family: Arial, sans-serif; font-size: 12px; fill: rgb(51, 51, 51); fill-opacity: 1; white-space: pre;" transform="translate(0,262.66999999999996)">10</text></g><g class="ytick"><text text-anchor="end" x="54.6" y="4.199999999999999" style="font-family: Arial, sans-serif; font-size: 12px; fill: rgb(51, 51, 51); fill-opacity: 1; white-space: pre;" transform="translate(0,218.24)">20</text></g><g class="ytick"><text text-anchor="end" x="54.6" y="4.199999999999999" style="font-family: Arial, sans-serif; font-size: 12px; fill: rgb(51, 51, 51); fill-opacity: 1; white-space: pre;" transform="translate(0,173.82)">30</text></g><g class="ytick"><text text-anchor="end" x="54.6" y="4.199999999999999" style="font-family: Arial, sans-serif; font-size: 12px; fill: rgb(51, 51, 51); fill-opacity: 1; white-space: pre;" transform="translate(0,129.39)">40</text></g><g class="ytick"><text text-anchor="end" x="54.6" y="4.199999999999999" style="font-family: Arial, sans-serif; font-size: 12px; fill: rgb(51, 51, 51); fill-opacity: 1; white-space: pre;" transform="translate(0,84.97)">50</text></g></g><g class="overaxes-above"/></g></g><g class="polarlayer"/><g class="smithlayer"/><g class="ternarylayer"/><g class="geolayer"/><g class="funnelarealayer"/><g class="pielayer"/><g class="iciclelayer"/><g class="treemaplayer"/><g class="sunburstlayer"/><g class="glimages"/><defs id="topdefs-28d886"><g class="clips"/></defs><g class="layer-above"><g class="imagelayer"/><g class="shapelayer"><g class="shape-group" data-index="0" clip-path="url(#clip28d886y)"><path data-index="0" fill-rule="evenodd" d="M64,347.08L788,347.08" style="opacity: 1; stroke: rgb(136, 136, 136); stroke-opacity: 1; fill: rgb(0, 0, 0); fill-opacity: 0; stroke-dasharray: 3px, 3px; stroke-width: 1px;"/></g><g class="shape-group" data-index="1" clip-path="url(#clip28d886y)"><path data-index="1" fill-rule="evenodd" d="M64,307.1L788,307.1" style="opacity: 1; stroke: rgb(204, 204, 204); stroke-opacity: 1; fill: rgb(0, 0, 0); fill-opacity: 0; stroke-width: 1px;"/></g></g></g><g class="infolayer"><g class="g-gtitle"><text class="gtitle" x="400" y="30" text-anchor="middle" dy="0em" style="opacity: 1; font-family: Arial, sans-serif; font-size: 16px; fill: rgb(51, 51, 51); fill-opacity: 1; white-space: pre;"><tspan style="font-weight:bold">21-Day Return</tspan></text></g><g class="g-xtitle"><text class="xtitle" x="426" y="482.000390625" text-anchor="middle" style="opacity: 1; font-family: Arial, sans-serif; font-size: 13px; fill: rgb(51, 51, 51); fill-opacity: 1; white-space: pre;"><tspan style="font-weight:bold">Last 104 Weeks</tspan></text></g><g class="g-ytitle"><text class="ytitle" transform="rotate(-90,15.190234375000003,250)" x="15.190234375000003" y="250" text-anchor="middle" style="opacity: 1; font-family: Arial, sans-serif; font-size: 13px; fill: rgb(51, 51, 51); fill-opacity: 1; white-space: pre;"><tspan style="font-weight:bold">Return (%)</tspan></text></g><g class="annotation" data-index="0" style="opacity: 1;"><g class="annotation-text-g" transform="rotate(0,45.7352,347.03)"><g class="cursor-pointer" transform="translate(31,336)"><rect class="bg" x="0.5" y="0.5" width="28" height="21" style="stroke-width: 1px; stroke: rgb(0, 0, 0); stroke-opacity: 0; fill: rgb(255, 255, 255); fill-opacity: 1;"/><text class="annotation-text" text-anchor="middle" x="14.34375" y="15" style="font-family: Arial, sans-serif; font-size: 12px; fill: rgb(51, 51, 51); fill-opacity: 1; white-space: pre;">-9.0</text></g></g></g></g></svg>