<svg class="main-svg" xmlns="http://www.w3.org/2000/svg" xmlns:xlink="http://www.w3.org/1999/xlink" width="800" height="600" style="" viewBox="0 0 800 600"><rect x="0" y="0" width="800" height="600" style="fill: rgb(255, 255, 255); fill-opacity: 1;"/><defs id="defs-be002c"><g class="clips"><clipPath id="clipbe002cxyplot" class="plotclip"><rect width="733" height="211.6"/></clipPath><clipPath id="clipbe002cx2y2plot" class="plotclip"><rect width="733" height="211.60000000000002"/></clipPath><clipPath class="axesclip" id="clipbe002cx"><rect x="56" y="0" width="733" height="600"/></clipPath><clipPath class="axesclip" id="clipbe002cy"><rect x="0" y="80" width="800" height="211.6"/></clipPath><clipPath class="axesclip" id="clipbe002cxy"><rect x="56" y="80" width="733" height="211.6"/></clipPath><clipPath class="axesclip" id="clipbe002cy2"><rect x="0" y="328.4" width="800" height="211.60000000000002"/></clipPath><clipPath class="axesclip" id="clipbe002cxy2"><rect x="56" y="328.4" width="733" height="211.60000000000002"/></clipPath><clipPath class="axesclip" id="clipbe002cx2"><rect x="56" y="0" width="733" height="600"/></clipPath><clipPath class="axesclip" id="clipbe002cx2y"><rect x="56" y="80" width="733" height="211.6"/></clipPath><clipPath class="axesclip" id="clipbe002cx2y2"><rect x="56" y="328.4" width="733" height="211.60000000000002"/></clipPath></g><g class="gradients"/><g class="patterns"/></defs><g class="bglayer"/><g class="layer-below"><g class="imagelayer"/><g class="shapelayer"/></g><g class="cartesianlayer"><g class="subplot xy"><g class="layer-subplot"><g class="shapelayer"/><g class="imagelayer"/></g><g class="minor-gridlayer"><g class="x"/><g class="y"/></g><g class="gridlayer"><g class="x"><path class="xgrid crisp" transform="translate(153.87,0)" d="M0,80v211.6" style="stroke: rgb(204, 204, 204); stroke-opacity: 1; stroke-width: 1px;"/><path class="xgrid crisp" transform="translate(275.7,0)" d="M0,80v211.6" style="stroke: rgb(204, 204, 204); stroke-opacity: 1; stroke-width: 1px;"/><path class="xgrid crisp" transform="translate(397.53,0)" d="M0,80v211.6" style="stroke: rgb(204, 204, 204); stroke-opacity: 1; stroke-width: 1px;"/><path class="xgrid crisp" transform="translate(515.37,0)" d="M0,80v211.6" style="stroke: rgb(204, 204, 204); stroke-opacity: 1; stroke-width: 1px;"/><path class="xgrid crisp" transform="translate(637.21,0)" d="M0,80v211.6" style="stroke: rgb(204, 204, 204); stroke-opacity: 1; stroke-width: 1px;"/><path class="xgrid crisp" transform="translate(759.04,0)" d="M0,80v211.6" style="stroke: rgb(204, 204, 204); stroke-opacity: 1; stroke-width: 1px;"/></g><g class="y"><path class="ygrid crisp" transform="translate(0,272.77)" d="M56,0h733" style="stroke: rgb(204, 204, 204); stroke-opacity: 1; stroke-width: 1px;"/><path class="ygrid crisp" transform="translate(0,237.12)" d="M56,0h733" style="stroke: rgb(204, 204, 204); stroke-opacity: 1; stroke-width: 1px;"/><path class="ygrid crisp" transform="translate(0,201.48000000000002)" d="M56,0h733" style="stroke: rgb(204, 204, 204); stroke-opacity: 1; stroke-width: 1px;"/><path class="ygrid crisp" transform="translate(0,165.82999999999998)" d="M56,0h733" style="stroke: rgb(204, 204, 204); stroke-opacity: 1; stroke-width: 1px;"/><path class="ygrid crisp" transform="translate(0,130.19)" d="M56,0h733" style="stroke: rgb(204, 204, 204); stroke-opacity: 1; stroke-width: 1px;"/><path class="ygrid crisp" transform="translate(0,94.53999999999999)" d="M56,0h733" style="stroke: rgb(204, 204, 204); stroke-opacity: 1; stroke-width: 1px;"/></g></g><g class="zerolinelayer"/><g class="layer-between"><g class="shapelayer"/><g class="imagelayer"/></g><path class="xlines-below"/><path class="ylines-below"/><g class="overlines-below"/><g class="xaxislayer-below"/><g class="yaxislayer-below"/><g class="overaxes-below"/><g class="overplot"><g class="xy" transform="translate(56,80)" clip-path="url(#clipbe002cxyplot)"><g class="scatterlayer mlayer"><g class="trace scatter tracea354b8" style="stroke-miterlimit: 2; opacity: 1;"><g class="fills"/><g class="errorbars"/><g class="lines"><path class="js-line" d="M0,172.06Q1.7,173.69 2,173.63C2.38,173.55 3.67,170.66 3.99,170.03C4.33,169.37 5.56,166.06 5.99,165.89C6.28,165.77 7.56,166.52 7.99,166.61C8.71,166.77 13.31,166.67 13.98,167.1C14.53,167.45 15.64,170.05 15.98,170.63C16.31,171.21 17.63,174.04 17.98,174.06C18.3,174.07 19.64,171.27 19.97,171.28C20.31,171.29 21.5,174.32 21.97,174.38C22.67,174.47 27.29,170.01 27.96,168.85C28.67,167.63 29.5,160.98 29.96,159.94C30.24,159.3 31.62,157.12 31.96,157.12C32.29,157.12 33.66,159.18 33.95,159.76C34.38,160.61 35.28,165.76 35.95,166.64C36.62,167.52 41.26,169.61 41.94,170.35C42.48,170.94 43.58,173.78 43.94,174.38C44.26,174.91 45.58,176.86 45.94,177.26C46.25,177.6 47.57,178.81 47.93,178.94C48.24,179.05 49.52,178.85 49.93,178.94C50.68,179.11 55.22,181.25 55.92,181.76C56.39,182.1 57.58,183.58 57.92,183.93C58.25,184.27 59.64,185.97 59.92,185.89C60.39,185.76 61.54,178.68 61.92,178.65C62.22,178.62 63.34,182.56 63.91,182.79C64.58,183.06 69.23,180.32 69.9,180.58C70.45,180.79 71.55,184.37 71.9,184.39C72.22,184.41 73.52,181.69 73.9,181.33C74.2,181.05 75.56,180.36 75.9,180.22C76.22,180.09 77.49,179.9 77.89,179.72C78.64,179.38 83.22,175.44 83.89,175.66C84.49,175.86 85.5,181.14 85.88,181.18C86.18,181.21 87.51,178.4 87.88,177.98C88.19,177.63 89.56,176.35 89.88,176.37C90.22,176.39 91.4,178.43 91.87,178.48C92.73,178.57 99.04,172.57 99.86,172.84C100.51,173.05 101.42,177.97 101.86,178.62C102.15,179.05 103.57,179.93 103.86,180.36C104.3,181 105.2,185.74 105.86,186.1C106.53,186.47 111.14,185.02 111.85,184.71C112.29,184.52 113.54,183.72 113.84,183.39C114.23,182.96 115.52,179.68 115.84,179.69C116.19,179.71 117.41,184.18 117.84,184.32C118.13,184.42 119.4,183.34 119.84,183.18C120.56,182.91 125.16,182.56 125.83,182C126.47,181.45 127.4,176.77 127.83,176.66C128.12,176.58 129.49,178.05 129.82,178.33C130.15,178.61 131.51,179.68 131.82,180.04C132.19,180.47 133.28,182.92 133.82,183.22C134.5,183.6 139.13,183.7 139.81,183.36C140.32,183.11 141.51,181.18 141.81,180.61C142.2,179.86 143.31,175.32 143.8,174.98C144.08,174.79 145.5,175.17 145.8,175.02C146.19,174.83 147.38,172.38 147.8,172.38C148.53,172.38 153.09,179.35 153.79,180.47C154.25,181.21 155.42,183.8 155.79,184.32C156.09,184.75 157.48,185.97 157.78,186.42C158.17,187.02 159.36,190.94 159.78,191.06C160.07,191.14 161.34,189.89 161.78,189.63C162.5,189.2 167.02,186.95 167.77,186.75C168.18,186.64 169.47,186.77 169.77,186.6C170.17,186.37 171.45,183.66 171.77,183.68C172.12,183.7 173.47,186.61 173.76,187.39C174.19,188.57 174.91,196.07 175.76,196.69C176.43,197.18 181.07,195.77 181.75,196.08C182.27,196.32 183.36,198.73 183.75,198.94C184.05,199.1 185.45,198.78 185.75,198.94C186.14,199.15 187.35,201.65 187.74,201.82C188.04,201.95 189.32,201.57 189.74,201.54C190.47,201.49 195.01,201.78 195.73,201.61C196.17,201.5 197.42,200.79 197.73,200.54C198.1,200.24 199.45,198.73 199.73,198.12C200.27,196.94 201.09,186.71 201.72,186.39C202,186.25 203.28,187.29 203.72,187.42C204.44,187.64 209.04,187.63 209.71,188.1C210.29,188.51 211.3,192.1 211.71,192.23C212,192.32 213.36,191.18 213.71,191.06C214.03,190.94 215.39,190.87 215.71,190.74C216.06,190.59 217.25,189.44 217.7,189.28C218.41,189.03 222.99,188.78 223.69,189.03C224.16,189.19 225.38,190.4 225.69,190.77C226.06,191.22 227.28,193.88 227.69,194.2C227.98,194.43 229.36,194.84 229.69,194.8C230.03,194.76 231.24,193.82 231.68,193.66C232.4,193.4 237.01,193.13 237.68,192.66C238.22,192.28 239.38,189.2 239.67,189.24C240.11,189.31 241.09,197.8 241.67,198.15C241.95,198.32 243.38,197.87 243.67,197.62C244.12,197.23 245.05,193.35 245.66,192.95C246.33,192.52 250.98,193.44 251.66,193.09C252.18,192.82 253.34,190.1 253.65,190.13C254.02,190.16 255.22,194.3 255.65,194.77C255.94,195.08 257.36,195.54 257.65,195.84C258.06,196.25 259.1,199.49 259.65,199.68C260.32,199.91 264.96,196.7 265.64,196.9C266.15,197.05 267.28,200.06 267.63,200.08C267.95,200.1 269.17,197.77 269.63,197.58C270.14,197.36 272.91,198.06 273.63,197.94C274.55,197.78 278.93,195.03 279.62,195.19C280.1,195.3 281.26,197.55 281.62,197.62C281.93,197.68 283.3,196.77 283.61,196.51C283.98,196.2 285.25,194.3 285.61,193.95C285.92,193.65 287.2,192.46 287.61,192.48C288.35,192.51 292.88,196.98 293.6,197.65C294.03,198.05 295.24,199.54 295.6,199.61C295.91,199.67 297.29,198.74 297.59,198.83C297.98,198.95 299.2,201.55 299.59,201.86C299.89,202.1 301.16,202.48 301.59,202.61C302.32,202.84 306.91,203.5 307.58,204.1C308.23,204.69 309.18,209.56 309.58,209.63C309.87,209.68 311.2,207.5 311.57,207.24C311.88,207.02 313.25,206.68 313.57,206.49C313.93,206.27 315.14,205.05 315.57,204.68C316.29,204.06 320.82,200.4 321.56,199.86C321.97,199.56 323.21,198.63 323.56,198.54C323.88,198.45 325.22,198.46 325.56,198.65C326.2,199.01 328.74,204.27 329.55,204.39C330.39,204.51 334.78,199.78 335.54,199.61C335.94,199.52 337.23,199.91 337.54,200.08C337.9,200.27 339.11,201.78 339.54,201.97C340.06,202.2 342.81,202.44 343.53,202.32C344.45,202.16 348.85,199.37 349.52,199.61C350.08,199.81 351.17,203.04 351.52,203.68C351.84,204.28 353.22,207.09 353.52,207.06C353.91,207.02 355.16,201.72 355.51,200.75C355.83,199.88 356.89,196.38 357.51,195.91C358.18,195.4 362.83,195.73 363.5,195.19C364.17,194.65 365.13,190.3 365.5,189.45C365.81,188.73 367.21,185.53 367.5,185.57C367.94,185.63 368.9,195.35 369.5,195.66C369.78,195.8 371.05,194.96 371.49,194.77C372.37,194.39 378.6,191.96 379.48,191.56C379.93,191.36 381.19,190.46 381.48,190.56C381.91,190.71 383.17,195.07 383.48,195.05C383.84,195.03 384.79,189.33 385.47,188.96C386.14,188.6 390.8,190.89 391.47,190.52C392.16,190.14 393.06,185.07 393.46,184.25C393.76,183.64 395.17,181.97 395.46,181.33C395.9,180.36 396.92,173.73 397.46,173.45C397.74,173.3 399.1,173.89 399.46,174.2C400.32,174.95 404.72,185.15 405.45,185.14C405.88,185.14 407.14,182.08 407.44,181.33C407.83,180.37 409.11,174.45 409.44,174.45C409.78,174.45 410.95,181.47 411.44,181.65C411.72,181.75 413.01,180.55 413.44,180.29C414.16,179.86 418.71,177.18 419.43,177.23C419.86,177.26 421.11,178.69 421.43,178.65C421.78,178.6 423.13,176.21 423.42,176.27C423.84,176.35 424.91,182.31 425.42,182.65C425.7,182.84 426.98,182.44 427.42,182.47C428.31,182.54 434.57,185 435.41,184.46C436.36,183.86 436.98,175.6 437.4,174.27C437.69,173.36 438.95,170.17 439.4,169.85C439.69,169.65 440.98,169.67 441.4,169.67C442.13,169.67 446.7,169.91 447.39,170.28C447.89,170.54 449.02,172.43 449.39,172.7C449.7,172.92 451.05,173.33 451.38,173.45C451.71,173.58 453.1,174.34 453.38,174.2C453.88,173.96 454.92,169.04 455.38,167.75C456.09,165.76 460.7,155.13 461.37,152.74C461.95,150.68 462.7,141.55 463.37,140.87C463.65,140.59 465.09,140.82 465.37,140.51C466.3,139.49 467.06,122.07 467.36,117.88C467.74,112.65 468.3,87.07 469.36,82.62C470.05,79.72 474.65,68.7 475.35,68.83C476.49,69.04 476.87,109.16 477.35,109.18C477.63,109.19 479.06,98.35 479.35,95.64C479.78,91.61 480.87,69.15 481.34,65.41C481.62,63.18 482.83,54.82 483.34,54.79C484.02,54.75 488.64,73.4 489.33,73.36C489.82,73.33 490.72,64.3 491.33,63.7C491.61,63.43 493,63.28 493.33,63.3C493.66,63.32 495.04,64.1 495.32,63.95C495.85,63.66 496.95,56.48 497.32,56.5C498.13,56.54 502.6,92.51 503.31,92.5C503.77,92.49 504.89,77.49 505.31,77.46C505.6,77.44 507.02,84.71 507.31,84.69C507.72,84.66 508.99,72.47 509.31,69.86C509.66,66.96 510.5,54.12 511.3,51.47C511.97,49.25 516.59,39.88 517.29,39.92C517.75,39.95 518.94,44.42 519.29,45.27C519.61,46.06 521.01,49.81 521.29,49.76C522.09,49.61 521.19,11.96 523.29,9.05C524.25,7.72 530.43,6.5 531.28,5.95C531.77,5.64 532.98,3.91 533.27,4.03C534.67,4.6 534.63,70.07 535.27,70.11C535.55,70.13 536.82,57.84 537.27,57.78C537.56,57.74 538.79,62.37 539.26,62.41C539.95,62.47 544.56,53.29 545.26,53.47C546.38,53.77 546.2,80.31 547.25,81.27C547.53,81.53 548.97,81.47 549.25,81.23C549.93,80.64 550.97,69.09 551.25,69.11C551.75,69.14 552.34,107.64 553.25,107.75C553.93,107.83 558.18,88.11 559.24,87.22C559.57,86.95 560.96,87.27 561.23,87.01C561.9,86.38 562.89,77.17 563.23,75.28C563.55,73.51 564.82,65.02 565.23,64.98C565.53,64.95 566.7,70.06 567.23,70.15C567.91,70.27 572.55,64.59 573.22,63.13C574.01,61.41 574.93,52.91 575.22,50.44C575.63,47 576.68,25.72 577.21,25.66C577.49,25.63 578.91,30.88 579.21,32.11C579.6,33.71 580.66,43.22 581.21,43.27C581.88,43.33 586.53,27.22 587.2,27.3C587.82,27.37 588.9,39.29 589.2,42.1C589.59,45.78 590.24,66.32 591.19,67.72C591.47,68.13 592.88,68.75 593.19,68.69C593.55,68.62 594.8,67.02 595.19,66.51C595.96,65.51 600.51,58.9 601.18,57.07C601.95,54.97 602.68,42.5 603.18,42.42C603.46,42.38 604.74,46.35 605.17,46.55C605.46,46.68 606.89,46.33 607.17,46.02C607.92,45.17 608.45,33.17 609.17,30.87C609.84,28.75 614.41,19.35 615.16,19.32C615.56,19.3 616.88,21.63 617.16,22.49C618,25.09 618.56,52.91 619.16,56.39C619.44,57.98 620.65,62.97 621.15,63.2C621.43,63.33 622.75,62.22 623.15,62.31C624.11,62.53 630.29,69.94 631.14,71.97C632.18,74.44 632.32,90.05 633.14,90.54C633.42,90.71 634.85,89.62 635.13,89.75C635.6,89.96 636.71,95.24 637.13,95.24C637.87,95.24 642.39,80.22 643.12,78.13C643.54,76.93 644.81,73.47 645.12,72.43C645.48,71.21 646.81,64.36 647.12,64.37C647.48,64.38 648.76,73.31 649.11,75C649.43,76.55 650.32,83.52 651.11,83.91C651.78,84.24 656.42,80.85 657.1,81.2C657.98,81.66 658.71,92.23 659.1,92.25C659.4,92.27 660.78,85.72 661.1,85.73C661.45,85.74 662.78,92.55 663.1,94C663.45,95.59 664.55,102.27 665.09,104.08C665.76,106.33 670.41,116.22 671.08,118.8C671.77,121.46 672.46,135.39 673.08,135.56C673.36,135.63 674.7,133.04 675.08,132.92C675.38,132.83 676.69,133.33 677.08,133.6C678.04,134.27 684.18,142.3 685.07,143.36C685.51,143.88 686.78,145.1 687.06,145.68C687.57,146.74 688.67,155.88 689.06,155.91C689.36,155.93 690.76,150.26 691.06,150.28C691.45,150.31 692.32,159.63 693.05,159.87C693.72,160.09 698.37,154.31 699.05,154.45C699.58,154.56 700.68,158.23 701.04,158.91C701.35,159.51 702.63,162.01 703.04,162.19C703.34,162.32 704.59,161.82 705.04,161.79C705.93,161.73 712.2,162.87 713.03,162.29C713.8,161.75 714.72,156.83 715.02,155.56C715.4,153.96 716.6,144.62 717.02,144.58C717.31,144.55 718.62,149.04 719.02,149.71C719.32,150.21 720.68,152.18 721.02,152.1C721.97,151.88 726.24,130.77 727.01,128.11Q727.4,126.76 729.01,122.08" style="vector-effect: none; fill: none; stroke: rgb(0, 73, 25); stroke-opacity: 1; stroke-width: 2px; opacity: 1;"/></g><g class="points"/><g class="text"/></g></g></g></g><g class="zerolinelayer-above"/><path class="xlines-above crisp" d="M55,292.1H790M55,79.5H790" style="fill: none; stroke-width: 1px; stroke: rgb(204, 204, 204); stroke-opacity: 1;"/><path class="ylines-above crisp" d="M55.5,80V291.6M789.5,80V291.6" style="fill: none; stroke-width: 1px; stroke: rgb(204, 204, 204); stroke-opacity: 1;"/><g class="overlines-above"/><g class="xaxislayer-above"/><g class="yaxislayer-above"><path class="ytick ticks crisp" d="M55,0h-6" transform="translate(0,272.77)" style="stroke: rgb(255, 255, 255); stroke-opacity: 1; stroke-width: 1px;"/><path class="ytick ticks crisp" d="M55,0h-6" transform="translate(0,237.12)" style="stroke: rgb(255, 255, 255); stroke-opacity: 1; stroke-width: 1px;"/><path class="ytick ticks crisp" d="M55,0h-6" transform="translate(0,201.48000000000002)" style="stroke: rgb(255, 255, 255); stroke-opacity: 1; stroke-width: 1px;"/><path class="ytick ticks crisp" d="M55,0h-6" transform="translate(0,165.82999999999998)" style="stroke: rgb(255, 255, 255); stroke-opacity: 1; stroke-width: 1px;"/><path class="ytick ticks crisp" d="M55,0h-6" transform="translate(0,130.19)" style="stroke: rgb(255, 255, 255); stroke-opacity: 1; stroke-width: 1px;"/><path class="ytick ticks crisp" d="M55,0h-6" transform="translate(0,94.53999999999999)" style="stroke: rgb(255, 255, 255); stroke-opacity: 1; stroke-width: 1px;"/><g class="ytick"><text text-anchor="end" x="46.6" y="4.199999999999999" transform="translate(0,272.77)" style="font-family: Arial, sans-serif; font-size: 12px; fill: rgb(51, 51, 51); fill-opacity: 1; white-space: pre;">60.00</text></g><g class="ytick"><text text-anchor="end" x="46.6" y="4.199999999999999" style="font-family: Arial, sans-serif; font-size: 12px; fill: rgb(51, 51, 51); fill-opacity: 1; white-space: pre;" transform="translate(0,237.12)">70.00</text></g><g class="ytick"><text text-anchor="end" x="46.6" y="4.199999999999999" style="font-family: Arial, sans-serif; font-size: 12px; fill: rgb(51, 51, 51); fill-opacity: 1; white-space: pre;" transform="translate(0,201.48000000000002)">80.00</text></g><g class="ytick"><text text-anchor="end" x="46.6" y="4.199999999999999" style="font-family: Arial, sans-serif; font-size: 12px; fill: rgb(51, 51, 51); fill-opacity: 1; white-space: pre;" transform="translate(0,165.82999999999998)">90.00</text></g><g class="ytick"><text text-anchor="end" x="46.6" y="4.199999999999999" style="font-family: Arial, sans-serif; font-size: 12px; fill: rgb(51, 51, 51); fill-opacity: 1; white-space: pre;" transform="translate(0,130.19)">100.00</text></g><g class="ytick"><text text-anchor="end" x="46.6" y="4.199999999999999" style="font-family: Arial, sans-serif; font-size: 12px; fill: rgb(51, 51, 51); fill-opacity: 1; white-space: pre;" transform="translate(0,94.53999999999999)">110.00</text></g></g><g class="overaxes-above"/></g><g class="subplot x2y2"><g class="layer-subplot"><g class="shapelayer"/><g class="imagelayer"/></g><g class="minor-gridlayer"><g class="x2"/><g class="y2"/></g><g class="gridlayer"><g class="x2"><path class="x2grid crisp" transform="translate(153.87,0)" d="M0,328.4v211.60000000000002" style="stroke: rgb(204, 204, 204); stroke-opacity: 1; stroke-width: 1px;"/><path class="x2grid crisp" transform="translate(275.7,0)" d="M0,328.4v211.60000000000002" style="stroke: rgb(204, 204, 204); stroke-opacity: 1; stroke-width: 1px;"/><path class="x2grid crisp" transform="translate(397.53,0)" d="M0,328.4v211.60000000000002" style="stroke: rgb(204, 204, 204); stroke-opacity: 1; stroke-width: 1px;"/><path class="x2grid crisp" transform="translate(515.37,0)" d="M0,328.4v211.60000000000002" style="stroke: rgb(204, 204, 204); stroke-opacity: 1; stroke-width: 1px;"/><path class="x2grid crisp" transform="translate(637.21,0)" d="M0,328.4v211.60000000000002" style="stroke: rgb(204, 204, 204); stroke-opacity: 1; stroke-width: 1px;"/><path class="x2grid crisp" transform="translate(759.04,0)" d="M0,328.4v211.60000000000002" style="stroke: rgb(204, 204, 204); stroke-opacity: 1; stroke-width: 1px;"/></g><g class="y2"><path class="y2grid crisp" transform="translate(0,498.95)" d="M56,0h733" style="stroke: rgb(204, 204, 204); stroke-opacity: 1; stroke-width: 1px;"/><path class="y2grid crisp" transform="translate(0,458.96)" d="M56,0h733" style="stroke: rgb(204, 204, 204); stroke-opacity: 1; stroke-width: 1px;"/><path class="y2grid crisp" transform="translate(0,418.96)" d="M56,0h733" style="stroke: rgb(204, 204, 204); stroke-opacity: 1; stroke-width: 1px;"/><path class="y2grid crisp" transform="translate(0,378.96999999999997)" d="M56,0h733" style="stroke: rgb(204, 204, 204); stroke-opacity: 1; stroke-width: 1px;"/><path class="y2grid crisp" transform="translate(0,338.97999999999996)" d="M56,0h733" style="stroke: rgb(204, 204, 204); stroke-opacity: 1; stroke-width: 1px;"/></g></g><g class="zerolinelayer"><path class="y2zl zl crisp" transform="translate(0,538.9399999999999)" d="M56,0h733" style="stroke: rgb(255, 255, 255); stroke-opacity: 1; stroke-width: 2px;"/></g><g class="layer-between"><g class="shapelayer"/><g class="imagelayer"/></g><path class="xlines-below"/><path class="ylines-below"/><g class="overlines-below"/><g class="xaxislayer-below"/><g class="yaxislayer-below"/><g class="overaxes-below"/><g class="overplot"><g class="x2y2" transform="translate(56,328.4)" clip-path="url(#clipbe002cx2y2plot)"><g class="scatterlayer mlayer"><g class="trace scatter tracefa9e1c" style="stroke-miterlimit: 2; opacity: 1;"><g class="fills"/><g class="errorbars"/><g class="lines"><path class="js-line" d="M0,11.37Q1.72,11.12 2,11.37C2.9,12.18 3.09,31.19 3.99,32C4.27,32.25 5.71,31.8 5.99,32C6.47,32.34 7.34,36.96 7.99,37.56C8.66,38.17 13.27,39.3 13.98,39.15C14.43,39.06 15.69,37.42 15.98,37.56C17.52,38.27 17.59,98.58 17.98,108.97C18.28,117.02 19.22,151.71 19.97,151.82C20.25,151.86 21.49,147.33 21.97,146.27C22.66,144.71 27.29,137.07 27.96,135.16C28.59,133.36 29.3,124.6 29.96,124.05C30.24,123.82 31.63,124.11 31.96,124.05C32.3,123.99 33.64,123.18 33.95,123.26C34.32,123.35 35.5,125.59 35.95,125.64C36.66,125.71 41.18,121.32 41.94,120.88C42.34,120.65 43.6,120.15 43.94,120.08C44.27,120.02 45.61,120.08 45.94,120.08C46.27,120.08 47.65,119.85 47.93,120.08C48.56,120.6 49.07,129.36 49.93,130.4C50.6,131.21 55.18,131.75 55.92,132.78C57.65,135.17 57.25,167.59 57.92,167.69C58.2,167.73 59.64,163.41 59.92,162.14C60.48,159.58 60.99,139.58 61.92,138.33C62.2,137.95 63.48,137.68 63.91,137.54C64.63,137.3 69.23,136.61 69.9,135.95C70.63,135.23 71.38,129.07 71.9,128.81C72.18,128.67 73.59,129.39 73.9,129.61C74.27,129.88 75.6,131.5 75.9,131.99C76.29,132.62 77.37,136.65 77.89,136.75C78.57,136.87 83.11,130.93 83.89,130.4C84.28,130.14 85.6,129.43 85.88,129.61C87.14,130.42 86.62,169.89 87.88,171.66C88.17,172.06 89.55,172.32 89.88,172.45C90.21,172.58 91.42,173.12 91.87,173.25C92.75,173.51 99.03,175.36 99.86,174.83C100.69,174.3 101.51,166.91 101.86,166.9C102.18,166.89 103.58,173.28 103.86,173.25C104.36,173.2 104.54,153.82 105.86,152.62C106.57,151.97 111.18,152.99 111.85,152.62C112.38,152.32 113.55,150.12 113.84,149.44C114.27,148.44 115.52,142.9 115.84,141.51C116.19,140 117.25,132.31 117.84,131.99C118.12,131.84 119.53,132.38 119.84,132.78C121.21,134.51 124.92,173.16 125.83,173.25C126.18,173.28 127.39,167.81 127.83,167.69C128.12,167.61 129.53,168.88 129.82,169.28C130.26,169.89 131.41,174.76 131.82,174.83C132.11,174.88 133.34,172.57 133.82,172.45C134.51,172.28 139.14,175.11 139.81,174.83C140.41,174.58 141.53,171.12 141.81,170.07C142.3,168.22 143.49,154.19 143.8,154.2C144.16,154.21 144.9,175.21 145.8,176.42C146.08,176.79 147.49,177.41 147.8,177.22C149.33,176.31 152.68,129.34 153.79,125.64C154.11,124.56 155.51,121.62 155.79,121.67C156.4,121.79 157.21,140.83 157.78,143.09C158.06,144.2 159.32,147.56 159.78,147.86C160.07,148.05 161.46,147.61 161.78,147.86C162.94,148.78 166.72,171.6 167.77,173.25C168.1,173.77 169.49,174.93 169.77,174.83C170.27,174.66 171.23,167.52 171.77,166.9C172.05,166.58 173.47,166.52 173.76,166.11C175.33,163.88 173.23,105.57 175.76,103.42C176.55,102.75 181.08,104.63 181.75,104.21C182.45,103.76 183.47,97.84 183.75,97.87C184.22,97.92 185.19,116.02 185.75,116.12C186.03,116.17 187.35,112.24 187.74,112.15C188.04,112.08 189.32,113.4 189.74,113.74C190.47,114.32 194.97,118.39 195.73,118.5C196.13,118.56 197.39,117.77 197.73,117.7C198.06,117.64 199.44,117.97 199.73,117.7C200.98,116.52 200.74,82.1 201.72,79.61C202,78.9 203.26,77.3 203.72,77.23C204.42,77.13 209.04,80.24 209.71,81.2C210.46,82.28 211.12,89.46 211.71,89.93C211.99,90.15 213.38,89.93 213.71,89.93C214.04,89.93 215.41,89.79 215.71,89.93C216.09,90.11 217.21,92.04 217.7,92.31C218.39,92.69 223.02,92.59 223.69,93.1C224.31,93.57 225.39,97.89 225.69,97.87C226.07,97.84 227.29,89.97 227.69,89.93C227.99,89.9 229.4,93.06 229.69,93.9C230.13,95.19 231.34,101.67 231.68,104.21C232.62,111.2 236.65,183.47 237.68,183.56C238.01,183.59 239.39,177.64 239.67,175.63C240.49,169.7 239.98,106.62 241.67,104.21C241.96,103.79 243.39,103.77 243.67,103.42C244.37,102.54 244.62,90.83 245.66,89.93C246.35,89.34 250.99,90.44 251.66,89.93C252.4,89.37 253.28,83.85 253.65,82.79C253.96,81.91 255.21,78.22 255.65,78.03C255.94,77.91 257.35,78.39 257.65,78.82C259.74,81.82 256.88,183.29 259.65,184.36C260.45,184.67 264.97,179.15 265.64,178.01C266.22,177.01 267.29,171.67 267.63,171.66C267.95,171.65 269.05,176.63 269.63,177.22C270.12,177.73 272.97,178.99 273.63,178.8C274.64,178.52 278.88,171.8 279.62,170.87C280.03,170.35 281.25,168.76 281.62,168.49C281.93,168.27 283.32,167.97 283.61,167.69C284.05,167.25 285.31,162.9 285.61,162.93C286,162.96 287.18,171.66 287.61,171.66C288.33,171.66 292.89,150.29 293.6,147.06C294.05,144.98 295.04,136.96 295.6,136.75C295.88,136.65 297.3,137.95 297.59,138.33C298.01,138.88 299.31,141.82 299.59,143.09C300.52,147.32 299.19,198.2 301.59,200.23C302.37,200.89 306.91,199.94 307.58,199.43C308.2,198.96 309.27,195.53 309.58,194.67C309.94,193.7 311.25,188.31 311.57,188.32C311.92,188.33 313.19,195.12 313.57,196.26C313.87,197.17 315.13,201.01 315.57,201.02C316.29,201.04 320.89,188.24 321.56,188.32C322.12,188.39 323.02,196.97 323.56,197.85C323.84,198.3 325.25,199.53 325.56,199.43C326.34,199.17 328.53,186.32 329.55,184.36C330.34,182.84 334.73,177.6 335.54,177.22C335.91,177.05 337.26,177.02 337.54,177.22C338.02,177.56 338.99,182.1 339.54,182.77C340.03,183.37 342.79,185.13 343.53,185.15C344.42,185.17 348.84,182.93 349.52,181.98C350.46,180.67 351.16,171.24 351.52,169.28C351.83,167.57 353.22,161.53 353.52,159.76C353.9,157.54 355.22,147.65 355.51,144.68C355.93,140.45 355.84,115.11 357.51,113.74C358.25,113.13 362.8,115.07 363.5,114.53C364.66,113.63 365.12,100.31 365.5,97.87C365.8,95.94 367.22,89.72 367.5,87.55C367.97,83.92 368.99,58.23 369.5,58.19C369.78,58.17 370.61,66.28 371.49,66.92C372.33,67.52 378.59,66.17 379.48,66.13C379.92,66.11 381.19,66.32 381.48,66.13C381.94,65.83 383.09,62 383.48,61.36C383.78,60.87 384.98,59.21 385.47,58.98C386.16,58.66 390.79,59.35 391.47,58.98C392,58.68 393.13,55.81 393.46,55.81C393.79,55.81 395.13,58.98 395.46,58.98C395.79,58.98 397.06,56.03 397.46,55.81C397.76,55.65 399.09,55.99 399.46,55.81C400.28,55.4 404.65,48.48 405.45,47.87C405.82,47.59 407.11,47.21 407.44,47.08C407.77,46.95 409.1,46.35 409.44,46.29C409.77,46.23 411.11,46.23 411.44,46.29C411.78,46.35 413.01,46.94 413.44,47.08C414.17,47.32 418.74,48.23 419.43,48.67C419.92,48.98 421.05,50.87 421.43,51.05C421.73,51.19 423.09,51.05 423.42,51.05C423.75,51.05 425.13,50.87 425.42,51.05C425.85,51.32 426.89,54.29 427.42,55.02C428.26,56.18 434.59,63.17 435.41,62.95C436.08,62.77 436.88,56.39 437.4,55.81C437.68,55.5 439.07,55.02 439.4,55.02C439.73,55.02 440.98,55.64 441.4,55.81C442.13,56.1 446.72,57.47 447.39,58.19C448.07,58.92 448.9,64.01 449.39,64.54C449.67,64.84 451.07,65.11 451.38,65.33C451.75,65.6 453.03,67.67 453.38,67.71C453.7,67.74 455.04,66.62 455.38,66.13C456.32,64.79 460.64,50.13 461.37,47.87C461.8,46.54 463.06,41.52 463.37,41.53C463.73,41.54 465.08,50.28 465.37,50.26C465.79,50.23 467.03,34.45 467.36,31.21C467.7,27.84 468.04,11.78 469.36,10.58C470.07,9.93 474.62,10.58 475.35,10.58C475.77,10.58 477.02,10.58 477.35,10.58C477.68,10.58 479.02,10.58 479.35,10.58C479.68,10.58 481.01,10.58 481.34,10.58C481.67,10.58 482.92,10.58 483.34,10.58C484.07,10.58 488.6,10.58 489.33,10.58C489.75,10.58 491,10.52 491.33,10.58C491.67,10.64 493.01,11.18 493.33,11.37C493.68,11.57 494.96,12.84 495.32,12.96C495.63,13.07 496.91,13.04 497.32,12.96C498.06,12.82 502.57,10.72 503.31,10.58C503.72,10.5 504.98,10.58 505.31,10.58C505.64,10.58 506.98,10.58 507.31,10.58C507.64,10.58 508.98,10.58 509.31,10.58C509.64,10.58 510.88,10.58 511.3,10.58C512.03,10.58 516.6,10.26 517.29,10.58C517.78,10.81 518.94,12.62 519.29,12.96C519.61,13.27 520.99,14.62 521.29,14.55C521.68,14.46 522.69,10.84 523.29,10.58C524.12,10.22 530.46,12.18 531.28,12.96C531.97,13.61 532.96,18.53 533.27,18.51C533.63,18.49 534.77,10.75 535.27,10.58C535.55,10.49 536.92,11.97 537.27,12.17C537.59,12.35 538.89,12.68 539.26,12.96C540.07,13.57 544.57,20.99 545.26,20.9C545.75,20.84 546.86,16.19 547.25,16.13C547.55,16.08 548.87,18.33 549.25,18.51C549.55,18.65 550.97,18.72 551.25,18.51C551.79,18.1 552.51,11.93 553.25,11.37C553.92,10.86 558.52,11.23 559.24,11.37C559.67,11.45 560.92,11.95 561.23,12.17C561.6,12.44 562.86,14.28 563.23,14.55C563.54,14.77 564.9,15.21 565.23,15.34C565.56,15.47 566.8,15.99 567.23,16.13C567.96,16.37 572.55,17.18 573.22,17.72C573.79,18.18 574.91,21.71 575.22,21.69C575.59,21.66 576.7,15.71 577.21,15.34C577.49,15.13 578.88,15.34 579.21,15.34C579.54,15.34 580.87,15.11 581.21,15.34C582.19,16.02 586.4,31.13 587.2,31.21C587.58,31.25 588.91,28.7 589.2,28.04C589.61,27.11 590.91,20.87 591.19,20.9C591.68,20.94 592.29,41.91 593.19,43.11C593.47,43.48 594.76,43.83 595.19,43.91C595.91,44.05 600.48,44.16 601.18,43.91C601.64,43.75 602.88,42.25 603.18,42.32C603.57,42.41 604.74,46.02 605.17,46.29C605.46,46.47 606.84,46.29 607.17,46.29C607.5,46.29 608.77,46.17 609.17,46.29C609.93,46.52 614.41,49.87 615.16,50.26C615.57,50.47 616.85,51.13 617.16,51.05C617.53,50.96 618.81,48.7 619.16,48.67C619.48,48.64 620.82,50 621.15,50.26C621.48,50.52 622.67,51.7 623.15,51.84C624.01,52.09 630.3,51.49 631.14,51.05C631.66,50.77 632.77,48.76 633.14,48.67C633.45,48.59 634.85,49.17 635.13,49.46C635.6,49.94 636.47,54.62 637.13,55.02C637.8,55.42 642.42,54.03 643.12,54.22C643.58,54.35 644.77,55.61 645.12,55.81C645.44,55.99 646.79,56.47 647.12,56.6C647.45,56.73 648.8,57.18 649.11,57.4C649.48,57.67 650.62,59.55 651.11,59.78C651.8,60.1 656.37,59.78 657.1,59.78C657.52,59.78 658.77,59.72 659.1,59.78C659.44,59.84 660.8,60.32 661.1,60.57C661.49,60.9 662.75,63.72 663.1,63.74C663.42,63.76 664.6,61.67 665.09,61.36C665.78,60.92 670.4,60.28 671.08,59.78C671.61,59.39 672.75,56.6 673.08,56.6C673.41,56.6 674.69,59.45 675.08,59.78C675.38,60.03 676.73,60.22 677.08,60.57C678.2,61.68 683.95,79.3 685.07,80.41C685.42,80.76 686.78,81.34 687.06,81.2C687.58,80.94 688.65,74.12 689.06,74.06C689.35,74.02 690.75,76.63 691.06,77.23C691.42,77.93 692.43,81.65 693.05,82C693.72,82.38 698.33,81.39 699.05,81.2C699.48,81.09 700.75,80.3 701.04,80.41C701.46,80.57 702.61,84.11 703.04,84.38C703.33,84.56 704.6,84.38 705.04,84.38C705.93,84.38 712.15,84.21 713.03,84.38C713.48,84.47 714.72,85.27 715.02,85.17C715.41,85.04 716.67,82.48 717.02,82C717.34,81.56 718.7,79.59 719.02,79.61C719.37,79.63 720.66,82.84 721.02,82.79C721.86,82.68 726.12,63.92 727.01,63.74Q727.36,63.67 729.01,66.13" style="vector-effect: none; fill: none; stroke: rgb(255, 73, 73); stroke-opacity: 1; stroke-width: 2px; opacity: 1;"/></g><g class="points"/><g class="text"/></g></g></g></g><g class="zerolinelayer-above"/><path class="xlines-above crisp" d="M55,540.5H790M55,327.9H790" style="fill: none; stroke-width: 1px; stroke: rgb(204, 204, 204); stroke-opacity: 1;"/><path class="ylines-above crisp" d="M55.5,328.4V540M789.5,328.4V540" style="fill: none; stroke-width: 1px; stroke: rgb(204, 204, 204); stroke-opacity: 1;"/><g class="overlines-above"/><g class="xaxislayer-above"><g class="x2tick"><text text-anchor="middle" x="0" y="555.4" transform="translate(153.87,0)" style="font-family: Arial, sans-serif; font-size: 12px; fill: rgb(51, 51, 51); fill-opacity: 1; white-space: pre;">Sep 2025</text></g><g class="x2tick"><text text-anchor="middle" x="0" y="555.4" style="font-family: Arial, sans-serif; font-size: 12px; fill: rgb(51, 51, 51); fill-opacity: 1; white-space: pre;" transform="translate(275.7,0)">Nov 2025</text></g><g class="x2tick"><text text-anchor="middle" x="0" y="555.4" style="font-family: Arial, sans-serif; font-size: 12px; fill: rgb(51, 51, 51); fill-opacity: 1; white-space: pre;" transform="translate(397.53,0)">Jan 2026</text></g><g class="x2tick"><text text-anchor="middle" x="0" y="555.4" style="font-family: Arial, sans-serif; font-size: 12px; fill: rgb(51, 51, 51); fill-opacity: 1; white-space: pre;" transform="translate(515.37,0)">Mar 2026</text></g><g class="x2tick"><text text-anchor="middle" x="0" y="555.4" style="font-family: Arial, sans-serif; font-size: 12px; fill: rgb(51, 51, 51); fill-opacity: 1; white-space: pre;" transform="translate(637.21,0)">May 2026</text></g><g class="x2tick"><text text-anchor="middle" x="0" y="555.4" style="font-family: Arial, sans-serif; font-size: 12px; fill: rgb(51, 51, 51); fill-opacity: 1; white-space: pre;" transform="translate(759.04,0)">Jul 2026</text></g></g><g class="yaxislayer-above"><path class="y2tick ticks crisp" d="M55,0h-6" transform="translate(0,538.9399999999999)" style="stroke: rgb(255, 255, 255); stroke-opacity: 1; stroke-width: 1px;"/><path class="y2tick ticks crisp" d="M55,0h-6" transform="translate(0,498.95)" style="stroke: rgb(255, 255, 255); stroke-opacity: 1; stroke-width: 1px;"/><path class="y2tick ticks crisp" d="M55,0h-6" transform="translate(0,458.96)" style="stroke: rgb(255, 255, 255); stroke-opacity: 1; stroke-width: 1px;"/><path class="y2tick ticks crisp" d="M55,0h-6" transform="translate(0,418.96)" style="stroke: rgb(255, 255, 255); stroke-opacity: 1; stroke-width: 1px;"/><path class="y2tick ticks crisp" d="M55,0h-6" transform="translate(0,378.96999999999997)" style="stroke: rgb(255, 255, 255); stroke-opacity: 1; stroke-width: 1px;"/><path class="y2tick ticks crisp" d="M55,0h-6" transform="translate(0,338.97999999999996)" style="stroke: rgb(255, 255, 255); stroke-opacity: 1; stroke-width: 1px;"/><g class="y2tick"><text text-anchor="end" x="46.6" y="4.199999999999999" transform="translate(0,538.9399999999999)" style="font-family: Arial, sans-serif; font-size: 12px; fill: rgb(51, 51, 51); fill-opacity: 1; white-space: pre;">0</text></g><g class="y2tick"><text text-anchor="end" x="46.6" y="4.199999999999999" style="font-family: Arial, sans-serif; font-size: 12px; fill: rgb(51, 51, 51); fill-opacity: 1; white-space: pre;" transform="translate(0,498.95)">20</text></g><g class="y2tick"><text text-anchor="end" x="46.6" y="4.199999999999999" style="font-family: Arial, sans-serif; font-size: 12px; fill: rgb(51, 51, 51); fill-opacity: 1; white-space: pre;" transform="translate(0,458.96)">40</text></g><g class="y2tick"><text text-anchor="end" x="46.6" y="4.199999999999999" style="font-family: Arial, sans-serif; font-size: 12px; fill: rgb(51, 51, 51); fill-opacity: 1; white-space: pre;" transform="translate(0,418.96)">60</text></g><g class="y2tick"><text text-anchor="end" x="46.6" y="4.199999999999999" style="font-family: Arial, sans-serif; font-size: 12px; fill: rgb(51, 51, 51); fill-opacity: 1; white-space: pre;" transform="translate(0,378.96999999999997)">80</text></g><g class="y2tick"><text text-anchor="end" x="46.6" y="4.199999999999999" style="font-family: Arial, sans-serif; font-size: 12px; fill: rgb(51, 51, 51); fill-opacity: 1; white-space: pre;" transform="translate(0,338.97999999999996)">100</text></g></g><g class="overaxes-above"/></g></g><g class="polarlayer"/><g class="smithlayer"/><g class="ternarylayer"/><g class="geolayer"/><g class="funnelarealayer"/><g class="pielayer"/><g class="iciclelayer"/><g class="treemaplayer"/><g class="sunburstlayer"/><g class="glimages"/><defs id="topdefs-be002c"><g class="clips"/></defs><g class="layer-above"><g class="imagelayer"/><g class="shapelayer"><g class="shape-group" data-index="0" clip-path="url(#clipbe002cy)"><path data-index="0" fill-rule="evenodd" d="M56,202.07999999999998L789,202.07999999999998" style="opacity: 1; stroke: rgb(136, 136, 136); stroke-opacity: 1; fill: rgb(0, 0, 0); fill-opacity: 0; stroke-dasharray: 3px, 3px; stroke-width: 1px;"/></g><g class="shape-group" data-index="1" clip-path="url(#clipbe002cy)"><path data-index="1" fill-rule="evenodd" d="M56,486.64L789,486.64" style="opacity: 1; stroke: rgb(204, 204, 204); stroke-opacity: 1; fill: rgb(0, 0, 0); fill-opacity: 0; stroke-width: 1px;"/></g><g class="shape-group" data-index="2" clip-path="url(#clipbe002cy2)"><path data-index="2" fill-rule="evenodd" d="M56,538.9399999999999L789,538.9399999999999" style="opacity: 1; stroke: rgb(204, 204, 204); stroke-opacity: 1; fill: rgb(0, 0, 0); fill-opacity: 0; stroke-width: 1px;"/></g></g></g><g class="infolayer"><g class="g-gtitle"/><g class="g-xtitle"/><g class="g-x2title"><text class="x2title" x="422.5" y="582.000390625" text-anchor="middle" style="opacity: 1; font-family: Arial, sans-serif; font-size: 13px; fill: rgb(51, 51, 51); fill-opacity: 1; white-space: pre;"><tspan style="font-weight:bold">Last 52 Weeks</tspan></text></g><g class="g-ytitle"/><g class="g-y2title"/><g class="annotation" data-index="0" style="opacity: 1;"><g class="annotation-text-g" transform="rotate(0,422.5,64.89999999999999)"><g class="cursor-pointer" transform="translate(401,54)"><rect class="bg" x="0.5" y="0.5" width="42" height="20" style="stroke-width: 1px; stroke: rgb(0, 0, 0); stroke-opacity: 0; fill: rgb(0, 0, 0); fill-opacity: 0;"/><text class="annotation-text" text-anchor="middle" x="21.5703125" y="16" style="font-family: Arial, sans-serif; font-size: 16px; fill: rgb(51, 51, 51); fill-opacity: 1; white-space: pre;"><tspan style="font-weight:bold">Price</tspan></text></g></g></g><g class="annotation" data-index="1" style="opacity: 1;"><g class="annotation-text-g" transform="rotate(0,422.5,313.3)"><g class="cursor-pointer" transform="translate(341,303)"><rect class="bg" x="0.5" y="0.5" width="163" height="20" style="stroke-width: 1px; stroke: rgb(0, 0, 0); stroke-opacity: 0; fill: rgb(0, 0, 0); fill-opacity: 0;"/><text class="annotation-text" text-anchor="middle" x="81.8984375" y="16" style="font-family: Arial, sans-serif; font-size: 16px; fill: rgb(51, 51, 51); fill-opacity: 1; white-space: pre;"><tspan style="font-weight:bold">21-Day RV Percentile</tspan></text></g></g></g><g class="annotation" data-index="2" style="opacity: 1;"><g class="annotation-text-g" transform="rotate(0,31.869,202.05)"><g class="cursor-pointer" transform="translate(13,191)"><rect class="bg" x="0.5" y="0.5" width="37" height="21" style="stroke-width: 1px; stroke: rgb(0, 0, 0); stroke-opacity: 0; fill: rgb(255, 255, 255); fill-opacity: 1;"/><text class="annotation-text" text-anchor="middle" x="19.015625" y="15" style="font-family: Arial, sans-serif; font-size: 12px; fill: rgb(51, 51, 51); fill-opacity: 1; white-space: pre;">79.83</text></g></g></g></g></svg>