<svg class="main-svg" xmlns="http://www.w3.org/2000/svg" xmlns:xlink="http://www.w3.org/1999/xlink" width="800" height="500" style="" viewBox="0 0 800 500"><rect x="0" y="0" width="800" height="500" style="fill: rgb(255, 255, 255); fill-opacity: 1;"/><defs id="defs-4dcdaa"><g class="clips"><clipPath id="clip4dcdaaxyplot" class="plotclip"><rect width="640" height="380"/></clipPath><clipPath class="axesclip" id="clip4dcdaax"><rect x="64" y="0" width="640" height="500"/></clipPath><clipPath class="axesclip" id="clip4dcdaay"><rect x="0" y="60" width="800" height="380"/></clipPath><clipPath class="axesclip" id="clip4dcdaaxy"><rect x="64" y="60" width="640" height="380"/></clipPath></g><g class="gradients"/><g class="patterns"/></defs><g class="bglayer"/><g class="layer-below"><g class="imagelayer"/><g class="shapelayer"/></g><g class="cartesianlayer"><g class="subplot xy"><g class="layer-subplot"><g class="shapelayer"/><g class="imagelayer"/></g><g class="minor-gridlayer"><g class="x"/><g class="y"/></g><g class="gridlayer"><g class="x"><path class="xgrid crisp" transform="translate(188.44,0)" d="M0,60v380" style="stroke: rgb(204, 204, 204); stroke-opacity: 1; stroke-width: 1px;"/><path class="xgrid crisp" transform="translate(315.43,0)" d="M0,60v380" style="stroke: rgb(204, 204, 204); stroke-opacity: 1; stroke-width: 1px;"/><path class="xgrid crisp" transform="translate(442.41,0)" d="M0,60v380" style="stroke: rgb(204, 204, 204); stroke-opacity: 1; stroke-width: 1px;"/><path class="xgrid crisp" transform="translate(569.4,0)" d="M0,60v380" style="stroke: rgb(204, 204, 204); stroke-opacity: 1; stroke-width: 1px;"/><path class="xgrid crisp" transform="translate(696.38,0)" d="M0,60v380" style="stroke: rgb(204, 204, 204); stroke-opacity: 1; stroke-width: 1px;"/></g><g class="y"><path class="ygrid crisp" transform="translate(0,410.34)" d="M64,0h640" style="stroke: rgb(204, 204, 204); stroke-opacity: 1; stroke-width: 1px;"/><path class="ygrid crisp" transform="translate(0,297.11)" d="M64,0h640" style="stroke: rgb(204, 204, 204); stroke-opacity: 1; stroke-width: 1px;"/><path class="ygrid crisp" transform="translate(0,240.5)" d="M64,0h640" style="stroke: rgb(204, 204, 204); stroke-opacity: 1; stroke-width: 1px;"/><path class="ygrid crisp" transform="translate(0,183.88)" d="M64,0h640" style="stroke: rgb(204, 204, 204); stroke-opacity: 1; stroke-width: 1px;"/><path class="ygrid crisp" transform="translate(0,127.27)" d="M64,0h640" style="stroke: rgb(204, 204, 204); stroke-opacity: 1; stroke-width: 1px;"/><path class="ygrid crisp" transform="translate(0,70.65)" d="M64,0h640" style="stroke: rgb(204, 204, 204); stroke-opacity: 1; stroke-width: 1px;"/></g></g><g class="zerolinelayer"><path class="yzl zl crisp" transform="translate(0,353.73)" d="M64,0h640" style="stroke: rgb(204, 204, 204); stroke-opacity: 1; stroke-width: 1px;"/></g><g class="layer-between"><g class="shapelayer"/><g class="imagelayer"/></g><path class="xlines-below"/><path class="ylines-below"/><g class="overlines-below"/><g class="xaxislayer-below"/><g class="yaxislayer-below"/><g class="overaxes-below"/><g class="overplot"><g class="xy" transform="translate(64,60)" clip-path="url(#clip4dcdaaxyplot)"><g class="scatterlayer mlayer"><g class="trace scatter trace011f08" style="stroke-miterlimit: 2; opacity: 1;"><g class="fills"/><g class="errorbars"/><g class="lines"><path class="js-line" d="M0,293.73L2.54,284.4L5.08,286.45L7.62,279.93L10.16,292.16L12.7,286.25L15.24,289.74L20.32,284.48L22.86,285.6L25.4,284.96L27.94,278.84L30.48,281.54L33.02,274.38L35.56,277.68L38.1,274.78L40.63,265.65L43.17,263.04L45.71,267.99L48.25,263.8L55.87,286.08L58.41,284.07L63.49,279.73L66.03,270.24L68.57,267.74L71.11,267.42L73.65,263.6L76.19,268.55L81.27,258.29L83.81,262.35L86.35,263.44L88.89,260.62L91.43,269.15L93.97,264.77L96.51,259.58L99.05,260.91L101.59,255.15L104.13,260.1L106.67,262.48L109.21,258.53L111.75,259.34L114.29,263.04L119.37,266.09L121.9,257.85L124.44,252.06L126.98,252.7L129.52,246.35L132.06,244.05L134.6,249.93L137.14,252.46L139.68,254.35L142.22,249.48L147.3,251.9L149.84,245.3L152.38,243.69L154.92,238.06L157.46,236.49L160,231.67L162.54,230.5L165.08,232.79L167.62,237.1L170.16,233.15L172.7,237.14L175.24,234.6L180.32,235.61L182.86,246.39L187.94,246.11L190.48,247.39L193.02,244.74L195.56,246.63L198.1,243.97L200.63,242.45L205.71,249.89L208.25,261.31L210.79,261.15L213.33,264.04L215.87,262.52L218.41,262.84L220.95,260.83L223.49,259.86L226.03,263.72L228.57,260.67L231.11,264.49L233.65,262.43L236.19,260.1L238.73,256.72L241.27,257.85L243.81,260.42L246.35,266.5L248.89,269.27L251.43,266.18L253.97,257.65L256.51,259.86L259.05,264.93L261.59,268.19L264.13,278.8L266.67,282.95L269.21,279.89L271.75,274.18L274.29,274.26L276.83,265.77L279.37,264.89L281.9,262.48L284.44,262.03L286.98,262.88L289.52,256.16L292.06,252.18L294.6,249.85L297.14,255.2L299.68,251.58L302.22,254.75L304.76,254.27L307.3,251.7L309.84,252.46L312.38,245.7L314.92,247.35L317.46,242.89L320,245.94L325.08,252.78L327.62,250.73L330.16,249.48L332.7,250.93L335.24,251.66L337.78,256.2L340.32,249.24L342.86,249.81L345.4,260.5L347.94,261.47L350.48,271.44L353.02,268.79L355.56,266.66L358.1,271.12L363.17,279.65L365.71,267.74L368.25,273.54L370.79,284.84L373.33,286.41L375.87,285.84L378.41,278.48L380.95,274.98L383.49,272.69L386.03,261.23L388.57,267.9L391.11,271.77L393.65,267.14L396.19,272.97L398.73,280.53L401.27,282.5L403.81,290.03L406.35,286.08L408.89,279.45L411.43,270.44L413.97,277.32L416.51,281.42L419.05,276.47L421.59,284.6L424.13,296.9L426.67,301.21L429.21,301.29L431.75,307.4L434.29,303.66L436.83,314.8L441.9,302.7L444.44,304.3L449.52,295.42L452.06,295.74L454.6,290.59L457.14,291.23L459.68,296.82L462.22,291.88L467.3,306.56L469.84,304.63L472.38,304.22L474.92,297.71L477.46,296.5L480,282.5L482.54,280.45L485.08,269.23L487.62,283.27L490.16,284.84L492.7,274.7L495.24,275.75L497.78,282.22L500.32,295.21L502.86,295.98L505.4,294.89L507.94,300.52L510.48,295.09L513.02,288.26L515.56,293.77L518.1,295.9L520.63,289.82L523.17,307.4L525.71,308.09L528.25,302.57L530.79,300.04L533.33,298.96L535.87,291.11L538.41,288.98L540.95,290.27L543.49,287.37L546.03,294.81L548.57,303.62L551.11,303.42L556.19,301.17L558.73,307.64L561.27,298.59L563.81,298.31L566.35,300.28L568.89,296.18L571.43,292.16L573.97,300.97L579.05,301.89L581.59,304.43L584.13,303.94L586.67,297.1L589.21,302.53L591.75,303.46L594.29,307.4L596.83,302.94L599.37,302.21L601.9,295.78L604.44,296.62L606.98,291.96L612.06,296.66L614.6,295.17L617.14,297.75L619.68,299.2L622.22,300.04L624.76,296.7L627.3,298.35L629.84,294.53L632.38,293.12L634.92,290.23" style="vector-effect: none; fill: none; stroke: rgb(255, 73, 73); stroke-opacity: 1; stroke-width: 2px; opacity: 1;"/></g><g class="points"/><g class="text"/></g><g class="trace scatter traceda1669" style="stroke-miterlimit: 2; opacity: 1;"><g class="fills"/><g class="errorbars"/><g class="lines"><path class="js-line" d="M0,293.73L2.54,290.95L5.08,292.09L7.62,289.55L10.16,293.06L12.7,281.04L15.24,274.99L17.78,278.62L20.32,269.48L22.86,269.6L25.4,272.72L27.94,280.49L30.48,282.25L33.02,285.45L35.56,285.29L38.1,291.11L40.63,288.77L43.17,293.26L45.71,292.83L48.25,293.61L50.79,291.15L53.33,292.95L55.87,299.47L58.41,301.11L60.95,299.58L66.03,291.46L68.57,298.65L71.11,299.04L73.65,300.72L76.19,296.26L78.73,294.7L81.27,293.45L83.81,301.93L86.35,300.75L88.89,307.67L91.43,308.88L93.97,302.12L96.51,304.42L99.05,309.85L101.59,310.28L104.13,317.89L106.67,317.7L109.21,315.04L111.75,320.35L114.29,319.38L116.83,313.72L119.37,318.05L124.44,313.76L126.98,315.59L129.52,314.58L132.06,310.28L134.6,310.2L137.14,306.96L139.68,307.39L142.22,304.85L144.76,303.8L147.3,305.99L149.84,297.71L152.38,298.8L154.92,296.81L157.46,315.4L160,334.76L162.54,339.8L165.08,344.17L167.62,333.36L170.16,342.26L172.7,336.68L177.78,339.6L180.32,332.89L182.86,324.26L185.4,330.51L187.94,325.7L190.48,333.67L193.02,331.64L195.56,330.74L198.1,334.53L200.63,340.89L203.17,349.52L205.71,345.5L210.79,353.74L213.33,346.09L215.87,350.07L218.41,342.88L220.95,338.55L223.49,336.44L226.03,329.84L228.57,332.07L231.11,338.04L233.65,334.84L236.19,332.03L238.73,332.54L241.27,336.4L243.81,337.85L246.35,336.56L248.89,339.06L251.43,335.35L253.97,338.86L256.51,339.45L259.05,332.69L261.59,329.22L264.13,331.4L266.67,329.37L269.21,324.65L274.29,327.27L276.83,315.59L279.37,316.61L281.9,298.45L284.44,296.58L286.98,284.59L289.52,283.42L292.06,284.24L294.6,309.31L297.14,325.47L302.22,322.07L304.76,320.98L307.3,322.58L309.84,321.25L312.38,313.44L314.92,315.2L317.46,311.57L320,310.01L322.54,309.81L325.08,316.88L327.62,309.54L330.16,319.85L332.7,321.57L335.24,317.62L337.78,313.09L340.32,313.87L342.86,314.42L345.4,318.29L347.94,322.03L350.48,318.99L353.02,322.39L355.56,316.33L358.1,306.57L360.63,303.49L363.17,306.38L365.71,313.91L373.33,325.55L375.87,327.38L378.41,327.38L380.95,330.47L386.03,335L388.57,327.07L391.11,331.6L393.65,329.18L396.19,333.36L398.73,330L403.81,328.24L406.35,323.79L408.89,329.84L411.43,326.33L413.97,324.57L416.51,326.88L419.05,320.71L421.59,327.03L424.13,328.94L426.67,335.23L431.75,332.26L434.29,328.2L436.83,333.28L439.37,332.03L441.9,330.74L444.44,324.88L449.52,328.59L452.06,332.07L454.6,332.22L457.14,329.22L459.68,323.05L462.22,323.09L464.76,320.2L467.3,329.06L469.84,333.28L472.38,335.58L474.92,340.66L477.46,339.1L480,335.93L482.54,335.78L485.08,332.58L487.62,336.64L490.16,346.83L492.7,346.16L495.24,349.29L497.78,349.29L500.32,352.45L502.86,352.14L505.4,352.21L507.94,351.04L510.48,348.39L513.02,335.54L518.1,337.42L520.63,341.95L523.17,340.66L525.71,340.31L528.25,338.71L530.79,338.43L533.33,340.35L535.87,344.09L538.41,344.76L540.95,343.51L543.49,342.41L546.03,338.67L548.57,348.43L551.11,347.84L553.65,342.73L556.19,342.88L558.73,339.64L561.27,344.72L563.81,345.89L566.35,350.11L568.89,347.06L571.43,350.54L573.97,347.8L576.51,348.19L579.05,345.19L581.59,347.84L584.13,346.63L586.67,343.82L589.21,342.22L591.75,347.88L594.29,350.03L596.83,349.17L599.37,352.49L601.9,353.31L604.44,354.95L606.98,361L609.52,358.38L612.06,357.56L614.6,355.57L617.14,350.3L619.68,348.86L622.22,348.97L624.76,355.26L627.3,350.03L629.84,350.54L632.38,352.61" style="vector-effect: none; fill: none; stroke: rgb(255, 121, 25); stroke-opacity: 1; stroke-width: 2px; opacity: 1;"/></g><g class="points"/><g class="text"/></g><g class="trace scatter tracea1140b" style="stroke-miterlimit: 2; opacity: 1;"><g class="fills"/><g class="errorbars"/><g class="lines"><path class="js-line" d="M0,293.73L2.54,289.97L5.08,295.6L7.62,300.29L10.16,291.55L12.7,284.84L15.24,283.85L17.78,275.9L20.32,270.52L22.86,284.49L25.4,283.26L27.94,278.81L30.48,277.43L33.02,283.65L35.56,275.21L38.1,277.38L40.63,268.69L43.17,264.64L45.71,253.72L48.25,254.76L50.79,269.92L53.33,264.64L55.87,255.11L58.41,265.08L60.95,263.21L63.49,258.96L66.03,260.94L68.57,257.63L71.11,266.47L73.65,266.22L76.19,268.98L78.73,254.86L81.27,248.74L83.81,248.49L86.35,249.33L88.89,252.69L91.43,253.72L93.97,254.76L96.51,245.82L101.59,208.59L104.13,208.09L106.67,176.73L109.21,127.89L111.75,108.78L114.29,164.68L116.83,145.92L119.37,104.04L121.9,89.32L124.44,115.05L126.98,101.67L129.52,101.13L132.06,102.02L134.6,91.69L137.14,141.57L139.68,120.73L142.22,130.76L144.76,110.21L147.3,84.73L149.84,68.73L154.92,82.36L157.46,25.96L160,21.67L162.54,19L165.08,110.56L167.62,93.47L170.16,99.89L172.7,87.5L175.24,126.02L177.78,125.97L180.32,109.18L182.86,162.71L185.4,134.26L187.94,133.97L193.02,103.45L195.56,110.61L198.1,100.88L200.63,83.3L203.17,48.98L205.71,57.92L208.25,73.37L210.79,51.25L213.33,71.74L215.87,107.25L218.41,108.58L220.95,105.57L223.49,92.48L226.03,72.19L228.57,77.92L231.11,77.18L236.19,40.19L238.73,44.58L241.27,91.55L243.81,100.98L246.35,99.74L248.89,113.13L251.43,138.86L253.97,137.77L256.51,145.38L259.05,121.67L261.59,113.77L264.13,102.61L269.21,129.67L271.75,125.92L274.29,141.23L276.83,132.19L281.9,157.62L284.44,178.02L286.98,201.23L289.52,197.57L292.06,198.51L294.6,212.04L297.14,215.25L299.68,229.43L302.22,221.62L304.76,234.91L307.3,227.4L309.84,233.58L312.38,238.12L314.92,237.58L317.46,238.27L320,228.93L322.54,213.72L325.08,220.83L327.62,224.14L330.16,190.91L332.7,182.56" style="vector-effect: none; fill: none; stroke: rgb(0, 73, 25); stroke-opacity: 1; stroke-width: 2px; opacity: 1;"/></g><g class="points"/><g class="text"/></g></g></g></g><g class="zerolinelayer-above"/><path class="xlines-above crisp" d="M63,440.5H705M63,59.5H705" style="fill: none; stroke-width: 1px; stroke: rgb(204, 204, 204); stroke-opacity: 1;"/><path class="ylines-above crisp" d="M63.5,60V440M704.5,60V440" style="fill: none; stroke-width: 1px; stroke: rgb(204, 204, 204); stroke-opacity: 1;"/><g class="overlines-above"/><g class="xaxislayer-above"><g class="xtick"><text text-anchor="middle" x="0" y="455.4" transform="translate(188.44,0)" style="font-family: Arial, sans-serif; font-size: 12px; fill: rgb(51, 51, 51); fill-opacity: 1; white-space: pre;">50</text></g><g class="xtick"><text text-anchor="middle" x="0" y="455.4" style="font-family: Arial, sans-serif; font-size: 12px; fill: rgb(51, 51, 51); fill-opacity: 1; white-space: pre;" transform="translate(315.43,0)">100</text></g><g class="xtick"><text text-anchor="middle" x="0" y="455.4" style="font-family: Arial, sans-serif; font-size: 12px; fill: rgb(51, 51, 51); fill-opacity: 1; white-space: pre;" transform="translate(442.41,0)">150</text></g><g class="xtick"><text text-anchor="middle" x="0" y="455.4" style="font-family: Arial, sans-serif; font-size: 12px; fill: rgb(51, 51, 51); fill-opacity: 1; white-space: pre;" transform="translate(569.4,0)">200</text></g><g class="xtick"><text text-anchor="middle" x="0" y="455.4" style="font-family: Arial, sans-serif; font-size: 12px; fill: rgb(51, 51, 51); fill-opacity: 1; white-space: pre;" transform="translate(696.38,0)">250</text></g></g><g class="yaxislayer-above"><path class="ytick ticks crisp" d="M63,0h-6" transform="translate(0,410.34)" style="stroke: rgb(255, 255, 255); stroke-opacity: 1; stroke-width: 1px;"/><path class="ytick ticks crisp" d="M63,0h-6" transform="translate(0,353.73)" style="stroke: rgb(255, 255, 255); stroke-opacity: 1; stroke-width: 1px;"/><path class="ytick ticks crisp" d="M63,0h-6" transform="translate(0,297.11)" style="stroke: rgb(255, 255, 255); stroke-opacity: 1; stroke-width: 1px;"/><path class="ytick ticks crisp" d="M63,0h-6" transform="translate(0,240.5)" style="stroke: rgb(255, 255, 255); stroke-opacity: 1; stroke-width: 1px;"/><path class="ytick ticks crisp" d="M63,0h-6" transform="translate(0,183.88)" style="stroke: rgb(255, 255, 255); stroke-opacity: 1; stroke-width: 1px;"/><path class="ytick ticks crisp" d="M63,0h-6" transform="translate(0,127.27)" style="stroke: rgb(255, 255, 255); stroke-opacity: 1; stroke-width: 1px;"/><path class="ytick ticks crisp" d="M63,0h-6" transform="translate(0,70.65)" style="stroke: rgb(255, 255, 255); stroke-opacity: 1; stroke-width: 1px;"/><g class="ytick"><text text-anchor="end" x="54.6" y="4.199999999999999" transform="translate(0,410.34)" style="font-family: Arial, sans-serif; font-size: 12px; fill: rgb(51, 51, 51); fill-opacity: 1; white-space: pre;">−20</text></g><g class="ytick"><text text-anchor="end" x="54.6" y="4.199999999999999" style="font-family: Arial, sans-serif; font-size: 12px; fill: rgb(51, 51, 51); fill-opacity: 1; white-space: pre;" transform="translate(0,353.73)">0</text></g><g class="ytick"><text text-anchor="end" x="54.6" y="4.199999999999999" style="font-family: Arial, sans-serif; font-size: 12px; fill: rgb(51, 51, 51); fill-opacity: 1; white-space: pre;" transform="translate(0,297.11)">20</text></g><g class="ytick"><text text-anchor="end" x="54.6" y="4.199999999999999" style="font-family: Arial, sans-serif; font-size: 12px; fill: rgb(51, 51, 51); fill-opacity: 1; white-space: pre;" transform="translate(0,240.5)">40</text></g><g class="ytick"><text text-anchor="end" x="54.6" y="4.199999999999999" style="font-family: Arial, sans-serif; font-size: 12px; fill: rgb(51, 51, 51); fill-opacity: 1; white-space: pre;" transform="translate(0,183.88)">60</text></g><g class="ytick"><text text-anchor="end" x="54.6" y="4.199999999999999" style="font-family: Arial, sans-serif; font-size: 12px; fill: rgb(51, 51, 51); fill-opacity: 1; white-space: pre;" transform="translate(0,127.27)">80</text></g><g class="ytick"><text text-anchor="end" x="54.6" y="4.199999999999999" style="font-family: Arial, sans-serif; font-size: 12px; fill: rgb(51, 51, 51); fill-opacity: 1; white-space: pre;" transform="translate(0,70.65)">100</text></g></g><g class="overaxes-above"/></g></g><g class="polarlayer"/><g class="smithlayer"/><g class="ternarylayer"/><g class="geolayer"/><g class="funnelarealayer"/><g class="pielayer"/><g class="iciclelayer"/><g class="treemaplayer"/><g class="sunburstlayer"/><g class="glimages"/><defs id="topdefs-4dcdaa"><g class="clips"/><clipPath id="legend4dcdaa"><rect width="73" height="67" x="0" y="0"/></clipPath></defs><g class="layer-above"><g class="imagelayer"/><g class="shapelayer"><g class="shape-group" data-index="0" clip-path="url(#clip4dcdaax)"><path data-index="0" fill-rule="evenodd" d="M396.7,440L396.7,60" style="opacity: 1; stroke: rgb(136, 136, 136); stroke-opacity: 1; fill: rgb(0, 0, 0); fill-opacity: 0; stroke-dasharray: 3px, 3px; stroke-width: 1px;"/></g><g class="shape-group" data-index="1" clip-path="url(#clip4dcdaax)"><path data-index="1" fill-rule="evenodd" d="M396.7,440L396.7,60" style="opacity: 1; stroke: rgb(136, 136, 136); stroke-opacity: 1; fill: rgb(0, 0, 0); fill-opacity: 0; stroke-dasharray: 3px, 3px; stroke-width: 1px;"/></g><g class="shape-group" data-index="2" clip-path="url(#clip4dcdaax)"><path data-index="2" fill-rule="evenodd" d="M396.7,440L396.7,60" style="opacity: 1; stroke: rgb(136, 136, 136); stroke-opacity: 1; fill: rgb(0, 0, 0); fill-opacity: 0; stroke-dasharray: 3px, 3px; stroke-width: 1px;"/></g></g></g><g class="infolayer"><g class="legend" pointer-events="all" transform="translate(716.8,60)"><rect class="bg" shape-rendering="crispEdges" style="stroke: rgb(68, 68, 68); stroke-opacity: 1; fill: rgb(255, 255, 255); fill-opacity: 1; stroke-width: 0px;" width="73" height="67" x="0" y="0"/><g class="scrollbox" transform="" clip-path="url(#legend4dcdaa)"><g class="groups"><g class="traces" transform="translate(0,14.5)" style="opacity: 1;"><text class="legendtext" text-anchor="start" x="40" y="4.680000000000001" style="font-family: Arial, sans-serif; font-size: 12px; fill: rgb(51, 51, 51); fill-opacity: 1; white-space: pre;">2024</text><g class="layers" style="opacity: 1;"><g class="legendfill"/><g class="legendlines"><path class="js-line" d="M5,0h30" style="fill: none; stroke: rgb(255, 73, 73); stroke-opacity: 1; stroke-width: 2px;"/></g><g class="legendsymbols"><g class="legendpoints"/></g></g><rect class="legendtoggle" x="0" y="-9.5" width="67.021484375" height="19" style="fill: rgb(0, 0, 0); fill-opacity: 0;"/></g><g class="traces" transform="translate(0,33.5)" style="opacity: 1;"><text class="legendtext" text-anchor="start" x="40" y="4.680000000000001" style="font-family: Arial, sans-serif; font-size: 12px; fill: rgb(51, 51, 51); fill-opacity: 1; white-space: pre;">2025</text><g class="layers" style="opacity: 1;"><g class="legendfill"/><g class="legendlines"><path class="js-line" d="M5,0h30" style="fill: none; stroke: rgb(255, 121, 25); stroke-opacity: 1; stroke-width: 2px;"/></g><g class="legendsymbols"><g class="legendpoints"/></g></g><rect class="legendtoggle" x="0" y="-9.5" width="67.021484375" height="19" style="fill: rgb(0, 0, 0); fill-opacity: 0;"/></g><g class="traces" transform="translate(0,52.5)" style="opacity: 1;"><text class="legendtext" text-anchor="start" x="40" y="4.680000000000001" style="font-family: Arial, sans-serif; font-size: 12px; fill: rgb(51, 51, 51); fill-opacity: 1; white-space: pre;">2026</text><g class="layers" style="opacity: 1;"><g class="legendfill"/><g class="legendlines"><path class="js-line" d="M5,0h30" style="fill: none; stroke: rgb(0, 73, 25); stroke-opacity: 1; stroke-width: 2px;"/></g><g class="legendsymbols"><g class="legendpoints"/></g></g><rect class="legendtoggle" x="0" y="-9.5" width="67.021484375" height="19" style="fill: rgb(0, 0, 0); fill-opacity: 0;"/></g></g></g><rect class="scrollbar" rx="20" ry="3" width="0" height="0" style="fill: rgb(128, 139, 164); fill-opacity: 1;" x="0" y="0"/></g><g class="g-gtitle"><text class="gtitle" x="400" y="30" text-anchor="middle" dy="0em" style="opacity: 1; font-family: Arial, sans-serif; font-size: 16px; fill: rgb(51, 51, 51); fill-opacity: 1; white-space: pre;"><tspan style="font-weight:bold">Seasonality (Normalized)</tspan></text></g><g class="g-xtitle"><text class="xtitle" x="384" y="482.000390625" text-anchor="middle" style="opacity: 1; font-family: Arial, sans-serif; font-size: 13px; fill: rgb(51, 51, 51); fill-opacity: 1; white-space: pre;"><tspan style="font-weight:bold">Trading Day of the Year</tspan></text></g><g class="g-ytitle"><text class="ytitle" transform="rotate(-90,15.190234375000003,250)" x="15.190234375000003" y="250" text-anchor="middle" style="opacity: 1; font-family: Arial, sans-serif; font-size: 13px; fill: rgb(51, 51, 51); fill-opacity: 1; white-space: pre;"><tspan style="font-weight:bold">Cumulative Return (%)</tspan></text></g><g class="annotation" data-index="0" style="opacity: 1;"><g class="annotation-text-g" transform="rotate(0,396.7,46.30000000000004)"><g class="cursor-pointer" transform="translate(379,38)"><rect class="bg" x="0.5" y="0.5" width="34" height="15" style="stroke-width: 1px; stroke: rgb(0, 0, 0); stroke-opacity: 0; fill: rgb(0, 0, 0); fill-opacity: 0;"/><text class="annotation-text" text-anchor="middle" x="17.6796875" y="12" style="font-family: Arial, sans-serif; font-size: 11px; fill: rgb(102, 102, 102); fill-opacity: 1; white-space: pre;">Today</text></g></g></g><g class="annotation" data-index="1" style="opacity: 1;"><g class="annotation-text-g" transform="rotate(0,396.7,46.30000000000004)"><g class="cursor-pointer" transform="translate(379,38)"><rect class="bg" x="0.5" y="0.5" width="34" height="15" style="stroke-width: 1px; stroke: rgb(0, 0, 0); stroke-opacity: 0; fill: rgb(0, 0, 0); fill-opacity: 0;"/><text class="annotation-text" text-anchor="middle" x="17.6796875" y="12" style="font-family: Arial, sans-serif; font-size: 11px; fill: rgb(102, 102, 102); fill-opacity: 1; white-space: pre;">Today</text></g></g></g><g class="annotation" data-index="2" style="opacity: 1;"><g class="annotation-text-g" transform="rotate(0,396.7,46.30000000000004)"><g class="cursor-pointer" transform="translate(379,38)"><rect class="bg" x="0.5" y="0.5" width="34" height="15" style="stroke-width: 1px; stroke: rgb(0, 0, 0); stroke-opacity: 0; fill: rgb(0, 0, 0); fill-opacity: 0;"/><text class="annotation-text" text-anchor="middle" x="17.6796875" y="12" style="font-family: Arial, sans-serif; font-size: 11px; fill: rgb(102, 102, 102); fill-opacity: 1; white-space: pre;">Today</text></g></g></g></g></svg>