<svg class="main-svg" xmlns="http://www.w3.org/2000/svg" xmlns:xlink="http://www.w3.org/1999/xlink" width="800" height="600" style="" viewBox="0 0 800 600"><rect x="0" y="0" width="800" height="600" style="fill: rgb(255, 255, 255); fill-opacity: 1;"/><defs id="defs-156649"><g class="clips"><clipPath id="clip156649xyplot" class="plotclip"><rect width="746" height="211.6"/></clipPath><clipPath id="clip156649x2y2plot" class="plotclip"><rect width="746" height="211.60000000000002"/></clipPath><clipPath class="axesclip" id="clip156649x"><rect x="43" y="0" width="746" height="600"/></clipPath><clipPath class="axesclip" id="clip156649y"><rect x="0" y="80" width="800" height="211.6"/></clipPath><clipPath class="axesclip" id="clip156649xy"><rect x="43" y="80" width="746" height="211.6"/></clipPath><clipPath class="axesclip" id="clip156649y2"><rect x="0" y="328.4" width="800" height="211.60000000000002"/></clipPath><clipPath class="axesclip" id="clip156649xy2"><rect x="43" y="328.4" width="746" height="211.60000000000002"/></clipPath><clipPath class="axesclip" id="clip156649x2"><rect x="43" y="0" width="746" height="600"/></clipPath><clipPath class="axesclip" id="clip156649x2y"><rect x="43" y="80" width="746" height="211.6"/></clipPath><clipPath class="axesclip" id="clip156649x2y2"><rect x="43" y="328.4" width="746" height="211.60000000000002"/></clipPath></g><g class="gradients"/><g class="patterns"/></defs><g class="bglayer"/><g class="layer-below"><g class="imagelayer"/><g class="shapelayer"/></g><g class="cartesianlayer"><g class="subplot xy"><g class="layer-subplot"><g class="shapelayer"/><g class="imagelayer"/></g><g class="minor-gridlayer"><g class="x"/><g class="y"/></g><g class="gridlayer"><g class="x"><path class="xgrid crisp" transform="translate(101.50999999999999,0)" d="M0,80v211.6" style="stroke: rgb(204, 204, 204); stroke-opacity: 1; stroke-width: 1px;"/><path class="xgrid crisp" transform="translate(228.98,0)" d="M0,80v211.6" style="stroke: rgb(204, 204, 204); stroke-opacity: 1; stroke-width: 1px;"/><path class="xgrid crisp" transform="translate(358.54,0)" d="M0,80v211.6" style="stroke: rgb(204, 204, 204); stroke-opacity: 1; stroke-width: 1px;"/><path class="xgrid crisp" transform="translate(486,0)" d="M0,80v211.6" style="stroke: rgb(204, 204, 204); stroke-opacity: 1; stroke-width: 1px;"/><path class="xgrid crisp" transform="translate(613.47,0)" d="M0,80v211.6" style="stroke: rgb(204, 204, 204); stroke-opacity: 1; stroke-width: 1px;"/><path class="xgrid crisp" transform="translate(736.76,0)" d="M0,80v211.6" style="stroke: rgb(204, 204, 204); stroke-opacity: 1; stroke-width: 1px;"/></g><g class="y"><path class="ygrid crisp" transform="translate(0,261.12)" d="M43,0h746" style="stroke: rgb(204, 204, 204); stroke-opacity: 1; stroke-width: 1px;"/><path class="ygrid crisp" transform="translate(0,183.06)" d="M43,0h746" style="stroke: rgb(204, 204, 204); stroke-opacity: 1; stroke-width: 1px;"/><path class="ygrid crisp" transform="translate(0,104.99)" d="M43,0h746" style="stroke: rgb(204, 204, 204); stroke-opacity: 1; stroke-width: 1px;"/></g></g><g class="zerolinelayer"/><g class="layer-between"><g class="shapelayer"/><g class="imagelayer"/></g><path class="xlines-below"/><path class="ylines-below"/><g class="overlines-below"/><g class="xaxislayer-below"/><g class="yaxislayer-below"/><g class="overaxes-below"/><g class="overplot"><g class="xy" transform="translate(43,80)" clip-path="url(#clip156649xyplot)"><g class="scatterlayer mlayer"><g class="trace scatter trace8c46ed" style="stroke-miterlimit: 2; opacity: 1;"><g class="fills"/><g class="errorbars"/><g class="lines"><path class="js-line" d="M0,173.03Q1.14,186.7 2.09,188.57C2.8,189.96 7.66,194.75 8.36,194.56C9.01,194.38 9.95,187.4 10.45,187.25C10.75,187.16 12.25,189.11 12.54,188.98C13.66,188.49 14.22,155.69 14.63,150.07C14.94,145.76 15.3,128.74 16.72,127.25C17.47,126.47 22.28,125.89 22.99,126.39C23.91,127.04 24.77,136.85 25.08,136.84C25.49,136.82 26.63,118.93 27.17,118.85C27.46,118.81 28.89,123.76 29.25,123.77C29.59,123.78 30.94,120.45 31.34,119.46C32.16,117.45 36.91,100.63 37.61,100.69C38.21,100.74 39.36,112.77 39.7,115.27C40.06,117.91 41.41,131.55 41.79,131.56C42.11,131.57 43.4,120.17 43.88,120.1C44.18,120.05 45.49,124.06 45.97,124.1C46.71,124.16 51.53,115.43 52.24,115.53C52.77,115.6 54.01,119.98 54.33,121.01C54.72,122.29 56.04,128.47 56.42,129.79C56.74,130.91 58,135.65 58.51,135.91C58.8,136.06 60.17,135.45 60.6,135.28C61.38,134.97 66.17,132.97 66.87,132.08C67.66,131.08 68.63,123.4 68.96,123.41C69.33,123.42 70.7,132.5 71.05,134.34C71.4,136.22 72.67,145.65 73.14,145.72C73.44,145.76 74.86,141.58 75.23,141.62C76.13,141.73 80.79,167.97 81.5,167.93C82.04,167.9 82.9,152.43 83.59,152.17C83.88,152.06 85.34,154 85.68,153.98C86.03,153.96 87.44,151.79 87.76,151.83C88.14,151.87 89.42,155.3 89.85,155.29C90.63,155.27 95.4,145.35 96.12,143.64C96.64,142.39 97.87,138.05 98.21,136.89C98.57,135.67 99.96,129.34 100.3,129.34C100.65,129.34 102.07,137.34 102.39,137.32C102.79,137.3 103.51,125.51 104.48,124.14C105.19,123.14 110.05,120.46 110.75,120.78C111.54,121.14 112.45,128.37 112.84,129.68C113.16,130.75 114.62,135.47 114.93,135.44C115.36,135.4 116.51,123.49 117.02,123.39C117.31,123.33 118.7,126.89 119.11,126.86C119.92,126.8 124.68,112.19 125.38,112.26C125.96,112.32 127.08,122.89 127.47,122.91C127.79,122.93 129.17,117.09 129.56,116.09C129.88,115.26 131.33,111.61 131.65,111.64C132.05,111.68 133.02,119.06 133.74,119.34C134.44,119.61 139.22,115.63 140.01,115.31C140.43,115.14 141.81,115.18 142.1,114.89C142.73,114.27 143.86,106.9 144.18,105.08C144.57,102.84 145.79,90.06 146.27,90.01C146.57,89.98 147.7,95.26 148.36,95.58C149.06,95.91 153.92,93.1 154.63,93.53C155.62,94.13 156,105.59 156.72,106.19C157.01,106.43 158.49,106.3 158.81,106.16C159.2,105.98 160.58,104.33 160.9,103.85C161.3,103.25 162.49,100.25 162.99,99.42C163.72,98.21 168.54,92.3 169.26,91.03C169.78,90.11 171.03,86.9 171.35,85.95C171.74,84.8 173.08,79.41 173.44,78.18C173.77,77.05 175.04,72.38 175.53,71.73C175.83,71.33 177.24,70.72 177.62,70.29C178.5,69.29 183.09,59.52 183.89,58.2C184.3,57.52 185.59,55.33 185.98,55.24C186.3,55.17 187.77,56.03 188.07,56.39C188.57,57 189.73,62.87 190.16,62.94C190.47,62.99 191.83,60.1 192.25,60.12C193.04,60.16 197.73,70.5 198.52,70.55C198.94,70.58 200.22,67.99 200.61,67.88C200.93,67.79 202.38,68.46 202.69,68.71C203.09,69.03 204.4,71.33 204.78,71.76C205.11,72.13 206.41,73.26 206.87,73.6C207.62,74.15 212.44,76.39 213.14,77.37C213.96,78.53 214.84,87.23 215.23,87.25C215.55,87.27 216.98,80.96 217.32,80.97C217.68,80.98 219.01,87.94 219.41,87.98C219.73,88.01 221.05,84.77 221.5,83.93C222.26,82.53 227.07,74.65 227.77,72.82C228.38,71.22 229.36,64.4 229.86,63.35C230.16,62.73 231.62,60.71 231.95,60.73C232.32,60.75 233.63,63.76 234.04,64.14C234.35,64.43 235.79,64.82 236.13,65.25C237.24,66.65 241.61,86.39 242.4,89.12C242.82,90.56 244.2,94.23 244.49,95.66C245.02,98.25 245.73,117.51 246.58,117.89C246.87,118.02 248.38,116.89 248.67,116.37C249.61,114.7 249.25,90.71 250.76,89.72C251.52,89.23 256.26,91.89 257.03,91.91C257.47,91.92 258.82,91.62 259.11,91.29C259.82,90.48 260.5,79.01 261.2,78.13C261.49,77.77 262.98,77.19 263.29,77.3C263.72,77.46 264.83,80.61 265.38,81.19C266.09,81.95 270.95,85.37 271.65,85.08C272.45,84.75 273.32,77.05 273.74,75.77C274.05,74.82 275.52,70.91 275.83,70.94C276.24,70.98 277.57,80.03 277.92,80.03C278.26,80.03 279.32,71.73 280.01,71.54C280.71,71.35 285.52,77.16 286.28,77.95C286.72,78.41 287.99,80.06 288.37,80.15C288.7,80.22 290.17,79.2 290.46,79.35C291,79.62 292.25,86.57 292.55,86.55C293.01,86.51 293.92,69.31 294.64,69.21C295.34,69.12 300.1,84.5 300.91,84.55C301.32,84.58 302.57,81.03 303,80.85C303.31,80.72 304.8,81.58 305.09,81.42C305.63,81.12 306.64,74.85 307.18,74.39C307.47,74.14 308.85,74.28 309.27,74.13C310.06,73.84 314.84,69.79 315.54,70.09C316.4,70.46 317.12,81.08 317.62,81.17C317.92,81.22 319.33,77.82 319.71,77.77C320.03,77.73 321.51,79.82 321.8,79.73C322.36,79.55 323.16,70.84 323.89,69.33C324.59,67.89 329.46,61.77 330.16,61.93C330.83,62.09 331.74,69.61 332.25,70.52C332.54,71.05 334.04,72.71 334.34,72.64C334.79,72.54 335.91,66.91 336.43,66.51C336.72,66.28 338.1,66.47 338.52,66.33C339.31,66.06 344.07,63.43 344.79,62.29C345.87,60.58 346.45,45.74 346.88,45.72C347.19,45.7 348.54,53.05 348.97,54.19C349.28,55.01 350.74,57.51 351.06,58.26C351.44,59.14 352.6,64.09 353.15,64.17C353.86,64.28 358.62,56.61 359.42,55.73C359.83,55.27 361.22,53.72 361.51,53.82C362.11,54.03 363.25,63.93 363.6,65.91C363.94,67.82 365.27,77.12 365.69,77.15C366,77.17 367.13,72.04 367.78,71.26C368.48,70.42 373.27,68.07 374.04,67.66C374.48,67.43 375.78,66.63 376.13,66.63C376.48,66.63 377.88,67.5 378.22,67.72C378.58,67.96 380,69.47 380.31,69.4C380.72,69.31 381.86,65.36 382.4,65.24C383.11,65.08 387.97,69.18 388.67,70.26C389.39,71.38 390.34,77.41 390.76,78.55C391.07,79.4 392.55,81.96 392.85,82.85C393.3,84.17 394.57,93.03 394.94,93.04C395.27,93.05 396.37,84.8 397.03,84.65C397.73,84.49 402.59,92.26 403.3,92.14C403.86,92.04 405.05,87.39 405.39,86.41C405.75,85.39 407.13,81.14 407.48,80.09C407.83,79.04 409.21,73.82 409.57,73.81C409.91,73.8 411.01,78.44 411.66,79.03C412.36,79.67 417.23,80.24 417.93,80.93C418.64,81.63 419.54,87.34 420.02,87.48C420.32,87.57 421.75,86.03 422.11,85.78C422.45,85.55 423.86,84.82 424.2,84.59C424.56,84.35 425.82,83.2 426.29,82.93C427.03,82.5 431.79,80.79 432.55,80.46C433,80.27 434.35,79.35 434.64,79.49C435.19,79.75 436.35,86.09 436.73,87.28C437.06,88.31 438.45,92.09 438.82,92.97C439.15,93.76 440.32,96.8 440.91,97.36C441.61,98.03 446.48,99.23 447.18,99.96C447.85,100.66 448.81,105.7 449.27,105.84C449.57,105.93 451.07,104.7 451.36,104.25C451.9,103.43 452.99,96.75 453.45,95.7C453.75,95.01 455,92.75 455.54,92.54C456.25,92.26 461.11,94.42 461.81,94.11C462.39,93.85 463.5,90.67 463.9,90.18C464.21,89.8 465.69,88.92 465.99,88.49C466.46,87.81 467.63,82.29 468.08,82.19C468.38,82.12 469.7,83.96 470.17,84.36C470.91,85 475.68,88.17 476.44,88.74C476.89,89.08 478.23,89.99 478.53,90.43C479.01,91.14 480.13,96.52 480.62,97.2C480.92,97.61 482.37,98.38 482.71,98.66C483.07,98.97 484.3,100.62 484.8,100.79C485.53,101.03 490.36,100.45 491.06,99.82C491.85,99.12 492.73,93.12 493.15,92.07C493.46,91.3 494.8,88.51 495.24,88.22C495.54,88.02 496.98,88.09 497.33,88.06C497.68,88.03 498.98,87.98 499.42,87.89C500.19,87.74 504.96,86.34 505.69,85.88C506.18,85.57 507.48,84.19 507.78,83.67C508.25,82.84 509.47,76.38 509.87,76.34C510.18,76.31 511.51,80.21 511.96,80.5C512.26,80.69 513.61,80.51 514.05,80.55C514.82,80.62 519.58,81.31 520.32,81.6C520.79,81.78 522.12,83.11 522.41,82.99C523.01,82.74 524.11,74.1 524.5,72.57C524.82,71.33 526.06,66.38 526.59,65.9C526.88,65.64 528.24,65.6 528.68,65.49C529.45,65.3 534.19,63.55 534.95,63.6C535.4,63.63 536.69,64.37 537.04,64.53C537.39,64.69 538.81,65.26 539.13,65.52C539.52,65.85 540.85,67.97 541.22,68.38C541.55,68.75 542.89,70.33 543.31,70.3C544.1,70.23 548.86,63.5 549.57,62.26C550.1,61.34 551.23,57.13 551.66,57.04C551.97,56.97 553.31,58.78 553.75,59.05C554.3,59.39 557.15,60.4 557.93,60.53C558.86,60.68 563.5,60.06 564.2,60.47C564.79,60.82 565.87,63.91 566.29,64.33C566.6,64.64 567.98,65.22 568.38,65.48C568.97,65.86 571.74,68.39 572.56,68.65C573.46,68.94 578.13,67.99 578.83,68.44C579.49,68.87 580.5,72.94 580.92,73.6C581.23,74.09 582.66,75.48 583.01,75.86C583.36,76.24 584.77,77.7 585.1,78.14C585.48,78.65 586.67,81.59 587.19,81.69C587.91,81.83 592.75,76.85 593.46,77C593.99,77.11 595.11,80.57 595.55,80.79C595.86,80.94 597.34,80.33 597.64,80.51C598.14,80.81 599.28,85.51 599.73,86.13C600.03,86.55 601.4,87.84 601.82,87.8C602.62,87.72 607.38,81.81 608.08,80.29C608.87,78.57 609.75,67.99 610.17,67.96C610.48,67.94 611.95,74.41 612.26,74.39C612.67,74.36 614,65.07 614.35,63.25C614.69,61.49 615.76,54.51 616.44,52.89C617.14,51.23 621.99,45.64 622.71,43.6C623.78,40.56 624.38,18.82 624.8,18.8C625.11,18.79 626.31,31.98 626.89,32.13C627.18,32.21 628.69,29.4 628.98,29.48C629.67,29.68 630.15,45.91 631.07,48.42C631.78,50.34 636.6,57.71 637.34,57.66C637.82,57.63 639.02,53.45 639.43,53.36C639.74,53.29 641.21,54.69 641.52,55.1C641.94,55.66 643.28,59.76 643.61,59.75C643.98,59.74 645.24,55.12 645.7,53.92C646.45,51.96 651.12,38.61 651.97,38.51C652.36,38.46 653.73,40.85 654.06,41.36C654.43,41.92 655.72,44.74 656.15,45.02C656.46,45.22 657.89,45.18 658.24,45.2C658.59,45.22 659.89,45.2 660.32,45.31C661.1,45.51 665.82,48.21 666.59,48.26C667.03,48.29 668.39,47.4 668.68,47.57C669.34,47.96 670.16,57.92 670.77,58.88C671.06,59.33 672.52,60.37 672.86,60.36C673.21,60.35 674.47,58.82 674.95,58.64C675.68,58.37 680.49,58.27 681.22,58.55C681.71,58.74 683.01,60.57 683.31,60.5C683.76,60.39 684.96,54.71 685.4,54.61C685.7,54.54 687.15,56.64 687.49,56.63C687.84,56.62 689.22,54.32 689.58,54.4C690.52,54.61 695.14,70.92 695.85,73.74C696.39,75.87 697.41,85.04 697.94,85.16C698.23,85.23 699.7,82.22 700.03,82.24C700.4,82.26 701.71,85.94 702.12,86.03C702.43,86.1 703.75,84.8 704.21,84.54C704.96,84.12 709.77,81.61 710.48,81.86C711.05,82.06 712.26,84.95 712.57,85.7C712.97,86.66 714.33,91.35 714.66,92.57C715.03,93.93 716.44,99.59 716.75,101.24C717.16,103.37 718.14,115.97 718.83,116.07C719.53,116.17 724.35,104.1 725.1,102.32C725.56,101.21 726.89,96.8 727.19,96.83C727.65,96.88 728.96,110.55 729.28,110.54C729.68,110.53 730.64,89.45 731.37,89.23C731.66,89.14 733,91.78 733.46,91.8C734.21,91.83 738.92,85.55 739.73,85.39Q740.14,85.31 741.82,86.31" style="vector-effect: none; fill: none; stroke: rgb(0, 73, 25); stroke-opacity: 1; stroke-width: 2px; opacity: 1;"/></g><g class="points"/><g class="text"/></g></g></g></g><g class="zerolinelayer-above"/><path class="xlines-above crisp" d="M42,292.1H790M42,79.5H790" style="fill: none; stroke-width: 1px; stroke: rgb(204, 204, 204); stroke-opacity: 1;"/><path class="ylines-above crisp" d="M42.5,80V291.6M789.5,80V291.6" style="fill: none; stroke-width: 1px; stroke: rgb(204, 204, 204); stroke-opacity: 1;"/><g class="overlines-above"/><g class="xaxislayer-above"/><g class="yaxislayer-above"><path class="ytick ticks crisp" d="M42,0h-6" transform="translate(0,261.12)" style="stroke: rgb(255, 255, 255); stroke-opacity: 1; stroke-width: 1px;"/><path class="ytick ticks crisp" d="M42,0h-6" transform="translate(0,183.06)" style="stroke: rgb(255, 255, 255); stroke-opacity: 1; stroke-width: 1px;"/><path class="ytick ticks crisp" d="M42,0h-6" transform="translate(0,104.99)" style="stroke: rgb(255, 255, 255); stroke-opacity: 1; stroke-width: 1px;"/><g class="ytick"><text text-anchor="end" x="33.6" y="4.199999999999999" transform="translate(0,261.12)" style="font-family: Arial, sans-serif; font-size: 12px; fill: rgb(51, 51, 51); fill-opacity: 1; white-space: pre;">1.10</text></g><g class="ytick"><text text-anchor="end" x="33.6" y="4.199999999999999" style="font-family: Arial, sans-serif; font-size: 12px; fill: rgb(51, 51, 51); fill-opacity: 1; white-space: pre;" transform="translate(0,183.06)">1.15</text></g><g class="ytick"><text text-anchor="end" x="33.6" y="4.199999999999999" style="font-family: Arial, sans-serif; font-size: 12px; fill: rgb(51, 51, 51); fill-opacity: 1; white-space: pre;" transform="translate(0,104.99)">1.20</text></g></g><g class="overaxes-above"/></g><g class="subplot x2y2"><g class="layer-subplot"><g class="shapelayer"/><g class="imagelayer"/></g><g class="minor-gridlayer"><g class="x2"/><g class="y2"/></g><g class="gridlayer"><g class="x2"><path class="x2grid crisp" transform="translate(101.50999999999999,0)" d="M0,328.4v211.60000000000002" style="stroke: rgb(204, 204, 204); stroke-opacity: 1; stroke-width: 1px;"/><path class="x2grid crisp" transform="translate(228.98,0)" d="M0,328.4v211.60000000000002" style="stroke: rgb(204, 204, 204); stroke-opacity: 1; stroke-width: 1px;"/><path class="x2grid crisp" transform="translate(358.54,0)" d="M0,328.4v211.60000000000002" style="stroke: rgb(204, 204, 204); stroke-opacity: 1; stroke-width: 1px;"/><path class="x2grid crisp" transform="translate(486,0)" d="M0,328.4v211.60000000000002" style="stroke: rgb(204, 204, 204); stroke-opacity: 1; stroke-width: 1px;"/><path class="x2grid crisp" transform="translate(613.47,0)" d="M0,328.4v211.60000000000002" style="stroke: rgb(204, 204, 204); stroke-opacity: 1; stroke-width: 1px;"/><path class="x2grid crisp" transform="translate(736.76,0)" d="M0,328.4v211.60000000000002" style="stroke: rgb(204, 204, 204); stroke-opacity: 1; stroke-width: 1px;"/></g><g class="y2"><path class="y2grid crisp" transform="translate(0,491.93999999999994)" d="M43,0h746" style="stroke: rgb(204, 204, 204); stroke-opacity: 1; stroke-width: 1px;"/><path class="y2grid crisp" transform="translate(0,453.7)" d="M43,0h746" style="stroke: rgb(204, 204, 204); stroke-opacity: 1; stroke-width: 1px;"/><path class="y2grid crisp" transform="translate(0,415.46)" d="M43,0h746" style="stroke: rgb(204, 204, 204); stroke-opacity: 1; stroke-width: 1px;"/><path class="y2grid crisp" transform="translate(0,377.21999999999997)" d="M43,0h746" style="stroke: rgb(204, 204, 204); stroke-opacity: 1; stroke-width: 1px;"/><path class="y2grid crisp" transform="translate(0,338.97999999999996)" d="M43,0h746" style="stroke: rgb(204, 204, 204); stroke-opacity: 1; stroke-width: 1px;"/></g></g><g class="zerolinelayer"><path class="y2zl zl crisp" transform="translate(0,530.18)" d="M43,0h746" style="stroke: rgb(255, 255, 255); stroke-opacity: 1; stroke-width: 2px;"/></g><g class="layer-between"><g class="shapelayer"/><g class="imagelayer"/></g><path class="xlines-below"/><path class="ylines-below"/><g class="overlines-below"/><g class="xaxislayer-below"/><g class="yaxislayer-below"/><g class="overaxes-below"/><g class="overplot"><g class="x2y2" transform="translate(43,328.4)" clip-path="url(#clip156649x2y2plot)"><g class="scatterlayer mlayer"><g class="trace scatter tracec109c9" style="stroke-miterlimit: 2; opacity: 1;"><g class="fills"/><g class="errorbars"/><g class="lines"><path class="js-line" d="M0,43.21Q1.43,38.23 2.09,37.89C2.79,37.53 7.64,39.63 8.36,39.41C8.86,39.26 10.15,37.08 10.45,37.14C10.89,37.23 12.25,43.25 12.54,43.21C13.19,43.12 13.46,11.68 14.63,10.58C14.93,10.3 16.28,10.55 16.72,10.58C17.49,10.63 22.23,11.43 22.99,11.34C23.44,11.29 24.73,10.64 25.08,10.58C25.42,10.52 26.83,10.52 27.17,10.58C27.52,10.64 28.9,11.21 29.25,11.34C29.6,11.47 30.89,12.08 31.34,12.1C32.1,12.14 36.84,10.67 37.61,10.58C38.05,10.53 39.35,10.58 39.7,10.58C40.05,10.58 41.44,10.58 41.79,10.58C42.14,10.58 43.54,10.52 43.88,10.58C44.23,10.64 45.52,11.29 45.97,11.34C46.73,11.43 51.47,10.63 52.24,10.58C52.68,10.55 53.98,10.58 54.33,10.58C54.68,10.58 56.08,10.52 56.42,10.58C56.77,10.64 58.22,11.02 58.51,11.34C59.08,11.97 59.82,18.73 60.6,19.68C61.3,20.54 66.09,22.54 66.87,22.72C67.3,22.82 68.62,22.78 68.96,22.72C69.31,22.66 70.71,22.14 71.05,21.96C71.41,21.77 72.85,20.31 73.14,20.44C73.94,20.8 74.36,39.99 75.23,40.17C75.93,40.31 80.68,29.94 81.5,28.79C81.9,28.23 83.21,26.6 83.59,26.51C83.91,26.43 85.39,26.91 85.68,27.27C86.44,28.21 87,41.51 87.76,42.45C88.05,42.81 89.47,43.34 89.85,43.21C90.72,42.91 95.42,33.18 96.12,33.34C97,33.54 97.57,49.83 98.21,51.55C98.5,52.32 100,53.91 100.3,54.59C100.77,55.67 101.8,63.37 102.39,63.69C102.68,63.85 104.03,62.95 104.48,62.93C105.24,62.89 110.01,64.6 110.75,64.45C111.22,64.36 112.47,63.05 112.84,62.93C113.17,62.82 114.62,63.09 114.93,62.93C115.34,62.71 116.63,59.97 117.02,59.9C117.34,59.84 118.7,61.47 119.11,61.41C119.93,61.29 124.6,54.01 125.38,53.07C125.81,52.56 127.09,50.88 127.47,50.79C127.79,50.71 129.26,51.26 129.56,51.55C130.04,52.02 131.17,56.39 131.65,56.86C131.95,57.15 133.29,57.51 133.74,57.62C134.5,57.8 139.23,57.54 140.01,58.38C141.95,60.46 141.57,92.55 142.1,97.07C142.39,99.54 143.85,108.46 144.18,108.46C144.54,108.45 145.71,96.22 146.27,94.8C146.56,94.07 147.83,91.93 148.36,91.76C149.07,91.53 153.92,94.27 154.63,94.04C155.16,93.87 156.42,90.95 156.72,91C157.18,91.08 158.42,98.13 158.81,99.35C159.13,100.35 160.5,103.92 160.9,104.66C161.22,105.26 162.52,107.11 162.99,107.7C163.73,108.63 168.47,114.45 169.26,114.53C169.68,114.57 171.04,112.93 171.35,113.01C171.78,113.12 173.01,117.45 173.44,117.56C173.75,117.64 175.24,115.93 175.53,116.04C176.1,116.26 176.82,125.6 177.62,125.91C178.32,126.18 183.19,121.06 183.89,121.35C184.78,121.71 185.53,131.9 185.98,133.49C186.28,134.57 187.59,138.33 188.07,138.8C188.37,139.09 189.82,139.38 190.16,139.56C190.52,139.75 191.79,141.01 192.25,141.08C193,141.19 197.76,138.8 198.52,138.8C198.96,138.8 200.26,139.5 200.61,139.56C200.95,139.62 202.4,139.34 202.69,139.56C203.23,139.96 204.49,144.79 204.78,146.39C205.42,149.94 205.14,178.71 206.87,181.29C207.64,182.44 212.43,184.71 213.14,184.33C214.15,183.8 214.9,170.66 215.23,170.67C215.61,170.68 216.84,188.84 217.32,188.88C217.62,188.91 219.01,183 219.41,182.05C219.72,181.31 221.07,179.07 221.5,178.26C222.27,176.81 226.94,167.31 227.77,166.12C228.17,165.55 229.54,163.8 229.86,163.84C230.24,163.89 231.64,166.9 231.95,167.64C232.35,168.59 233.69,173.32 234.04,174.46C234.39,175.6 235.78,181.32 236.13,181.29C237.14,181.19 241.48,122.92 242.4,122.87C242.77,122.85 244.2,132.01 244.49,131.98C245.14,131.92 245.15,86.3 246.58,84.94C246.88,84.65 248.38,85.21 248.67,84.94C249.78,83.91 249.1,56.71 250.76,55.34C251.53,54.71 256.33,55.52 257.03,56.1C257.77,56.72 258.78,62.94 259.11,62.93C259.48,62.92 260.59,54.32 261.2,53.83C261.49,53.6 262.95,53.89 263.29,53.83C263.64,53.77 264.93,53.18 265.38,53.07C266.14,52.89 270.91,52.6 271.65,52.31C272.12,52.12 273.42,50.73 273.74,50.79C274.13,50.86 275.44,53.76 275.83,53.83C276.15,53.89 277.56,52.5 277.92,52.31C278.26,52.13 279.56,51.68 280.01,51.55C280.77,51.32 285.57,49.58 286.28,50.03C287.2,50.62 287.96,59.15 288.37,60.66C288.68,61.82 290.07,66.7 290.46,66.73C290.78,66.76 292.26,63.86 292.55,62.93C293.18,60.91 293.84,45.51 294.64,42.45C295.34,39.78 300.18,27.9 300.91,28.03C302.09,28.24 301.82,66.82 303,69C303.3,69.55 304.8,70.01 305.09,70.52C305.97,72.07 306.23,92.8 307.18,94.04C307.47,94.42 308.94,94.39 309.27,94.8C310.89,96.85 314.52,149.32 315.54,149.43C315.89,149.47 317.11,143.73 317.62,143.36C317.91,143.15 319.42,143.12 319.71,143.36C320.39,143.93 321.38,154.71 321.8,154.74C322.11,154.76 323.24,149.48 323.89,148.67C324.59,147.81 329.46,145.66 330.16,144.87C330.74,144.22 331.92,140.3 332.25,140.32C332.62,140.34 333.82,146.02 334.34,146.39C334.63,146.6 336.14,146.17 336.43,146.39C336.99,146.82 337.88,152.82 338.52,153.98C339.22,155.24 344.07,161.05 344.79,160.81C345.86,160.45 346.44,143.11 346.88,140.32C347.19,138.37 348.35,131.17 348.97,130.46C349.26,130.13 350.74,129.62 351.06,129.7C351.44,129.79 352.8,131.33 353.15,131.98C354.17,133.87 358.71,153.34 359.42,157.01C359.97,159.84 361.07,172.15 361.51,172.19C361.81,172.21 363.27,166.56 363.6,165.36C363.97,164.04 365.12,157.31 365.69,157.01C365.98,156.86 367.33,157.69 367.78,157.77C368.54,157.9 373.3,157.53 374.04,157.77C374.51,157.92 375.84,158.84 376.13,159.29C376.72,160.22 377.58,169.17 378.22,169.91C378.51,170.25 379.97,170.72 380.31,170.67C380.67,170.62 381.99,169.1 382.4,169.15C383.2,169.25 387.82,176.34 388.67,176.74C389.06,176.92 390.46,176.55 390.76,176.74C391.22,177.04 392.53,181.32 392.85,181.29C393.25,181.26 394.56,174.85 394.94,173.71C395.26,172.74 396.38,169.02 397.03,168.39C397.73,167.71 402.55,166.52 403.3,166.12C403.76,165.87 405.1,164.47 405.39,164.6C406.24,164.98 406.56,185.41 407.48,186.6C407.77,186.98 409.22,187.3 409.57,187.36C409.91,187.42 411.22,187.31 411.66,187.36C412.43,187.45 417.21,188.45 417.93,188.88C418.43,189.18 419.64,190.9 420.02,191.16C420.34,191.38 421.82,191.61 422.11,191.92C422.64,192.47 423.74,197.94 424.2,198.74C424.5,199.27 425.78,200.8 426.29,201.02C427.01,201.34 431.79,201.02 432.55,201.02C432.99,201.02 434.32,201.16 434.64,201.02C435.03,200.85 436.35,198.99 436.73,198.74C437.05,198.52 438.47,198.12 438.82,197.99C439.17,197.86 440.46,197.31 440.91,197.23C441.67,197.1 446.44,197.47 447.18,197.23C447.65,197.08 448.95,195.65 449.27,195.71C449.65,195.78 451.01,198.74 451.36,198.74C451.71,198.74 453.12,195.68 453.45,195.71C453.83,195.74 454.92,199.81 455.54,200.26C456.24,200.77 461.04,200.97 461.81,201.02C462.25,201.05 463.55,201.02 463.9,201.02C464.25,201.02 465.64,201.02 465.99,201.02C466.34,201.02 467.73,201.02 468.08,201.02C468.43,201.02 469.73,201.02 470.17,201.02C470.93,201.02 475.68,201.02 476.44,201.02C476.88,201.02 478.2,201.13 478.53,201.02C478.9,200.9 480.25,199.62 480.62,199.5C480.95,199.39 482.38,199.61 482.71,199.5C483.08,199.38 484.33,198.14 484.8,197.99C485.54,197.75 490.36,198.41 491.06,197.99C491.64,197.64 492.72,194.56 493.15,194.19C493.46,193.93 494.92,193.35 495.24,193.43C495.62,193.52 497.02,195.21 497.33,195.71C497.75,196.38 498.75,200.57 499.42,201.02C500.12,201.49 504.93,201.02 505.69,201.02C506.13,201.02 507.46,201.16 507.78,201.02C508.17,200.85 509.49,198.99 509.87,198.74C510.19,198.52 511.65,197.89 511.96,197.99C512.36,198.12 513.51,200.73 514.05,201.02C514.76,201.39 519.56,201.02 520.32,201.02C520.76,201.02 522.12,201.25 522.41,201.02C523.02,200.53 524.1,193.22 524.5,191.92C524.82,190.9 526.21,186.62 526.59,186.6C526.92,186.58 528.1,190.01 528.68,190.4C529.38,190.88 534.25,190.65 534.95,191.16C535.57,191.61 536.58,195.41 537.04,195.71C537.34,195.9 538.82,195.55 539.13,195.71C539.54,195.93 540.82,198.61 541.22,198.74C541.53,198.84 542.94,198.31 543.31,197.99C544.23,197.19 548.77,187.18 549.57,185.85C549.98,185.16 551.37,182.74 551.66,182.81C552.21,182.93 552.87,194.64 553.75,195.71C554.26,196.33 557.15,197.09 557.93,197.23C558.86,197.39 563.5,197.65 564.2,197.23C564.78,196.88 565.86,193.59 566.29,193.43C566.6,193.31 567.98,194.22 568.38,194.19C568.97,194.15 571.84,191.8 572.56,191.92C573.56,192.09 578.01,198.54 578.83,198.74C579.23,198.84 580.57,198.12 580.92,197.99C581.27,197.86 582.66,197.36 583.01,197.23C583.36,197.1 584.78,196.69 585.1,196.47C585.48,196.21 586.75,194.19 587.19,194.19C587.95,194.19 592.63,200.65 593.46,201.02C593.86,201.19 595.2,201.02 595.55,201.02C595.9,201.02 597.31,201.13 597.64,201.02C598.01,200.9 599.38,199.75 599.73,199.5C600.08,199.25 601.36,198.26 601.82,197.99C602.57,197.54 607.32,196.07 608.08,194.95C609.62,192.68 609.28,168.18 610.17,166.12C610.46,165.45 611.89,164.17 612.26,163.84C612.59,163.54 614.05,162.72 614.35,162.33C614.8,161.75 615.84,157.79 616.44,157.01C617.14,156.1 621.93,153.92 622.71,152.46C624.64,148.87 624.26,110.9 624.8,105.42C625.09,102.45 626.15,92.4 626.89,91.76C627.18,91.51 628.69,92.01 628.98,91.76C629.7,91.15 630.04,79.75 631.07,78.87C631.79,78.26 636.58,78.87 637.34,78.87C637.78,78.87 639.1,78.76 639.43,78.87C639.8,78.99 641.16,80.33 641.52,80.38C641.86,80.43 643.29,79.84 643.61,79.62C643.99,79.37 645.21,77.71 645.7,77.35C646.43,76.81 651.2,74.35 651.97,74.31C652.41,74.29 653.71,74.94 654.06,75.07C654.41,75.2 655.8,75.7 656.15,75.83C656.5,75.96 657.9,76.41 658.24,76.59C658.6,76.78 659.85,77.99 660.32,78.11C661.06,78.3 665.89,76.99 666.59,77.35C667.17,77.65 668.25,80.77 668.68,81.14C668.99,81.4 670.42,81.77 670.77,81.9C671.12,82.03 672.57,82.35 672.86,82.66C673.39,83.21 674.23,88.73 674.95,89.49C675.65,90.22 680.49,91.27 681.22,91.76C681.72,92.09 683.02,93.36 683.31,94.04C684.25,96.23 684.93,121.79 685.4,125.91C685.7,128.55 686.77,138.19 687.49,138.8C687.78,139.05 689.15,138.88 689.58,138.8C690.35,138.66 695.14,137.13 695.85,136.53C696.42,136.04 697.51,132.89 697.94,132.73C698.25,132.61 699.71,133.57 700.03,133.49C700.41,133.4 701.77,131.22 702.12,131.22C702.47,131.22 703.71,133.16 704.21,133.49C704.94,133.97 709.76,134.9 710.48,135.77C711.51,137.03 712.05,149.34 712.57,149.43C712.86,149.48 714.28,146.16 714.66,145.63C714.98,145.18 716.46,144.01 716.75,143.36C717.54,141.59 718.06,124.1 718.83,120.6C719.53,117.45 724.24,104.82 725.1,103.14C725.48,102.39 726.9,100.84 727.19,100.11C727.74,98.74 728.92,89.29 729.28,87.21C729.62,85.25 730.76,76.8 731.37,75.83C731.66,75.37 733,74.58 733.46,74.31C734.21,73.86 738.95,71.46 739.73,71.28Q740.16,71.18 741.82,71.28" style="vector-effect: none; fill: none; stroke: rgb(255, 73, 73); stroke-opacity: 1; stroke-width: 2px; opacity: 1;"/></g><g class="points"/><g class="text"/></g></g></g></g><g class="zerolinelayer-above"/><path class="xlines-above crisp" d="M42,540.5H790M42,327.9H790" style="fill: none; stroke-width: 1px; stroke: rgb(204, 204, 204); stroke-opacity: 1;"/><path class="ylines-above crisp" d="M42.5,328.4V540M789.5,328.4V540" style="fill: none; stroke-width: 1px; stroke: rgb(204, 204, 204); stroke-opacity: 1;"/><g class="overlines-above"/><g class="xaxislayer-above"><g class="x2tick"><text text-anchor="middle" x="0" y="555.4" transform="translate(101.50999999999999,0)" style="font-family: Arial, sans-serif; font-size: 12px; fill: rgb(51, 51, 51); fill-opacity: 1; white-space: pre;">May 2025</text></g><g class="x2tick"><text text-anchor="middle" x="0" y="555.4" style="font-family: Arial, sans-serif; font-size: 12px; fill: rgb(51, 51, 51); fill-opacity: 1; white-space: pre;" transform="translate(228.98,0)">Jul 2025</text></g><g class="x2tick"><text text-anchor="middle" x="0" y="555.4" style="font-family: Arial, sans-serif; font-size: 12px; fill: rgb(51, 51, 51); fill-opacity: 1; white-space: pre;" transform="translate(358.54,0)">Sep 2025</text></g><g class="x2tick"><text text-anchor="middle" x="0" y="555.4" style="font-family: Arial, sans-serif; font-size: 12px; fill: rgb(51, 51, 51); fill-opacity: 1; white-space: pre;" transform="translate(486,0)">Nov 2025</text></g><g class="x2tick"><text text-anchor="middle" x="0" y="555.4" style="font-family: Arial, sans-serif; font-size: 12px; fill: rgb(51, 51, 51); fill-opacity: 1; white-space: pre;" transform="translate(613.47,0)">Jan 2026</text></g><g class="x2tick"><text text-anchor="middle" x="0" y="555.4" style="font-family: Arial, sans-serif; font-size: 12px; fill: rgb(51, 51, 51); fill-opacity: 1; white-space: pre;" transform="translate(736.76,0)">Mar 2026</text></g></g><g class="yaxislayer-above"><path class="y2tick ticks crisp" d="M42,0h-6" transform="translate(0,530.18)" style="stroke: rgb(255, 255, 255); stroke-opacity: 1; stroke-width: 1px;"/><path class="y2tick ticks crisp" d="M42,0h-6" transform="translate(0,491.93999999999994)" style="stroke: rgb(255, 255, 255); stroke-opacity: 1; stroke-width: 1px;"/><path class="y2tick ticks crisp" d="M42,0h-6" transform="translate(0,453.7)" style="stroke: rgb(255, 255, 255); stroke-opacity: 1; stroke-width: 1px;"/><path class="y2tick ticks crisp" d="M42,0h-6" transform="translate(0,415.46)" style="stroke: rgb(255, 255, 255); stroke-opacity: 1; stroke-width: 1px;"/><path class="y2tick ticks crisp" d="M42,0h-6" transform="translate(0,377.21999999999997)" style="stroke: rgb(255, 255, 255); stroke-opacity: 1; stroke-width: 1px;"/><path class="y2tick ticks crisp" d="M42,0h-6" transform="translate(0,338.97999999999996)" style="stroke: rgb(255, 255, 255); stroke-opacity: 1; stroke-width: 1px;"/><g class="y2tick"><text text-anchor="end" x="33.6" y="4.199999999999999" transform="translate(0,530.18)" style="font-family: Arial, sans-serif; font-size: 12px; fill: rgb(51, 51, 51); fill-opacity: 1; white-space: pre;">0</text></g><g class="y2tick"><text text-anchor="end" x="33.6" y="4.199999999999999" style="font-family: Arial, sans-serif; font-size: 12px; fill: rgb(51, 51, 51); fill-opacity: 1; white-space: pre;" transform="translate(0,491.93999999999994)">20</text></g><g class="y2tick"><text text-anchor="end" x="33.6" y="4.199999999999999" style="font-family: Arial, sans-serif; font-size: 12px; fill: rgb(51, 51, 51); fill-opacity: 1; white-space: pre;" transform="translate(0,453.7)">40</text></g><g class="y2tick"><text text-anchor="end" x="33.6" y="4.199999999999999" style="font-family: Arial, sans-serif; font-size: 12px; fill: rgb(51, 51, 51); fill-opacity: 1; white-space: pre;" transform="translate(0,415.46)">60</text></g><g class="y2tick"><text text-anchor="end" x="33.6" y="4.199999999999999" style="font-family: Arial, sans-serif; font-size: 12px; fill: rgb(51, 51, 51); fill-opacity: 1; white-space: pre;" transform="translate(0,377.21999999999997)">80</text></g><g class="y2tick"><text text-anchor="end" x="33.6" y="4.199999999999999" style="font-family: Arial, sans-serif; font-size: 12px; fill: rgb(51, 51, 51); fill-opacity: 1; white-space: pre;" transform="translate(0,338.97999999999996)">100</text></g></g><g class="overaxes-above"/></g></g><g class="polarlayer"/><g class="smithlayer"/><g class="ternarylayer"/><g class="geolayer"/><g class="funnelarealayer"/><g class="pielayer"/><g class="iciclelayer"/><g class="treemaplayer"/><g class="sunburstlayer"/><g class="glimages"/><defs id="topdefs-156649"><g class="clips"/></defs><g class="layer-above"><g class="imagelayer"/><g class="shapelayer"><g class="shape-group" data-index="0" clip-path="url(#clip156649y)"><path data-index="0" fill-rule="evenodd" d="M43,166.31L789,166.31" style="opacity: 1; stroke: rgb(136, 136, 136); stroke-opacity: 1; fill: rgb(0, 0, 0); fill-opacity: 0; stroke-dasharray: 3px, 3px; stroke-width: 1px;"/></g><g class="shape-group" data-index="1" clip-path="url(#clip156649y)"><path data-index="1" fill-rule="evenodd" d="M43,1978.48L789,1978.48" style="opacity: 1; stroke: rgb(204, 204, 204); stroke-opacity: 1; fill: rgb(0, 0, 0); fill-opacity: 0; stroke-width: 1px;"/></g><g class="shape-group" data-index="2" clip-path="url(#clip156649y2)"><path data-index="2" fill-rule="evenodd" d="M43,530.18L789,530.18" style="opacity: 1; stroke: rgb(204, 204, 204); stroke-opacity: 1; fill: rgb(0, 0, 0); fill-opacity: 0; stroke-width: 1px;"/></g></g></g><g class="infolayer"><g class="g-gtitle"/><g class="g-xtitle"/><g class="g-x2title"><text class="x2title" x="416" y="582.000390625" text-anchor="middle" style="opacity: 1; font-family: Arial, sans-serif; font-size: 13px; fill: rgb(51, 51, 51); fill-opacity: 1; white-space: pre;"><tspan style="font-weight:bold">Last 52 Weeks</tspan></text></g><g class="g-ytitle"/><g class="g-y2title"/><g class="annotation" data-index="0" style="opacity: 1;"><g class="annotation-text-g" transform="rotate(0,416,64.89999999999999)"><g class="cursor-pointer" transform="translate(395,54)"><rect class="bg" x="0.5" y="0.5" width="42" height="20" style="stroke-width: 1px; stroke: rgb(0, 0, 0); stroke-opacity: 0; fill: rgb(0, 0, 0); fill-opacity: 0;"/><text class="annotation-text" text-anchor="middle" x="21.5703125" y="16" style="font-family: Arial, sans-serif; font-size: 16px; fill: rgb(51, 51, 51); fill-opacity: 1; white-space: pre;"><tspan style="font-weight:bold">Price</tspan></text></g></g></g><g class="annotation" data-index="1" style="opacity: 1;"><g class="annotation-text-g" transform="rotate(0,416,313.3)"><g class="cursor-pointer" transform="translate(334,303)"><rect class="bg" x="0.5" y="0.5" width="163" height="20" style="stroke-width: 1px; stroke: rgb(0, 0, 0); stroke-opacity: 0; fill: rgb(0, 0, 0); fill-opacity: 0;"/><text class="annotation-text" text-anchor="middle" x="81.8984375" y="16" style="font-family: Arial, sans-serif; font-size: 16px; fill: rgb(51, 51, 51); fill-opacity: 1; white-space: pre;"><tspan style="font-weight:bold">21-Day RV Percentile</tspan></text></g></g></g><g class="annotation" data-index="2" style="opacity: 1;"><g class="annotation-text-g" transform="rotate(0,21.778,150.7)"><g class="cursor-pointer" transform="translate(6,140)"><rect class="bg" x="0.5" y="0.5" width="31" height="21" style="stroke-width: 1px; stroke: rgb(0, 0, 0); stroke-opacity: 0; fill: rgb(255, 255, 255); fill-opacity: 1;"/><text class="annotation-text" text-anchor="middle" x="15.6796875" y="15" style="font-family: Arial, sans-serif; font-size: 12px; fill: rgb(51, 51, 51); fill-opacity: 1; white-space: pre;">1.16</text></g></g></g></g></svg>