<svg class="main-svg" xmlns="http://www.w3.org/2000/svg" xmlns:xlink="http://www.w3.org/1999/xlink" width="800" height="500" style="" viewBox="0 0 800 500"><rect x="0" y="0" width="800" height="500" style="fill: rgb(255, 255, 255); fill-opacity: 1;"/><defs id="defs-907303"><g class="clips"><clipPath id="clip907303xyplot" class="plotclip"><rect width="732" height="380"/></clipPath><clipPath class="axesclip" id="clip907303x"><rect x="57" y="0" width="732" height="500"/></clipPath><clipPath class="axesclip" id="clip907303y"><rect x="0" y="60" width="800" height="380"/></clipPath><clipPath class="axesclip" id="clip907303xy"><rect x="57" y="60" width="732" height="380"/></clipPath></g><g class="gradients"/><g class="patterns"/></defs><g class="bglayer"/><g class="layer-below"><g class="imagelayer"/><g class="shapelayer"/></g><g class="cartesianlayer"><g class="subplot xy"><g class="layer-subplot"><g class="shapelayer"/><g class="imagelayer"/></g><g class="minor-gridlayer"><g class="x"/><g class="y"/></g><g class="gridlayer"><g class="x"><path class="xgrid crisp" transform="translate(138.56,0)" d="M0,60v380" style="stroke: rgb(204, 204, 204); stroke-opacity: 1; stroke-width: 1px;"/><path class="xgrid crisp" transform="translate(232.35,0)" d="M0,60v380" style="stroke: rgb(204, 204, 204); stroke-opacity: 1; stroke-width: 1px;"/><path class="xgrid crisp" transform="translate(326.15,0)" d="M0,60v380" style="stroke: rgb(204, 204, 204); stroke-opacity: 1; stroke-width: 1px;"/><path class="xgrid crisp" transform="translate(417.9,0)" d="M0,60v380" style="stroke: rgb(204, 204, 204); stroke-opacity: 1; stroke-width: 1px;"/><path class="xgrid crisp" transform="translate(510.68,0)" d="M0,60v380" style="stroke: rgb(204, 204, 204); stroke-opacity: 1; stroke-width: 1px;"/><path class="xgrid crisp" transform="translate(604.47,0)" d="M0,60v380" style="stroke: rgb(204, 204, 204); stroke-opacity: 1; stroke-width: 1px;"/><path class="xgrid crisp" transform="translate(698.26,0)" d="M0,60v380" style="stroke: rgb(204, 204, 204); stroke-opacity: 1; stroke-width: 1px;"/></g><g class="y"><path class="ygrid crisp" transform="translate(0,371.27)" d="M57,0h732" style="stroke: rgb(204, 204, 204); stroke-opacity: 1; stroke-width: 1px;"/><path class="ygrid crisp" transform="translate(0,226.31)" d="M57,0h732" style="stroke: rgb(204, 204, 204); stroke-opacity: 1; stroke-width: 1px;"/><path class="ygrid crisp" transform="translate(0,153.82999999999998)" d="M57,0h732" style="stroke: rgb(204, 204, 204); stroke-opacity: 1; stroke-width: 1px;"/><path class="ygrid crisp" transform="translate(0,81.35)" d="M57,0h732" style="stroke: rgb(204, 204, 204); stroke-opacity: 1; stroke-width: 1px;"/></g></g><g class="zerolinelayer"><path class="yzl zl crisp" transform="translate(0,298.78999999999996)" d="M57,0h732" style="stroke: rgb(204, 204, 204); stroke-opacity: 1; stroke-width: 1px;"/></g><g class="layer-between"><g class="shapelayer"/><g class="imagelayer"/></g><path class="xlines-below"/><path class="ylines-below"/><g class="overlines-below"/><g class="xaxislayer-below"/><g class="yaxislayer-below"/><g class="overaxes-below"/><g class="overplot"><g class="xy" transform="translate(57,60)" clip-path="url(#clip907303xyplot)"><g class="scatterlayer mlayer"><g class="trace scatter trace7d4a55" style="stroke-miterlimit: 2; opacity: 1;"><g class="fills"/><g class="errorbars"/><g class="lines"><path class="js-line" d="M0,319.25Q2.7,326.52 3.06,326.5C3.3,326.49 3.94,324.02 4.08,323.23C4.42,321.33 4.94,303.3 5.1,303.3C5.29,303.3 5.94,331.21 6.12,331.21C6.28,331.21 6.73,310.59 7.14,306.93C7.48,303.88 9.82,292.35 10.19,290.25C10.41,288.97 10.92,284.67 11.21,284.09C11.35,283.8 12.09,283.32 12.23,283.01C12.62,282.15 12.86,272.63 13.25,271.77C13.39,271.46 14.09,270.98 14.27,270.69C14.7,270.01 16.93,263.1 17.33,263.07C17.53,263.06 18.21,264.92 18.35,264.89C18.6,264.84 19.22,258.35 19.37,258.36C19.61,258.37 20.2,275.76 20.39,275.76C20.55,275.76 20.74,264.86 21.41,263.8C21.77,263.22 24.11,261.8 24.47,261.99C25.12,262.33 25.13,272.59 25.49,273.58C25.63,273.97 26.36,275.08 26.51,275.03C27.29,274.79 26.81,228.01 27.53,225.38C27.68,224.84 28.39,224.09 28.55,223.57C29.21,221.43 31.24,193.14 31.6,188.42C31.84,185.24 32.46,175.41 32.62,172.47C32.81,168.85 33.47,148.19 33.64,148.19C33.81,148.19 34.44,172.83 34.66,172.84C34.81,172.84 35.3,162.01 35.68,161.96C36.02,161.92 38.27,169.69 38.74,170.3C38.92,170.53 39.61,170.75 39.76,171.02C40.44,172.27 40.22,196.18 40.78,197.84C40.92,198.27 41.6,199.19 41.8,199.29C41.95,199.37 42.66,199.42 42.82,199.29C43.47,198.75 45.53,182.97 45.88,182.98C46.15,182.99 46.46,192.37 46.9,192.77C47.04,192.9 47.78,192.65 47.92,192.77C48.24,193.03 48.63,197.66 48.94,197.84C49.08,197.92 49.78,197.64 49.96,197.48C50.42,197.06 52.67,190.9 53.01,190.96C53.42,191.03 53.65,201.34 54.03,201.47C54.17,201.52 54.91,200.69 55.05,200.38C55.4,199.63 55.93,191.31 56.07,191.32C56.37,191.33 56.31,228 57.09,232.27C57.46,234.3 59.81,239.31 60.15,240.97C60.58,243.05 61,255.46 61.17,255.46C61.34,255.46 62.05,242.06 62.19,242.06C62.45,242.07 62.77,284.03 63.21,287.72C63.35,288.92 63.98,292.41 64.23,292.43C64.58,292.45 66.95,285.05 67.29,283.73C67.57,282.68 68.08,278.65 68.31,277.93C68.46,277.47 69.17,275.75 69.33,275.76C69.52,275.77 70.13,278.64 70.35,279.02C70.5,279.27 71.15,280.11 71.36,280.11C71.73,280.11 74.07,276.73 74.42,276.85C74.95,277.03 75.27,285.28 75.44,286.99C75.61,288.73 76.31,297.5 76.46,297.5C76.69,297.49 77.21,271.42 77.48,271.41C77.62,271.4 78.09,278.55 78.5,278.66C78.84,278.75 81.2,274.56 81.56,274.67C82.23,274.87 82.42,291.7 82.58,291.7C82.76,291.7 83.4,272.75 83.6,269.6C83.75,267.25 84.3,258.48 84.62,257.28C84.76,256.75 85.47,255.68 85.64,255.1C86.17,253.27 88.33,234.18 88.7,231.18C88.92,229.37 89.57,224.11 89.72,222.49C89.91,220.46 90.56,208.71 90.74,208.71C90.9,208.71 91.61,218.87 91.75,218.86C92.02,218.85 91.92,185.5 92.77,181.9C93.15,180.31 95.49,175.32 95.83,175.37C96.18,175.42 96.69,182.98 96.85,182.98C97.04,182.98 97.71,171.39 97.87,171.39C98.05,171.39 98.69,186.97 98.89,186.97C99.04,186.97 99.53,179.27 99.91,177.91C100.25,176.7 102.6,171.32 102.97,171.39C103.68,171.53 103.48,198.08 103.99,198.2C104.13,198.23 104.87,196.86 105.01,196.39C105.37,195.19 105.79,182.64 106.03,182.62C106.17,182.61 106.84,186.32 107.05,187.33C107.43,189.11 109.77,199.86 110.11,202.19C110.41,204.23 110.82,213.74 111.13,213.79C111.27,213.81 112,211.58 112.14,211.61C112.6,211.7 113,236.98 113.16,236.98C113.34,236.98 113.33,209.42 114.18,206.54C114.56,205.27 116.86,201.48 117.24,201.47C117.45,201.46 118.06,202.86 118.26,202.92C118.41,202.97 119.14,202.47 119.28,202.55C119.63,202.76 120.15,207.79 120.3,209.08C120.51,210.91 120.88,220.6 121.32,222.49C121.66,223.97 124.02,230.16 124.38,230.1C125,229.99 125.08,208.29 125.4,205.82C125.54,204.72 126.28,201.09 126.42,201.1C126.75,201.13 127.28,227.56 127.44,227.56C127.62,227.56 128.08,200.95 128.46,196.03C128.8,191.66 131.17,174.77 131.52,171.39C131.76,169.04 132.38,161.67 132.53,159.43C132.73,156.57 133.32,139.87 133.55,139.86C133.7,139.85 134.43,147.84 134.57,147.83C134.82,147.82 135.13,123.59 135.59,123.55C135.94,123.52 138.31,136.99 138.65,136.96C139.06,136.92 139.5,117.39 139.67,117.39C139.84,117.39 140.52,133.46 140.69,136.6C140.86,139.62 141.22,154.17 141.71,154.35C141.85,154.4 142.57,153.22 142.73,153.27C143.47,153.52 145.45,179.9 145.79,184.8C146.09,189.06 146.63,208.71 146.81,208.71C146.97,208.71 147.64,191.73 147.83,188.78C147.98,186.43 148.65,176.11 148.85,176.1C149,176.1 149.63,182.21 149.87,183.71C150.22,185.89 152.57,197.31 152.92,199.65C153.19,201.47 153.79,207.46 153.94,209.44C154.17,212.48 154.76,232.63 154.96,232.63C155.11,232.63 155.8,220.77 155.98,218.5C156.14,216.38 156.36,207.4 157,206.18C157.36,205.49 159.68,203.47 160.06,203.64C161.04,204.08 160.87,225.8 161.08,229.37C161.23,231.91 161.9,242.41 162.1,242.42C162.25,242.42 162.97,236.24 163.12,234.81C163.32,232.97 163.93,222.12 164.14,222.12C164.52,222.12 166.86,264.53 167.2,264.52C167.5,264.51 168.03,232.63 168.22,232.63C168.38,232.63 169.08,255.46 169.24,255.46C169.43,255.46 170,224.4 170.26,220.31C170.4,218.11 170.62,210.83 171.28,210.16C171.64,209.79 173.93,209.46 174.33,209.8C175.59,210.88 174.8,240.11 175.35,240.24C175.49,240.28 176.23,238.4 176.37,238.43C176.77,238.52 177.24,251.94 177.39,255.1C177.59,259.27 177.74,283.98 178.41,284.09C178.77,284.15 181.12,277.78 181.47,276.12C182.01,273.58 182.27,256.2 182.49,256.19C182.64,256.19 183.09,264.87 183.51,265.25C183.65,265.38 184.38,265.11 184.53,265.25C185.15,265.84 185.05,281.28 185.55,283.73C185.9,285.42 188.25,290.27 188.61,292.07C189.21,295.09 189.27,314.78 189.63,317.07C189.77,317.96 190.51,319.91 190.65,320.7C190.91,322.11 191.33,331.56 191.67,332.66C191.81,333.12 192.52,333.99 192.69,334.47C193.19,335.87 195.4,351.87 195.74,351.86C196.02,351.85 196.61,340.27 196.76,340.27C196.99,340.28 197.61,367.81 197.78,367.81C197.95,367.81 198.62,338.09 198.8,338.09C198.96,338.09 199.26,362.66 199.82,362.74C200.17,362.79 202.54,354.98 202.88,353.31C203.25,351.5 203.76,344.16 203.9,341.72C204.15,337.57 204.71,312.62 204.92,308.01C205.07,304.8 205.75,291.7 205.94,291.7C206.1,291.7 206.74,303.66 206.96,303.66C207.33,303.66 209.67,273.95 210.02,269.24C210.27,265.97 210.9,252.57 211.04,252.57C211.33,252.58 211.86,322.15 212.06,322.15C212.21,322.15 212.89,283.01 213.08,283.01C213.24,283.01 213.72,305.24 214.09,309.46C214.43,313.37 216.6,330.29 217.15,331.93C217.32,332.42 218.03,333.27 218.17,333.74C218.54,334.98 218.75,347.22 219.19,348.24C219.33,348.57 220.07,349.38 220.21,349.33C220.64,349.18 220.77,337.46 221.23,335.56C221.58,334.13 223.94,329.78 224.29,328.31C224.78,326.24 225.13,312.72 225.31,312.72C225.47,312.72 226.17,322.5 226.33,324.68C226.52,327.31 227.2,338.7 227.35,342.08C227.56,346.78 228.04,375.77 228.37,375.78C228.71,375.79 231.01,339.91 231.43,339.9C231.62,339.89 232.31,347.16 232.45,347.15C232.71,347.14 233.28,323.23 233.47,323.23C233.63,323.23 234.01,338.45 234.48,339.54C234.62,339.87 235.33,340.32 235.5,340.63C235.97,341.46 238.22,349.34 238.56,351.14C238.91,352.96 239.42,360.37 239.58,362.37C239.76,364.67 240.46,377.23 240.6,377.23C240.95,377.22 241.38,286.99 241.62,286.99C241.76,286.99 242.25,318.5 242.64,318.52C242.98,318.54 245.35,297.91 245.7,294.6C245.95,292.27 246.25,283.25 246.72,282.64C246.86,282.46 247.6,282.46 247.74,282.28C248.19,281.7 248.61,273.55 248.76,271.41C248.97,268.34 248.73,249.83 249.78,248.94C250.17,248.61 252.45,248.87 252.84,249.3C253.99,250.54 253.71,270.44 253.86,275.4C254.06,281.99 254.65,321.42 254.87,321.42C255.02,321.42 255.74,305.2 255.89,301.13C256.11,295.01 256.19,260.2 256.91,255.1C257.28,252.5 259.62,243.46 259.97,243.5C260.5,243.56 260.55,271.01 260.99,271.05C261.24,271.07 262.78,262.33 263.03,262.35C263.45,262.39 263.06,285.17 264.05,286.99C264.44,287.7 266.72,288.46 267.11,289.17C268.1,290.99 267.6,311.21 268.13,313.81C268.39,315.07 269.92,319.28 270.17,319.25C270.52,319.2 270.96,310.29 271.19,308.01C271.55,304.43 273.91,280.46 274.25,280.47C274.67,280.49 274.54,320.69 275.26,322.87C275.41,323.32 276.12,324.06 276.28,324.32C276.46,324.6 277.16,325.68 277.3,326.13C277.62,327.16 278,336.97 278.32,337C278.66,337.03 281.03,327.52 281.38,325.05C281.94,321.16 282.2,294.6 282.4,294.6C282.55,294.6 282.97,312.23 283.42,312.36C283.56,312.4 284.29,310.88 284.44,310.91C284.66,310.95 285.3,314.56 285.46,314.54C286.27,314.44 287.12,219.31 288.52,216.69C288.68,216.39 289.39,215.89 289.54,215.96C290.25,216.31 290.32,245.31 290.56,245.32C290.7,245.32 291.44,237.32 291.58,235.17C291.83,231.43 291.98,204.45 292.6,204.37C292.96,204.32 295.3,212.15 295.65,214.15C296.17,217.13 296.29,236.92 296.67,236.98C296.81,237 297.54,234.67 297.69,234.08C297.91,233.22 298.57,229 298.71,227.56C298.98,224.8 299.38,203.3 299.73,203.28C300.07,203.26 302.45,222.6 302.79,226.11C303.08,229.1 303.65,242.78 303.81,242.78C304,242.78 304.23,218.49 304.83,217.05C304.97,216.7 305.71,215.91 305.85,215.96C306.26,216.1 306.54,228.63 306.87,228.65C307.21,228.68 309.59,217.96 309.93,215.6C310.32,212.88 310.77,197.84 310.95,197.84C311.11,197.84 311.82,212.7 311.97,212.7C312.2,212.7 312.59,179.9 312.99,176.82C313.13,175.73 313.76,173.31 314.01,172.47C314.36,171.26 316.67,163.72 317.06,163.78C318.08,163.95 317.75,221.81 318.08,228.28C318.22,231.07 318.96,240.24 319.1,240.24C319.34,240.23 319.91,206.54 320.12,206.54C320.27,206.54 320.86,220.43 321.14,223.57C321.48,227.46 323.86,249.68 324.2,249.67C324.49,249.66 325.03,234.23 325.22,231.55C325.37,229.4 326.09,219.95 326.24,219.95C326.46,219.96 326.88,246.73 327.26,246.77C327.4,246.79 328.12,244.1 328.28,243.14C328.86,239.76 331,204.54 331.34,196.39C331.71,187.46 332.18,149.04 332.36,140.22C332.52,132.36 333.08,95.66 333.38,95.65C333.52,95.64 334.25,105.79 334.4,105.79C334.62,105.78 335.07,86.36 335.42,82.6C335.76,79 338.12,65.61 338.47,61.58C338.93,56.18 339.31,23.53 339.49,23.53C339.65,23.53 340.32,50.07 340.51,54.69C340.66,58.38 341.36,71.29 341.53,74.63C341.7,78 341.9,94.77 342.55,94.92C342.91,95.01 345.27,90.56 345.61,89.48C346.04,88.12 346.23,79.88 346.63,79.7C346.77,79.64 347.51,80.18 347.65,80.42C348.05,81.1 348.53,88.02 348.67,90.21C348.96,94.61 348.95,129.96 349.69,130.07C350.06,130.12 352.4,120.62 352.75,120.65C353.02,120.67 353.63,125.4 353.77,126.81C354.07,129.85 354.62,155.8 354.79,155.8C354.96,155.8 355.66,134.24 355.81,129.35C356,123.27 355.53,91.06 356.82,88.4C357.22,87.57 359.47,85.67 359.88,85.86C361.27,86.5 360.7,125.75 360.9,132.61C361.05,138.02 361.69,161.59 361.92,161.6C362.07,161.6 362.8,150.37 362.94,150.37C363.18,150.38 363.6,177.08 363.96,182.26C364.3,187.21 366.67,211.26 367.02,211.25C367.27,211.25 367.89,196.39 368.04,196.39C368.26,196.39 368.92,228.65 369.06,228.65C369.31,228.65 369.89,149.07 370.08,135.15C370.24,123.92 370.04,74.46 371.1,74.26C371.49,74.19 373.79,80.08 374.16,81.87C374.96,85.7 375,119.2 375.18,119.2C375.34,119.2 375.8,91.11 376.19,88.4C376.33,87.41 377.07,85.38 377.21,84.41C377.57,81.89 377.98,62.19 378.23,56.87C378.58,49.55 380.94,4.68 381.29,4.68C381.54,4.68 382.15,25.9 382.31,30.41C382.49,35.4 383.17,61.94 383.33,61.94C383.51,61.94 384.16,24.25 384.35,24.25C384.51,24.25 384.78,49.53 385.37,49.62C385.73,49.67 388.09,40.89 388.43,40.92C388.73,40.95 389.29,46.84 389.45,48.17C389.64,49.8 390.33,56.73 390.47,59.04C390.72,63.11 391.34,86.18 391.49,92.75C391.7,101.99 392.07,159.42 392.51,159.43C392.85,159.44 395.23,125.52 395.57,119.2C395.87,113.58 396.42,87.31 396.58,87.31C396.76,87.31 397.39,121.31 397.6,126.81C397.75,130.75 398.48,142.66 398.62,147.11C398.89,155.61 399.35,208.08 399.64,221.4C399.98,236.92 402.32,322.15 402.7,322.15C402.91,322.15 403.52,295.74 403.72,291.34C403.87,288.03 404.59,273.95 404.74,273.95C404.94,273.95 405.27,305.75 405.76,305.84C405.9,305.87 406.6,303.91 406.78,303.3C407.22,301.84 409.5,288.05 409.84,288.08C410.26,288.11 410.71,311.64 410.86,311.64C411.07,311.64 411.64,273.03 411.88,267.42C412.03,263.98 412.6,252.51 412.9,250.75C413.04,249.92 413.72,247.95 413.92,247.13C414.32,245.47 416.62,231.88 416.97,231.91C417.5,231.95 417.2,265.94 417.99,267.42C418.14,267.7 418.86,268.22 419.01,268.15C419.88,267.72 419.64,229.47 420.03,225.75C420.17,224.41 420.86,221.58 421.05,220.31C421.48,217.39 423.77,191.31 424.11,191.32C424.45,191.33 424.76,217.37 425.13,219.95C425.27,220.93 426.01,223.96 426.15,223.94C426.54,223.9 426.88,195.52 427.17,192.04C427.31,190.33 427.63,184.92 428.19,184.43C428.54,184.12 430.83,184.84 431.25,184.43C433.07,182.65 431.98,127.55 432.27,127.54C432.41,127.54 433.14,140.95 433.29,140.95C433.52,140.94 434.09,105.79 434.31,105.79C434.46,105.79 434.93,122.06 435.33,122.1C435.67,122.13 438.01,110.46 438.38,110.5C439.14,110.59 439.13,155.73 439.4,161.6C439.54,164.69 440.24,173.54 440.42,175.74C440.58,177.67 441.29,186.61 441.44,186.61C441.67,186.6 441.91,160.95 442.46,160.88C442.81,160.83 445.14,171.02 445.52,171.02C445.73,171.02 446.4,168.61 446.54,167.76C446.99,165.07 447.37,138.63 447.56,133.33C447.72,128.78 448.4,107.97 448.58,107.97C448.75,107.97 449.31,130.43 449.6,130.44C449.94,130.45 452.32,98.17 452.66,98.18C452.96,98.19 453.5,123.19 453.68,123.19C453.84,123.19 454.54,102.89 454.7,102.89C454.89,102.89 455.34,128.35 455.72,130.8C455.86,131.7 456.47,133.79 456.74,134.42C457.08,135.22 459.44,138.76 459.79,139.5C460.04,140.03 460.63,141.93 460.81,142.39C460.98,142.83 461.69,144.26 461.83,144.93C462.27,147 462.69,166.69 462.85,171.39C463.03,176.75 462.82,205.45 463.87,205.82C464.26,205.96 466.55,202.06 466.93,202.19C467.77,202.48 467.8,226.11 467.95,226.11C468.15,226.11 468.73,187.71 468.97,187.7C469.12,187.7 469.71,202.16 469.99,202.19C470.13,202.2 470.81,199.37 471.01,198.57C471.4,197.04 473.61,186.34 474.07,185.16C474.25,184.7 474.94,183.33 475.09,183.35C475.32,183.39 475.97,187.27 476.11,188.42C476.4,190.82 476.94,207.51 477.13,210.89C477.29,213.67 477.93,222.84 478.14,226.11C478.52,232.04 480.86,268.43 481.2,276.12C481.49,282.69 482.06,306.17 482.22,312.72C482.4,320.32 482.8,361.97 483.24,362.01C483.38,362.02 484.12,358.27 484.26,356.94C484.77,352.21 484.31,291.84 485.28,291.7C485.66,291.64 487.99,301.54 488.34,301.49C488.85,301.42 489.19,283.33 489.36,279.75C489.53,276.26 490.03,261.04 490.38,259.09C490.52,258.3 491.2,255.85 491.4,255.83C491.55,255.81 492.19,257.29 492.42,257.64C492.78,258.19 495.1,261.75 495.48,261.63C496.34,261.36 496.33,240.01 496.5,235.53C496.68,230.78 497.35,206.18 497.52,206.18C497.69,206.18 498.36,236.98 498.53,236.98C498.7,236.98 499.13,205.84 499.55,205.82C499.89,205.8 502.27,223.12 502.61,226.83C502.99,230.98 503.44,249.36 503.63,253.29C503.79,256.44 504.48,267.4 504.65,270.32C504.83,273.42 505.52,289.53 505.67,289.53C505.89,289.53 506.28,248.96 506.69,248.94C507.03,248.93 509.4,276.87 509.75,276.85C510.24,276.83 510.47,227.93 510.77,222.12C510.91,219.4 511.65,212.92 511.79,210.16C512.1,204 512.12,150.5 512.81,150.37C512.96,150.34 513.67,152.19 513.83,152.9C514.5,155.82 516.52,193.71 516.89,199.65C517.12,203.31 517.66,217.4 517.91,217.41C518.05,217.42 518.78,211.6 518.92,211.61C519.24,211.63 519.75,242.06 519.94,242.06C520.09,242.06 520.65,226.17 520.96,222.85C521.3,219.24 523.66,200.38 524.02,200.38C524.25,200.38 524.89,207.89 525.04,209.8C525.27,212.77 525.65,232.56 526.06,232.63C526.2,232.65 526.94,230.73 527.08,230.1C527.45,228.45 527.61,211.68 528.1,211.61C528.45,211.56 530.78,220.37 531.16,220.31C532,220.18 531.91,174.66 532.18,174.65C532.32,174.65 533.02,185.04 533.2,186.97C533.36,188.7 533.96,196.73 534.22,196.76C534.36,196.78 535.06,193.84 535.24,193.86C535.68,193.9 537.95,212 538.3,211.98C538.77,211.95 539.14,177.55 539.31,177.55C539.48,177.55 540.14,204.33 540.33,209.08C540.49,212.99 540.93,228.76 541.35,230.46C541.49,231.03 542.15,232.63 542.37,232.63C542.74,232.63 545.09,226.06 545.43,226.11C545.74,226.15 546.31,231.92 546.45,231.91C546.71,231.89 547.26,211.99 547.47,211.98C547.62,211.98 548.33,222.12 548.49,222.12C548.67,222.12 549.28,209.8 549.51,209.8C549.87,209.8 552.23,235.47 552.57,240.61C552.91,245.74 553.32,271.4 553.59,271.41C553.73,271.42 554.46,263.07 554.61,263.07C554.82,263.08 555.37,279.36 555.63,279.38C555.77,279.39 556.44,274.67 556.65,274.67C557.03,274.67 559.3,289.87 559.7,289.89C559.9,289.9 560.58,286.25 560.72,286.27C561.04,286.31 561.58,306.2 561.74,306.2C561.93,306.2 562.3,277.29 562.76,277.21C562.9,277.19 563.57,279.75 563.78,279.75C564.16,279.75 566.48,271.71 566.84,271.77C567.51,271.88 567.09,300.08 567.86,301.13C568.01,301.33 568.73,301.59 568.88,301.49C569.6,301 569.73,280.03 569.9,275.76C570.07,271.52 570.24,250.53 570.92,250.39C571.28,250.32 573.64,255.85 573.98,256.91C574.28,257.84 574.86,261.18 575,262.35C575.25,264.42 575.81,277.32 576.02,279.75C576.17,281.51 576.84,287.5 577.04,288.81C577.19,289.83 577.83,293.14 578.06,294.24C578.42,295.95 580.68,306.04 581.11,307.29C581.29,307.82 581.99,309.49 582.13,309.46C582.53,309.38 582.99,293.36 583.15,289.89C583.33,285.94 584,268.81 584.17,264.52C584.34,260.11 584.8,237.73 585.19,237.71C585.53,237.69 587.91,257.66 588.25,257.64C588.61,257.62 589.03,234.82 589.27,234.81C589.41,234.8 589.91,242.3 590.29,242.78C590.43,242.95 591.17,242.95 591.31,243.14C591.88,243.89 591.52,259.38 592.33,259.81C592.7,260.01 595.01,258.18 595.39,258C595.6,257.9 596.25,257.62 596.41,257.64C596.59,257.66 597.29,258.14 597.43,258.36C597.75,258.86 598.28,263.48 598.45,264.52C598.62,265.59 598.98,270.4 599.47,271.05C599.82,271.52 602.16,272.7 602.52,272.5C603.16,272.14 603.34,263.48 603.54,261.99C603.69,260.88 604.42,257.4 604.56,256.19C604.8,254.19 605.39,242.69 605.58,240.24C605.74,238.15 606.28,230.63 606.6,228.65C606.94,226.53 609.32,217.63 609.66,215.6C609.95,213.86 610.54,207.86 610.68,205.82C610.92,202.46 611.48,179.01 611.7,179C611.85,179 612.56,188.78 612.72,190.96C612.91,193.59 613.25,206.01 613.74,208.35C614.09,210.02 616.31,216.46 616.8,216.69C616.97,216.77 617.68,216.51 617.82,216.32C618.31,215.68 618.66,205.64 618.84,203.64C619,201.85 619.7,193.49 619.86,193.49C620.04,193.49 620.46,205.39 620.87,205.45C621.21,205.5 623.59,198.8 623.93,197.48C624.25,196.26 624.66,190.96 624.95,190.23C625.09,189.87 625.83,189.14 625.97,188.78C626.27,188.01 626.63,180.97 626.99,180.81C627.13,180.75 627.85,181.6 628.01,181.53C628.66,181.25 630.71,163.92 631.07,161.24C631.3,159.49 631.94,152.54 632.09,152.54C632.31,152.55 632.78,169.66 633.11,172.47C633.36,174.57 634.4,182.65 635.15,183.35C635.55,183.72 637.85,183.36 638.21,183.71C638.78,184.28 639.05,190.44 639.23,191.68C639.39,192.77 640.04,196.67 640.25,197.84C640.52,199.4 641.89,206.77 642.28,208.71C642.73,210.96 644.87,221.97 645.34,223.21C645.52,223.68 646.21,224.64 646.36,225.02C646.58,225.58 647.18,228.75 647.38,229.37C647.53,229.86 648.25,231.42 648.4,231.91C648.6,232.53 649.19,235.37 649.42,236.26C649.78,237.7 652.13,245.31 652.48,247.49C652.94,250.39 652.86,267.3 653.5,268.15C653.65,268.35 654.38,268.32 654.52,268.51C655.05,269.21 655.13,282.21 655.54,283.37C655.68,283.77 656.39,284.86 656.56,284.82C657.08,284.71 659.27,271.35 659.62,268.15C660.08,263.89 660.38,238.08 660.64,238.07C660.78,238.06 661.46,246.77 661.65,246.77C661.81,246.77 662.52,241.77 662.67,240.61C662.87,239.13 663.45,232.47 663.69,230.46C664.05,227.48 666.4,212.82 666.75,208.35C667.29,201.54 667.56,156.53 667.77,156.53C667.92,156.53 668.58,182.98 668.79,182.98C668.94,182.98 669.67,169.94 669.81,169.94C670.05,169.95 670.23,200.8 670.83,205.09C671.19,207.63 673.55,217.07 673.89,217.05C674.17,217.03 674.73,210.36 674.91,209.08C675.07,207.89 675.74,202.2 675.93,202.19C676.09,202.18 676.81,206.91 676.95,206.9C677.21,206.88 677.74,193.87 677.97,190.59C678.33,185.57 680.67,152.54 681.03,152.54C681.26,152.54 681.5,167.4 682.04,167.76C682.18,167.85 682.9,167.36 683.06,167.4C683.25,167.45 683.94,168.54 684.08,168.49C684.47,168.36 684.5,157.5 685.1,157.25C685.46,157.1 687.8,159.08 688.16,159.79C688.84,161.1 689.04,170.58 689.18,173.56C689.44,179.07 689.89,220.66 690.2,220.67C690.34,220.68 691.07,210.89 691.22,210.89C691.43,210.9 691.91,226.54 692.24,229.73C692.58,233.06 694.96,246.58 695.3,250.03C695.65,253.58 696.17,267.69 696.32,271.77C696.52,277.04 697.14,308.01 697.34,308.01C697.49,308.01 697.75,286.57 698.36,286.27C698.51,286.2 699.16,286.86 699.38,286.99C699.75,287.2 702.09,288.02 702.43,288.44C702.82,288.93 703.25,292.17 703.45,292.79C703.6,293.28 704.32,294.84 704.47,295.33C704.67,295.95 705.35,299.69 705.49,299.68C705.73,299.66 706.04,287.82 706.51,287.72C706.86,287.65 709.19,292.07 709.57,293.52C710.48,296.98 710.29,326.91 710.59,330.84C710.73,332.66 711.45,337.42 711.61,338.82C711.79,340.37 712.49,346.54 712.63,348.6C712.88,352.12 713.3,377.22 713.65,377.23C713.99,377.24 716.36,354.33 716.71,350.41C716.98,347.36 717.58,334.11 717.73,334.11C717.93,334.11 718.6,362.01 718.75,362.01C718.97,362.01 719.01,298.75 719.77,298.59C719.92,298.56 720.59,300.77 720.79,300.76C721.19,300.73 723.44,291.36 723.84,291.34Q724.04,291.33 724.86,293.52" style="vector-effect: none; fill: none; stroke: rgb(255, 73, 73); stroke-opacity: 1; stroke-width: 2px; opacity: 1;"/></g><g class="points"/><g class="text"/></g></g></g></g><g class="zerolinelayer-above"/><path class="xlines-above crisp" d="M56,440.5H790M56,59.5H790" style="fill: none; stroke-width: 1px; stroke: rgb(204, 204, 204); stroke-opacity: 1;"/><path class="ylines-above crisp" d="M56.5,60V440M789.5,60V440" style="fill: none; stroke-width: 1px; stroke: rgb(204, 204, 204); stroke-opacity: 1;"/><g class="overlines-above"/><g class="xaxislayer-above"><g class="xtick"><text text-anchor="middle" x="0" y="455.4" transform="translate(138.56,0)" style="font-family: Arial, sans-serif; font-size: 12px; fill: rgb(51, 51, 51); fill-opacity: 1; white-space: pre;">Jul 2024</text></g><g class="xtick"><text text-anchor="middle" x="0" y="455.4" style="font-family: Arial, sans-serif; font-size: 12px; fill: rgb(51, 51, 51); fill-opacity: 1; white-space: pre;" transform="translate(232.35,0)">Oct 2024</text></g><g class="xtick"><text text-anchor="middle" x="0" y="455.4" style="font-family: Arial, sans-serif; font-size: 12px; fill: rgb(51, 51, 51); fill-opacity: 1; white-space: pre;" transform="translate(326.15,0)">Jan 2025</text></g><g class="xtick"><text text-anchor="middle" x="0" y="455.4" style="font-family: Arial, sans-serif; font-size: 12px; fill: rgb(51, 51, 51); fill-opacity: 1; white-space: pre;" transform="translate(417.9,0)">Apr 2025</text></g><g class="xtick"><text text-anchor="middle" x="0" y="455.4" style="font-family: Arial, sans-serif; font-size: 12px; fill: rgb(51, 51, 51); fill-opacity: 1; white-space: pre;" transform="translate(510.68,0)">Jul 2025</text></g><g class="xtick"><text text-anchor="middle" x="0" y="455.4" style="font-family: Arial, sans-serif; font-size: 12px; fill: rgb(51, 51, 51); fill-opacity: 1; white-space: pre;" transform="translate(604.47,0)">Oct 2025</text></g><g class="xtick"><text text-anchor="middle" x="0" y="455.4" style="font-family: Arial, sans-serif; font-size: 12px; fill: rgb(51, 51, 51); fill-opacity: 1; white-space: pre;" transform="translate(698.26,0)">Jan 2026</text></g></g><g class="yaxislayer-above"><path class="ytick ticks crisp" d="M56,0h-6" transform="translate(0,371.27)" style="stroke: rgb(255, 255, 255); stroke-opacity: 1; stroke-width: 1px;"/><path class="ytick ticks crisp" d="M56,0h-6" transform="translate(0,298.78999999999996)" style="stroke: rgb(255, 255, 255); stroke-opacity: 1; stroke-width: 1px;"/><path class="ytick ticks crisp" d="M56,0h-6" transform="translate(0,226.31)" style="stroke: rgb(255, 255, 255); stroke-opacity: 1; stroke-width: 1px;"/><path class="ytick ticks crisp" d="M56,0h-6" transform="translate(0,153.82999999999998)" style="stroke: rgb(255, 255, 255); stroke-opacity: 1; stroke-width: 1px;"/><path class="ytick ticks crisp" d="M56,0h-6" transform="translate(0,81.35)" style="stroke: rgb(255, 255, 255); stroke-opacity: 1; stroke-width: 1px;"/><g class="ytick"><text text-anchor="end" x="47.6" y="4.199999999999999" transform="translate(0,371.27)" style="font-family: Arial, sans-serif; font-size: 12px; fill: rgb(51, 51, 51); fill-opacity: 1; white-space: pre;">−2</text></g><g class="ytick"><text text-anchor="end" x="47.6" y="4.199999999999999" style="font-family: Arial, sans-serif; font-size: 12px; fill: rgb(51, 51, 51); fill-opacity: 1; white-space: pre;" transform="translate(0,298.78999999999996)">0</text></g><g class="ytick"><text text-anchor="end" x="47.6" y="4.199999999999999" style="font-family: Arial, sans-serif; font-size: 12px; fill: rgb(51, 51, 51); fill-opacity: 1; white-space: pre;" transform="translate(0,226.31)">2</text></g><g class="ytick"><text text-anchor="end" x="47.6" y="4.199999999999999" style="font-family: Arial, sans-serif; font-size: 12px; fill: rgb(51, 51, 51); fill-opacity: 1; white-space: pre;" transform="translate(0,153.82999999999998)">4</text></g><g class="ytick"><text text-anchor="end" x="47.6" y="4.199999999999999" style="font-family: Arial, sans-serif; font-size: 12px; fill: rgb(51, 51, 51); fill-opacity: 1; white-space: pre;" transform="translate(0,81.35)">6</text></g></g><g class="overaxes-above"/></g></g><g class="polarlayer"/><g class="smithlayer"/><g class="ternarylayer"/><g class="geolayer"/><g class="funnelarealayer"/><g class="pielayer"/><g class="iciclelayer"/><g class="treemaplayer"/><g class="sunburstlayer"/><g class="glimages"/><defs id="topdefs-907303"><g class="clips"/></defs><g class="layer-above"><g class="imagelayer"/><g class="shapelayer"><g class="shape-group" data-index="0" clip-path="url(#clip907303y)"><path data-index="0" fill-rule="evenodd" d="M57,353.15L789,353.15" style="opacity: 1; stroke: rgb(136, 136, 136); stroke-opacity: 1; fill: rgb(0, 0, 0); fill-opacity: 0; stroke-dasharray: 3px, 3px; stroke-width: 1px;"/></g><g class="shape-group" data-index="1" clip-path="url(#clip907303y)"><path data-index="1" fill-rule="evenodd" d="M57,298.78999999999996L789,298.78999999999996" style="opacity: 1; stroke: rgb(204, 204, 204); stroke-opacity: 1; fill: rgb(0, 0, 0); fill-opacity: 0; stroke-width: 1px;"/></g></g></g><g class="infolayer"><g class="g-gtitle"><text class="gtitle" x="400" y="30" text-anchor="middle" dy="0em" style="opacity: 1; font-family: Arial, sans-serif; font-size: 16px; fill: rgb(51, 51, 51); fill-opacity: 1; white-space: pre;"><tspan style="font-weight:bold">21-Day Return</tspan></text></g><g class="g-xtitle"><text class="xtitle" x="423" y="482.000390625" text-anchor="middle" style="opacity: 1; font-family: Arial, sans-serif; font-size: 13px; fill: rgb(51, 51, 51); fill-opacity: 1; white-space: pre;"><tspan style="font-weight:bold">Last 104 Weeks</tspan></text></g><g class="g-ytitle"><text class="ytitle" transform="rotate(-90,14.862109375000003,250)" x="14.862109375000003" y="250" text-anchor="middle" style="opacity: 1; font-family: Arial, sans-serif; font-size: 13px; fill: rgb(51, 51, 51); fill-opacity: 1; white-space: pre;"><tspan style="font-weight:bold">Return (%)</tspan></text></g><g class="annotation" data-index="0" style="opacity: 1;"><g class="annotation-text-g" transform="rotate(0,38.6936,352.79)"><g class="cursor-pointer" transform="translate(24,342)"><rect class="bg" x="0.5" y="0.5" width="28" height="21" style="stroke-width: 1px; stroke: rgb(0, 0, 0); stroke-opacity: 0; fill: rgb(255, 255, 255); fill-opacity: 1;"/><text class="annotation-text" text-anchor="middle" x="14.34375" y="15" style="font-family: Arial, sans-serif; font-size: 12px; fill: rgb(51, 51, 51); fill-opacity: 1; white-space: pre;">-1.5</text></g></g></g></g></svg>