<svg class="main-svg" xmlns="http://www.w3.org/2000/svg" xmlns:xlink="http://www.w3.org/1999/xlink" width="800" height="500" style="" viewBox="0 0 800 500"><rect x="0" y="0" width="800" height="500" style="fill: rgb(255, 255, 255); fill-opacity: 1;"/><defs id="defs-5bbd32"><g class="clips"><clipPath id="clip5bbd32xyplot" class="plotclip"><rect width="647" height="380"/></clipPath><clipPath class="axesclip" id="clip5bbd32x"><rect x="57" y="0" width="647" height="500"/></clipPath><clipPath class="axesclip" id="clip5bbd32y"><rect x="0" y="60" width="800" height="380"/></clipPath><clipPath class="axesclip" id="clip5bbd32xy"><rect x="57" y="60" width="647" height="380"/></clipPath></g><g class="gradients"/><g class="patterns"/></defs><g class="bglayer"/><g class="layer-below"><g class="imagelayer"/><g class="shapelayer"/></g><g class="cartesianlayer"><g class="subplot xy"><g class="layer-subplot"><g class="shapelayer"/><g class="imagelayer"/></g><g class="minor-gridlayer"><g class="x"/><g class="y"/></g><g class="gridlayer"><g class="x"><path class="xgrid crisp" transform="translate(178.93,0)" d="M0,60v380" style="stroke: rgb(204, 204, 204); stroke-opacity: 1; stroke-width: 1px;"/><path class="xgrid crisp" transform="translate(303.36,0)" d="M0,60v380" style="stroke: rgb(204, 204, 204); stroke-opacity: 1; stroke-width: 1px;"/><path class="xgrid crisp" transform="translate(427.78,0)" d="M0,60v380" style="stroke: rgb(204, 204, 204); stroke-opacity: 1; stroke-width: 1px;"/><path class="xgrid crisp" transform="translate(552.2,0)" d="M0,60v380" style="stroke: rgb(204, 204, 204); stroke-opacity: 1; stroke-width: 1px;"/><path class="xgrid crisp" transform="translate(676.63,0)" d="M0,60v380" style="stroke: rgb(204, 204, 204); stroke-opacity: 1; stroke-width: 1px;"/></g><g class="y"><path class="ygrid crisp" transform="translate(0,414.91)" d="M57,0h647" style="stroke: rgb(204, 204, 204); stroke-opacity: 1; stroke-width: 1px;"/><path class="ygrid crisp" transform="translate(0,251.88)" d="M57,0h647" style="stroke: rgb(204, 204, 204); stroke-opacity: 1; stroke-width: 1px;"/><path class="ygrid crisp" transform="translate(0,170.37)" d="M57,0h647" style="stroke: rgb(204, 204, 204); stroke-opacity: 1; stroke-width: 1px;"/><path class="ygrid crisp" transform="translate(0,88.86)" d="M57,0h647" style="stroke: rgb(204, 204, 204); stroke-opacity: 1; stroke-width: 1px;"/></g></g><g class="zerolinelayer"><path class="yzl zl crisp" transform="translate(0,333.4)" d="M57,0h647" style="stroke: rgb(204, 204, 204); stroke-opacity: 1; stroke-width: 1px;"/></g><g class="layer-between"><g class="shapelayer"/><g class="imagelayer"/></g><path class="xlines-below"/><path class="ylines-below"/><g class="overlines-below"/><g class="xaxislayer-below"/><g class="yaxislayer-below"/><g class="overaxes-below"/><g class="overplot"><g class="xy" transform="translate(57,60)" clip-path="url(#clip5bbd32xyplot)"><g class="scatterlayer mlayer"><g class="trace scatter trace760f71" style="stroke-miterlimit: 2; opacity: 1;"><g class="fills"/><g class="errorbars"/><g class="lines"><path class="js-line" d="M0,273.4L2.49,276.3L4.98,272.84L7.47,273.49L9.95,272.01L12.44,274.89L14.93,268.68L17.42,268.75L19.91,271.93L22.4,272.02L24.88,283.18L27.37,282.07L29.86,283.02L32.35,279.88L34.84,282.08L37.33,286.31L39.82,281.75L42.3,287.53L44.79,286.43L47.28,289.62L49.77,287.63L52.26,291.68L54.75,283.74L57.23,296.19L59.72,302.94L67.19,297.76L69.68,296.77L72.17,298.63L74.65,308.02L77.14,305.25L79.63,298.55L84.61,297.47L87.1,293.25L89.58,291.6L92.07,291.01L94.56,291.36L97.05,286.81L102.03,288.72L104.52,289.11L107,286.12L109.49,285.96L114.47,272.38L116.96,273.63L119.45,275.69L121.93,275.54L124.42,272.4L126.91,282.04L129.4,281.34L131.89,283.65L134.38,284.61L136.87,276.23L141.84,293.29L144.33,288.85L149.31,290.3L151.8,296.13L154.28,295.5L156.77,302.9L159.26,298.98L161.75,289.05L166.73,288.77L169.22,285.58L171.7,285.92L174.19,302.98L176.68,305.45L179.17,317.99L181.66,320.58L184.15,321.42L186.63,313.37L189.12,317.77L191.61,315.98L194.1,316.08L196.59,309.12L199.08,309.46L201.57,304.9L204.05,310.27L206.54,306.23L209.03,314.41L211.52,307.66L214.01,305.56L216.5,300L218.98,299.08L221.47,301.15L223.96,302.09L226.45,297.06L228.94,298.67L231.43,295.94L233.92,291.58L236.4,281.84L238.89,284.43L241.38,284.15L243.87,285.96L246.36,286.39L248.85,291.04L251.33,292.15L253.82,287.41L256.31,285.68L258.8,285.97L261.29,294.23L263.78,289.67L266.27,287.35L268.75,278.86L271.24,282.62L273.73,284.21L276.22,281.17L278.71,294.17L283.68,303.28L286.17,293.08L288.66,303.78L291.15,308.34L293.64,304.19L296.13,303.42L298.62,302.84L301.1,309L303.59,310.46L306.08,304.41L308.57,307.17L311.06,312.2L313.55,308.73L316.03,307.42L318.52,303.27L321.01,302.58L323.5,296.4L325.99,292.52L328.48,288.44L330.97,290.84L333.45,292.38L335.94,289.93L340.92,278.66L343.41,280.38L345.9,279.57L348.38,273.66L350.87,280.01L353.36,282.16L355.85,280.82L358.34,286.46L360.83,288.47L363.32,287.59L365.8,286.07L368.29,291.26L370.78,292.17L373.27,290.58L375.76,295.67L378.25,278.16L380.73,271.76L383.22,274.84L385.71,276.27L388.2,276.75L390.69,277L393.18,274.8L395.67,265.61L398.15,262.74L400.64,268.67L403.13,260.81L408.11,245.27L410.6,242.31L413.08,247.88L415.57,236.23L418.06,240.61L420.55,237.17L423.04,246.78L425.53,253.07L428.02,257.74L430.5,253.91L432.99,258.15L435.48,252.38L437.97,248.15L440.46,252.01L442.95,259.48L445.43,261.68L447.92,262.82L450.41,253.52L452.9,253.88L455.39,244.82L457.88,247.68L460.37,246.9L462.85,240.54L465.34,240.26L467.83,248.04L470.32,237.84L472.81,244.82L475.3,238.25L477.78,240.09L480.27,244.51L482.76,254.5L485.25,257.94L487.74,259.87L490.23,268.87L492.72,269.05L495.2,267.4L497.69,273.72L500.18,274.77L502.67,273.97L505.16,278.19L507.65,280.59L510.13,285.14L512.62,289.75L515.11,284.48L517.6,292.15L520.09,294.42L522.58,297.09L525.07,290.29L527.55,295.14L530.04,292.58L532.53,291.68L535.02,286.06L537.51,281.97L540,289.32L544.97,275.2L547.46,304.97L549.95,293.55L552.44,306.55L554.93,315.85L557.42,320.79L559.9,329.6L562.39,334.49L564.88,332.85L567.37,324.41L569.86,324.96L572.35,332.59L577.32,351.26L579.81,339.98L582.3,340.67L584.79,329.29L587.28,330.98L589.77,327.62L592.25,339.42L594.74,337.84L597.23,337.41L599.72,326.31L604.7,331.16L607.18,335.04L612.16,343.71L614.65,338.9L617.14,337.48L619.63,340.41L622.12,361L624.6,359.65L627.09,349.97L629.58,353.23L632.07,353.97L634.56,350.82L637.05,350.2L639.53,352.9L642.02,360.21" style="vector-effect: none; fill: none; stroke: rgb(255, 73, 73); stroke-opacity: 1; stroke-width: 2px; opacity: 1;"/></g><g class="points"/><g class="text"/></g><g class="trace scatter trace25e4d6" style="stroke-miterlimit: 2; opacity: 1;"><g class="fills"/><g class="errorbars"/><g class="lines"><path class="js-line" d="M0,273.4L2.49,266.63L4.98,253.58L7.47,261.54L9.95,264.93L12.44,267.99L14.93,277.17L17.42,276.62L19.91,266.61L22.4,269.74L24.88,267.57L27.37,272.38L29.86,249.48L32.35,247.72L34.84,250.62L37.33,249.52L39.82,236.23L42.3,237.39L44.79,247.17L47.28,248.64L49.77,253.56L54.75,260.86L57.23,255.35L59.72,251.61L62.21,254.65L64.7,263.45L67.19,266.78L69.68,258.17L72.17,254.77L74.65,241.82L77.14,237.69L79.63,238.62L82.12,244.68L84.61,248.37L87.1,235.92L89.58,242.55L92.07,241.24L94.56,233.99L97.05,238.6L99.54,252.31L102.03,255.58L107,216.14L109.49,190.24L111.98,191.01L114.47,183.52L116.96,183.18L119.45,169.61L124.42,180.14L126.91,175.87L129.4,169L131.89,165.46L139.35,185.82L141.84,188.34L144.33,189.88L146.82,195.82L149.31,188.27L151.8,183.84L154.28,185.96L156.77,189.54L159.26,180.17L161.75,148.5L164.24,164.31L166.73,170.4L169.22,162.97L171.7,164.72L174.19,125.15L176.68,101.93L179.17,101.06L181.66,111.69L184.15,93.39L186.63,98.39L189.12,94.01L191.61,74.92L196.59,106.31L199.08,94.66L201.57,98.73L204.05,90.01L206.54,95.59L209.03,104.52L211.52,110.74L214.01,110.1L216.5,106.84L218.98,98.02L223.96,120.72L226.45,116.55L228.94,143.32L231.43,127.28L233.92,129.12L236.4,126.93L238.89,130.45L241.38,118.6L246.36,104.06L248.85,112.17L251.33,98.77L253.82,95.35L256.31,104.41L258.8,110.26L261.29,98.01L263.78,101.53L266.27,86.68L268.75,97.51L271.24,90.57L273.73,86.05L276.22,93.89L278.71,89.79L281.2,89.36L283.68,79.38L286.17,64.05L288.66,69.72L291.15,67.63L293.64,80.51L296.13,80.47L298.62,78.13L301.1,73.62L303.59,65.09L306.08,59.92L308.57,52.02L311.06,45.46L313.55,44L316.03,31.7L318.52,28.69L321.01,29.85L323.5,36.52L325.99,33.65L328.48,44.26L330.97,41.54L333.45,42.38L335.94,45.49L338.43,47.36L340.92,51.2L343.41,61.24L345.9,54.86L348.38,61.99L350.87,57.87L353.36,46.56L355.85,36.93L358.34,34.27L360.83,37.74L363.32,38.87L365.8,63.15L368.29,69.8L370.78,92.41L373.27,90.86L375.76,63.75L378.25,65.98L380.73,65.36L383.22,51.97L385.71,51.12L388.2,55.08L390.69,59.04L393.18,49.57L395.67,44.66L398.15,53.9L400.64,45.26L403.13,51.79L405.62,54.03L408.11,53.21L410.6,60.53L413.08,42.89L415.57,58.5L418.06,54.73L420.55,55.31L423.04,48.17L425.53,47.9L428.02,43.79L430.5,55.06L432.99,51.6L435.48,53.6L437.97,43.02L440.46,35.49L442.95,44.23L445.43,46.39L447.92,40.15L450.41,39.96L452.9,35.86L455.39,19L457.88,27.62L460.37,31.75L462.85,37.76L465.34,29.18L467.83,27.23L472.81,50.97L475.3,44.98L477.78,41.32L480.27,40.26L485.25,43.09L487.74,38.85L490.23,43.96L492.72,52.4L495.2,56.76L497.69,67.13L500.18,58.6L502.67,66.22L510.13,47.58L512.62,52.88L515.11,54.82L517.6,61.47L530.04,53.35L532.53,61.27L537.51,71.53L540,74.17L542.48,80.15L544.97,78.54L547.46,69.84L549.95,66.63L552.44,68.22L554.93,64.23L557.42,62.51L559.9,56.1L562.39,58.31L564.88,62.76L567.37,64.48L569.86,71.37L574.83,75.01L577.32,74.03L579.81,66.14L582.3,62.23L587.28,61.89L589.77,59.85L592.25,57.6L594.74,50.14L597.23,54.37L599.72,54.43L604.7,56.91L607.18,46.31L609.67,39.53L612.16,39.11L614.65,37.19L617.14,38.14L619.63,39.14L622.12,42.05L624.6,44L627.09,35.83L629.58,30.51L632.07,32.56L634.56,34.06L637.05,34L639.53,37.93L642.02,39.1" style="vector-effect: none; fill: none; stroke: rgb(255, 121, 25); stroke-opacity: 1; stroke-width: 2px; opacity: 1;"/></g><g class="points"/><g class="text"/></g><g class="trace scatter traceeae148" style="stroke-miterlimit: 2; opacity: 1;"><g class="fills"/><g class="errorbars"/><g class="lines"><path class="js-line" d="M0,273.4L2.49,273.21L4.98,277.8L9.95,281.85L12.44,285.02L14.93,280.84L17.42,284.22L19.91,283.97L22.4,288.97L24.88,290.46L27.37,283.76L29.86,272.78L32.35,278.51L39.82,251.08L42.3,228.98L44.79,240.86L47.28,238.5L49.77,255.38L52.26,263.6L54.75,259.78L57.23,261.32L59.72,265.47L62.21,260.28L64.7,246.54L67.19,249.09L69.68,252.34L72.17,252.5L74.65,252.61L77.14,255.23L79.63,254.62L82.12,264.69L84.61,266.02L87.1,264.48L89.58,264.4L92.07,266.13L94.56,260.89L97.05,262.68L99.54,260.7L102.03,277.94L104.52,288.1L107,285.5L109.49,288.88L111.98,287.55L114.47,285.17L116.96,288.59L121.93,302.43L124.42,315.64L126.91,303.4L129.4,298.5L131.89,310.72L134.38,291.73L136.87,294.02L139.35,288.31L141.84,289.13" style="vector-effect: none; fill: none; stroke: rgb(0, 73, 25); stroke-opacity: 1; stroke-width: 2px; opacity: 1;"/></g><g class="points"/><g class="text"/></g></g></g></g><g class="zerolinelayer-above"/><path class="xlines-above crisp" d="M56,440.5H705M56,59.5H705" style="fill: none; stroke-width: 1px; stroke: rgb(204, 204, 204); stroke-opacity: 1;"/><path class="ylines-above crisp" d="M56.5,60V440M704.5,60V440" style="fill: none; stroke-width: 1px; stroke: rgb(204, 204, 204); stroke-opacity: 1;"/><g class="overlines-above"/><g class="xaxislayer-above"><g class="xtick"><text text-anchor="middle" x="0" y="455.4" transform="translate(178.93,0)" style="font-family: Arial, sans-serif; font-size: 12px; fill: rgb(51, 51, 51); fill-opacity: 1; white-space: pre;">50</text></g><g class="xtick"><text text-anchor="middle" x="0" y="455.4" style="font-family: Arial, sans-serif; font-size: 12px; fill: rgb(51, 51, 51); fill-opacity: 1; white-space: pre;" transform="translate(303.36,0)">100</text></g><g class="xtick"><text text-anchor="middle" x="0" y="455.4" style="font-family: Arial, sans-serif; font-size: 12px; fill: rgb(51, 51, 51); fill-opacity: 1; white-space: pre;" transform="translate(427.78,0)">150</text></g><g class="xtick"><text text-anchor="middle" x="0" y="455.4" style="font-family: Arial, sans-serif; font-size: 12px; fill: rgb(51, 51, 51); fill-opacity: 1; white-space: pre;" transform="translate(552.2,0)">200</text></g><g class="xtick"><text text-anchor="middle" x="0" y="455.4" style="font-family: Arial, sans-serif; font-size: 12px; fill: rgb(51, 51, 51); fill-opacity: 1; white-space: pre;" transform="translate(676.63,0)">250</text></g></g><g class="yaxislayer-above"><path class="ytick ticks crisp" d="M56,0h-6" transform="translate(0,414.91)" style="stroke: rgb(255, 255, 255); stroke-opacity: 1; stroke-width: 1px;"/><path class="ytick ticks crisp" d="M56,0h-6" transform="translate(0,333.4)" style="stroke: rgb(255, 255, 255); stroke-opacity: 1; stroke-width: 1px;"/><path class="ytick ticks crisp" d="M56,0h-6" transform="translate(0,251.88)" style="stroke: rgb(255, 255, 255); stroke-opacity: 1; stroke-width: 1px;"/><path class="ytick ticks crisp" d="M56,0h-6" transform="translate(0,170.37)" style="stroke: rgb(255, 255, 255); stroke-opacity: 1; stroke-width: 1px;"/><path class="ytick ticks crisp" d="M56,0h-6" transform="translate(0,88.86)" style="stroke: rgb(255, 255, 255); stroke-opacity: 1; stroke-width: 1px;"/><g class="ytick"><text text-anchor="end" x="47.6" y="4.199999999999999" transform="translate(0,414.91)" style="font-family: Arial, sans-serif; font-size: 12px; fill: rgb(51, 51, 51); fill-opacity: 1; white-space: pre;">−5</text></g><g class="ytick"><text text-anchor="end" x="47.6" y="4.199999999999999" style="font-family: Arial, sans-serif; font-size: 12px; fill: rgb(51, 51, 51); fill-opacity: 1; white-space: pre;" transform="translate(0,333.4)">0</text></g><g class="ytick"><text text-anchor="end" x="47.6" y="4.199999999999999" style="font-family: Arial, sans-serif; font-size: 12px; fill: rgb(51, 51, 51); fill-opacity: 1; white-space: pre;" transform="translate(0,251.88)">5</text></g><g class="ytick"><text text-anchor="end" x="47.6" y="4.199999999999999" style="font-family: Arial, sans-serif; font-size: 12px; fill: rgb(51, 51, 51); fill-opacity: 1; white-space: pre;" transform="translate(0,170.37)">10</text></g><g class="ytick"><text text-anchor="end" x="47.6" y="4.199999999999999" style="font-family: Arial, sans-serif; font-size: 12px; fill: rgb(51, 51, 51); fill-opacity: 1; white-space: pre;" transform="translate(0,88.86)">15</text></g></g><g class="overaxes-above"/></g></g><g class="polarlayer"/><g class="smithlayer"/><g class="ternarylayer"/><g class="geolayer"/><g class="funnelarealayer"/><g class="pielayer"/><g class="iciclelayer"/><g class="treemaplayer"/><g class="sunburstlayer"/><g class="glimages"/><defs id="topdefs-5bbd32"><g class="clips"/><clipPath id="legend5bbd32"><rect width="73" height="67" x="0" y="0"/></clipPath></defs><g class="layer-above"><g class="imagelayer"/><g class="shapelayer"><g class="shape-group" data-index="0" clip-path="url(#clip5bbd32x)"><path data-index="0" fill-rule="evenodd" d="M198.84,440L198.84,60" style="opacity: 1; stroke: rgb(136, 136, 136); stroke-opacity: 1; fill: rgb(0, 0, 0); fill-opacity: 0; stroke-dasharray: 3px, 3px; stroke-width: 1px;"/></g><g class="shape-group" data-index="1" clip-path="url(#clip5bbd32x)"><path data-index="1" fill-rule="evenodd" d="M198.84,440L198.84,60" style="opacity: 1; stroke: rgb(136, 136, 136); stroke-opacity: 1; fill: rgb(0, 0, 0); fill-opacity: 0; stroke-dasharray: 3px, 3px; stroke-width: 1px;"/></g><g class="shape-group" data-index="2" clip-path="url(#clip5bbd32x)"><path data-index="2" fill-rule="evenodd" d="M198.84,440L198.84,60" style="opacity: 1; stroke: rgb(136, 136, 136); stroke-opacity: 1; fill: rgb(0, 0, 0); fill-opacity: 0; stroke-dasharray: 3px, 3px; stroke-width: 1px;"/></g></g></g><g class="infolayer"><g class="legend" pointer-events="all" transform="translate(716.94,60)"><rect class="bg" shape-rendering="crispEdges" style="stroke: rgb(68, 68, 68); stroke-opacity: 1; fill: rgb(255, 255, 255); fill-opacity: 1; stroke-width: 0px;" width="73" height="67" x="0" y="0"/><g class="scrollbox" transform="" clip-path="url(#legend5bbd32)"><g class="groups"><g class="traces" transform="translate(0,14.5)" style="opacity: 1;"><text class="legendtext" text-anchor="start" x="40" y="4.680000000000001" style="font-family: Arial, sans-serif; font-size: 12px; fill: rgb(51, 51, 51); fill-opacity: 1; white-space: pre;">2024</text><g class="layers" style="opacity: 1;"><g class="legendfill"/><g class="legendlines"><path class="js-line" d="M5,0h30" style="fill: none; stroke: rgb(255, 73, 73); stroke-opacity: 1; stroke-width: 2px;"/></g><g class="legendsymbols"><g class="legendpoints"/></g></g><rect class="legendtoggle" x="0" y="-9.5" width="67.021484375" height="19" style="fill: rgb(0, 0, 0); fill-opacity: 0;"/></g><g class="traces" transform="translate(0,33.5)" style="opacity: 1;"><text class="legendtext" text-anchor="start" x="40" y="4.680000000000001" style="font-family: Arial, sans-serif; font-size: 12px; fill: rgb(51, 51, 51); fill-opacity: 1; white-space: pre;">2025</text><g class="layers" style="opacity: 1;"><g class="legendfill"/><g class="legendlines"><path class="js-line" d="M5,0h30" style="fill: none; stroke: rgb(255, 121, 25); stroke-opacity: 1; stroke-width: 2px;"/></g><g class="legendsymbols"><g class="legendpoints"/></g></g><rect class="legendtoggle" x="0" y="-9.5" width="67.021484375" height="19" style="fill: rgb(0, 0, 0); fill-opacity: 0;"/></g><g class="traces" transform="translate(0,52.5)" style="opacity: 1;"><text class="legendtext" text-anchor="start" x="40" y="4.680000000000001" style="font-family: Arial, sans-serif; font-size: 12px; fill: rgb(51, 51, 51); fill-opacity: 1; white-space: pre;">2026</text><g class="layers" style="opacity: 1;"><g class="legendfill"/><g class="legendlines"><path class="js-line" d="M5,0h30" style="fill: none; stroke: rgb(0, 73, 25); stroke-opacity: 1; stroke-width: 2px;"/></g><g class="legendsymbols"><g class="legendpoints"/></g></g><rect class="legendtoggle" x="0" y="-9.5" width="67.021484375" height="19" style="fill: rgb(0, 0, 0); fill-opacity: 0;"/></g></g></g><rect class="scrollbar" rx="20" ry="3" width="0" height="0" style="fill: rgb(128, 139, 164); fill-opacity: 1;" x="0" y="0"/></g><g class="g-gtitle"><text class="gtitle" x="400" y="30" text-anchor="middle" dy="0em" style="opacity: 1; font-family: Arial, sans-serif; font-size: 16px; fill: rgb(51, 51, 51); fill-opacity: 1; white-space: pre;"><tspan style="font-weight:bold">Seasonality (Normalized)</tspan></text></g><g class="g-xtitle"><text class="xtitle" x="380.5" y="482.000390625" text-anchor="middle" style="opacity: 1; font-family: Arial, sans-serif; font-size: 13px; fill: rgb(51, 51, 51); fill-opacity: 1; white-space: pre;"><tspan style="font-weight:bold">Trading Day of the Year</tspan></text></g><g class="g-ytitle"><text class="ytitle" transform="rotate(-90,14.862109375000003,250)" x="14.862109375000003" y="250" text-anchor="middle" style="opacity: 1; font-family: Arial, sans-serif; font-size: 13px; fill: rgb(51, 51, 51); fill-opacity: 1; white-space: pre;"><tspan style="font-weight:bold">Cumulative Return (%)</tspan></text></g><g class="annotation" data-index="0" style="opacity: 1;"><g class="annotation-text-g" transform="rotate(0,198.84,46.30000000000004)"><g class="cursor-pointer" transform="translate(181,38)"><rect class="bg" x="0.5" y="0.5" width="34" height="15" style="stroke-width: 1px; stroke: rgb(0, 0, 0); stroke-opacity: 0; fill: rgb(0, 0, 0); fill-opacity: 0;"/><text class="annotation-text" text-anchor="middle" x="17.6796875" y="12" style="font-family: Arial, sans-serif; font-size: 11px; fill: rgb(102, 102, 102); fill-opacity: 1; white-space: pre;">Today</text></g></g></g><g class="annotation" data-index="1" style="opacity: 1;"><g class="annotation-text-g" transform="rotate(0,198.84,46.30000000000004)"><g class="cursor-pointer" transform="translate(181,38)"><rect class="bg" x="0.5" y="0.5" width="34" height="15" style="stroke-width: 1px; stroke: rgb(0, 0, 0); stroke-opacity: 0; fill: rgb(0, 0, 0); fill-opacity: 0;"/><text class="annotation-text" text-anchor="middle" x="17.6796875" y="12" style="font-family: Arial, sans-serif; font-size: 11px; fill: rgb(102, 102, 102); fill-opacity: 1; white-space: pre;">Today</text></g></g></g><g class="annotation" data-index="2" style="opacity: 1;"><g class="annotation-text-g" transform="rotate(0,198.84,46.30000000000004)"><g class="cursor-pointer" transform="translate(181,38)"><rect class="bg" x="0.5" y="0.5" width="34" height="15" style="stroke-width: 1px; stroke: rgb(0, 0, 0); stroke-opacity: 0; fill: rgb(0, 0, 0); fill-opacity: 0;"/><text class="annotation-text" text-anchor="middle" x="17.6796875" y="12" style="font-family: Arial, sans-serif; font-size: 11px; fill: rgb(102, 102, 102); fill-opacity: 1; white-space: pre;">Today</text></g></g></g></g></svg>