<svg class="main-svg" xmlns="http://www.w3.org/2000/svg" xmlns:xlink="http://www.w3.org/1999/xlink" width="800" height="500" style="" viewBox="0 0 800 500"><rect x="0" y="0" width="800" height="500" style="fill: rgb(255, 255, 255); fill-opacity: 1;"/><defs id="defs-c1117f"><g class="clips"><clipPath id="clipc1117fxyplot" class="plotclip"><rect width="640" height="380"/></clipPath><clipPath class="axesclip" id="clipc1117fx"><rect x="64" y="0" width="640" height="500"/></clipPath><clipPath class="axesclip" id="clipc1117fy"><rect x="0" y="60" width="800" height="380"/></clipPath><clipPath class="axesclip" id="clipc1117fxy"><rect x="64" y="60" width="640" height="380"/></clipPath></g><g class="gradients"/><g class="patterns"/></defs><g class="bglayer"/><g class="layer-below"><g class="imagelayer"/><g class="shapelayer"/></g><g class="cartesianlayer"><g class="subplot xy"><g class="layer-subplot"><g class="shapelayer"/><g class="imagelayer"/></g><g class="minor-gridlayer"><g class="x"/><g class="y"/></g><g class="gridlayer"><g class="x"><path class="xgrid crisp" transform="translate(186.5,0)" d="M0,60v380" style="stroke: rgb(204, 204, 204); stroke-opacity: 1; stroke-width: 1px;"/><path class="xgrid crisp" transform="translate(311.5,0)" d="M0,60v380" style="stroke: rgb(204, 204, 204); stroke-opacity: 1; stroke-width: 1px;"/><path class="xgrid crisp" transform="translate(436.5,0)" d="M0,60v380" style="stroke: rgb(204, 204, 204); stroke-opacity: 1; stroke-width: 1px;"/><path class="xgrid crisp" transform="translate(561.5,0)" d="M0,60v380" style="stroke: rgb(204, 204, 204); stroke-opacity: 1; stroke-width: 1px;"/><path class="xgrid crisp" transform="translate(686.5,0)" d="M0,60v380" style="stroke: rgb(204, 204, 204); stroke-opacity: 1; stroke-width: 1px;"/></g><g class="y"><path class="ygrid crisp" transform="translate(0,382.04)" d="M64,0h640" style="stroke: rgb(204, 204, 204); stroke-opacity: 1; stroke-width: 1px;"/><path class="ygrid crisp" transform="translate(0,304.86)" d="M64,0h640" style="stroke: rgb(204, 204, 204); stroke-opacity: 1; stroke-width: 1px;"/><path class="ygrid crisp" transform="translate(0,227.68)" d="M64,0h640" style="stroke: rgb(204, 204, 204); stroke-opacity: 1; stroke-width: 1px;"/><path class="ygrid crisp" transform="translate(0,73.31)" d="M64,0h640" style="stroke: rgb(204, 204, 204); stroke-opacity: 1; stroke-width: 1px;"/></g></g><g class="zerolinelayer"><path class="yzl zl crisp" transform="translate(0,150.49)" d="M64,0h640" style="stroke: rgb(204, 204, 204); stroke-opacity: 1; stroke-width: 1px;"/></g><g class="layer-between"><g class="shapelayer"/><g class="imagelayer"/></g><path class="xlines-below"/><path class="ylines-below"/><g class="overlines-below"/><g class="xaxislayer-below"/><g class="yaxislayer-below"/><g class="overaxes-below"/><g class="overplot"><g class="xy" transform="translate(64,60)" clip-path="url(#clipc1117fxyplot)"><g class="scatterlayer mlayer"><g class="trace scatter trace37f56b" style="stroke-miterlimit: 2; opacity: 1;"><g class="fills"/><g class="errorbars"/><g class="lines"><path class="js-line" d="M0,90.49L2.5,84.34L5,101.26L7.5,105.66L10,107.86L12.5,123.02L15,126.76L17.5,128.96L20,121.71L25,139.29L27.5,145L30,156.87L32.5,150.72L35,141.05L37.5,161.71L40,160.83L42.5,150.94L45,158.85L47.5,143.68L50,155.33L52.5,122.36L55,108.52L57.5,137.09L60,163.03L62.5,159.07L65,159.29L67.5,175.12L70,175.12L72.5,173.14L75,172.7L77.5,161.93L80,159.95L82.5,168.96L85,177.97L87.5,167.86L90,181.27L92.5,172.04L95,160.61L97.5,178.63L100,187.64L102.5,185.23L105,170.28L107.5,172.04L110,144.12L112.5,148.3L115,135.77L117.5,137.09L120,143.68L122.5,146.98L127.5,178.41L130,179.73L132.5,185.23L135,184.13L140,177.31L142.5,154.02L145,164.13L147.5,159.73L150,143.68L152.5,141.71L155,145L157.5,183.25L160,179.29L162.5,163.03L165,177.75L167.5,183.03L170,161.49L172.5,171.6L175,186.99L177.5,157.09L180,181.05L182.5,196.22L185,187.86L187.5,192.48L190,196.22L192.5,196L195,201.71L197.5,225.01L200,232.48L202.5,218.86L205,203.03L207.5,217.32L210,217.98L212.5,208.09L217.5,193.14L220,176L225,201.49L227.5,208.09L230,205.67L232.5,215.34L235,186.11L237.5,188.3L240,206.99L242.5,215.78L245,207.87L247.5,213.58L250,227.87L252.5,219.08L255,215.78L257.5,224.35L260,253.36L262.5,252.48L265,244.79L267.5,229.85L272.5,207.65L275,213.8L277.5,214.24L280,234.9L282.5,229.41L285,204.57L287.5,199.95L290,148.96L292.5,165.23L295,161.05L297.5,163.91L300,175.12L302.5,172.7L305,181.49L307.5,175.12L310,190.28L312.5,188.08L315,202.81L317.5,234.02L320,236.88L322.5,218.64L325,223.91L327.5,212.92L330,206.99L332.5,218.86L335,207.87L337.5,194.02L340,201.93L342.5,195.12L345,183.69L347.5,178.41L350,180.61L352.5,195.34L355,195.56L357.5,188.74L360,195.78L362.5,186.77L365,185.89L367.5,168.96L370,167.42L372.5,153.36L375,134.01L377.5,120.61L380,115.11L382.5,115.99L385,145.66L387.5,148.96L390,134.23L392.5,138.85L395,121.92L397.5,122.8L400,142.81L402.5,137.09L405,139.95L407.5,126.98L410,126.76L412.5,140.83L415,137.31L417.5,141.71L420,157.97L422.5,149.4L425,158.19L427.5,155.77L430,173.58L432.5,152.7L435,138.85L437.5,138.63L440,120.61L442.5,126.76L445,123.24L447.5,110.72L450,124.34L452.5,127.42L455,116.21L457.5,116.21L460,135.33L462.5,147.86L465,153.8L467.5,147.86L470,139.07L472.5,149.62L475,148.52L477.5,140.39L480,136.43L482.5,104.56L485,129.4L487.5,137.09L490,147.42L492.5,160.83L495,163.25L497.5,162.59L500,166.98L502.5,170.94L505,169.4L510,140.83L512.5,158.85L515,151.16L517.5,178.19L522.5,195.12L525,169.62L527.5,177.31L530,180.83L532.5,190.28L535,188.52L537.5,179.51L540,190.94L542.5,176L545,183.69L547.5,192.92L550,205.89L552.5,180.61L555,168.96L557.5,166.98L560,176.65L565,171.16L567.5,173.8L570,162.37L572.5,168.3L575,163.03L577.5,152.7L580,133.35L582.5,130.28L585,114.01L587.5,104.56L590,97.75L592.5,80.82L595,81.92L597.5,84.56L600,92.03L602.5,95.77L610,115.55L612.5,128.3L615,144.78L617.5,144.56L620,137.31L622.5,145.22L625,163.03L627.5,158.85L630,168.3L632.5,189.4L635,176" style="vector-effect: none; fill: none; stroke: rgb(255, 73, 73); stroke-opacity: 1; stroke-width: 2px; opacity: 1;"/></g><g class="points"/><g class="text"/></g><g class="trace scatter trace439fe8" style="stroke-miterlimit: 2; opacity: 1;"><g class="fills"/><g class="errorbars"/><g class="lines"><path class="js-line" d="M0,90.49L2.5,103.84L5,112.51L10,136.16L12.5,142.02L17.5,152.79L20,166.14L22.5,144.13L25,148.34L27.5,137.1L30,134.52L32.5,130.78L35,134.06L37.5,143.19L40,147.64L42.5,137.8L45,145.06L47.5,148.81L50,137.33L52.5,124.45L55,101.03L57.5,104.78L60,86.98L62.5,89.79L65,98.69L67.5,93.54L70,118.6L72.5,132.42L75,112.51L77.5,109.7L80,132.88L82.5,134.06L85,148.11L87.5,149.75L90,125.86L92.5,131.48L95,127.97L97.5,121.88L100,121.64L102.5,114.15L105,153.96L107.5,159.12L110,226.57L112.5,240.15L115,244.83L117.5,243.9L120,264.51L125,262.4L127.5,270.13L130,243.2L132.5,250.22L135,238.28L137.5,241.56L140,240.85L142.5,246.94L147.5,253.27L150,252.33L152.5,240.85L155,237.57L157.5,221.88L160,229.61L162.5,222.82L165,204.32L167.5,216.96L170,221.88L172.5,203.85L175,201.98L177.5,175.28L180,179.02L182.5,189.8L185,185.82L187.5,180.9L190,170.36L192.5,189.09L195,176.45L197.5,181.83L200,192.84L202.5,189.8L205,180.9L207.5,201.98L210,205.02L212.5,213.22L215,191.44L220,215.56L222.5,233.12L225,243.2L227.5,249.52L232.5,221.88L235,219.77L240,248.82L242.5,254.44L245,236.87L247.5,228.91L250,215.56L252.5,219.77L255,210.41L257.5,210.41L260,213.92L262.5,210.64L265,213.22L267.5,222.82L270,221.65L272.5,227.74L275,212.05L277.5,220.48L280,201.74L282.5,214.86L287.5,215.32L290,204.55L292.5,209.94L295,212.51L297.5,208.77L300,220.95L302.5,233.59L305,239.45L307.5,241.09L310,243.66L312.5,231.95L315,245.07L317.5,236.17L320,235.47L325,259.59L327.5,257.48L330,268.96L332.5,276.69L335,282.54L337.5,272.94L340,274.81L342.5,268.72L345,278.56L347.5,251.16L350,244.6L352.5,252.8L355,269.89L357.5,273.41L360,266.15L362.5,265.44L365,268.26L367.5,259.59L370,265.21L372.5,252.33L375,251.16L377.5,258.18L380,252.09L382.5,267.32L385,273.17L387.5,293.08L390,273.88L392.5,283.48L395,303.85L397.5,306.2L400,300.81L402.5,290.97L405,301.75L407.5,294.25L410,304.09L412.5,299.17L415,293.08L417.5,293.78L420,299.64L422.5,309.71L425,320.48L427.5,310.65L430,304.79L432.5,294.49L435,288.87L437.5,295.89L440,293.31L442.5,286.29L445,296.13L447.5,294.25L450,291.91L452.5,280.43L455,298.7L457.5,307.84L460,310.88L462.5,309.94L465,310.18L467.5,306.9L470,303.39L472.5,290.97L477.5,297.06L480,291.44L482.5,290.27L485,294.72L487.5,298.23L490,289.1L492.5,292.85L495,275.98L497.5,275.75L500,267.08L502.5,253.27L505,261.46L507.5,263.34L510,262.17L512.5,251.86L515,256.08L517.5,259.59L520,272.7L522.5,267.32L525,265.91L530,268.02L532.5,274.34L535,280.2L537.5,277.86L540,283.48L542.5,280.67L545,286.76L547.5,284.65L552.5,277.86L555,290.04L557.5,298.7L560,298L562.5,301.51L565,303.39L567.5,307.84L570,302.92L572.5,302.21L575,294.02L577.5,297.53L580,297.53L582.5,301.51L585,316.74L587.5,318.61L590,317.67L592.5,320.95L595,334.07L597.5,344.61L600,341.8L602.5,342.03L605,340.39L607.5,348.12L610,342.26L612.5,343.9L615,346.48L617.5,347.42L620,359.83L622.5,361L625,346.71L627.5,340.62L630,344.61" style="vector-effect: none; fill: none; stroke: rgb(255, 121, 25); stroke-opacity: 1; stroke-width: 2px; opacity: 1;"/></g><g class="points"/><g class="text"/></g><g class="trace scatter trace05cd8d" style="stroke-miterlimit: 2; opacity: 1;"><g class="fills"/><g class="errorbars"/><g class="lines"><path class="js-line" d="M0,90.49L5,74.32L7.5,62.41L10,72.05L12.5,68.36L15,59.29L17.5,63.54L22.5,47.94L25,56.73L27.5,62.69L30,72.62L32.5,78.29L35,75.74L37.5,77.44L40,69.5L42.5,73.19L45,74.04L47.5,68.93L50,75.46L52.5,80.56L55,91.06L60,76.59L62.5,79.71L65,83.12L67.5,71.49L70,66.95L72.5,60.42L75,51.34L77.5,53.04L80,45.95L82.5,46.24L85,47.94L87.5,44.25L90,39.43L92.5,37.16L95,37.72L97.5,30.35L100,19L102.5,30.35L105,43.68L107.5,41.41L110,54.46L112.5,61.27L115,60.7L117.5,62.97L120,77.73L122.5,85.1L125,90.49L127.5,84.82L130,75.46L132.5,75.17L135,70.35L137.5,87.37L140,80.85L142.5,76.59L145,57.02L147.5,81.42L150,99L152.5,80.28L155,70.07L157.5,66.38L160,68.93L162.5,92.2L165,66.38L167.5,90.49L172.5,112.62L175,104.4L177.5,107.52L180,104.11L182.5,91.63L185,94.75L187.5,92.48L190,86.24L192.5,88.22L195,86.81L197.5,97.3L200,100.14L202.5,100.71L205,88.22L207.5,98.15L210,103.54L212.5,88.79L215,87.66L217.5,89.36L220,99.29L222.5,112.91L225,115.18L227.5,103.26L230,125.11L235,134.18L237.5,116.03L240,112.62L242.5,97.02L245,75.17L247.5,80.85L250,84.82L252.5,79.43L255,72.34L257.5,89.64L260,81.13L262.5,94.47L265,92.76L267.5,94.75L270,109.22L272.5,110.35L275,111.2L277.5,99.86L280,97.3L282.5,88.22L290,68.08L292.5,90.49L297.5,70.07L300,54.18L302.5,50.21L305,52.76L307.5,53.33L310,56.45L317.5,81.98L320,87.37L322.5,98.44L325,120.28L327.5,117.73L330,113.19L332.5,116.59L335,116.88" style="vector-effect: none; fill: none; stroke: rgb(0, 73, 25); stroke-opacity: 1; stroke-width: 2px; opacity: 1;"/></g><g class="points"/><g class="text"/></g></g></g></g><g class="zerolinelayer-above"/><path class="xlines-above crisp" d="M63,440.5H705M63,59.5H705" style="fill: none; stroke-width: 1px; stroke: rgb(204, 204, 204); stroke-opacity: 1;"/><path class="ylines-above crisp" d="M63.5,60V440M704.5,60V440" style="fill: none; stroke-width: 1px; stroke: rgb(204, 204, 204); stroke-opacity: 1;"/><g class="overlines-above"/><g class="xaxislayer-above"><g class="xtick"><text text-anchor="middle" x="0" y="455.4" transform="translate(186.5,0)" style="font-family: Arial, sans-serif; font-size: 12px; fill: rgb(51, 51, 51); fill-opacity: 1; white-space: pre;">50</text></g><g class="xtick"><text text-anchor="middle" x="0" y="455.4" style="font-family: Arial, sans-serif; font-size: 12px; fill: rgb(51, 51, 51); fill-opacity: 1; white-space: pre;" transform="translate(311.5,0)">100</text></g><g class="xtick"><text text-anchor="middle" x="0" y="455.4" style="font-family: Arial, sans-serif; font-size: 12px; fill: rgb(51, 51, 51); fill-opacity: 1; white-space: pre;" transform="translate(436.5,0)">150</text></g><g class="xtick"><text text-anchor="middle" x="0" y="455.4" style="font-family: Arial, sans-serif; font-size: 12px; fill: rgb(51, 51, 51); fill-opacity: 1; white-space: pre;" transform="translate(561.5,0)">200</text></g><g class="xtick"><text text-anchor="middle" x="0" y="455.4" style="font-family: Arial, sans-serif; font-size: 12px; fill: rgb(51, 51, 51); fill-opacity: 1; white-space: pre;" transform="translate(686.5,0)">250</text></g></g><g class="yaxislayer-above"><path class="ytick ticks crisp" d="M63,0h-6" transform="translate(0,382.04)" style="stroke: rgb(255, 255, 255); stroke-opacity: 1; stroke-width: 1px;"/><path class="ytick ticks crisp" d="M63,0h-6" transform="translate(0,304.86)" style="stroke: rgb(255, 255, 255); stroke-opacity: 1; stroke-width: 1px;"/><path class="ytick ticks crisp" d="M63,0h-6" transform="translate(0,227.68)" style="stroke: rgb(255, 255, 255); stroke-opacity: 1; stroke-width: 1px;"/><path class="ytick ticks crisp" d="M63,0h-6" transform="translate(0,150.49)" style="stroke: rgb(255, 255, 255); stroke-opacity: 1; stroke-width: 1px;"/><path class="ytick ticks crisp" d="M63,0h-6" transform="translate(0,73.31)" style="stroke: rgb(255, 255, 255); stroke-opacity: 1; stroke-width: 1px;"/><g class="ytick"><text text-anchor="end" x="54.6" y="4.199999999999999" transform="translate(0,382.04)" style="font-family: Arial, sans-serif; font-size: 12px; fill: rgb(51, 51, 51); fill-opacity: 1; white-space: pre;">−15</text></g><g class="ytick"><text text-anchor="end" x="54.6" y="4.199999999999999" style="font-family: Arial, sans-serif; font-size: 12px; fill: rgb(51, 51, 51); fill-opacity: 1; white-space: pre;" transform="translate(0,304.86)">−10</text></g><g class="ytick"><text text-anchor="end" x="54.6" y="4.199999999999999" style="font-family: Arial, sans-serif; font-size: 12px; fill: rgb(51, 51, 51); fill-opacity: 1; white-space: pre;" transform="translate(0,227.68)">−5</text></g><g class="ytick"><text text-anchor="end" x="54.6" y="4.199999999999999" style="font-family: Arial, sans-serif; font-size: 12px; fill: rgb(51, 51, 51); fill-opacity: 1; white-space: pre;" transform="translate(0,150.49)">0</text></g><g class="ytick"><text text-anchor="end" x="54.6" y="4.199999999999999" style="font-family: Arial, sans-serif; font-size: 12px; fill: rgb(51, 51, 51); fill-opacity: 1; white-space: pre;" transform="translate(0,73.31)">5</text></g></g><g class="overaxes-above"/></g></g><g class="polarlayer"/><g class="smithlayer"/><g class="ternarylayer"/><g class="geolayer"/><g class="funnelarealayer"/><g class="pielayer"/><g class="iciclelayer"/><g class="treemaplayer"/><g class="sunburstlayer"/><g class="glimages"/><defs id="topdefs-c1117f"><g class="clips"/><clipPath id="legendc1117f"><rect width="73" height="67" x="0" y="0"/></clipPath></defs><g class="layer-above"><g class="imagelayer"/><g class="shapelayer"><g class="shape-group" data-index="0" clip-path="url(#clipc1117fx)"><path data-index="0" fill-rule="evenodd" d="M399,440L399,60" style="opacity: 1; stroke: rgb(136, 136, 136); stroke-opacity: 1; fill: rgb(0, 0, 0); fill-opacity: 0; stroke-dasharray: 3px, 3px; stroke-width: 1px;"/></g><g class="shape-group" data-index="1" clip-path="url(#clipc1117fx)"><path data-index="1" fill-rule="evenodd" d="M399,440L399,60" style="opacity: 1; stroke: rgb(136, 136, 136); stroke-opacity: 1; fill: rgb(0, 0, 0); fill-opacity: 0; stroke-dasharray: 3px, 3px; stroke-width: 1px;"/></g><g class="shape-group" data-index="2" clip-path="url(#clipc1117fx)"><path data-index="2" fill-rule="evenodd" d="M399,440L399,60" style="opacity: 1; stroke: rgb(136, 136, 136); stroke-opacity: 1; fill: rgb(0, 0, 0); fill-opacity: 0; stroke-dasharray: 3px, 3px; stroke-width: 1px;"/></g></g></g><g class="infolayer"><g class="legend" pointer-events="all" transform="translate(716.8,60)"><rect class="bg" shape-rendering="crispEdges" style="stroke: rgb(68, 68, 68); stroke-opacity: 1; fill: rgb(255, 255, 255); fill-opacity: 1; stroke-width: 0px;" width="73" height="67" x="0" y="0"/><g class="scrollbox" transform="" clip-path="url(#legendc1117f)"><g class="groups"><g class="traces" transform="translate(0,14.5)" style="opacity: 1;"><text class="legendtext" text-anchor="start" x="40" y="4.680000000000001" style="font-family: Arial, sans-serif; font-size: 12px; fill: rgb(51, 51, 51); fill-opacity: 1; white-space: pre;">2024</text><g class="layers" style="opacity: 1;"><g class="legendfill"/><g class="legendlines"><path class="js-line" d="M5,0h30" style="fill: none; stroke: rgb(255, 73, 73); stroke-opacity: 1; stroke-width: 2px;"/></g><g class="legendsymbols"><g class="legendpoints"/></g></g><rect class="legendtoggle" x="0" y="-9.5" width="67.021484375" height="19" style="fill: rgb(0, 0, 0); fill-opacity: 0;"/></g><g class="traces" transform="translate(0,33.5)" style="opacity: 1;"><text class="legendtext" text-anchor="start" x="40" y="4.680000000000001" style="font-family: Arial, sans-serif; font-size: 12px; fill: rgb(51, 51, 51); fill-opacity: 1; white-space: pre;">2025</text><g class="layers" style="opacity: 1;"><g class="legendfill"/><g class="legendlines"><path class="js-line" d="M5,0h30" style="fill: none; stroke: rgb(255, 121, 25); stroke-opacity: 1; stroke-width: 2px;"/></g><g class="legendsymbols"><g class="legendpoints"/></g></g><rect class="legendtoggle" x="0" y="-9.5" width="67.021484375" height="19" style="fill: rgb(0, 0, 0); fill-opacity: 0;"/></g><g class="traces" transform="translate(0,52.5)" style="opacity: 1;"><text class="legendtext" text-anchor="start" x="40" y="4.680000000000001" style="font-family: Arial, sans-serif; font-size: 12px; fill: rgb(51, 51, 51); fill-opacity: 1; white-space: pre;">2026</text><g class="layers" style="opacity: 1;"><g class="legendfill"/><g class="legendlines"><path class="js-line" d="M5,0h30" style="fill: none; stroke: rgb(0, 73, 25); stroke-opacity: 1; stroke-width: 2px;"/></g><g class="legendsymbols"><g class="legendpoints"/></g></g><rect class="legendtoggle" x="0" y="-9.5" width="67.021484375" height="19" style="fill: rgb(0, 0, 0); fill-opacity: 0;"/></g></g></g><rect class="scrollbar" rx="20" ry="3" width="0" height="0" style="fill: rgb(128, 139, 164); fill-opacity: 1;" x="0" y="0"/></g><g class="g-gtitle"><text class="gtitle" x="400" y="30" text-anchor="middle" dy="0em" style="opacity: 1; font-family: Arial, sans-serif; font-size: 16px; fill: rgb(51, 51, 51); fill-opacity: 1; white-space: pre;"><tspan style="font-weight:bold">Seasonality (Normalized)</tspan></text></g><g class="g-xtitle"><text class="xtitle" x="384" y="482.000390625" text-anchor="middle" style="opacity: 1; font-family: Arial, sans-serif; font-size: 13px; fill: rgb(51, 51, 51); fill-opacity: 1; white-space: pre;"><tspan style="font-weight:bold">Trading Day of the Year</tspan></text></g><g class="g-ytitle"><text class="ytitle" transform="rotate(-90,15.190234375000003,250)" x="15.190234375000003" y="250" text-anchor="middle" style="opacity: 1; font-family: Arial, sans-serif; font-size: 13px; fill: rgb(51, 51, 51); fill-opacity: 1; white-space: pre;"><tspan style="font-weight:bold">Cumulative Return (%)</tspan></text></g><g class="annotation" data-index="0" style="opacity: 1;"><g class="annotation-text-g" transform="rotate(0,399,46.30000000000004)"><g class="cursor-pointer" transform="translate(382,38)"><rect class="bg" x="0.5" y="0.5" width="34" height="15" style="stroke-width: 1px; stroke: rgb(0, 0, 0); stroke-opacity: 0; fill: rgb(0, 0, 0); fill-opacity: 0;"/><text class="annotation-text" text-anchor="middle" x="17.6796875" y="12" style="font-family: Arial, sans-serif; font-size: 11px; fill: rgb(102, 102, 102); fill-opacity: 1; white-space: pre;">Today</text></g></g></g><g class="annotation" data-index="1" style="opacity: 1;"><g class="annotation-text-g" transform="rotate(0,399,46.30000000000004)"><g class="cursor-pointer" transform="translate(382,38)"><rect class="bg" x="0.5" y="0.5" width="34" height="15" style="stroke-width: 1px; stroke: rgb(0, 0, 0); stroke-opacity: 0; fill: rgb(0, 0, 0); fill-opacity: 0;"/><text class="annotation-text" text-anchor="middle" x="17.6796875" y="12" style="font-family: Arial, sans-serif; font-size: 11px; fill: rgb(102, 102, 102); fill-opacity: 1; white-space: pre;">Today</text></g></g></g><g class="annotation" data-index="2" style="opacity: 1;"><g class="annotation-text-g" transform="rotate(0,399,46.30000000000004)"><g class="cursor-pointer" transform="translate(382,38)"><rect class="bg" x="0.5" y="0.5" width="34" height="15" style="stroke-width: 1px; stroke: rgb(0, 0, 0); stroke-opacity: 0; fill: rgb(0, 0, 0); fill-opacity: 0;"/><text class="annotation-text" text-anchor="middle" x="17.6796875" y="12" style="font-family: Arial, sans-serif; font-size: 11px; fill: rgb(102, 102, 102); fill-opacity: 1; white-space: pre;">Today</text></g></g></g></g></svg>