<svg class="main-svg" xmlns="http://www.w3.org/2000/svg" xmlns:xlink="http://www.w3.org/1999/xlink" width="800" height="500" style="" viewBox="0 0 800 500"><rect x="0" y="0" width="800" height="500" style="fill: rgb(255, 255, 255); fill-opacity: 1;"/><defs id="defs-e0cf65"><g class="clips"><clipPath id="clipe0cf65xyplot" class="plotclip"><rect width="724" height="380"/></clipPath><clipPath class="axesclip" id="clipe0cf65x"><rect x="64" y="0" width="724" height="500"/></clipPath><clipPath class="axesclip" id="clipe0cf65y"><rect x="0" y="60" width="800" height="380"/></clipPath><clipPath class="axesclip" id="clipe0cf65xy"><rect x="64" y="60" width="724" height="380"/></clipPath></g><g class="gradients"/><g class="patterns"/></defs><g class="bglayer"/><g class="layer-below"><g class="imagelayer"/><g class="shapelayer"/></g><g class="cartesianlayer"><g class="subplot xy"><g class="layer-subplot"><g class="shapelayer"/><g class="imagelayer"/></g><g class="minor-gridlayer"><g class="x"/><g class="y"/></g><g class="gridlayer"><g class="x"><path class="xgrid crisp" transform="translate(138.95999999999998,0)" d="M0,60v380" style="stroke: rgb(204, 204, 204); stroke-opacity: 1; stroke-width: 1px;"/><path class="xgrid crisp" transform="translate(229.71,0)" d="M0,60v380" style="stroke: rgb(204, 204, 204); stroke-opacity: 1; stroke-width: 1px;"/><path class="xgrid crisp" transform="translate(318.49,0)" d="M0,60v380" style="stroke: rgb(204, 204, 204); stroke-opacity: 1; stroke-width: 1px;"/><path class="xgrid crisp" transform="translate(408.25,0)" d="M0,60v380" style="stroke: rgb(204, 204, 204); stroke-opacity: 1; stroke-width: 1px;"/><path class="xgrid crisp" transform="translate(498.99,0)" d="M0,60v380" style="stroke: rgb(204, 204, 204); stroke-opacity: 1; stroke-width: 1px;"/><path class="xgrid crisp" transform="translate(589.74,0)" d="M0,60v380" style="stroke: rgb(204, 204, 204); stroke-opacity: 1; stroke-width: 1px;"/><path class="xgrid crisp" transform="translate(678.51,0)" d="M0,60v380" style="stroke: rgb(204, 204, 204); stroke-opacity: 1; stroke-width: 1px;"/><path class="xgrid crisp" transform="translate(768.27,0)" d="M0,60v380" style="stroke: rgb(204, 204, 204); stroke-opacity: 1; stroke-width: 1px;"/></g><g class="y"><path class="ygrid crisp" transform="translate(0,413.82)" d="M64,0h724" style="stroke: rgb(204, 204, 204); stroke-opacity: 1; stroke-width: 1px;"/><path class="ygrid crisp" transform="translate(0,374.2)" d="M64,0h724" style="stroke: rgb(204, 204, 204); stroke-opacity: 1; stroke-width: 1px;"/><path class="ygrid crisp" transform="translate(0,334.59)" d="M64,0h724" style="stroke: rgb(204, 204, 204); stroke-opacity: 1; stroke-width: 1px;"/><path class="ygrid crisp" transform="translate(0,294.98)" d="M64,0h724" style="stroke: rgb(204, 204, 204); stroke-opacity: 1; stroke-width: 1px;"/><path class="ygrid crisp" transform="translate(0,255.37)" d="M64,0h724" style="stroke: rgb(204, 204, 204); stroke-opacity: 1; stroke-width: 1px;"/><path class="ygrid crisp" transform="translate(0,176.15)" d="M64,0h724" style="stroke: rgb(204, 204, 204); stroke-opacity: 1; stroke-width: 1px;"/><path class="ygrid crisp" transform="translate(0,136.53)" d="M64,0h724" style="stroke: rgb(204, 204, 204); stroke-opacity: 1; stroke-width: 1px;"/><path class="ygrid crisp" transform="translate(0,96.92)" d="M64,0h724" style="stroke: rgb(204, 204, 204); stroke-opacity: 1; stroke-width: 1px;"/></g></g><g class="zerolinelayer"><path class="yzl zl crisp" transform="translate(0,215.76)" d="M64,0h724" style="stroke: rgb(204, 204, 204); stroke-opacity: 1; stroke-width: 1px;"/></g><g class="layer-between"><g class="shapelayer"/><g class="imagelayer"/></g><path class="xlines-below"/><path class="ylines-below"/><g class="overlines-below"/><g class="xaxislayer-below"/><g class="yaxislayer-below"/><g class="overaxes-below"/><g class="overplot"><g class="xy" transform="translate(64,60)" clip-path="url(#clipe0cf65xyplot)"><g class="scatterlayer mlayer"><g class="trace scatter traceb5b059" style="stroke-miterlimit: 2; opacity: 1;"><g class="fills"/><g class="errorbars"/><g class="lines"><path class="js-line" d="M0,179.13Q0.85,178.29 0.99,178.34C1.26,178.44 1.62,182.58 1.97,183.29C2.3,183.96 4.57,186.78 4.93,186.65C5.71,186.38 5.75,165.66 5.92,165.66C6.08,165.66 6.75,183.88 6.9,183.88C7.1,183.88 7.33,151.14 7.89,151C8.03,150.97 8.73,152.82 8.88,152.79C9.6,152.63 11.51,116.47 11.84,109.02C12.18,101.26 12.62,68.07 12.82,61.48C12.96,56.78 13.1,38 13.81,37.32C13.95,37.18 14.66,37.46 14.8,37.32C15.55,36.6 15.2,10.66 15.78,10.58C16.13,10.53 18.41,17.95 18.74,19.49C19.08,21.08 19.59,27.39 19.73,29.4C19.95,32.52 20.54,49.52 20.71,53.36C20.87,56.92 21.08,73.56 21.7,73.96C21.84,74.05 22.51,73.71 22.69,73.56C23.11,73.2 25.31,69.69 25.65,68.61C26.18,66.94 26.48,54.95 26.63,54.95C26.81,54.95 27.48,69.14 27.62,72.57C27.82,77.38 28.35,107.22 28.6,107.23C28.74,107.23 29.33,98.52 29.59,96.54C29.92,94.02 32.22,82.4 32.55,79.5C32.89,76.52 33.34,61.28 33.54,61.28C33.68,61.28 34.35,69.21 34.52,70.79C34.68,72.35 35.34,78.61 35.51,80.1C35.67,81.47 36.17,86.75 36.5,88.02C36.83,89.29 39.09,93.56 39.46,95.35C40.34,99.65 40.14,140.89 40.44,140.9C40.58,140.91 41.29,131.4 41.43,131.4C41.68,131.41 42.23,157.57 42.41,162.29C42.56,166.29 43.15,180.23 43.4,184.48C43.74,190.23 46.02,225.08 46.36,225.08C46.6,225.08 47.18,208.02 47.35,204.68C47.51,201.45 48.19,189.4 48.33,185.66C48.54,180.3 49.14,152.47 49.32,146.45C49.47,141.32 49.98,117.94 50.31,117.93C50.64,117.92 52.91,145.85 53.26,145.85C53.48,145.85 54.05,135.17 54.25,135.16C54.4,135.15 55.1,139.86 55.24,141.1C55.47,143.17 56.07,157.74 56.22,157.74C56.4,157.74 56.62,138.02 57.21,135.36C57.56,133.8 59.83,129.26 60.17,128.23C60.42,127.48 61.02,124.25 61.16,124.27C61.6,124.32 61.92,161.19 62.14,166.65C62.28,170.09 62.94,183.49 63.13,183.49C63.28,183.49 63.59,174.2 64.11,172.99C64.45,172.2 66.71,170.49 67.07,169.62C67.77,167.91 67.85,154.51 68.06,152.19C68.2,150.64 68.9,144.47 69.05,144.47C69.23,144.47 69.89,154.57 70.03,154.57C70.24,154.56 70.08,133.46 71.02,131.79C71.39,131.13 73.57,130.56 73.98,129.81C75.76,126.53 74.79,62.08 74.96,62.08C75.12,62.08 75.74,116.24 75.95,124.66C76.09,130.37 76.73,149.44 76.94,153.38C77.08,156.14 77.71,164.48 77.92,167.44C78.28,172.49 80.4,208.41 80.88,208.44C81.05,208.45 81.69,203.7 81.87,203.69C82.03,203.68 82.72,206.39 82.86,207.25C83.19,209.32 83.64,228.84 83.84,228.84C83.99,228.84 84.38,218.57 84.83,216.96C85.17,215.76 87.46,212.01 87.79,211.02C88.09,210.13 88.63,206.83 88.77,205.67C89.02,203.57 89.26,188.95 89.76,187.84C89.9,187.53 90.61,187.17 90.75,186.85C91.37,185.43 91.41,160.12 91.73,160.11C92.06,160.1 94.36,184.09 94.69,188.44C94.97,192.14 95.52,205.59 95.68,209.04C95.84,212.52 96.52,230.03 96.66,230.03C96.87,230.03 97.37,182.51 97.65,182.5C97.79,182.5 98.35,192.11 98.64,194.18C98.97,196.56 101.27,206.78 101.6,209.43C101.95,212.25 102.44,223.57 102.58,227.06C102.79,232.14 103.41,264.49 103.57,264.49C103.74,264.49 104.18,221.74 104.56,221.71C104.7,221.7 105.37,227.07 105.54,227.06C105.97,227.04 108.1,197.32 108.5,193.78C108.69,192.12 109.33,186.46 109.49,186.46C109.67,186.46 110.33,193.96 110.47,195.77C110.67,198.3 111.32,213.99 111.46,213.99C111.67,213.99 111.99,179.77 112.45,174.18C112.79,170.08 114.74,153.99 115.41,152.98C115.56,152.75 116.25,152.31 116.39,152.39C117.16,152.81 117.16,181.16 117.38,185.47C117.52,188.24 118.23,199.13 118.37,199.13C118.57,199.13 118.89,172.24 119.35,172.2C119.69,172.17 121.96,186.09 122.31,186.06C122.99,186 122.87,138.31 123.3,134.17C123.44,132.86 124.14,130.14 124.28,129.02C124.53,126.98 125.11,111.59 125.27,111.59C125.44,111.59 126.01,132.78 126.26,132.78C126.6,132.79 128.84,100.02 129.22,95.94C129.41,93.91 130.06,88.85 130.2,86.83C130.47,82.84 130.94,55.36 131.19,51.18C131.33,48.91 131.94,40.71 132.17,40.69C132.31,40.68 133,44.46 133.16,44.45C133.68,44.4 135.78,4.63 136.12,4.64C136.38,4.64 136.87,28 137.11,28.01C137.25,28.02 137.88,21.48 138.09,20.48C138.23,19.8 138.94,17.88 139.08,17.12C139.36,15.59 139.87,3.05 140.07,3.05C140.44,3.05 142.68,43.34 143.02,49.8C143.26,54.36 143.81,69.84 144.01,73.17C144.16,75.66 144.75,84.73 145,86.24C145.14,87.06 145.84,89.08 145.98,90C146.34,92.42 146.03,114.58 146.97,116.74C147.34,117.59 149.58,119.84 149.93,119.71C150.56,119.48 150.78,106.24 150.92,106.24C151.12,106.24 151.71,128.92 151.9,132.78C152.05,135.76 152.49,147.38 152.89,148.63C153.03,149.06 153.71,149.76 153.87,150.21C154.46,151.92 156.35,171.39 156.83,176.55C157.51,183.86 159.92,229.57 160.78,229.63C161.22,229.66 163.31,215.94 163.74,215.97C164.39,216.01 166.37,243.59 166.7,248.85C167,253.69 167.28,272.6 167.68,276.77C168.01,280.2 170.3,291.8 170.64,295.39C171.09,300.24 171.4,325.52 171.63,329.85C171.77,332.48 172.38,341.02 172.62,342.53C172.76,343.38 173.42,346.48 173.6,346.49C173.75,346.5 174.3,343.59 174.59,343.52C174.92,343.44 177.21,345.8 177.55,346.49C178.01,347.44 178.39,354.42 178.53,354.41C178.81,354.4 179.13,324.53 179.52,321.73C179.66,320.74 180.37,318.75 180.51,317.77C180.88,315.15 181.13,293.08 181.49,288.46C181.82,284.28 184.03,267.06 184.45,264.69C184.63,263.67 185.3,260.32 185.44,260.33C185.68,260.35 186.05,272.54 186.43,273.6C186.57,273.98 187.27,275.03 187.41,274.99C187.84,274.87 187.9,260.33 188.4,258.15C188.74,256.68 191.01,251.96 191.36,251.02C191.58,250.42 192.2,248.79 192.34,248.05C192.71,246.05 192.96,225.33 193.33,225.28C193.47,225.26 194.18,228.27 194.32,228.25C194.74,228.19 195.04,204.73 195.3,199.33C195.63,192.43 197.8,156.45 198.26,152.19C198.43,150.6 199.11,147.21 199.25,145.66C199.58,141.89 199.98,111.31 200.23,106.64C200.37,104.02 200.98,94.38 201.22,94.36C201.36,94.35 202.01,98.32 202.21,98.32C202.58,98.32 204.83,85.02 205.17,85.05C205.62,85.09 205.44,109.18 206.15,110.01C206.29,110.18 207,110.07 207.14,110.2C207.4,110.44 207.99,113.78 208.13,113.77C208.36,113.75 208.93,104.26 209.11,104.26C209.51,104.27 211.57,146.43 212.07,150.21C212.23,151.46 212.92,154.02 213.06,155.16C213.35,157.61 213.59,178.43 214.04,178.53C214.18,178.56 214.89,177.12 215.03,176.55C215.66,174.01 214.57,133.68 216.02,132.78C216.42,132.53 218.64,133.69 218.98,134.17C219.54,134.94 219.82,142.69 219.96,142.69C220.17,142.68 220.7,126.96 220.95,124.86C221.09,123.7 221.77,119.51 221.93,119.51C222.1,119.51 222.76,123.61 222.92,125.06C223.48,130.15 225.54,184.67 225.88,194.38C226.13,201.42 226.73,223.52 226.87,230.82C227.08,241.81 227.64,302.25 227.85,313.41C227.99,321.03 228.34,349.14 228.84,351.84C228.98,352.59 229.64,354.62 229.83,354.61C230.21,354.59 232.44,343.08 232.78,343.12C233.35,343.18 233.6,375.6 233.77,375.6C233.93,375.6 234.57,349.31 234.76,344.9C234.91,341.56 235.6,327.28 235.74,327.28C235.94,327.28 236.39,360.94 236.73,360.95C237.06,360.96 239.35,333.85 239.69,329.26C239.95,325.75 240.51,313.68 240.68,310.64C240.84,307.71 241.48,296.08 241.66,293.41C241.81,291.08 242.37,281.74 242.65,280.34C242.79,279.66 243.47,277.35 243.63,277.37C244.18,277.44 245.95,314.67 246.59,314.8C246.75,314.83 247.44,312.8 247.58,312.82C247.84,312.86 248.4,319.33 248.57,320.54C248.73,321.62 249.41,326.69 249.55,326.68C249.77,326.67 249.98,311.97 250.54,311.83C250.88,311.74 253.11,316.69 253.5,316.58C254.9,316.19 253.9,246.74 254.49,246.67C254.63,246.65 255.33,250.45 255.47,250.43C256.19,250.34 256.25,163.84 256.46,150.41C256.6,141.34 256.73,104.95 257.44,104.86C257.8,104.82 260.07,114.21 260.4,115.95C260.69,117.45 261.25,124.47 261.39,124.46C261.74,124.44 261.46,70.2 262.38,68.02C262.52,67.68 263.22,67.36 263.36,67.03C264.09,65.31 263.52,33.6 264.35,29.99C264.71,28.4 266.93,23.37 267.31,23.45C268.37,23.67 268.03,79.69 268.29,79.7C268.43,79.7 269.09,63.66 269.28,63.66C269.43,63.66 269.92,74.33 270.27,74.36C270.75,74.4 274.69,54.5 275.2,54.55C275.79,54.61 276.02,82.28 276.19,82.28C276.35,82.28 276.68,55.25 277.17,55.14C277.31,55.11 277.98,56.64 278.16,57.12C278.58,58.26 280.74,69 281.12,69.01C281.31,69.02 281.95,66.03 282.1,66.04C282.28,66.05 282.94,69.47 283.09,70.59C283.51,73.65 284.61,99.84 285.06,105.25C285.46,110.03 287.24,131.17 288.02,132.19C288.17,132.39 288.87,132.67 289.01,132.58C289.64,132.18 289.85,111.79 289.99,111.79C290.2,111.79 290.29,155.17 290.98,155.36C291.12,155.4 291.81,153.75 291.97,153.78C292.48,153.88 294.59,168.05 294.93,171.6C295.42,176.79 295.66,205.71 295.91,210.22C296.05,212.67 296.75,219.49 296.9,221.51C297.08,223.86 297.74,236.76 297.89,236.76C298.07,236.76 298.5,217.68 298.87,214.18C299.2,211.1 301.5,196.93 301.83,196.95C302.24,196.98 302.65,219.51 302.82,223.89C302.98,228.05 303.63,244.33 303.8,248.25C303.96,251.9 304.65,269.44 304.79,269.44C305.01,269.44 304.75,221.56 305.78,221.32C306.16,221.23 308.38,227.14 308.74,227.06C309.44,226.9 309.49,204.85 309.72,201.71C309.86,199.84 310.54,194.27 310.71,192.79C310.87,191.33 311.54,184.08 311.69,184.08C311.87,184.08 312.44,195.96 312.68,195.96C313.02,195.97 315.28,175.19 315.64,172.2C315.86,170.39 316.46,164.89 316.63,163.48C316.79,162.15 317.47,155.75 317.61,155.76C317.93,155.78 318.38,198.93 318.6,198.93C318.74,198.93 319.06,182.5 319.59,180.12C319.93,178.58 322.17,174.59 322.54,172.79C323.44,168.41 322.95,129 323.53,126.05C323.67,125.33 324.38,124.17 324.52,123.47C325.02,120.95 325.34,87.43 325.5,87.43C325.67,87.43 326.01,121.8 326.49,127.24C326.83,131.06 329.01,144.84 329.45,146.65C329.62,147.37 330.3,149.64 330.44,149.62C330.92,149.55 331.17,116.08 331.42,111.59C331.56,109.12 332.19,101.57 332.41,100.1C332.55,99.16 333.21,95.54 333.4,95.55C333.79,95.56 336.02,112.26 336.35,115.95C336.74,120.3 337.18,139.43 337.34,144.47C337.52,150.17 337.81,178.46 338.33,180.91C338.47,181.56 339.17,182.71 339.31,183.29C339.64,184.7 339.68,196.72 340.3,198.34C340.65,199.25 342.9,202.22 343.26,202.1C344.02,201.86 344.09,180.91 344.25,180.91C344.42,180.91 345.05,203.69 345.23,203.69C345.38,203.69 346.05,190.41 346.22,187.84C346.38,185.4 346.9,173.6 347.2,173.58C347.53,173.56 349.82,188.34 350.16,190.81C350.41,192.65 351,198.64 351.15,200.52C351.35,203.1 351.87,216.88 352.14,218.94C352.28,220 352.98,222.52 353.12,223.69C353.49,226.86 353.43,259.24 354.11,259.34C354.46,259.39 356.74,251.94 357.07,250.23C357.47,248.16 357.74,236.22 358.05,236.17C358.19,236.15 358.9,238.21 359.04,238.74C359.25,239.52 359.87,243.67 360.03,244.69C360.2,245.75 360.84,251.23 361.01,251.22C361.44,251.2 363.46,212.95 363.97,209.63C364.13,208.57 364.8,206.2 364.96,205.47C365.13,204.66 365.8,200.32 365.95,200.32C366.13,200.32 366.72,207.03 366.93,207.05C367.07,207.06 367.73,204.6 367.92,203.89C368.3,202.5 370.53,192.98 370.88,191.41C371.09,190.46 371.72,186.84 371.86,186.85C372.14,186.87 372.7,207.05 372.85,207.05C373.04,207.05 373.66,176.55 373.84,176.55C373.99,176.55 374.46,196.93 374.82,196.95C375.15,196.97 377.45,182.62 377.78,179.72C378.11,176.81 378.56,164.49 378.77,162.1C378.91,160.45 379.57,155.04 379.75,153.78C379.9,152.73 380.57,148.03 380.74,148.03C380.9,148.03 381.35,153.25 381.73,153.38C382.06,153.49 384.33,150.46 384.69,150.61C385.51,150.94 385.49,171.21 385.67,171.21C385.82,171.21 386.48,157.14 386.66,157.14C386.82,157.14 387.51,165.99 387.65,168.43C387.9,172.91 387.97,206.58 388.63,206.66C388.98,206.7 391.24,196.12 391.59,196.16C392.17,196.23 392.25,226.83 392.58,226.86C392.72,226.87 393.39,221.91 393.56,221.91C393.72,221.91 394.41,225.88 394.55,225.87C394.95,225.83 394.87,191.31 395.54,191.21C395.89,191.16 398.14,199.19 398.5,200.32C398.71,200.98 399.34,203.5 399.48,203.49C399.7,203.47 400.25,196.75 400.47,195.77C400.61,195.15 401.32,192.77 401.46,192.79C401.81,192.84 401.86,210.93 402.44,213.39C402.79,214.86 405.04,218.53 405.4,220.13C406.17,223.53 406.16,253.39 406.39,253.4C406.53,253.4 407.22,243.19 407.37,240.92C407.55,238.19 408.13,225.13 408.36,222.9C408.5,221.57 409.16,218.01 409.35,216.56C409.75,213.45 411.71,187.17 412.31,187.05C412.47,187.02 413.15,188.86 413.29,188.83C413.85,188.7 414.08,156.15 414.28,156.15C414.43,156.15 414.71,172.87 415.26,173.78C415.4,174.01 416.1,174.46 416.25,174.38C417.07,173.97 418.81,144.98 419.21,141.5C419.4,139.88 420.04,135.63 420.2,134.37C420.37,132.97 421.04,125.44 421.18,125.45C421.47,125.46 421.6,167.13 422.17,167.24C422.31,167.27 422.99,164.85 423.16,164.87C423.59,164.91 425.78,180.34 426.11,180.32C426.44,180.3 426.89,164.48 427.1,164.47C427.24,164.47 427.89,170.93 428.09,172C428.24,172.8 428.92,176.17 429.07,176.16C429.25,176.15 429.87,171.41 430.06,170.02C430.45,167.11 432.67,146.43 433.02,142.88C433.24,140.59 433.85,133.46 434.01,131.59C434.17,129.73 434.8,120.51 434.99,120.5C435.14,120.5 435.82,125.93 435.98,127.04C436.15,128.2 436.75,132.66 436.96,134.17C437.32,136.83 439.59,152.93 439.92,156.15C440.18,158.66 440.76,169.62 440.91,169.62C441.11,169.62 441.68,145.67 441.9,145.66C442.04,145.66 442.73,155.16 442.88,155.16C443.06,155.16 443.55,143.13 443.87,140.71C444.2,138.22 446.5,127.92 446.83,125.65C447.1,123.81 447.66,117.45 447.81,115.55C448,113.1 448.65,98.72 448.8,98.72C448.99,98.72 449.62,128.03 449.79,128.03C449.95,128.03 450.36,106.91 450.77,103.27C451.1,100.35 453.4,90.42 453.73,87.63C454.1,84.49 454.49,67.43 454.72,67.42C454.86,67.41 455.52,74.01 455.71,75.15C455.86,76.07 456.55,78.95 456.69,80.1C456.99,82.63 456.75,104.26 457.68,104.66C458.05,104.82 460.28,101.93 460.64,102.08C461.38,102.39 461.3,118.67 461.62,118.72C461.76,118.74 462.45,116.43 462.61,115.95C462.78,115.44 463.46,112.76 463.6,112.78C463.92,112.82 464.15,128.06 464.58,130.6C464.91,132.57 467.21,140.93 467.54,140.9C467.86,140.87 468.29,130.82 468.53,130.8C468.67,130.79 469.37,133.29 469.51,133.97C469.74,135.11 470.28,142.1 470.5,143.28C470.64,144.02 471.31,145.99 471.49,146.84C471.92,148.91 474.05,168.41 474.45,168.43C474.63,168.44 475.28,163.87 475.43,163.88C475.62,163.89 476.28,169.67 476.42,171.4C476.72,175.23 476.68,206.72 477.41,208.44C477.55,208.77 478.19,209.44 478.39,209.43C478.76,209.41 481.02,205.78 481.35,205.87C481.75,205.98 482.2,211.22 482.34,212.6C482.56,214.79 482.78,228.74 483.32,229.63C483.46,229.86 484.17,230.3 484.31,230.23C484.76,230 485.04,220.4 485.3,218.15C485.63,215.29 487.87,200.82 488.26,198.74C488.45,197.75 489.09,194.37 489.24,194.38C489.43,194.39 489.92,201.41 490.23,201.51C490.37,201.56 491.08,200.48 491.22,200.52C491.45,200.58 492,203.46 492.2,204.28C492.57,205.81 494.81,217.56 495.16,217.55C495.38,217.55 495.93,212.04 496.15,212.01C496.29,211.99 496.98,214 497.13,213.99C497.32,213.97 497.98,210.6 498.12,210.62C498.47,210.66 498.49,231.31 499.11,233.99C499.46,235.49 501.67,240.66 502.07,240.72C502.25,240.75 502.91,239.51 503.05,239.54C503.3,239.6 503.84,243.81 504.04,244.49C504.19,245 504.88,247.07 505.02,247.06C505.23,247.04 505.81,242.58 506.01,241.32C506.39,238.92 508.55,220.35 508.97,220.32C509.15,220.31 509.75,223.85 509.96,223.89C510.1,223.91 510.77,222.72 510.94,222.5C511.1,222.29 511.79,221.28 511.93,221.32C512.31,221.44 512.54,231.57 512.92,233.4C513.25,234.99 515.53,242.16 515.87,242.11C516.37,242.04 515.69,222.61 516.86,221.91C517.52,221.51 522.22,224.33 522.78,224.68C523.03,224.83 523.61,225.19 523.77,225.47C524.43,226.64 526.19,248.04 526.72,248.05C527.18,248.06 529.34,234.46 529.68,231.22C530.13,226.88 530.48,204.93 530.67,200.52C530.82,197.18 531.48,182.89 531.66,182.89C531.81,182.89 532.46,196.36 532.64,196.36C532.79,196.36 533.43,188.89 533.63,186.85C534,183.16 536.23,159.59 536.59,155.76C536.8,153.51 537.36,146.48 537.57,145.06C537.71,144.1 538.42,141.27 538.56,140.31C538.78,138.85 539.39,129.22 539.55,129.22C539.72,129.22 539.98,142.73 540.53,142.88C540.87,142.97 543.13,138.43 543.49,138.53C544.21,138.73 544.19,157.85 544.48,160.11C544.62,161.16 545.32,164.68 545.47,164.67C545.66,164.66 546.12,157.67 546.45,157.54C546.59,157.49 547.29,158.39 547.44,158.33C548.19,158.02 549.9,128.87 550.4,128.82C550.56,128.8 551.24,131.05 551.38,131.79C551.75,133.81 552,152.95 552.37,154.97C552.51,155.71 553.18,157.49 553.36,157.94C553.51,158.33 554.17,160.13 554.34,160.11C554.79,160.05 556.97,143.06 557.3,143.08C557.7,143.11 557.69,166.68 558.29,168.04C558.43,168.36 559.14,168.78 559.28,169.03C559.53,169.49 560.11,173.59 560.26,173.58C560.45,173.57 560.94,165.49 561.25,165.46C561.58,165.43 563.86,174.39 564.21,174.38C564.43,174.38 565.05,171.74 565.19,171.01C565.43,169.72 565.76,160.32 566.18,160.11C566.32,160.04 567.01,160.72 567.17,160.71C567.34,160.7 567.98,160.16 568.15,159.92C568.61,159.27 570.77,152.91 571.11,151.2C571.56,148.9 571.92,137.13 572.1,134.57C572.25,132.37 572.86,123.89 573.08,122.29C573.22,121.24 573.83,117.71 574.07,117.14C574.21,116.81 574.88,116.1 575.06,115.75C575.47,114.96 577.69,107.4 578.02,107.43C578.32,107.46 578.8,114.75 579,114.76C579.15,114.77 579.85,111.62 579.99,110.8C580.22,109.47 580.8,101.91 580.98,100.3C581.13,98.91 581.6,92.64 581.96,92.58C582.29,92.52 584.59,97.36 584.92,98.52C585.34,99.97 585.76,108.82 585.91,108.82C586.1,108.82 586.74,91.98 586.89,91.98C587.07,91.98 587.7,113.04 587.88,116.94C588.04,120.38 588.21,136.18 588.87,136.35C589.22,136.44 591.47,132.17 591.83,131.59C592.04,131.26 592.67,129.97 592.81,130.01C593.4,130.17 593.59,159.18 593.8,163.68C593.94,166.69 594.62,176.23 594.78,178.73C594.94,181.21 595.18,191.93 595.77,193.59C596.12,194.56 598.39,197.85 598.73,197.75C599.3,197.59 599.53,183.88 599.72,183.88C599.87,183.88 600.52,192.2 600.7,192.2C600.85,192.2 601.55,185.85 601.69,185.86C601.93,185.87 601.97,204.84 602.68,205.07C603.04,205.18 605.24,201.38 605.63,201.31C605.82,201.28 606.48,201.99 606.62,201.91C607.23,201.58 607.46,180.32 607.61,180.32C607.79,180.32 608.43,205.05 608.59,210.03C608.76,215.08 608.98,240.45 609.58,240.53C609.93,240.58 612.2,232.86 612.54,230.82C613.09,227.56 613.36,208.96 613.53,204.88C613.69,201.22 614.25,184.1 614.51,184.08C614.65,184.07 615.19,188.86 615.5,190.02C615.98,191.79 619.88,203.18 620.43,203.09C621.38,202.93 621.24,162.1 621.42,162.1C621.57,162.1 622.16,189.34 622.4,193.19C622.54,195.47 622.88,203.94 623.39,204.08C623.73,204.18 625.99,201.11 626.35,200.12C627.06,198.15 627,182.33 627.34,180.51C627.48,179.78 628.16,177.54 628.32,177.54C628.48,177.54 629.16,180.52 629.31,180.51C629.49,180.5 629.99,176.41 630.29,176.36C630.62,176.3 632.92,180.02 633.25,180.71C633.52,181.26 634.1,183.9 634.24,183.88C634.65,183.82 635,154.38 635.23,154.37C635.37,154.37 635.98,163.75 636.21,165.07C636.35,165.86 637.04,167.87 637.2,168.83C637.71,171.82 639.83,206.27 640.16,206.26C640.44,206.25 640.97,183.92 641.14,179.72C641.3,175.91 641.9,157.95 642.13,157.94C642.27,157.93 642.88,164.17 643.12,165.86C643.55,168.91 646.65,188 647.06,191.41C647.33,193.67 647.9,202.7 648.05,202.7C648.25,202.7 648.89,184.86 649.04,180.91C649.22,176.21 649.86,150.01 650.02,150.01C650.19,150.01 650.54,184.84 651.01,184.87C651.35,184.89 653.57,167.07 653.97,167.05C654.15,167.04 654.81,170.82 654.95,170.81C655.19,170.79 655.72,160.63 655.94,159.12C656.08,158.15 656.79,154.36 656.93,154.37C657.23,154.4 657.42,175.3 657.91,178.53C658.25,180.76 660.53,187.47 660.87,189.63C661.32,192.54 661.71,210.42 661.86,210.42C662.04,210.42 662.28,184.74 662.84,183.09C662.98,182.68 663.69,182.07 663.83,181.7C664.19,180.7 664.6,172.09 664.82,169.62C665.17,165.69 667.41,139.12 667.78,139.12C667.98,139.12 668.59,148.03 668.76,148.03C668.92,148.03 669.59,141.18 669.75,139.71C669.93,138.04 670.57,130.77 670.74,129.02C670.9,127.34 671.53,119.12 671.72,119.12C672.1,119.12 674.35,157.55 674.68,157.54C674.94,157.54 675.46,133.78 675.67,133.77C675.81,133.77 676.5,142.14 676.65,144.07C676.84,146.53 677.36,159.09 677.64,160.91C677.78,161.81 678.44,163.98 678.63,164.87C679.02,166.67 681.26,181.33 681.59,181.31C681.86,181.3 682.42,172.08 682.57,170.02C682.75,167.54 683.4,156.38 683.56,153.58C683.73,150.67 684.36,135.75 684.54,135.75C684.69,135.75 685.33,148.03 685.53,148.03C685.9,148.03 688.14,112.57 688.49,107.43C688.71,104.28 689.31,94.67 689.48,92.18C689.64,89.79 690.3,78.12 690.46,78.12C690.63,78.12 691.31,90.16 691.45,93.17C691.66,97.68 691.75,123.3 692.44,127.04C692.79,128.97 695.07,133.95 695.4,135.56C695.81,137.55 696.24,149.22 696.38,149.22C696.58,149.22 697.14,125.15 697.37,121.69C697.51,119.59 698.19,111.59 698.35,111.59C698.51,111.59 699.01,120.03 699.34,121.69C699.67,123.36 701.96,131.63 702.3,131.59C702.75,131.54 703.13,113.17 703.29,113.17C703.46,113.17 703.99,136.13 704.27,136.15C704.41,136.16 705.12,130.59 705.26,130.6C705.47,130.61 705.75,140.49 706.25,141.89C706.59,142.84 708.87,146.31 709.2,146.25C709.51,146.19 710.05,141.69 710.19,141.7C710.52,141.73 710.85,168.6 711.18,168.63C711.32,168.64 712.02,164.26 712.16,164.27C712.36,164.28 712.81,171.6 713.15,172.99C713.48,174.34 715.78,179.26 716.11,180.71Q716.5,182.43 717.1,192.4" style="vector-effect: none; fill: none; stroke: rgb(255, 73, 73); stroke-opacity: 1; stroke-width: 2px; opacity: 1;"/></g><g class="points"/><g class="text"/></g></g></g></g><g class="zerolinelayer-above"/><path class="xlines-above crisp" d="M63,440.5H789M63,59.5H789" style="fill: none; stroke-width: 1px; stroke: rgb(204, 204, 204); stroke-opacity: 1;"/><path class="ylines-above crisp" d="M63.5,60V440M788.5,60V440" style="fill: none; stroke-width: 1px; stroke: rgb(204, 204, 204); stroke-opacity: 1;"/><g class="overlines-above"/><g class="xaxislayer-above"><g class="xtick"><text text-anchor="middle" x="0" y="455.4" transform="translate(138.95999999999998,0)" style="font-family: Arial, sans-serif; font-size: 12px; fill: rgb(51, 51, 51); fill-opacity: 1; white-space: pre;">Oct 2024</text></g><g class="xtick"><text text-anchor="middle" x="0" y="455.4" style="font-family: Arial, sans-serif; font-size: 12px; fill: rgb(51, 51, 51); fill-opacity: 1; white-space: pre;" transform="translate(229.71,0)">Jan 2025</text></g><g class="xtick"><text text-anchor="middle" x="0" y="455.4" style="font-family: Arial, sans-serif; font-size: 12px; fill: rgb(51, 51, 51); fill-opacity: 1; white-space: pre;" transform="translate(318.49,0)">Apr 2025</text></g><g class="xtick"><text text-anchor="middle" x="0" y="455.4" style="font-family: Arial, sans-serif; font-size: 12px; fill: rgb(51, 51, 51); fill-opacity: 1; white-space: pre;" transform="translate(408.25,0)">Jul 2025</text></g><g class="xtick"><text text-anchor="middle" x="0" y="455.4" style="font-family: Arial, sans-serif; font-size: 12px; fill: rgb(51, 51, 51); fill-opacity: 1; white-space: pre;" transform="translate(498.99,0)">Oct 2025</text></g><g class="xtick"><text text-anchor="middle" x="0" y="455.4" style="font-family: Arial, sans-serif; font-size: 12px; fill: rgb(51, 51, 51); fill-opacity: 1; white-space: pre;" transform="translate(589.74,0)">Jan 2026</text></g><g class="xtick"><text text-anchor="middle" x="0" y="455.4" style="font-family: Arial, sans-serif; font-size: 12px; fill: rgb(51, 51, 51); fill-opacity: 1; white-space: pre;" transform="translate(678.51,0)">Apr 2026</text></g><g class="xtick"><text text-anchor="middle" x="0" y="455.4" style="font-family: Arial, sans-serif; font-size: 12px; fill: rgb(51, 51, 51); fill-opacity: 1; white-space: pre;" transform="translate(768.27,0)">Jul 2026</text></g></g><g class="yaxislayer-above"><path class="ytick ticks crisp" d="M63,0h-6" transform="translate(0,413.82)" style="stroke: rgb(255, 255, 255); stroke-opacity: 1; stroke-width: 1px;"/><path class="ytick ticks crisp" d="M63,0h-6" transform="translate(0,374.2)" style="stroke: rgb(255, 255, 255); stroke-opacity: 1; stroke-width: 1px;"/><path class="ytick ticks crisp" d="M63,0h-6" transform="translate(0,334.59)" style="stroke: rgb(255, 255, 255); stroke-opacity: 1; stroke-width: 1px;"/><path class="ytick ticks crisp" d="M63,0h-6" transform="translate(0,294.98)" style="stroke: rgb(255, 255, 255); stroke-opacity: 1; stroke-width: 1px;"/><path class="ytick ticks crisp" d="M63,0h-6" transform="translate(0,255.37)" style="stroke: rgb(255, 255, 255); stroke-opacity: 1; stroke-width: 1px;"/><path class="ytick ticks crisp" d="M63,0h-6" transform="translate(0,215.76)" style="stroke: rgb(255, 255, 255); stroke-opacity: 1; stroke-width: 1px;"/><path class="ytick ticks crisp" d="M63,0h-6" transform="translate(0,176.15)" style="stroke: rgb(255, 255, 255); stroke-opacity: 1; stroke-width: 1px;"/><path class="ytick ticks crisp" d="M63,0h-6" transform="translate(0,136.53)" style="stroke: rgb(255, 255, 255); stroke-opacity: 1; stroke-width: 1px;"/><path class="ytick ticks crisp" d="M63,0h-6" transform="translate(0,96.92)" style="stroke: rgb(255, 255, 255); stroke-opacity: 1; stroke-width: 1px;"/><g class="ytick"><text text-anchor="end" x="54.6" y="4.199999999999999" transform="translate(0,413.82)" style="font-family: Arial, sans-serif; font-size: 12px; fill: rgb(51, 51, 51); fill-opacity: 1; white-space: pre;">−10</text></g><g class="ytick"><text text-anchor="end" x="54.6" y="4.199999999999999" style="font-family: Arial, sans-serif; font-size: 12px; fill: rgb(51, 51, 51); fill-opacity: 1; white-space: pre;" transform="translate(0,374.2)">−8</text></g><g class="ytick"><text text-anchor="end" x="54.6" y="4.199999999999999" style="font-family: Arial, sans-serif; font-size: 12px; fill: rgb(51, 51, 51); fill-opacity: 1; white-space: pre;" transform="translate(0,334.59)">−6</text></g><g class="ytick"><text text-anchor="end" x="54.6" y="4.199999999999999" style="font-family: Arial, sans-serif; font-size: 12px; fill: rgb(51, 51, 51); fill-opacity: 1; white-space: pre;" transform="translate(0,294.98)">−4</text></g><g class="ytick"><text text-anchor="end" x="54.6" y="4.199999999999999" style="font-family: Arial, sans-serif; font-size: 12px; fill: rgb(51, 51, 51); fill-opacity: 1; white-space: pre;" transform="translate(0,255.37)">−2</text></g><g class="ytick"><text text-anchor="end" x="54.6" y="4.199999999999999" style="font-family: Arial, sans-serif; font-size: 12px; fill: rgb(51, 51, 51); fill-opacity: 1; white-space: pre;" transform="translate(0,215.76)">0</text></g><g class="ytick"><text text-anchor="end" x="54.6" y="4.199999999999999" style="font-family: Arial, sans-serif; font-size: 12px; fill: rgb(51, 51, 51); fill-opacity: 1; white-space: pre;" transform="translate(0,176.15)">2</text></g><g class="ytick"><text text-anchor="end" x="54.6" y="4.199999999999999" style="font-family: Arial, sans-serif; font-size: 12px; fill: rgb(51, 51, 51); fill-opacity: 1; white-space: pre;" transform="translate(0,136.53)">4</text></g><g class="ytick"><text text-anchor="end" x="54.6" y="4.199999999999999" style="font-family: Arial, sans-serif; font-size: 12px; fill: rgb(51, 51, 51); fill-opacity: 1; white-space: pre;" transform="translate(0,96.92)">6</text></g></g><g class="overaxes-above"/></g></g><g class="polarlayer"/><g class="smithlayer"/><g class="ternarylayer"/><g class="geolayer"/><g class="funnelarealayer"/><g class="pielayer"/><g class="iciclelayer"/><g class="treemaplayer"/><g class="sunburstlayer"/><g class="glimages"/><defs id="topdefs-e0cf65"><g class="clips"/></defs><g class="layer-above"><g class="imagelayer"/><g class="shapelayer"><g class="shape-group" data-index="0" clip-path="url(#clipe0cf65y)"><path data-index="0" fill-rule="evenodd" d="M64,251.41L788,251.41" style="opacity: 1; stroke: rgb(136, 136, 136); stroke-opacity: 1; fill: rgb(0, 0, 0); fill-opacity: 0; stroke-dasharray: 3px, 3px; stroke-width: 1px;"/></g><g class="shape-group" data-index="1" clip-path="url(#clipe0cf65y)"><path data-index="1" fill-rule="evenodd" d="M64,215.76L788,215.76" style="opacity: 1; stroke: rgb(204, 204, 204); stroke-opacity: 1; fill: rgb(0, 0, 0); fill-opacity: 0; stroke-width: 1px;"/></g></g></g><g class="infolayer"><g class="g-gtitle"><text class="gtitle" x="400" y="30" text-anchor="middle" dy="0em" style="opacity: 1; font-family: Arial, sans-serif; font-size: 16px; fill: rgb(51, 51, 51); fill-opacity: 1; white-space: pre;"><tspan style="font-weight:bold">21-Day Return</tspan></text></g><g class="g-xtitle"><text class="xtitle" x="426" y="482.000390625" text-anchor="middle" style="opacity: 1; font-family: Arial, sans-serif; font-size: 13px; fill: rgb(51, 51, 51); fill-opacity: 1; white-space: pre;"><tspan style="font-weight:bold">Last 104 Weeks</tspan></text></g><g class="g-ytitle"><text class="ytitle" transform="rotate(-90,15.190234375000003,250)" x="15.190234375000003" y="250" text-anchor="middle" style="opacity: 1; font-family: Arial, sans-serif; font-size: 13px; fill: rgb(51, 51, 51); fill-opacity: 1; white-space: pre;"><tspan style="font-weight:bold">Return (%)</tspan></text></g><g class="annotation" data-index="0" style="opacity: 1;"><g class="annotation-text-g" transform="rotate(0,45.7352,251.21)"><g class="cursor-pointer" transform="translate(31,240)"><rect class="bg" x="0.5" y="0.5" width="28" height="21" style="stroke-width: 1px; stroke: rgb(0, 0, 0); stroke-opacity: 0; fill: rgb(255, 255, 255); fill-opacity: 1;"/><text class="annotation-text" text-anchor="middle" x="14.34375" y="15" style="font-family: Arial, sans-serif; font-size: 12px; fill: rgb(51, 51, 51); fill-opacity: 1; white-space: pre;">-1.8</text></g></g></g></g></svg>