<svg class="main-svg" xmlns="http://www.w3.org/2000/svg" xmlns:xlink="http://www.w3.org/1999/xlink" width="800" height="500" style="" viewBox="0 0 800 500"><rect x="0" y="0" width="800" height="500" style="fill: rgb(255, 255, 255); fill-opacity: 1;"/><defs id="defs-2fe1cb"><g class="clips"><clipPath id="clip2fe1cbxyplot" class="plotclip"><rect width="634" height="380"/></clipPath><clipPath class="axesclip" id="clip2fe1cbx"><rect x="67" y="0" width="634" height="500"/></clipPath><clipPath class="axesclip" id="clip2fe1cby"><rect x="0" y="60" width="800" height="380"/></clipPath><clipPath class="axesclip" id="clip2fe1cbxy"><rect x="67" y="60" width="634" height="380"/></clipPath></g><g class="gradients"/><g class="patterns"/></defs><g class="bglayer"/><g class="layer-below"><g class="imagelayer"/><g class="shapelayer"/></g><g class="cartesianlayer"><g class="subplot xy"><g class="layer-subplot"><g class="shapelayer"/><g class="imagelayer"/></g><g class="minor-gridlayer"><g class="x"/><g class="y"/></g><g class="gridlayer"><g class="x"><path class="xgrid crisp" transform="translate(150.64,0)" d="M0,60v380" style="stroke: rgb(204, 204, 204); stroke-opacity: 1; stroke-width: 1px;"/><path class="xgrid crisp" transform="translate(234.28,0)" d="M0,60v380" style="stroke: rgb(204, 204, 204); stroke-opacity: 1; stroke-width: 1px;"/><path class="xgrid crisp" transform="translate(317.91999999999996,0)" d="M0,60v380" style="stroke: rgb(204, 204, 204); stroke-opacity: 1; stroke-width: 1px;"/><path class="xgrid crisp" transform="translate(401.56,0)" d="M0,60v380" style="stroke: rgb(204, 204, 204); stroke-opacity: 1; stroke-width: 1px;"/><path class="xgrid crisp" transform="translate(485.21,0)" d="M0,60v380" style="stroke: rgb(204, 204, 204); stroke-opacity: 1; stroke-width: 1px;"/><path class="xgrid crisp" transform="translate(568.85,0)" d="M0,60v380" style="stroke: rgb(204, 204, 204); stroke-opacity: 1; stroke-width: 1px;"/><path class="xgrid crisp" transform="translate(652.49,0)" d="M0,60v380" style="stroke: rgb(204, 204, 204); stroke-opacity: 1; stroke-width: 1px;"/></g><g class="y"><path class="ygrid crisp" transform="translate(0,421)" d="M67,0h634" style="stroke: rgb(204, 204, 204); stroke-opacity: 1; stroke-width: 1px;"/><path class="ygrid crisp" transform="translate(0,335.5)" d="M67,0h634" style="stroke: rgb(204, 204, 204); stroke-opacity: 1; stroke-width: 1px;"/><path class="ygrid crisp" transform="translate(0,164.5)" d="M67,0h634" style="stroke: rgb(204, 204, 204); stroke-opacity: 1; stroke-width: 1px;"/><path class="ygrid crisp" transform="translate(0,79)" d="M67,0h634" style="stroke: rgb(204, 204, 204); stroke-opacity: 1; stroke-width: 1px;"/></g></g><g class="zerolinelayer"><path class="yzl zl crisp" transform="translate(0,250)" d="M67,0h634" style="stroke: rgb(204, 204, 204); stroke-opacity: 1; stroke-width: 1px;"/></g><g class="layer-between"><g class="shapelayer"/><g class="imagelayer"/></g><path class="xlines-below"/><path class="ylines-below"/><g class="overlines-below"/><g class="xaxislayer-below"/><g class="yaxislayer-below"/><g class="overaxes-below"/><g class="overplot"><g class="xy" transform="translate(67,60)" clip-path="url(#clip2fe1cbxyplot)"><g class="scatterlayer mlayer"><g class="trace scatter trace095e51" style="stroke-miterlimit: 2; opacity: 1;"><g class="fills"/><g class="errorbars"/><g class="lines"><path class="js-line" d="M0,137.16L8.36,84.66L10.04,75.6L16.73,44.99L18.4,39.01L21.75,29.26L23.42,25.67L25.09,22.76L26.77,361L28.44,360.66L30.11,359.29L33.46,354.33L35.13,350.74L38.47,340.99L40.15,335.01L45.17,312.95L46.84,304.4L53.53,264.9L55.2,254.13L80.3,84.66L81.97,75.6L88.66,44.99L90.33,39.01L93.68,29.26L95.35,25.67L97.02,22.76L98.7,361L100.37,360.66L102.04,359.29L105.39,354.33L107.06,350.74L110.41,340.99L112.08,335.01L117.1,312.95L118.77,304.4L125.46,264.9L127.13,254.13L152.23,84.66L153.9,75.6L160.59,44.99L162.26,39.01L165.61,29.26L167.28,25.67L170.63,20.71L172.3,19.34L175.65,19.34L177.32,20.71L180.66,25.67L182.34,29.26L185.68,39.01L187.36,44.99L192.37,67.05L194.05,75.6L200.74,115.1L202.41,125.88L227.5,295.34L229.18,304.4L235.87,335.01L237.54,340.99L240.89,350.74L242.56,354.33L245.91,359.29L247.58,360.66L250.92,360.66L252.6,359.29L255.94,354.33L257.61,350.74L260.96,340.99L262.63,335.01L267.65,312.95L269.32,304.4L276.02,264.9L277.69,254.13L296.09,125.88L297.76,361L299.44,360.66L301.11,359.29L304.45,354.33L306.13,350.74L309.47,340.99L311.15,335.01L316.16,312.95L317.84,304.4L324.53,264.9L326.2,254.13L351.29,84.66L352.97,75.6L359.66,44.99L361.33,39.01L364.68,29.26L366.35,25.67L369.69,20.71L371.37,19.34L374.71,19.34L376.39,20.71L379.73,25.67L381.4,29.26L384.75,39.01L386.42,44.99L391.44,67.05L393.11,75.6L399.8,115.1L401.48,125.88L426.57,295.34L428.24,304.4L434.93,335.01L436.61,340.99L439.95,350.74L441.63,354.33L444.97,359.29L446.64,360.66L449.99,360.66L451.66,359.29L455.01,354.33L456.68,350.74L460.03,340.99L461.7,335.01L466.72,312.95L468.39,304.4L475.08,264.9L476.75,254.13L501.85,84.66L503.52,75.6L510.21,44.99L511.88,39.01L515.23,29.26L516.9,25.67L520.25,20.71L521.92,19.34L525.27,19.34L526.94,20.71L530.28,25.67L531.96,29.26L535.3,39.01L536.98,44.99L541.99,67.05L543.67,75.6L550.36,115.1L552.03,125.88L577.12,295.34L578.8,304.4L585.49,335.01L587.16,340.99L590.51,350.74L592.18,354.33L593.85,361L595.53,360.66L598.87,357.24L600.54,354.33L603.89,346.29L605.56,340.99L610.58,320.99L612.25,312.95L618.94,275.5L620.62,264.9L630.65,195.99" style="vector-effect: none; fill: none; stroke: rgb(255, 121, 25); stroke-opacity: 1; stroke-width: 2px; opacity: 1;"/></g><g class="points"/><g class="text"/></g><g class="trace scatter tracee3737e" style="stroke-miterlimit: 2; opacity: 1;"><g class="fills"/><g class="errorbars"/><g class="lines"><path class="js-line" d="M0,26.41L1.67,19L3.35,27.08L5.02,45.27L6.69,41.01L8.36,50.66L10.04,72.22L11.71,58.52L13.38,68.18L18.4,100.74L20.07,111.97L25.09,127.91L26.77,140.71L28.44,119.6L30.11,123.64L31.78,112.86L33.46,110.39L35.13,106.8L36.8,109.95L38.47,118.7L40.15,122.97L41.82,113.54L43.49,120.5L45.17,124.09L46.84,113.09L48.51,100.74L50.18,78.28L51.86,81.88L53.53,64.81L55.2,67.5L56.88,76.04L58.55,71.1L60.22,95.12L61.89,108.37L63.57,89.29L65.24,86.59L66.91,108.82L68.59,109.95L70.26,123.42L71.93,124.99L73.6,102.09L75.28,107.48L76.95,104.11L78.62,98.27L80.3,98.04L81.97,90.86L83.64,129.03L85.31,133.97L86.99,198.65L88.66,211.67L90.33,216.16L92.01,215.26L93.68,235.02L97.02,233L98.7,240.41L100.37,214.59L102.04,221.33L103.72,209.87L105.39,213.02L107.06,212.34L108.73,218.18L112.08,224.24L113.75,223.35L115.42,212.34L117.1,209.2L118.77,194.15L120.44,201.56L122.12,195.05L123.79,177.31L125.46,189.44L127.13,194.15L128.81,176.86L130.48,175.07L132.15,149.47L133.83,153.06L135.5,163.39L137.17,159.57L138.84,154.86L140.52,144.75L142.19,162.72L143.86,150.59L145.54,155.76L147.21,166.31L148.88,163.39L150.55,154.86L152.23,175.07L153.9,177.99L155.57,185.85L157.25,164.96L163.94,214.59L165.61,220.65L168.96,194.15L170.63,192.13L173.97,219.98L175.65,225.37L177.32,208.53L178.99,200.89L180.66,188.09L182.34,192.13L184.01,183.15L185.68,183.15L187.36,186.52L189.03,183.38L190.7,185.85L192.37,195.05L194.05,193.93L195.72,199.77L197.39,184.72L199.07,192.81L200.74,174.84L202.41,187.42L205.76,187.87L207.43,177.54L209.1,182.7L210.78,185.17L212.45,181.58L214.12,193.26L215.79,205.38L217.47,211L220.81,215.04L222.49,203.81L224.16,216.39L225.83,207.85L227.5,207.18L229.18,217.96L230.85,230.31L232.52,228.29L235.87,246.7L237.54,252.31L239.21,243.11L240.89,244.9L242.56,239.07L244.23,248.5L245.91,222.22L247.58,215.94L249.25,223.8L250.92,240.19L252.6,243.56L254.27,236.6L255.94,235.92L257.61,238.62L259.29,230.31L260.96,235.7L262.63,223.35L264.31,222.22L265.98,228.96L267.65,223.12L269.32,237.72L271,243.33L272.67,262.42L274.34,244.01L276.02,253.21L277.69,272.75L279.36,274.99L281.03,269.83L282.71,260.4L284.38,270.73L286.05,263.54L287.73,272.97L291.07,262.42L292.74,263.09L294.42,268.71L296.09,278.36L297.76,288.69L299.44,279.26L301.11,273.65L302.78,263.77L304.45,258.38L306.13,265.11L307.8,262.64L309.47,255.91L311.15,265.34L312.82,263.54L314.49,261.3L316.16,250.29L317.84,267.81L319.51,276.57L321.18,279.49L322.85,278.59L324.53,278.81L326.2,275.67L327.87,272.3L329.55,260.4L332.89,266.24L334.56,260.85L336.24,259.72L337.91,263.99L339.58,267.36L341.26,258.6L342.93,262.2L344.6,246.03L346.27,245.8L347.95,237.49L349.62,224.24L351.29,232.1L352.97,233.9L354.64,232.78L356.31,222.9L357.98,226.94L359.66,230.31L361.33,242.88L363,237.72L364.68,236.37L368.02,238.39L369.69,244.46L371.37,250.07L373.04,247.82L374.71,253.21L376.39,250.52L378.06,256.36L379.73,254.34L383.08,247.82L384.75,259.5L386.42,267.81L388.09,267.14L393.11,276.57L394.79,271.85L396.46,271.18L398.13,263.32L399.8,266.69L401.48,266.69L403.15,270.5L404.82,285.1L406.5,286.9L408.17,286L409.84,289.14L411.51,301.72L413.19,311.82L414.86,309.13L416.53,309.35L418.21,307.78L419.88,315.19L421.55,309.58L426.57,314.52L428.24,326.42L429.92,327.54L431.59,313.84L433.26,308L434.93,311.82L436.61,326.42L438.28,319.23L439.95,313.62L441.63,304.19L443.3,311.82L444.97,308.9L446.64,301.72L448.32,305.09L451.66,292.73L453.34,299.7L455.01,304.41L456.68,312.27L458.35,316.76L460.03,314.74L461.7,316.09L463.37,309.8L465.04,312.72L466.72,313.39L468.39,309.35L470.06,314.52L471.74,318.56L473.41,326.87L476.75,315.41L478.43,317.89L480.1,320.58L481.77,311.37L485.12,302.62L486.79,295.43L488.46,296.78L490.14,291.16L491.81,291.39L493.48,292.73L498.5,284.2L500.17,284.65L501.85,278.81L503.52,269.83L506.87,289.37L508.54,287.57L510.21,297.9L511.88,303.29L513.56,302.84L515.23,304.64L516.9,316.31L518.58,322.15L520.25,326.42L521.92,321.93L523.59,314.52L525.27,314.29L526.94,310.47L528.61,323.95L531.96,315.41L533.63,299.92L536.98,333.15L538.65,318.33L540.32,310.25L541.99,307.33L543.67,309.35L545.34,327.77L547.01,307.33L548.69,326.42L552.03,343.93L553.7,337.42L555.38,339.89L557.05,337.2L558.72,327.32L560.4,329.79L562.07,327.99L563.74,323.05L565.41,324.62L567.09,323.5L568.76,331.81L570.43,334.05L572.11,334.5L573.78,324.62L577.12,336.75L578.8,325.07L580.47,324.17L582.14,325.52L585.49,344.16L587.16,345.95L588.83,336.52L590.51,353.81L593.85,361L595.53,346.63L597.2,343.93L598.87,331.58L600.54,314.29L602.22,318.78L603.89,321.93L605.56,317.66L607.23,312.05L608.91,325.74L610.58,319.01L612.25,329.56L613.93,328.21L615.6,329.79L617.27,341.24L618.94,342.14L620.62,342.81L622.29,333.83L623.96,331.81L625.64,324.62L628.98,314.52L630.65,313.62" style="vector-effect: none; fill: none; stroke: rgb(0, 73, 25); stroke-opacity: 1; stroke-width: 2px; opacity: 1;"/></g><g class="points"/><g class="text"/></g></g></g></g><g class="zerolinelayer-above"/><path class="xlines-above crisp" d="M66,440.5H702M66,59.5H702" style="fill: none; stroke-width: 1px; stroke: rgb(204, 204, 204); stroke-opacity: 1;"/><path class="ylines-above crisp" d="M66.5,60V440M701.5,60V440" style="fill: none; stroke-width: 1px; stroke: rgb(204, 204, 204); stroke-opacity: 1;"/><g class="overlines-above"/><g class="xaxislayer-above"><g class="xtick"><text text-anchor="middle" x="0" y="455.4" transform="translate(67,0)" style="font-family: Arial, sans-serif; font-size: 12px; fill: rgb(51, 51, 51); fill-opacity: 1; white-space: pre;">0</text></g><g class="xtick"><text text-anchor="middle" x="0" y="455.4" style="font-family: Arial, sans-serif; font-size: 12px; fill: rgb(51, 51, 51); fill-opacity: 1; white-space: pre;" transform="translate(150.64,0)">50</text></g><g class="xtick"><text text-anchor="middle" x="0" y="455.4" style="font-family: Arial, sans-serif; font-size: 12px; fill: rgb(51, 51, 51); fill-opacity: 1; white-space: pre;" transform="translate(234.28,0)">100</text></g><g class="xtick"><text text-anchor="middle" x="0" y="455.4" style="font-family: Arial, sans-serif; font-size: 12px; fill: rgb(51, 51, 51); fill-opacity: 1; white-space: pre;" transform="translate(317.91999999999996,0)">150</text></g><g class="xtick"><text text-anchor="middle" x="0" y="455.4" style="font-family: Arial, sans-serif; font-size: 12px; fill: rgb(51, 51, 51); fill-opacity: 1; white-space: pre;" transform="translate(401.56,0)">200</text></g><g class="xtick"><text text-anchor="middle" x="0" y="455.4" style="font-family: Arial, sans-serif; font-size: 12px; fill: rgb(51, 51, 51); fill-opacity: 1; white-space: pre;" transform="translate(485.21,0)">250</text></g><g class="xtick"><text text-anchor="middle" x="0" y="455.4" style="font-family: Arial, sans-serif; font-size: 12px; fill: rgb(51, 51, 51); fill-opacity: 1; white-space: pre;" transform="translate(568.85,0)">300</text></g><g class="xtick"><text text-anchor="middle" x="0" y="455.4" style="font-family: Arial, sans-serif; font-size: 12px; fill: rgb(51, 51, 51); fill-opacity: 1; white-space: pre;" transform="translate(652.49,0)">350</text></g></g><g class="yaxislayer-above"><path class="ytick ticks crisp" d="M66,0h-6" transform="translate(0,421)" style="stroke: rgb(255, 255, 255); stroke-opacity: 1; stroke-width: 1px;"/><path class="ytick ticks crisp" d="M66,0h-6" transform="translate(0,335.5)" style="stroke: rgb(255, 255, 255); stroke-opacity: 1; stroke-width: 1px;"/><path class="ytick ticks crisp" d="M66,0h-6" transform="translate(0,250)" style="stroke: rgb(255, 255, 255); stroke-opacity: 1; stroke-width: 1px;"/><path class="ytick ticks crisp" d="M66,0h-6" transform="translate(0,164.5)" style="stroke: rgb(255, 255, 255); stroke-opacity: 1; stroke-width: 1px;"/><path class="ytick ticks crisp" d="M66,0h-6" transform="translate(0,79)" style="stroke: rgb(255, 255, 255); stroke-opacity: 1; stroke-width: 1px;"/><g class="ytick"><text text-anchor="end" x="57.6" y="4.199999999999999" transform="translate(0,421)" style="font-family: Arial, sans-serif; font-size: 12px; fill: rgb(51, 51, 51); fill-opacity: 1; white-space: pre;">−1</text></g><g class="ytick"><text text-anchor="end" x="57.6" y="4.199999999999999" style="font-family: Arial, sans-serif; font-size: 12px; fill: rgb(51, 51, 51); fill-opacity: 1; white-space: pre;" transform="translate(0,335.5)">−0.5</text></g><g class="ytick"><text text-anchor="end" x="57.6" y="4.199999999999999" style="font-family: Arial, sans-serif; font-size: 12px; fill: rgb(51, 51, 51); fill-opacity: 1; white-space: pre;" transform="translate(0,250)">0</text></g><g class="ytick"><text text-anchor="end" x="57.6" y="4.199999999999999" style="font-family: Arial, sans-serif; font-size: 12px; fill: rgb(51, 51, 51); fill-opacity: 1; white-space: pre;" transform="translate(0,164.5)">0.5</text></g><g class="ytick"><text text-anchor="end" x="57.6" y="4.199999999999999" style="font-family: Arial, sans-serif; font-size: 12px; fill: rgb(51, 51, 51); fill-opacity: 1; white-space: pre;" transform="translate(0,79)">1</text></g></g><g class="overaxes-above"/></g></g><g class="polarlayer"/><g class="smithlayer"/><g class="ternarylayer"/><g class="geolayer"/><g class="funnelarealayer"/><g class="pielayer"/><g class="iciclelayer"/><g class="treemaplayer"/><g class="sunburstlayer"/><g class="glimages"/><defs id="topdefs-2fe1cb"><g class="clips"/><clipPath id="legend2fe1cb"><rect width="76" height="48" x="0" y="0"/></clipPath></defs><g class="layer-above"><g class="imagelayer"/><g class="shapelayer"><g class="shape-group" data-index="0" clip-path="url(#clip2fe1cbx)"><path data-index="0" fill-rule="evenodd" d="M67,453.29999999999995L68.67,453.29999999999995" style="opacity: 1; stroke: rgb(136, 136, 136); stroke-opacity: 1; fill: rgb(0, 0, 0); fill-opacity: 0; stroke-dasharray: 3px, 3px; stroke-width: 1px;"/></g><g class="shape-group" data-index="1" clip-path="url(#clip2fe1cbx)"><path data-index="1" fill-rule="evenodd" d="M67,453.29999999999995L68.67,453.29999999999995" style="opacity: 1; stroke: rgb(136, 136, 136); stroke-opacity: 1; fill: rgb(0, 0, 0); fill-opacity: 0; stroke-dasharray: 3px, 3px; stroke-width: 1px;"/></g></g></g><g class="infolayer"><g class="legend" pointer-events="all" transform="translate(713.6800000000001,60)"><rect class="bg" shape-rendering="crispEdges" style="stroke: rgb(68, 68, 68); stroke-opacity: 1; fill: rgb(255, 255, 255); fill-opacity: 1; stroke-width: 0px;" width="76" height="48" x="0" y="0"/><g class="scrollbox" transform="" clip-path="url(#legend2fe1cb)"><g class="groups"><g class="traces" transform="translate(0,14.5)" style="opacity: 1;"><text class="legendtext" text-anchor="start" x="40" y="4.680000000000001" style="font-family: Arial, sans-serif; font-size: 12px; fill: rgb(51, 51, 51); fill-opacity: 1; white-space: pre;">Cycle</text><g class="layers" style="opacity: 1;"><g class="legendfill"/><g class="legendlines"><path class="js-line" d="M5,0h30" style="fill: none; stroke: rgb(255, 121, 25); stroke-opacity: 1; stroke-width: 2px;"/></g><g class="legendsymbols"><g class="legendpoints"/></g></g><rect class="legendtoggle" x="0" y="-9.5" width="70.33203125" height="19" style="fill: rgb(0, 0, 0); fill-opacity: 0;"/></g><g class="traces" transform="translate(0,33.5)" style="opacity: 1;"><text class="legendtext" text-anchor="start" x="40" y="4.680000000000001" style="font-family: Arial, sans-serif; font-size: 12px; fill: rgb(51, 51, 51); fill-opacity: 1; white-space: pre;">Price</text><g class="layers" style="opacity: 1;"><g class="legendfill"/><g class="legendlines"><path class="js-line" d="M5,0h30" style="fill: none; stroke: rgb(0, 73, 25); stroke-opacity: 1; stroke-width: 2px;"/></g><g class="legendsymbols"><g class="legendpoints"/></g></g><rect class="legendtoggle" x="0" y="-9.5" width="70.33203125" height="19" style="fill: rgb(0, 0, 0); fill-opacity: 0;"/></g></g></g><rect class="scrollbar" rx="20" ry="3" width="0" height="0" style="fill: rgb(128, 139, 164); fill-opacity: 1;" x="0" y="0"/></g><g class="g-gtitle"><text class="gtitle" x="400" y="30" text-anchor="middle" dy="0em" style="opacity: 1; font-family: Arial, sans-serif; font-size: 16px; fill: rgb(51, 51, 51); fill-opacity: 1; white-space: pre;"><tspan style="font-weight:bold">Time Cycles</tspan></text></g><g class="g-xtitle"><text class="xtitle" x="384" y="482.000390625" text-anchor="middle" style="opacity: 1; font-family: Arial, sans-serif; font-size: 13px; fill: rgb(51, 51, 51); fill-opacity: 1; white-space: pre;"><tspan style="font-weight:bold">Trading Days</tspan></text></g><g class="g-ytitle"><text class="ytitle" transform="rotate(-90,14.846484375000003,250)" x="14.846484375000003" y="250" text-anchor="middle" style="opacity: 1; font-family: Arial, sans-serif; font-size: 13px; fill: rgb(51, 51, 51); fill-opacity: 1; white-space: pre;"><tspan style="font-weight:bold">Phase</tspan></text></g><g class="annotation" data-index="0" style="opacity: 1;"><g class="annotation-text-g" transform="rotate(0,42.7032,255.99)"><g class="cursor-pointer" transform="translate(22,245)"><rect class="bg" x="0.5" y="0.5" width="41" height="21" style="stroke-width: 1px; stroke: rgb(0, 0, 0); stroke-opacity: 0; fill: rgb(255, 255, 255); fill-opacity: 1;"/><text class="annotation-text" text-anchor="middle" x="21.015625" y="15" style="font-family: Arial, sans-serif; font-size: 12px; fill: rgb(51, 51, 51); fill-opacity: 1; white-space: pre;">-0.035</text></g></g></g><g class="annotation" data-index="1" style="opacity: 1;"><g class="annotation-text-g" transform="rotate(0,42.7032,255.99)"><g class="cursor-pointer" transform="translate(22,245)"><rect class="bg" x="0.5" y="0.5" width="41" height="21" style="stroke-width: 1px; stroke: rgb(0, 0, 0); stroke-opacity: 0; fill: rgb(255, 255, 255); fill-opacity: 1;"/><text class="annotation-text" text-anchor="middle" x="21.015625" y="15" style="font-family: Arial, sans-serif; font-size: 12px; fill: rgb(51, 51, 51); fill-opacity: 1; white-space: pre;">-0.035</text></g></g></g></g></svg>