<svg class="main-svg" xmlns="http://www.w3.org/2000/svg" xmlns:xlink="http://www.w3.org/1999/xlink" width="800" height="600" style="" viewBox="0 0 800 600"><rect x="0" y="0" width="800" height="600" style="fill: rgb(255, 255, 255); fill-opacity: 1;"/><defs id="defs-8a7069"><g class="clips"><clipPath id="clip8a7069xyplot" class="plotclip"><rect width="733" height="211.6"/></clipPath><clipPath id="clip8a7069x2y2plot" class="plotclip"><rect width="733" height="211.60000000000002"/></clipPath><clipPath class="axesclip" id="clip8a7069x"><rect x="56" y="0" width="733" height="600"/></clipPath><clipPath class="axesclip" id="clip8a7069y"><rect x="0" y="80" width="800" height="211.6"/></clipPath><clipPath class="axesclip" id="clip8a7069xy"><rect x="56" y="80" width="733" height="211.6"/></clipPath><clipPath class="axesclip" id="clip8a7069y2"><rect x="0" y="328.4" width="800" height="211.60000000000002"/></clipPath><clipPath class="axesclip" id="clip8a7069xy2"><rect x="56" y="328.4" width="733" height="211.60000000000002"/></clipPath><clipPath class="axesclip" id="clip8a7069x2"><rect x="56" y="0" width="733" height="600"/></clipPath><clipPath class="axesclip" id="clip8a7069x2y"><rect x="56" y="80" width="733" height="211.6"/></clipPath><clipPath class="axesclip" id="clip8a7069x2y2"><rect x="56" y="328.4" width="733" height="211.60000000000002"/></clipPath></g><g class="gradients"/><g class="patterns"/></defs><g class="bglayer"/><g class="layer-below"><g class="imagelayer"/><g class="shapelayer"/></g><g class="cartesianlayer"><g class="subplot xy"><g class="layer-subplot"><g class="shapelayer"/><g class="imagelayer"/></g><g class="minor-gridlayer"><g class="x"/><g class="y"/></g><g class="gridlayer"><g class="x"><path class="xgrid crisp" transform="translate(150.39,0)" d="M0,80v211.6" style="stroke: rgb(204, 204, 204); stroke-opacity: 1; stroke-width: 1px;"/><path class="xgrid crisp" transform="translate(272.89,0)" d="M0,80v211.6" style="stroke: rgb(204, 204, 204); stroke-opacity: 1; stroke-width: 1px;"/><path class="xgrid crisp" transform="translate(395.39,0)" d="M0,80v211.6" style="stroke: rgb(204, 204, 204); stroke-opacity: 1; stroke-width: 1px;"/><path class="xgrid crisp" transform="translate(513.87,0)" d="M0,80v211.6" style="stroke: rgb(204, 204, 204); stroke-opacity: 1; stroke-width: 1px;"/><path class="xgrid crisp" transform="translate(636.38,0)" d="M0,80v211.6" style="stroke: rgb(204, 204, 204); stroke-opacity: 1; stroke-width: 1px;"/><path class="xgrid crisp" transform="translate(758.88,0)" d="M0,80v211.6" style="stroke: rgb(204, 204, 204); stroke-opacity: 1; stroke-width: 1px;"/></g><g class="y"><path class="ygrid crisp" transform="translate(0,287.16999999999996)" d="M56,0h733" style="stroke: rgb(204, 204, 204); stroke-opacity: 1; stroke-width: 1px;"/><path class="ygrid crisp" transform="translate(0,217.4)" d="M56,0h733" style="stroke: rgb(204, 204, 204); stroke-opacity: 1; stroke-width: 1px;"/><path class="ygrid crisp" transform="translate(0,147.63)" d="M56,0h733" style="stroke: rgb(204, 204, 204); stroke-opacity: 1; stroke-width: 1px;"/></g></g><g class="zerolinelayer"/><g class="layer-between"><g class="shapelayer"/><g class="imagelayer"/></g><path class="xlines-below"/><path class="ylines-below"/><g class="overlines-below"/><g class="xaxislayer-below"/><g class="yaxislayer-below"/><g class="overaxes-below"/><g class="overplot"><g class="xy" transform="translate(56,80)" clip-path="url(#clip8a7069xyplot)"><g class="scatterlayer mlayer"><g class="trace scatter trace930c47" style="stroke-miterlimit: 2; opacity: 1;"><g class="fills"/><g class="errorbars"/><g class="lines"><path class="js-line" d="M0,52.56Q1.71,45.28 2.01,45.3C2.39,45.32 3.59,57.02 4.02,57.02C4.75,57.02 9.25,27.94 10.04,24.37C10.43,22.61 11.73,16.55 12.05,16.56C12.4,16.57 13.77,24.4 14.06,26.33C14.48,29.1 15.49,44.61 16.07,46.7C16.35,47.69 17.6,50.85 18.07,50.89C18.77,50.95 23.28,42.89 24.1,42.23C24.47,41.93 25.81,41.3 26.11,41.4C26.51,41.53 27.83,44.8 28.12,44.75C28.59,44.67 29.74,34.44 30.12,34.42C30.43,34.4 31.67,41.1 32.13,41.12C32.84,41.15 37.26,26.92 38.16,25.77C38.51,25.33 39.88,24.26 40.16,24.37C40.68,24.57 41.82,32.73 42.17,32.74C42.49,32.75 43.89,25.47 44.18,25.49C44.63,25.53 45.23,41.42 46.19,43.63C46.88,45.2 51.51,48.95 52.21,50.61C53.33,53.28 53.88,74.33 54.22,74.33C54.55,74.33 55.82,51.46 56.23,51.44C56.52,51.43 57.95,60.62 58.24,62.89C58.66,66.18 58.87,85.2 60.25,87.17C60.97,88.2 65.6,90.26 66.27,89.96C66.94,89.66 67.98,84.78 68.28,83.54C68.68,81.89 69.96,71.82 70.29,71.82C70.63,71.82 71.93,84.64 72.3,84.65C72.61,84.66 73.74,75.79 74.3,75.72C74.98,75.63 79.63,87.49 80.33,87.44C80.81,87.41 82.02,82.61 82.34,81.58C82.69,80.44 83.83,74.58 84.35,74.33C84.63,74.19 86.07,74.85 86.35,75.17C86.86,75.75 87.85,80.85 88.36,82.14C89.05,83.9 93.72,92.05 94.39,94.14C95.05,96.19 96.05,106.98 96.39,106.98C96.72,106.98 98.01,96.95 98.4,95.26C98.7,93.94 100.11,89.62 100.41,88.28C100.8,86.53 101.63,77.65 102.42,76C103.09,74.6 107.77,69.13 108.44,69.3C109.09,69.47 110.01,77.6 110.45,77.68C110.74,77.73 112.17,75.28 112.46,74.61C112.9,73.58 114.16,66.22 114.47,66.23C114.84,66.24 115.55,77.42 116.48,77.96C117.16,78.35 121.81,76.24 122.5,75.72C123,75.34 124.23,73.62 124.51,72.93C125.07,71.55 126.22,59.25 126.52,59.26C126.9,59.27 128.12,78.03 128.53,81.03C128.82,83.16 129.68,90.68 130.53,91.91C131.21,92.89 135.82,95.53 136.56,95.54C136.98,95.55 138.22,94.48 138.57,94.42C138.9,94.36 140.29,94.85 140.58,94.7C141.01,94.48 142.25,91.45 142.58,90.79C142.92,90.11 144.18,87.53 144.59,86.61C145.35,84.91 149.82,71.9 150.62,71.82C151,71.78 152.3,74.33 152.62,74.89C152.98,75.52 154.32,79.09 154.63,79.07C155.01,79.04 156.16,73.03 156.64,72.37C156.92,71.98 158.24,70.96 158.65,70.98C159.4,71.02 163.99,75.38 164.67,76.28C165.19,76.97 166.39,80.51 166.68,80.47C167.13,80.41 168.25,69.63 168.69,69.58C168.98,69.54 170.42,74.1 170.7,74.05C171.27,73.96 171.4,55.19 172.71,53.95C173.42,53.27 178.05,54.27 178.73,53.68C179.63,52.9 180.44,45.28 180.74,43.35C181.12,40.93 182.36,26.9 182.75,26.88C183.05,26.87 184.25,35.64 184.76,36.65C185.04,37.21 186.28,38.73 186.76,38.88C187.45,39.1 192.1,38.22 192.79,37.49C193.76,36.45 194.36,25.26 194.8,25.21C195.09,25.18 196.46,29.44 196.81,30.23C197.13,30.97 198.53,33.47 198.81,34.42C199.33,36.17 199.91,49.75 200.82,50.05C201.5,50.27 206.1,44.34 206.85,43.63C207.26,43.24 208.5,42 208.85,41.95C209.17,41.9 210.54,42.59 210.86,42.79C211.21,43 212.59,44.03 212.87,44.47C213.36,45.24 214.26,50.83 214.88,52C215.55,53.27 220.18,59.01 220.9,58.98C221.34,58.96 222.62,56.14 222.91,56.19C223.33,56.26 224.52,62.84 224.92,62.89C225.22,62.93 226.63,59.5 226.93,59.54C227.34,59.6 228.22,66.44 228.94,66.79C229.61,67.12 234.28,64.9 234.96,64.28C235.52,63.77 236.64,61.03 236.97,60.37C237.31,59.69 238.7,56.15 238.98,56.19C239.48,56.27 240.62,68.49 240.99,70.7C241.3,72.57 242.1,80.39 242.99,81.03C243.67,81.52 248.35,79.83 249.02,80.19C249.61,80.51 250.65,83.8 251.03,84.37C251.34,84.83 252.74,86.12 253.04,86.61C253.45,87.28 254.71,91.91 255.04,91.91C255.38,91.9 256.37,86.61 257.05,86.05C257.72,85.5 262.4,85.85 263.08,85.21C263.95,84.4 264.65,75.49 265.08,75.44C265.37,75.4 266.65,79.35 267.09,79.63C267.38,79.81 268.81,79.44 269.1,79.63C269.56,79.93 270.71,83.31 271.11,84.37C271.88,86.41 276.24,100.99 277.13,102.52C277.48,103.13 278.78,104.69 279.14,104.75C279.46,104.8 280.85,103.54 281.15,103.63C281.56,103.75 282.88,106.64 283.16,107.54C283.69,109.25 284.46,120.76 285.17,123.17C285.84,125.44 290.43,135.69 291.19,135.73C291.59,135.75 292.79,132.58 293.2,132.38C293.5,132.24 294.9,132.76 295.21,132.66C295.58,132.54 296.94,130.62 297.22,130.7C297.73,130.85 298.54,139.74 299.22,139.91C299.89,140.08 304.5,132.97 305.25,132.94C305.66,132.92 306.94,134.51 307.26,134.89C307.62,135.33 308.89,137.6 309.27,137.96C309.57,138.24 310.99,138.67 311.27,139.07C311.98,140.1 312.2,152.69 313.28,153.87C313.98,154.63 318.61,155.76 319.31,155.26C320.48,154.44 320,140.29 321.32,138.24C322.52,136.38 332.26,130.62 333.36,130.98C334.03,131.2 334.97,134.67 335.37,135.73C336.14,137.77 340.21,153.71 341.4,153.87C342.3,153.99 346.74,146.39 347.42,144.94C347.98,143.75 349.13,139.28 349.43,137.96C349.82,136.27 351.09,126.25 351.44,126.24C351.76,126.23 353.01,135.66 353.45,135.73C353.74,135.77 355.01,132.83 355.45,132.1C356.17,130.93 360.77,123.12 361.48,123.17C361.94,123.2 363.18,127.38 363.49,127.35C363.87,127.32 365.18,121.6 365.5,120.38C365.85,119.05 367.17,112 367.5,112C367.84,112 368.82,119.44 369.51,120.66C370.18,121.85 374.87,125.3 375.54,126.52C376.27,127.85 377.16,134.89 377.55,136.28C377.85,137.35 379.15,141.8 379.55,141.87C379.85,141.92 381.21,139.39 381.56,139.35C381.88,139.32 383.17,141.07 383.57,141.03C384.34,140.95 388.88,133.16 389.59,133.21C390.05,133.24 391.19,136.47 391.6,136.84C391.9,137.11 393.32,137.8 393.61,137.68C394.06,137.49 395.3,132.65 395.62,132.66C395.98,132.67 397.01,138.14 397.63,139.07C398.3,140.07 402.98,142.96 403.65,144.1C404.43,145.42 405.27,154.4 405.66,154.42C405.96,154.44 407.35,149.38 407.67,148.28C408.03,147.03 409.24,140.26 409.68,140.19C409.97,140.14 411.18,142.79 411.68,143.26C412.37,143.9 417.03,146.93 417.71,146.61C418.59,146.19 419.28,136.62 419.72,135.17C420.01,134.23 421.42,131.52 421.73,130.7C422.1,129.74 423.42,125.44 423.73,124.28C424.09,122.92 424.92,115.84 425.74,115.35C426.42,114.95 431.1,117.4 431.77,117.03C432.49,116.63 433.25,110.39 433.78,110.05C434.06,109.87 435.46,110.19 435.78,110.33C436.14,110.49 437.49,112.06 437.79,112C438.17,111.93 439.29,108.97 439.8,108.38C440.49,107.57 445.1,104.3 445.82,103.63C446.27,103.21 447.46,101.51 447.83,101.4C448.14,101.31 449.56,102.12 449.84,101.96C450.37,101.66 451.54,96.05 451.85,94.7C452.23,93.05 453.23,83.64 453.86,83.54C454.53,83.43 459.21,92.7 459.88,94.7C460.56,96.74 461.3,107.64 461.89,107.82C462.17,107.9 463.62,105.51 463.9,105.59C464.48,105.76 465.5,116.64 465.91,118.42C466.21,119.73 467.2,124.63 467.92,125.12C468.59,125.57 473.25,124.29 473.94,124.56C474.43,124.75 475.67,126.2 475.95,126.8C476.56,128.12 477.55,139.32 477.96,141.31C478.25,142.74 479.6,147.45 479.96,148.56C480.27,149.52 481.41,153.74 481.97,153.87C482.65,154.03 487.33,149.45 488,148.28C488.72,147.02 489.41,139.62 490.01,139.07C490.29,138.81 491.72,139.02 492.01,138.8C492.47,138.45 493.74,134.01 494.02,134.05C494.53,134.12 495.08,150.49 496.03,150.8C496.71,151.02 501.36,145.39 502.05,144.38C502.55,143.65 503.78,141.18 504.06,140.19C504.63,138.18 505.75,120.93 506.07,120.93C506.43,120.93 507.71,141.27 508.08,144.94C508.39,148.06 509.46,162.18 510.09,162.24C510.76,162.31 515.42,146.45 516.11,143.82C516.61,141.91 517.67,135 518.12,133.77C518.41,132.99 519.77,130.17 520.13,130.14C520.45,130.11 521.73,131.99 522.14,132.66C523.27,134.53 531.17,155.71 532.18,155.54C533.2,155.37 533.85,130.14 534.19,130.14C534.52,130.14 535.76,150.71 536.19,153.87C536.48,156 537.58,162.73 538.2,164.47C538.87,166.36 543.55,175.72 544.23,175.63C544.78,175.56 545.8,167.61 546.24,167.54C546.53,167.49 547.91,170.62 548.24,170.61C548.58,170.6 549.97,168.03 550.25,167.26C550.75,165.89 551.33,155.45 552.26,154.98C552.94,154.63 557.58,158.18 558.28,158.05C558.75,157.96 560,156.32 560.29,155.82C560.72,155.08 561.86,149.79 562.3,149.68C562.59,149.61 563.96,151.6 564.31,151.63C564.63,151.66 565.95,150.16 566.32,150.24C567.14,150.42 571.58,159.39 572.34,160.56C572.75,161.19 573.96,163.09 574.35,163.36C574.65,163.57 576.08,164.09 576.36,163.91C577.04,163.47 577.54,151.85 578.37,151.63C579.21,151.41 585.56,159.96 586.4,161.4C586.96,162.37 588.12,166.73 588.41,166.7C588.87,166.65 589.72,153.21 590.42,152.19C590.7,151.79 592.1,151.05 592.42,151.08C592.77,151.11 594.05,152.31 594.43,152.75C595.23,153.67 599.79,160.69 600.46,162.52C601.19,164.51 601.88,174.66 602.47,175.91C602.75,176.5 604.19,178.23 604.47,178.15C605.02,177.99 606.18,166.41 606.48,166.42C606.88,166.44 607.32,185.7 608.49,187.91C609.19,189.25 613.83,192.08 614.52,192.94C615.03,193.58 616.24,196.89 616.52,196.84C617.08,196.74 617.93,180.74 618.53,178.98C618.81,178.16 620.26,176.43 620.54,175.63C621.1,174.04 621.99,163.04 622.55,160.29C623.23,156.99 627.8,138.83 628.57,138.8C628.97,138.79 630.22,143.54 630.58,144.38C630.89,145.1 632.27,148.3 632.59,148.28C632.95,148.26 634.28,143.93 634.6,142.98C634.96,141.9 636.16,136.02 636.61,136.01C637.32,135.99 641.93,153.07 642.63,153.03C643.11,153 644.33,144.65 644.64,144.66C645.02,144.68 646.03,157.53 646.65,157.77C646.93,157.87 648.32,156.09 648.65,156.1C648.99,156.11 650.3,157.52 650.66,158.05C651.51,159.29 655.78,171.28 656.69,172.29C657.04,172.68 658.36,173.24 658.7,173.4C659.03,173.56 660.42,174.39 660.7,174.24C661.33,173.9 662.18,164.24 662.71,163.08C662.99,162.46 664.31,161.12 664.72,160.56C665.47,159.54 670.07,153.02 670.75,151.63C671.28,150.55 672.42,146.53 672.75,145.49C673.09,144.43 674.43,140.18 674.76,139.07C675.1,137.9 676.49,131.79 676.77,131.82C677.26,131.86 677.79,153.62 678.78,153.87C679.47,154.05 684.13,146.59 684.8,144.94C685.49,143.25 686.5,135.79 686.81,133.77C687.18,131.39 688.29,119.85 688.82,118.14C689.1,117.24 690.46,114.28 690.83,114.24C691.14,114.21 692.34,116.48 692.84,116.75C693.53,117.12 698.18,116.9 698.86,117.31C699.39,117.63 700.58,119.7 700.87,120.38C701.33,121.47 702.54,128.07 702.88,129.59C703.21,131.09 704.52,137.13 704.88,138.52C705.2,139.76 706.25,144.48 706.89,145.49C707.56,146.55 712.25,149.61 712.92,150.8C713.71,152.2 714.64,159.55 714.93,161.68C715.34,164.65 716.21,182.95 716.93,183.17C717.21,183.25 718.63,181.16 718.94,180.66C719.32,180.04 720.38,176.38 720.95,176.19C721.63,175.97 726.23,179.29 726.98,179.54Q727.39,179.68 728.98,179.82" style="vector-effect: none; fill: none; stroke: rgb(0, 73, 25); stroke-opacity: 1; stroke-width: 2px; opacity: 1;"/></g><g class="points"/><g class="text"/></g></g></g></g><g class="zerolinelayer-above"/><path class="xlines-above crisp" d="M55,292.1H790M55,79.5H790" style="fill: none; stroke-width: 1px; stroke: rgb(204, 204, 204); stroke-opacity: 1;"/><path class="ylines-above crisp" d="M55.5,80V291.6M789.5,80V291.6" style="fill: none; stroke-width: 1px; stroke: rgb(204, 204, 204); stroke-opacity: 1;"/><g class="overlines-above"/><g class="xaxislayer-above"/><g class="yaxislayer-above"><path class="ytick ticks crisp" d="M55,0h-6" transform="translate(0,287.16999999999996)" style="stroke: rgb(255, 255, 255); stroke-opacity: 1; stroke-width: 1px;"/><path class="ytick ticks crisp" d="M55,0h-6" transform="translate(0,217.4)" style="stroke: rgb(255, 255, 255); stroke-opacity: 1; stroke-width: 1px;"/><path class="ytick ticks crisp" d="M55,0h-6" transform="translate(0,147.63)" style="stroke: rgb(255, 255, 255); stroke-opacity: 1; stroke-width: 1px;"/><g class="ytick"><text text-anchor="end" x="46.6" y="4.199999999999999" transform="translate(0,287.16999999999996)" style="font-family: Arial, sans-serif; font-size: 12px; fill: rgb(51, 51, 51); fill-opacity: 1; white-space: pre;">105.00</text></g><g class="ytick"><text text-anchor="end" x="46.6" y="4.199999999999999" style="font-family: Arial, sans-serif; font-size: 12px; fill: rgb(51, 51, 51); fill-opacity: 1; white-space: pre;" transform="translate(0,217.4)">110.00</text></g><g class="ytick"><text text-anchor="end" x="46.6" y="4.199999999999999" style="font-family: Arial, sans-serif; font-size: 12px; fill: rgb(51, 51, 51); fill-opacity: 1; white-space: pre;" transform="translate(0,147.63)">115.00</text></g></g><g class="overaxes-above"/></g><g class="subplot x2y2"><g class="layer-subplot"><g class="shapelayer"/><g class="imagelayer"/></g><g class="minor-gridlayer"><g class="x2"/><g class="y2"/></g><g class="gridlayer"><g class="x2"><path class="x2grid crisp" transform="translate(150.39,0)" d="M0,328.4v211.60000000000002" style="stroke: rgb(204, 204, 204); stroke-opacity: 1; stroke-width: 1px;"/><path class="x2grid crisp" transform="translate(272.89,0)" d="M0,328.4v211.60000000000002" style="stroke: rgb(204, 204, 204); stroke-opacity: 1; stroke-width: 1px;"/><path class="x2grid crisp" transform="translate(395.39,0)" d="M0,328.4v211.60000000000002" style="stroke: rgb(204, 204, 204); stroke-opacity: 1; stroke-width: 1px;"/><path class="x2grid crisp" transform="translate(513.87,0)" d="M0,328.4v211.60000000000002" style="stroke: rgb(204, 204, 204); stroke-opacity: 1; stroke-width: 1px;"/><path class="x2grid crisp" transform="translate(636.38,0)" d="M0,328.4v211.60000000000002" style="stroke: rgb(204, 204, 204); stroke-opacity: 1; stroke-width: 1px;"/><path class="x2grid crisp" transform="translate(758.88,0)" d="M0,328.4v211.60000000000002" style="stroke: rgb(204, 204, 204); stroke-opacity: 1; stroke-width: 1px;"/></g><g class="y2"><path class="y2grid crisp" transform="translate(0,491.93999999999994)" d="M56,0h733" style="stroke: rgb(204, 204, 204); stroke-opacity: 1; stroke-width: 1px;"/><path class="y2grid crisp" transform="translate(0,453.7)" d="M56,0h733" style="stroke: rgb(204, 204, 204); stroke-opacity: 1; stroke-width: 1px;"/><path class="y2grid crisp" transform="translate(0,415.46)" d="M56,0h733" style="stroke: rgb(204, 204, 204); stroke-opacity: 1; stroke-width: 1px;"/><path class="y2grid crisp" transform="translate(0,377.21999999999997)" d="M56,0h733" style="stroke: rgb(204, 204, 204); stroke-opacity: 1; stroke-width: 1px;"/><path class="y2grid crisp" transform="translate(0,338.97999999999996)" d="M56,0h733" style="stroke: rgb(204, 204, 204); stroke-opacity: 1; stroke-width: 1px;"/></g></g><g class="zerolinelayer"><path class="y2zl zl crisp" transform="translate(0,530.18)" d="M56,0h733" style="stroke: rgb(255, 255, 255); stroke-opacity: 1; stroke-width: 2px;"/></g><g class="layer-between"><g class="shapelayer"/><g class="imagelayer"/></g><path class="xlines-below"/><path class="ylines-below"/><g class="overlines-below"/><g class="xaxislayer-below"/><g class="yaxislayer-below"/><g class="overaxes-below"/><g class="overplot"><g class="x2y2" transform="translate(56,328.4)" clip-path="url(#clip8a7069x2y2plot)"><g class="scatterlayer mlayer"><g class="trace scatter trace73a470" style="stroke-miterlimit: 2; opacity: 1;"><g class="fills"/><g class="errorbars"/><g class="lines"><path class="js-line" d="M0,193.43Q1.69,199.51 2.01,199.5C2.36,199.49 3.67,193.78 4.02,191.92C4.93,187.04 9.01,142.31 10.04,138.05C10.37,136.67 11.75,132.71 12.05,132.73C12.44,132.76 13.77,141.86 14.06,141.84C14.49,141.82 15.57,122.16 16.07,122.11C16.35,122.08 17.55,128.11 18.07,128.18C18.75,128.27 23.3,119.22 24.1,119.08C24.48,119.01 25.83,120.11 26.11,120.6C26.86,121.92 27.73,136.18 28.12,138.8C28.42,140.81 29.69,148.05 30.12,149.43C30.41,150.37 31.74,154 32.13,153.98C32.92,153.93 37.49,134.19 38.16,134.25C38.77,134.3 39.8,148.34 40.16,150.94C40.48,153.23 41.71,163.78 42.17,163.84C42.46,163.88 43.9,160.28 44.18,159.29C44.65,157.65 45.27,146.01 46.19,145.63C46.87,145.35 51.45,150.55 52.21,150.19C54.11,149.29 53.83,109.4 54.22,102.39C54.52,96.87 55.71,76.21 56.23,72.8C56.51,70.97 57.96,66.24 58.24,64.45C58.73,61.35 58.93,39.24 60.25,38.65C60.96,38.33 65.5,41.72 66.27,43.21C68.46,47.44 67.42,103.78 68.28,103.9C68.56,103.94 69.91,98.71 70.29,97.83C70.6,97.11 72.02,93.98 72.3,94.04C72.95,94.17 73.35,117.35 74.3,117.56C74.98,117.71 79.6,106.93 80.33,106.94C80.76,106.95 82.04,110.76 82.34,110.73C82.73,110.69 83.84,104.15 84.35,103.9C84.63,103.76 86.07,104.35 86.35,104.66C86.88,105.25 87.85,112.2 88.36,112.25C89.05,112.31 93.68,99.32 94.39,99.35C94.84,99.37 96.1,104.69 96.39,104.66C96.83,104.61 97.72,92.16 98.4,91.76C98.68,91.6 100.13,92.66 100.41,92.52C100.92,92.27 102.02,85.68 102.42,85.69C103.19,85.71 107.56,111.38 108.44,111.49C108.79,111.54 110.17,107.64 110.45,107.7C111.47,107.93 112,156.72 112.46,163.84C112.75,168.23 113.66,184.73 114.47,185.09C114.75,185.21 116.14,183.47 116.48,183.57C117.41,183.85 121.49,200.3 122.5,201.02C122.83,201.26 124.19,201.13 124.51,201.02C124.87,200.9 126.24,199.97 126.52,199.5C127.17,198.4 127.8,186.48 128.53,185.85C128.81,185.61 130.11,185.82 130.53,185.85C131.27,185.9 135.89,186.03 136.56,186.6C137.29,187.22 138.18,192.47 138.57,193.43C138.87,194.17 140.16,196.86 140.58,197.23C140.87,197.49 142.26,198.04 142.58,197.99C142.93,197.94 144.23,196.92 144.59,196.47C145.45,195.41 149.95,183.49 150.62,183.57C151.21,183.64 152.21,192.74 152.62,194.19C152.92,195.24 154.19,198.92 154.63,199.5C154.92,199.89 156.28,200.9 156.64,201.02C156.96,201.13 158.23,201.02 158.65,201.02C159.38,201.02 163.94,201.02 164.67,201.02C165.09,201.02 166.36,201.13 166.68,201.02C167.04,200.9 168.34,199.69 168.69,199.5C169.01,199.32 170.41,199.03 170.7,198.74C171.16,198.28 172.07,193.76 172.71,193.43C173.38,193.08 178.02,195.09 178.73,194.95C179.18,194.86 180.46,193.92 180.74,193.43C181.51,192.08 182.3,174.49 182.75,174.46C183.04,174.44 184.47,180.51 184.76,182.05C185.19,184.35 185.58,198.15 186.76,199.5C187.46,200.3 192.11,201.32 192.79,201.02C193.35,200.77 194.41,197.69 194.8,197.23C195.1,196.88 196.46,195.9 196.81,195.71C197.13,195.53 198.53,195.24 198.81,194.95C199.27,194.49 200.17,190.15 200.82,189.64C201.49,189.11 206.18,188.48 206.85,188.88C207.5,189.27 208.37,193.86 208.85,194.19C209.13,194.39 210.53,194.19 210.86,194.19C211.2,194.19 212.54,194.25 212.87,194.19C213.21,194.13 214.46,193.59 214.88,193.43C215.61,193.15 220.16,191.3 220.9,191.16C221.32,191.08 222.59,191.27 222.91,191.16C223.27,191.04 224.64,189.54 224.92,189.64C225.44,189.83 226.51,197.94 226.93,197.99C227.22,198.03 228.46,194.25 228.94,194.19C229.64,194.11 234.17,200.82 234.96,201.02C235.34,201.12 236.64,200.26 236.97,200.26C237.31,200.26 238.64,200.96 238.98,201.02C239.31,201.08 240.66,201.08 240.99,201.02C241.33,200.96 242.56,200.34 242.99,200.26C243.72,200.13 248.31,200.5 249.02,200.26C249.48,200.11 250.71,198.71 251.03,198.74C251.38,198.78 252.67,200.93 253.04,201.02C253.35,201.1 254.71,200.39 255.04,200.26C255.37,200.13 256.62,199.52 257.05,199.5C257.78,199.46 262.35,201.06 263.08,201.02C263.51,201 264.75,200.39 265.08,200.26C265.41,200.13 266.75,199.56 267.09,199.5C267.42,199.44 268.78,199.61 269.1,199.5C269.46,199.38 270.71,198.36 271.11,197.99C271.87,197.28 276.42,191.11 277.13,191.16C277.58,191.19 278.74,193.97 279.14,194.19C279.44,194.35 280.82,194.13 281.15,194.19C281.49,194.25 282.88,195.1 283.16,194.95C283.72,194.65 284.37,187.32 285.17,186.6C285.84,186 290.46,186.03 291.19,185.85C291.62,185.74 292.87,185.09 293.2,185.09C293.53,185.09 294.87,185.79 295.21,185.85C295.54,185.91 296.89,185.79 297.22,185.85C297.56,185.91 298.79,186.52 299.22,186.6C299.95,186.73 304.52,186.73 305.25,186.6C305.68,186.52 306.93,185.85 307.26,185.85C307.59,185.85 308.93,186.54 309.27,186.6C309.6,186.66 310.99,186.81 311.27,186.6C311.82,186.18 312.54,179.4 313.28,179.02C313.95,178.67 318.61,181.72 319.31,181.29C320.5,180.56 319.8,164.44 321.32,163.08C322.55,161.98 332.21,163.29 333.36,163.08C333.85,162.99 335.03,162.68 335.37,162.33C336.36,161.32 340.15,147.02 341.4,144.87C342.28,143.36 346.73,137.83 347.42,138.05C348.42,138.37 348.98,156.98 349.43,157.01C349.72,157.03 351.11,150.73 351.44,149.43C351.78,148.07 352.89,141.37 353.45,141.08C353.73,140.93 355.1,141.52 355.45,141.84C356.34,142.64 360.78,152.28 361.48,153.98C361.96,155.15 363.09,160 363.49,160.05C363.79,160.09 365.18,157.55 365.5,157.01C365.85,156.42 367.18,153.89 367.5,153.22C367.85,152.5 368.93,148.88 369.51,148.67C370.18,148.43 374.86,151.92 375.54,151.7C376.08,151.53 377.2,148.5 377.55,147.91C377.87,147.37 379.15,145.09 379.55,144.87C379.85,144.71 381.23,144.93 381.56,144.87C381.9,144.81 383.22,143.98 383.57,144.12C384.47,144.49 388.73,156.8 389.59,157.01C389.95,157.1 391.32,155.38 391.6,155.5C392.41,155.86 392.7,175.91 393.61,176.74C393.89,177 395.29,176.8 395.62,176.74C395.96,176.68 397.28,175.83 397.63,175.98C398.55,176.36 402.83,189.51 403.65,189.64C404.02,189.7 405.28,187.53 405.66,187.36C405.97,187.22 407.39,187.15 407.67,187.36C408.2,187.75 409.2,193.5 409.68,194.19C409.96,194.6 411.22,195.56 411.68,195.71C412.39,195.95 417.02,196.02 417.71,195.71C418.2,195.49 419.35,193.69 419.72,193.43C420.03,193.22 421.4,192.67 421.73,192.67C422.06,192.67 423.42,193.51 423.73,193.43C424.1,193.34 425.31,191.17 425.74,191.16C426.47,191.14 431.06,197.3 431.77,197.23C432.23,197.18 433.45,194.19 433.78,194.19C434.11,194.19 435.39,196.92 435.78,197.23C436.08,197.47 437.47,198.04 437.79,197.99C438.14,197.94 439.34,196.66 439.8,196.47C440.51,196.18 445.15,195.33 445.82,195.71C446.43,196.05 447.38,199.97 447.83,200.26C448.12,200.45 449.56,200.46 449.84,200.26C450.32,199.93 451.47,195.69 451.85,194.95C452.16,194.35 453.41,192.51 453.86,191.92C454.57,190.99 459.21,186.53 459.88,185.09C460.69,183.37 461.51,172.21 461.89,172.19C462.2,172.18 463.58,180.54 463.9,180.53C464.26,180.52 465.33,170.13 465.91,169.91C466.19,169.8 467.46,171.28 467.92,171.43C468.63,171.67 473.21,171.43 473.94,171.43C474.36,171.43 475.67,171.65 475.95,171.43C476.53,170.98 477.44,163.87 477.96,163.08C478.24,162.65 479.61,161.62 479.96,161.57C480.28,161.52 481.55,162.17 481.97,162.33C482.71,162.61 487.33,164.92 488,164.6C488.67,164.28 489.61,158.58 490.01,158.53C490.31,158.49 491.66,161.55 492.01,161.57C492.33,161.59 493.74,159.91 494.02,159.29C494.66,157.88 495.03,145.1 496.03,143.36C496.72,142.17 501.29,138.91 502.05,138.8C502.45,138.74 503.78,139.75 504.06,139.56C505.21,138.81 505.69,109.85 506.07,104.66C506.38,100.46 507.61,84.75 508.08,81.9C508.37,80.15 509.58,75.11 510.09,73.55C510.78,71.45 515.18,59.54 516.11,59.14C516.46,58.99 517.84,59.59 518.12,59.9C518.66,60.49 519.58,67.06 520.13,67.48C520.41,67.69 521.78,67.72 522.14,67.48C523.44,66.62 531.2,47.74 532.18,43.96C533.03,40.7 533.83,27.94 534.19,25C534.5,22.43 535.44,11.23 536.19,10.58C536.47,10.34 537.78,10.55 538.2,10.58C538.94,10.63 543.49,11.29 544.23,11.34C544.65,11.37 545.92,11.23 546.24,11.34C546.6,11.46 547.89,12.67 548.24,12.86C548.56,13.04 549.94,13.69 550.25,13.61C550.62,13.52 551.77,11.56 552.26,11.34C552.95,11.03 557.57,11.1 558.28,11.34C558.74,11.49 560.01,12.45 560.29,12.86C560.77,13.55 561.79,19.13 562.3,19.68C562.58,19.98 563.97,20.31 564.31,20.44C564.65,20.57 565.96,20.89 566.32,21.2C567.19,21.97 571.67,30.6 572.34,32.58C572.99,34.52 574.03,42.58 574.35,44.72C574.71,47.11 575.98,57.65 576.36,59.9C576.67,61.73 577.42,68.98 578.37,69.76C579.22,70.45 585.57,70.26 586.4,69.76C587.01,69.4 588.12,66.79 588.41,65.97C588.87,64.67 590.13,55.32 590.42,55.34C590.87,55.36 592.1,76.61 592.42,81.14C592.77,86.17 593.82,107.46 594.43,113.01C595.1,119.16 599.45,151.53 600.46,151.7C600.79,151.76 602.18,147.87 602.47,147.91C602.89,147.96 604.13,156.26 604.47,156.26C604.8,156.26 606.2,150.48 606.48,148.67C607.14,144.34 606.53,106.92 608.49,103.9C609.25,102.73 613.82,100.49 614.52,100.87C615.68,101.5 616.22,119.09 616.52,119.08C616.92,119.07 617.39,86.48 618.53,84.94C618.81,84.55 620.26,84.48 620.54,84.18C621.05,83.63 622.08,78.68 622.55,77.35C623.25,75.37 627.78,64.42 628.57,62.93C628.95,62.21 630.27,59.87 630.58,59.9C630.96,59.94 632.13,65 632.59,65.21C632.88,65.34 634.31,64.72 634.6,64.45C635.04,64.03 636.16,60.82 636.61,59.9C637.33,58.42 641.84,48.61 642.63,48.52C643.01,48.47 644.36,50.87 644.64,50.79C645.17,50.64 646.33,40.17 646.65,40.17C647,40.17 647.96,51.73 648.65,52.31C648.93,52.55 650.31,52.52 650.66,52.31C651.55,51.77 656,40.86 656.69,40.93C657.2,40.98 658.41,46.34 658.7,47.76C659.15,49.98 660.34,65.2 660.7,65.21C661.02,65.22 662.38,51.55 662.71,51.55C663.05,51.55 664.03,63.09 664.72,65.21C665.39,67.26 669.96,76.5 670.75,76.59C671.13,76.63 672.38,74.57 672.75,74.31C673.06,74.1 674.48,73.39 674.76,73.55C675.42,73.93 676.45,85.7 676.77,85.69C677.13,85.68 677.74,71.07 678.78,70.52C679.47,70.15 684.11,72.59 684.8,73.55C685.81,74.96 686.42,87.95 686.81,87.97C687.11,87.98 688.26,79.92 688.82,79.62C689.1,79.47 690.53,80.14 690.83,80.38C691.22,80.69 692.32,83.01 692.84,83.42C693.52,83.97 698.16,84.8 698.86,85.69C699.99,87.13 700.22,102.19 700.87,102.39C701.15,102.48 702.6,100.03 702.88,100.11C703.49,100.29 704.48,114.51 704.88,114.53C705.18,114.55 706.25,108.06 706.89,106.94C707.56,105.77 712.24,100.64 712.92,100.87C713.81,101.17 714.64,115.29 714.93,115.28C715.39,115.26 715.73,78.99 716.93,77.35C717.22,76.96 718.66,76.45 718.94,76.59C719.43,76.82 720.26,82.16 720.95,82.66C721.62,83.14 726.29,82.35 726.98,82.66Q727.47,82.88 728.98,84.94" style="vector-effect: none; fill: none; stroke: rgb(255, 73, 73); stroke-opacity: 1; stroke-width: 2px; opacity: 1;"/></g><g class="points"/><g class="text"/></g></g></g></g><g class="zerolinelayer-above"/><path class="xlines-above crisp" d="M55,540.5H790M55,327.9H790" style="fill: none; stroke-width: 1px; stroke: rgb(204, 204, 204); stroke-opacity: 1;"/><path class="ylines-above crisp" d="M55.5,328.4V540M789.5,328.4V540" style="fill: none; stroke-width: 1px; stroke: rgb(204, 204, 204); stroke-opacity: 1;"/><g class="overlines-above"/><g class="xaxislayer-above"><g class="x2tick"><text text-anchor="middle" x="0" y="555.4" transform="translate(150.39,0)" style="font-family: Arial, sans-serif; font-size: 12px; fill: rgb(51, 51, 51); fill-opacity: 1; white-space: pre;">Sep 2025</text></g><g class="x2tick"><text text-anchor="middle" x="0" y="555.4" style="font-family: Arial, sans-serif; font-size: 12px; fill: rgb(51, 51, 51); fill-opacity: 1; white-space: pre;" transform="translate(272.89,0)">Nov 2025</text></g><g class="x2tick"><text text-anchor="middle" x="0" y="555.4" style="font-family: Arial, sans-serif; font-size: 12px; fill: rgb(51, 51, 51); fill-opacity: 1; white-space: pre;" transform="translate(395.39,0)">Jan 2026</text></g><g class="x2tick"><text text-anchor="middle" x="0" y="555.4" style="font-family: Arial, sans-serif; font-size: 12px; fill: rgb(51, 51, 51); fill-opacity: 1; white-space: pre;" transform="translate(513.87,0)">Mar 2026</text></g><g class="x2tick"><text text-anchor="middle" x="0" y="555.4" style="font-family: Arial, sans-serif; font-size: 12px; fill: rgb(51, 51, 51); fill-opacity: 1; white-space: pre;" transform="translate(636.38,0)">May 2026</text></g><g class="x2tick"><text text-anchor="middle" x="0" y="555.4" style="font-family: Arial, sans-serif; font-size: 12px; fill: rgb(51, 51, 51); fill-opacity: 1; white-space: pre;" transform="translate(758.88,0)">Jul 2026</text></g></g><g class="yaxislayer-above"><path class="y2tick ticks crisp" d="M55,0h-6" transform="translate(0,530.18)" style="stroke: rgb(255, 255, 255); stroke-opacity: 1; stroke-width: 1px;"/><path class="y2tick ticks crisp" d="M55,0h-6" transform="translate(0,491.93999999999994)" style="stroke: rgb(255, 255, 255); stroke-opacity: 1; stroke-width: 1px;"/><path class="y2tick ticks crisp" d="M55,0h-6" transform="translate(0,453.7)" style="stroke: rgb(255, 255, 255); stroke-opacity: 1; stroke-width: 1px;"/><path class="y2tick ticks crisp" d="M55,0h-6" transform="translate(0,415.46)" style="stroke: rgb(255, 255, 255); stroke-opacity: 1; stroke-width: 1px;"/><path class="y2tick ticks crisp" d="M55,0h-6" transform="translate(0,377.21999999999997)" style="stroke: rgb(255, 255, 255); stroke-opacity: 1; stroke-width: 1px;"/><path class="y2tick ticks crisp" d="M55,0h-6" transform="translate(0,338.97999999999996)" style="stroke: rgb(255, 255, 255); stroke-opacity: 1; stroke-width: 1px;"/><g class="y2tick"><text text-anchor="end" x="46.6" y="4.199999999999999" transform="translate(0,530.18)" style="font-family: Arial, sans-serif; font-size: 12px; fill: rgb(51, 51, 51); fill-opacity: 1; white-space: pre;">0</text></g><g class="y2tick"><text text-anchor="end" x="46.6" y="4.199999999999999" style="font-family: Arial, sans-serif; font-size: 12px; fill: rgb(51, 51, 51); fill-opacity: 1; white-space: pre;" transform="translate(0,491.93999999999994)">20</text></g><g class="y2tick"><text text-anchor="end" x="46.6" y="4.199999999999999" style="font-family: Arial, sans-serif; font-size: 12px; fill: rgb(51, 51, 51); fill-opacity: 1; white-space: pre;" transform="translate(0,453.7)">40</text></g><g class="y2tick"><text text-anchor="end" x="46.6" y="4.199999999999999" style="font-family: Arial, sans-serif; font-size: 12px; fill: rgb(51, 51, 51); fill-opacity: 1; white-space: pre;" transform="translate(0,415.46)">60</text></g><g class="y2tick"><text text-anchor="end" x="46.6" y="4.199999999999999" style="font-family: Arial, sans-serif; font-size: 12px; fill: rgb(51, 51, 51); fill-opacity: 1; white-space: pre;" transform="translate(0,377.21999999999997)">80</text></g><g class="y2tick"><text text-anchor="end" x="46.6" y="4.199999999999999" style="font-family: Arial, sans-serif; font-size: 12px; fill: rgb(51, 51, 51); fill-opacity: 1; white-space: pre;" transform="translate(0,338.97999999999996)">100</text></g></g><g class="overaxes-above"/></g></g><g class="polarlayer"/><g class="smithlayer"/><g class="ternarylayer"/><g class="geolayer"/><g class="funnelarealayer"/><g class="pielayer"/><g class="iciclelayer"/><g class="treemaplayer"/><g class="sunburstlayer"/><g class="glimages"/><defs id="topdefs-8a7069"><g class="clips"/></defs><g class="layer-above"><g class="imagelayer"/><g class="shapelayer"><g class="shape-group" data-index="0" clip-path="url(#clip8a7069y)"><path data-index="0" fill-rule="evenodd" d="M56,259.82L789,259.82" style="opacity: 1; stroke: rgb(136, 136, 136); stroke-opacity: 1; fill: rgb(0, 0, 0); fill-opacity: 0; stroke-dasharray: 3px, 3px; stroke-width: 1px;"/></g><g class="shape-group" data-index="1" clip-path="url(#clip8a7069y)"><path data-index="1" fill-rule="evenodd" d="M56,1752.35L789,1752.35" style="opacity: 1; stroke: rgb(204, 204, 204); stroke-opacity: 1; fill: rgb(0, 0, 0); fill-opacity: 0; stroke-width: 1px;"/></g><g class="shape-group" data-index="2" clip-path="url(#clip8a7069y2)"><path data-index="2" fill-rule="evenodd" d="M56,530.18L789,530.18" style="opacity: 1; stroke: rgb(204, 204, 204); stroke-opacity: 1; fill: rgb(0, 0, 0); fill-opacity: 0; stroke-width: 1px;"/></g></g></g><g class="infolayer"><g class="g-gtitle"/><g class="g-xtitle"/><g class="g-x2title"><text class="x2title" x="422.5" y="582.000390625" text-anchor="middle" style="opacity: 1; font-family: Arial, sans-serif; font-size: 13px; fill: rgb(51, 51, 51); fill-opacity: 1; white-space: pre;"><tspan style="font-weight:bold">Last 52 Weeks</tspan></text></g><g class="g-ytitle"/><g class="g-y2title"/><g class="annotation" data-index="0" style="opacity: 1;"><g class="annotation-text-g" transform="rotate(0,422.5,64.89999999999999)"><g class="cursor-pointer" transform="translate(401,54)"><rect class="bg" x="0.5" y="0.5" width="42" height="20" style="stroke-width: 1px; stroke: rgb(0, 0, 0); stroke-opacity: 0; fill: rgb(0, 0, 0); fill-opacity: 0;"/><text class="annotation-text" text-anchor="middle" x="21.5703125" y="16" style="font-family: Arial, sans-serif; font-size: 16px; fill: rgb(51, 51, 51); fill-opacity: 1; white-space: pre;"><tspan style="font-weight:bold">Price</tspan></text></g></g></g><g class="annotation" data-index="1" style="opacity: 1;"><g class="annotation-text-g" transform="rotate(0,422.5,313.3)"><g class="cursor-pointer" transform="translate(341,303)"><rect class="bg" x="0.5" y="0.5" width="163" height="20" style="stroke-width: 1px; stroke: rgb(0, 0, 0); stroke-opacity: 0; fill: rgb(0, 0, 0); fill-opacity: 0;"/><text class="annotation-text" text-anchor="middle" x="81.8984375" y="16" style="font-family: Arial, sans-serif; font-size: 16px; fill: rgb(51, 51, 51); fill-opacity: 1; white-space: pre;"><tspan style="font-weight:bold">21-Day RV Percentile</tspan></text></g></g></g><g class="annotation" data-index="2" style="opacity: 1;"><g class="annotation-text-g" transform="rotate(0,28.369,259.68)"><g class="cursor-pointer" transform="translate(6,249)"><rect class="bg" x="0.5" y="0.5" width="44" height="21" style="stroke-width: 1px; stroke: rgb(0, 0, 0); stroke-opacity: 0; fill: rgb(255, 255, 255); fill-opacity: 1;"/><text class="annotation-text" text-anchor="middle" x="22.3515625" y="15" style="font-family: Arial, sans-serif; font-size: 12px; fill: rgb(51, 51, 51); fill-opacity: 1; white-space: pre;">106.96</text></g></g></g></g></svg>