<svg class="main-svg" xmlns="http://www.w3.org/2000/svg" xmlns:xlink="http://www.w3.org/1999/xlink" width="800" height="500" style="" viewBox="0 0 800 500"><rect x="0" y="0" width="800" height="500" style="fill: rgb(255, 255, 255); fill-opacity: 1;"/><defs id="defs-b4a056"><g class="clips"><clipPath id="clipb4a056xyplot" class="plotclip"><rect width="724" height="380"/></clipPath><clipPath class="axesclip" id="clipb4a056x"><rect x="64" y="0" width="724" height="500"/></clipPath><clipPath class="axesclip" id="clipb4a056y"><rect x="0" y="60" width="800" height="380"/></clipPath><clipPath class="axesclip" id="clipb4a056xy"><rect x="64" y="60" width="724" height="380"/></clipPath></g><g class="gradients"/><g class="patterns"/></defs><g class="bglayer"/><g class="layer-below"><g class="imagelayer"/><g class="shapelayer"/></g><g class="cartesianlayer"><g class="subplot xy"><g class="layer-subplot"><g class="shapelayer"/><g class="imagelayer"/></g><g class="minor-gridlayer"><g class="x"/><g class="y"/></g><g class="gridlayer"><g class="x"><path class="xgrid crisp" transform="translate(145.1,0)" d="M0,60v380" style="stroke: rgb(204, 204, 204); stroke-opacity: 1; stroke-width: 1px;"/><path class="xgrid crisp" transform="translate(234.99,0)" d="M0,60v380" style="stroke: rgb(204, 204, 204); stroke-opacity: 1; stroke-width: 1px;"/><path class="xgrid crisp" transform="translate(322.92,0)" d="M0,60v380" style="stroke: rgb(204, 204, 204); stroke-opacity: 1; stroke-width: 1px;"/><path class="xgrid crisp" transform="translate(411.83,0)" d="M0,60v380" style="stroke: rgb(204, 204, 204); stroke-opacity: 1; stroke-width: 1px;"/><path class="xgrid crisp" transform="translate(501.72,0)" d="M0,60v380" style="stroke: rgb(204, 204, 204); stroke-opacity: 1; stroke-width: 1px;"/><path class="xgrid crisp" transform="translate(591.61,0)" d="M0,60v380" style="stroke: rgb(204, 204, 204); stroke-opacity: 1; stroke-width: 1px;"/><path class="xgrid crisp" transform="translate(679.55,0)" d="M0,60v380" style="stroke: rgb(204, 204, 204); stroke-opacity: 1; stroke-width: 1px;"/><path class="xgrid crisp" transform="translate(768.46,0)" d="M0,60v380" style="stroke: rgb(204, 204, 204); stroke-opacity: 1; stroke-width: 1px;"/></g><g class="y"><path class="ygrid crisp" transform="translate(0,405.85)" d="M64,0h724" style="stroke: rgb(204, 204, 204); stroke-opacity: 1; stroke-width: 1px;"/><path class="ygrid crisp" transform="translate(0,337.96)" d="M64,0h724" style="stroke: rgb(204, 204, 204); stroke-opacity: 1; stroke-width: 1px;"/><path class="ygrid crisp" transform="translate(0,202.2)" d="M64,0h724" style="stroke: rgb(204, 204, 204); stroke-opacity: 1; stroke-width: 1px;"/><path class="ygrid crisp" transform="translate(0,134.31)" d="M64,0h724" style="stroke: rgb(204, 204, 204); stroke-opacity: 1; stroke-width: 1px;"/><path class="ygrid crisp" transform="translate(0,66.43)" d="M64,0h724" style="stroke: rgb(204, 204, 204); stroke-opacity: 1; stroke-width: 1px;"/></g></g><g class="zerolinelayer"><path class="yzl zl crisp" transform="translate(0,270.08000000000004)" d="M64,0h724" style="stroke: rgb(204, 204, 204); stroke-opacity: 1; stroke-width: 1px;"/></g><g class="layer-between"><g class="shapelayer"/><g class="imagelayer"/></g><path class="xlines-below"/><path class="ylines-below"/><g class="overlines-below"/><g class="xaxislayer-below"/><g class="yaxislayer-below"/><g class="overaxes-below"/><g class="overplot"><g class="xy" transform="translate(64,60)" clip-path="url(#clipb4a056xyplot)"><g class="scatterlayer mlayer"><g class="trace scatter tracedb1ac1" style="stroke-miterlimit: 2; opacity: 1;"><g class="fills"/><g class="errorbars"/><g class="lines"><path class="js-line" d="M0,137.17Q0.71,153.44 0.98,153.46C1.12,153.47 1.71,149.4 1.95,149.39C2.29,149.37 4.56,157.43 4.89,157.4C5.16,157.38 5.72,151.69 5.86,151.7C6.11,151.71 6.68,167.68 6.84,170.98C7.01,174.46 7.63,189.29 7.82,192.43C7.97,194.89 8.51,205.59 8.79,205.6C9.12,205.61 11.05,187.98 11.72,187.41C11.87,187.28 12.56,187.27 12.7,187.41C13.46,188.14 13.47,211.54 13.68,215.24C13.82,217.69 14.5,227.46 14.66,227.46C14.82,227.46 14.89,215.36 15.63,214.7C15.99,214.39 18.22,214.66 18.56,214.83C18.8,214.95 19.4,216.09 19.54,216.05C20,215.9 20.37,198.4 20.52,198.4C20.7,198.4 21.34,220.75 21.5,225.42C21.67,230.45 22.2,251.05 22.47,256.78C22.8,263.74 25.02,302.95 25.4,302.95C25.59,302.95 26.21,291.13 26.38,291.13C26.54,291.13 27.21,302 27.36,302C27.54,302 28.17,288.58 28.33,285.84C28.5,283 28.81,268.54 29.31,268.46C29.65,268.4 31.9,275.72 32.24,275.66C32.76,275.57 32.91,257.5 33.22,257.46C33.36,257.44 34.06,260.88 34.2,260.86C34.66,260.8 34.93,225.94 35.17,221.08C35.31,218.27 35.9,210.29 36.15,207.77C36.48,204.43 38.75,184.55 39.08,184.56C39.36,184.57 39.85,202.06 40.06,202.07C40.2,202.07 40.9,195.81 41.04,194.2C41.26,191.64 41.85,177.7 42.01,174.24C42.18,170.5 42.64,150.91 42.99,150.89C43.32,150.87 45.34,170.66 45.92,170.84C46.08,170.89 46.74,169.75 46.9,169.76C47.07,169.77 47.74,170.83 47.88,171.25C48.36,172.73 48.7,192.97 48.85,192.97C49.03,192.97 48.65,160.32 49.83,159.85C50.31,159.66 53.25,163.98 53.74,163.78C55.08,163.25 54.51,122.78 54.72,122.78C54.86,122.78 55.51,138.88 55.69,141.79C55.84,144.26 56.37,153.14 56.67,155.5C57,158.06 58.98,170.72 59.6,171.39C59.76,171.56 60.44,171.76 60.58,171.66C61.11,171.28 61.38,156.86 61.55,156.86C61.71,156.86 62.22,169.7 62.53,169.76C62.67,169.78 63.35,167.56 63.51,167.58C63.99,167.65 65.97,186.39 66.44,188.09C66.6,188.68 67.28,189.81 67.42,190.39C67.78,191.91 68.24,207.64 68.39,207.64C68.57,207.64 69.13,181.85 69.37,181.84C69.51,181.83 70.11,190.38 70.35,190.39C70.69,190.4 72.95,173.95 73.28,173.97C73.56,173.98 73.93,186.4 74.26,186.46C74.39,186.49 75.08,184.93 75.23,184.56C75.42,184.08 76.07,181.82 76.21,181.16C76.41,180.25 76.87,175.68 77.19,174.64C77.52,173.6 79.77,168.59 80.12,168.67C80.83,168.82 80.94,195.55 81.1,195.55C81.27,195.55 81.29,166.34 82.07,165.68C82.21,165.56 82.91,165.93 83.05,165.82C83.62,165.35 83.63,151.48 84.03,148.98C84.36,146.92 86.58,137.87 86.96,137.85C87.15,137.84 87.79,140.58 87.94,140.57C88.12,140.56 88.78,136.76 88.91,136.77C89.2,136.8 89.51,153.32 89.89,154.82C90.03,155.35 90.63,156.83 90.87,156.86C91.21,156.91 93.46,153.48 93.8,153.6C94.38,153.8 94.57,166.22 94.77,166.23C94.91,166.24 95.56,160.89 95.75,159.98C95.9,159.26 96.59,156.17 96.73,156.18C97.02,156.21 96.8,173.45 97.71,174.24C98.08,174.56 100.31,173.73 100.64,173.97C101.06,174.28 101.47,177.57 101.61,178.58C101.86,180.46 102.35,194.86 102.59,194.87C102.73,194.88 103.41,189.31 103.57,189.31C103.74,189.31 104.23,195.23 104.55,195.28C104.88,195.33 107.15,189.81 107.48,189.85C107.74,189.88 108.31,193.53 108.45,193.52C108.66,193.5 109.29,185.09 109.43,185.1C109.67,185.11 110.16,211.02 110.41,211.03C110.55,211.04 111.14,203.17 111.38,203.16C111.72,203.15 113.99,219.2 114.32,219.18C114.77,219.15 115.11,193.98 115.29,189.44C115.44,185.59 115.66,169.12 116.27,168.13C116.41,167.9 117.11,167.78 117.25,167.58C117.62,167.03 117.89,159.49 118.22,159.44C118.55,159.4 120.83,165.19 121.16,166.63C121.62,168.61 121.95,181.3 122.13,181.3C122.28,181.3 122.96,170.3 123.11,170.3C123.29,170.3 123.93,182.62 124.09,185.23C124.26,188.1 124.15,202.38 125.06,203.29C125.43,203.65 127.65,203.72 127.99,203.43C128.56,202.95 128.62,196 128.97,195.42C129.11,195.2 129.81,194.99 129.95,194.74C130.52,193.71 130.5,176.15 130.93,174.64C131.07,174.16 131.69,173.24 131.9,172.88C132.25,172.28 134.5,168.92 134.83,168.13C135.12,167.43 135.66,163.91 135.81,163.92C136,163.93 136.59,171.52 136.79,171.52C137.05,171.52 138.42,161.57 138.74,159.03C139.24,155.09 141.25,128.77 141.67,128.75C141.85,128.74 142.51,134.06 142.65,134.05C142.87,134.04 143.48,121.29 143.63,121.29C143.82,121.29 144.45,137.65 144.6,141.38C144.79,146.07 145.15,168.56 145.58,173.15C145.91,176.69 148.17,189.31 148.51,191.89C148.75,193.69 149.33,201.12 149.49,201.12C149.66,201.12 150.24,191.36 150.47,191.34C150.61,191.33 151.18,194.61 151.44,194.87C151.58,195.01 152.26,195.24 152.42,195.15C153,194.8 155.02,183.83 155.35,181.57C155.67,179.37 156.19,168.4 156.33,168.4C156.59,168.41 156.95,210.75 157.31,214.97C157.44,216.56 158.14,221.49 158.28,221.48C158.49,221.47 158.59,208.36 159.26,206.96C159.61,206.23 161.85,204.93 162.19,204.24C162.73,203.14 162.83,194.11 163.17,194.06C163.41,194.02 164.87,197.59 165.12,198.68C165.64,201.01 165.59,218.54 166.1,221.48C166.44,223.41 168.7,229.14 169.03,230.85C169.41,232.84 169.67,242.26 170.01,244.02C170.25,245.25 171.72,250.16 171.96,250.13C172.34,250.08 172.11,234.87 172.94,234.25C173.3,233.98 175.52,234.52 175.87,234.93C176.58,235.76 176.47,246.19 176.85,247.15C176.98,247.49 177.67,248.03 177.82,248.37C178.24,249.33 179.26,260.64 179.78,260.72C180.16,260.78 182.38,254.69 182.71,254.75C183.1,254.82 183.55,263.99 183.69,263.98C183.94,263.97 184.22,232.82 184.66,232.75C184.8,232.73 185.5,235.61 185.64,235.6C185.87,235.58 186.34,228.94 186.62,227.32C187.03,224.98 190.08,213.95 190.53,210.35C191.28,204.26 191.18,165.41 191.5,160.52C191.64,158.47 192.34,151.84 192.48,151.84C192.69,151.85 193.2,167.54 193.46,171.11C193.79,175.59 195.85,199.17 196.39,201.39C196.55,202.04 197.23,203.33 197.37,203.83C197.58,204.59 198.2,209.68 198.34,209.67C198.6,209.65 199.09,190.05 199.32,187.27C199.46,185.62 199.9,179.49 200.3,179.4C200.63,179.33 202.89,184.09 203.23,184.01C203.76,183.88 204.04,170.84 204.21,170.84C204.37,170.84 204.9,181.67 205.18,182.93C205.32,183.53 205.99,185.51 206.16,185.51C206.32,185.51 206.93,183.69 207.14,183.2C207.5,182.34 209.73,177.68 210.07,176.14C210.66,173.5 210.78,153.89 211.04,153.87C211.18,153.86 211.88,159.86 212.02,159.85C212.23,159.84 212.86,146.81 213,146.81C213.2,146.81 213.14,172.25 213.98,172.47C214.43,172.59 217.46,165.99 217.88,166.09C218.38,166.21 218.71,174.68 218.86,176.68C219.05,179.29 219.69,191.31 219.84,194.74C220.03,199.28 220.31,222.2 220.82,226.37C221.16,229.15 223.34,238.74 223.75,240.09C223.93,240.67 224.59,242.55 224.72,242.53C225.09,242.47 225.55,222.84 225.7,222.84C225.89,222.84 226.51,256.24 226.68,256.24C226.83,256.24 227.34,229.1 227.65,229.09C227.98,229.08 230.23,256.01 230.59,259.64C230.79,261.65 231.42,269 231.56,269C231.78,268.99 232.39,244.43 232.54,244.43C232.72,244.43 233,277.31 233.52,277.42C233.66,277.45 234.34,275.35 234.49,275.38C235.13,275.5 236.83,314.67 237.43,314.76C237.58,314.78 238.24,312.31 238.4,312.31C238.56,312.31 239.24,314.04 239.38,314.62C239.74,316.18 240.21,332.41 240.36,332.41C240.55,332.41 240.51,302.88 241.33,302.67C241.69,302.58 243.92,306.61 244.26,307.7C244.77,309.36 245.07,321.14 245.24,321.14C245.39,321.14 246.02,310.69 246.22,310.68C246.37,310.67 247.04,316.39 247.2,316.39C247.37,316.39 248,311.56 248.17,310.01C248.61,305.94 250.69,269.99 251.1,265.47C251.28,263.49 251.92,256.92 252.08,256.92C252.24,256.92 252.86,264.28 253.06,265.47C253.2,266.34 253.88,269.18 254.04,269.95C254.21,270.78 254.79,274.06 255.01,275.11C255.36,276.79 257.61,288.18 257.94,288.15C258.42,288.1 258.75,264.83 258.92,260.31C259.08,256.02 259.76,235.2 259.9,235.2C260.14,235.2 260.69,301.97 260.87,313.81C261.02,323.58 261,362.07 261.85,367.3C262.21,369.54 264.45,376.71 264.78,376.67C265.17,376.62 265.62,366.29 265.76,362.82C266.17,352.44 266.52,238.18 266.74,238.18C266.88,238.18 267.54,290.46 267.71,290.46C267.86,290.46 268.17,248.95 268.69,248.91C269.03,248.89 271.29,263.62 271.62,266.15C271.88,268.12 272.45,274.81 272.6,276.74C272.78,279.06 273.41,289.68 273.58,292.08C273.73,294.2 274.28,301.64 274.55,304.03C274.96,307.63 278.05,331.07 278.46,331.05C278.89,331.03 278.83,301.25 279.44,301.05C279.58,301 280.28,302.32 280.42,302.27C280.96,302.09 281.23,282.6 281.39,278.64C281.55,274.64 281.66,256.97 282.37,254.48C282.72,253.24 284.94,250.63 285.3,249.32C286.18,246.18 285.94,215 286.28,214.97C286.42,214.96 287.08,220.39 287.26,220.4C287.41,220.41 288.09,217.73 288.23,217C288.47,215.72 289.03,208.79 289.21,206.28C289.63,200.34 291.81,156.95 292.14,146.27C292.51,134.04 292.74,74.42 293.12,67.52C293.25,65.05 293.95,59.64 294.09,57.48C294.34,53.57 294.93,24.48 295.07,24.48C295.35,24.48 295.67,159.57 296.05,159.57C296.38,159.57 298.55,61.56 298.98,61.55C299.15,61.55 299.77,75.33 299.96,77.71C300.11,79.6 300.76,87.89 300.93,87.89C301.09,87.89 301.77,81.22 301.91,79.2C302.22,74.64 301.36,35.59 302.89,34.4C303.29,34.09 305.44,35.37 305.82,35.07C307.05,34.12 306.66,4.12 306.8,4.12C307,4.12 307.55,58.98 307.77,67.12C307.91,72.27 308.6,87.71 308.75,92.37C308.94,98.16 309.11,131.27 309.73,131.33C310.16,131.37 313.24,112.71 313.64,112.73C313.92,112.74 314.36,120.66 314.61,121.69C314.75,122.26 315.42,123.85 315.59,124.27C315.75,124.67 316.32,126.19 316.57,126.58C316.9,127.09 319.16,128.93 319.5,129.71C320.09,131.05 320.3,142.33 320.48,142.33C320.63,142.33 321.23,134.27 321.45,133.1C321.59,132.37 322.29,130.29 322.43,129.57C322.64,128.47 323.06,121.2 323.41,121.15C323.74,121.1 326.01,128.13 326.34,128.08C326.69,128.03 327.18,119.24 327.31,119.25C327.63,119.26 327.85,164.78 328.29,168.67C328.43,169.89 329.13,172.37 329.27,173.42C329.53,175.39 329.75,190.59 330.25,190.67C330.59,190.73 332.84,183.41 333.18,183.47C333.74,183.57 333.69,203 334.15,204.51C334.29,204.96 334.92,206.12 335.13,206.14C335.39,206.16 336.8,204.52 337.09,203.83C338.07,201.46 339.68,172.92 340.02,168.13C340.25,164.91 340.8,154.32 340.99,151.97C341.14,150.16 341.82,142.33 341.97,142.33C342.17,142.33 342.78,159.71 342.95,159.71C343.11,159.71 343.16,145.7 343.92,144.5C344.28,143.93 346.53,142.79 346.86,142.87C347.1,142.93 347.65,144.35 347.83,144.37C347.98,144.39 348.67,143.66 348.81,143.42C349.04,143.03 349.55,139.76 349.79,139.75C350.21,139.74 353.3,151.2 353.7,151.16C354,151.13 354.5,144.64 354.67,144.64C354.83,144.64 355.44,150.59 355.65,150.61C355.79,150.62 356.49,148.01 356.63,148.03C356.92,148.07 357.14,160.3 357.6,160.39C357.93,160.46 360.2,154.49 360.53,154.55C360.96,154.63 361.37,165.55 361.51,165.55C361.71,165.55 362.23,144.93 362.49,144.91C362.63,144.9 363.33,150.62 363.47,150.61C363.67,150.6 363.83,139.97 364.44,138.8C364.78,138.14 367.04,136.88 367.37,136.36C367.71,135.81 368.17,132.29 368.35,132.28C368.5,132.27 369.19,134.24 369.33,134.86C369.64,136.3 370.08,149.65 370.3,149.66C370.44,149.67 371.04,143.97 371.28,143.96C371.62,143.95 373.88,153.2 374.21,155.09C374.54,156.98 375.01,164.84 375.19,166.63C375.34,168.2 375.96,174.31 376.17,175.46C376.31,176.21 377.01,178.21 377.14,179.12C377.51,181.62 377.51,207.68 378.12,207.77C378.47,207.82 380.71,200.26 381.05,199.08C381.28,198.28 381.89,195.86 382.03,195.01C382.26,193.63 382.84,184.01 383.01,184.01C383.17,184.01 383.8,193.38 383.98,193.38C384.13,193.38 384.46,187.08 384.96,186.46C385.3,186.04 387.53,185.84 387.89,185.37C388.64,184.37 388.69,173.77 388.87,171.66C389.02,169.85 389.63,161.62 389.85,161.61C389.99,161.6 390.68,164.82 390.82,165.68C391.05,167.11 391.1,176.58 391.8,177.22C392.15,177.54 394.38,176.9 394.73,177.22C395.38,177.81 395.49,185.96 395.71,187.27C395.85,188.13 396.55,190.54 396.69,191.48C396.95,193.29 397.5,207.64 397.66,207.64C397.83,207.64 398.21,187.99 398.64,187.95C398.97,187.92 401.23,199.36 401.57,199.35C401.8,199.34 402.4,194.9 402.55,193.92C402.73,192.78 403.35,187.63 403.52,186.46C403.67,185.41 404.31,180.49 404.5,180.48C404.65,180.47 405.25,184.15 405.48,184.15C405.91,184.16 408.98,171.34 409.39,171.39C409.8,171.44 410.21,184.69 410.36,184.69C410.54,184.69 411.17,166.36 411.34,166.36C411.49,166.36 411.74,180.72 412.32,180.89C412.66,180.99 414.92,176.74 415.25,176.82C415.64,176.92 416.07,183.88 416.23,183.88C416.4,183.88 417,176.28 417.2,176.27C417.34,176.26 418.03,179.51 418.18,180.21C418.36,181.01 418.87,185.33 419.16,185.37C419.49,185.41 421.74,180.02 422.09,179.26C422.3,178.81 422.89,177.11 423.07,177.09C423.22,177.07 423.9,178.35 424.04,178.31C424.46,178.18 424.84,165.64 425.02,163.38C425.17,161.5 425.7,154.83 426,153.06C426.33,151.13 428.59,141.07 428.93,141.11C429.45,141.16 429.41,170.05 429.91,170.16C430.05,170.19 430.75,168.23 430.88,168.26C431.21,168.33 431.63,180.88 431.86,180.89C432,180.9 432.42,176.41 432.84,176.14C433.17,175.93 435.41,177.09 435.77,176.82C436.56,176.23 436.58,164.59 436.74,162.15C436.9,159.71 437.51,147.5 437.72,147.49C437.86,147.48 438.55,152.65 438.7,153.87C438.9,155.51 439.33,165.37 439.68,165.41C440.01,165.45 442.28,155.88 442.61,155.91C442.91,155.94 443.38,164.18 443.58,164.19C443.72,164.2 444.41,159.84 444.56,159.85C444.76,159.86 445.4,165.95 445.54,167.86C445.87,172.58 446.01,217.25 446.52,217.28C446.86,217.3 449.1,195.55 449.45,195.55C449.67,195.55 450.25,204.11 450.42,204.11C450.58,204.11 451.24,196.91 451.4,196.91C451.56,196.91 452.04,203.94 452.38,204.11C452.51,204.18 453.18,203.75 453.35,203.56C453.81,203.03 455.96,195.66 456.29,195.69C456.57,195.72 456.93,201.45 457.26,201.66C457.4,201.75 458.1,201.56 458.24,201.39C458.71,200.83 459.07,191.75 459.22,189.58C459.4,186.9 459.73,174.1 460.19,171.66C460.52,169.9 462.65,163.05 463.13,162.83C463.29,162.76 463.97,163.07 464.1,163.24C464.42,163.64 464.94,167.83 465.08,169.08C465.32,171.29 465.72,187.49 466.06,187.54C466.19,187.56 466.74,185.23 467.03,184.83C467.36,184.38 469.6,182.35 469.96,182.52C470.83,182.92 470.73,203.82 470.94,203.83C471.08,203.83 471.78,193.52 471.92,193.52C472.13,193.53 472.62,216.71 472.9,216.73C473.03,216.74 473.71,212.7 473.87,211.3C474.39,206.72 476.44,152.11 476.8,152.11C477,152.11 477.45,170.94 477.78,170.98C477.92,171 478.62,167.84 478.76,167.86C479.16,167.91 479.48,196.49 479.74,196.5C479.88,196.51 480.49,188.63 480.71,188.63C481.06,188.63 483.31,204.82 483.64,208.32C484.01,212.29 484.32,233.82 484.62,233.84C484.76,233.85 485.46,228.81 485.6,228.82C485.83,228.83 486.35,242.65 486.57,242.66C486.71,242.67 487.31,238.38 487.55,237.37C487.89,235.95 490.14,227.31 490.48,227.32C490.7,227.33 491.31,231.67 491.46,231.67C491.64,231.66 492.21,226.62 492.44,225.56C492.69,224.39 493.97,219.39 494.39,218.23C494.79,217.13 496.88,212.18 497.32,211.98C497.49,211.9 498.16,212.31 498.3,212.25C498.5,212.17 499.14,210.96 499.28,210.49C499.68,209.1 499.89,193.03 500.25,192.97C500.39,192.95 501.04,195.29 501.23,195.28C501.62,195.25 503.79,184.57 504.16,184.56C504.36,184.55 505,186.87 505.14,187.54C505.41,188.85 505.64,198.91 506.12,199.35C506.26,199.48 506.95,199.22 507.09,199.35C507.64,199.86 507.79,214.69 508.07,214.7C508.4,214.71 510.54,194.25 511,194.2C511.17,194.18 511.83,196.31 511.98,196.77C512.15,197.29 512.82,200.19 512.96,200.17C513.3,200.13 513.69,180.45 513.93,177.77C514.07,176.26 514.72,172.31 514.91,170.71C515.3,167.36 517.46,139.49 517.84,139.48C518.03,139.48 518.68,145.45 518.82,146.95C519.03,149.23 519.52,161.52 519.79,164.19C520.03,166.52 521.36,175 521.75,177.22C522.16,179.55 524.35,189.35 524.68,191.48C524.94,193.18 525.42,199.62 525.66,200.71C525.8,201.33 526.34,203.27 526.63,203.56C526.87,203.8 528.27,204.35 528.59,204.24C529.1,204.07 531.19,200.63 531.52,199.76C531.9,198.75 532.34,192.7 532.5,192.7C532.66,192.7 533.29,200.02 533.47,200.03C533.62,200.04 534.31,196.23 534.45,195.28C534.66,193.91 535.05,185.16 535.43,185.1C535.76,185.05 538.03,191.04 538.36,192.16C538.64,193.13 539.19,197.73 539.34,197.73C539.52,197.73 540.14,191.54 540.31,190.39C540.46,189.36 541.08,185.32 541.29,184.56C541.43,184.06 542.07,182.1 542.27,182.11C542.72,182.13 545.77,194.89 546.18,194.87C546.43,194.86 546.98,189.85 547.15,189.85C547.31,189.85 547.98,193.58 548.13,194.47C548.32,195.65 548.54,202.35 549.11,202.75C549.45,202.99 551.7,202.27 552.04,202.07C552.27,201.93 552.83,201.09 553.01,200.98C553.16,200.89 553.85,200.84 553.99,200.71C554.24,200.47 554.82,197.58 554.97,197.59C555.14,197.6 555.76,201.67 555.95,201.66C556.34,201.65 558.55,184.13 558.88,184.15C559.17,184.16 559.69,195.86 559.85,198.27C560.02,200.81 560.68,210.98 560.83,213.88C561.02,217.54 561.65,238.73 561.81,238.73C561.98,238.73 562.04,211.08 562.79,207.91C563.15,206.4 565.39,201.47 565.72,201.53C566.18,201.61 566.37,213.57 566.69,214.83C566.83,215.36 567.53,216.44 567.67,217C568.05,218.56 568.43,235.59 568.65,235.6C568.79,235.61 569.06,228.17 569.62,227.87C570.04,227.65 573.1,230.13 573.53,229.9C574.12,229.59 574.37,223.37 574.51,221.62C574.75,218.62 575.23,197.06 575.49,197.05C575.63,197.04 576.26,202.05 576.46,203.43C576.82,205.95 579.06,224.89 579.4,224.88C579.63,224.88 580.16,216.39 580.37,215.1C580.51,214.25 581.21,210.88 581.35,210.89C581.59,210.91 582.12,221.96 582.33,223.66C582.47,224.8 582.89,229.2 583.3,229.36C583.63,229.49 585.9,226.92 586.23,227.05C586.69,227.23 587,233.96 587.21,233.98C587.35,233.99 588.03,231.39 588.19,230.85C588.36,230.27 589.03,227.18 589.17,227.19C589.41,227.21 589.92,238.18 590.14,238.18C590.49,238.18 592.74,210.61 593.07,210.62C593.4,210.63 593.78,236.47 594.05,239.68C594.19,241.29 594.89,245.43 595.03,246.87C595.24,249 595.81,260.57 596.01,262.76C596.15,264.3 596.79,270.63 596.98,270.63C597.37,270.62 599.35,239 599.91,236.56C600.07,235.87 600.75,233.96 600.89,233.98C601.25,234.04 601.68,250.62 601.87,253.39C602.01,255.46 602.69,262.26 602.84,264.25C603.02,266.68 603.29,280.3 603.82,280.41C604.16,280.48 606.42,275.67 606.75,274.57C607.13,273.31 607.5,266.05 607.73,266.02C607.87,266 608.57,268.12 608.71,268.87C609.16,271.35 609.47,297.35 609.68,301.72C609.82,304.63 609.87,315.63 610.66,316.25C611.02,316.53 613.2,316.17 613.59,315.71C614.94,314.13 614.38,284.96 614.57,279.73C614.72,275.67 615.33,258.15 615.55,258.14C615.69,258.14 616.2,266.8 616.52,266.83C616.92,266.87 620.01,255.96 620.43,253.53C620.91,250.71 621.25,238.17 621.41,234.93C621.58,231.39 622.19,215.74 622.39,212.66C622.53,210.46 622.91,201.66 623.36,201.39C623.5,201.31 624.19,201.89 624.34,201.8C625.21,201.27 626.94,172 627.27,166.63C627.55,162.1 627.87,141.57 628.25,141.52C628.39,141.5 628.99,144.35 629.23,144.5C629.37,144.59 630.06,144.53 630.2,144.37C631.08,143.39 629.8,108.91 631.18,107.3C631.57,106.84 633.75,107.16 634.11,106.76C634.85,105.93 634.73,93.82 635.09,93.73C635.22,93.7 635.87,95.05 636.06,95.22C636.21,95.36 636.9,95.82 637.04,95.76C637.3,95.65 637.85,92.89 638.02,91.96C638.47,89.46 640.62,68.15 640.95,63.99C641.21,60.66 641.68,48.07 641.93,45.94C642.07,44.77 642.77,40.5 642.9,40.51C643.2,40.53 643.59,65.62 643.88,68.61C644.02,70.03 644.57,73.77 644.86,74.85C645.19,76.09 647.46,82.62 647.79,82.59C648.06,82.57 648.63,78.36 648.77,77.16C649.03,74.83 649.6,56.53 649.74,56.53C649.94,56.53 650.23,99.09 650.72,99.16C650.86,99.18 651.44,96.47 651.7,95.9C652.03,95.19 654.28,91.33 654.63,91.42C655.25,91.59 655.41,106.29 655.61,108.66C655.75,110.33 656.19,116.7 656.58,117.21C656.72,117.39 657.42,117.42 657.56,117.62C658.19,118.53 658.19,135.78 658.54,139.21C658.87,142.36 661.11,155.06 661.47,157.27C661.68,158.56 662.31,163.39 662.45,163.38C662.72,163.36 663.22,139.21 663.42,139.21C663.56,139.21 664.23,151.56 664.4,151.56C664.56,151.56 664.71,140.62 665.38,140.3C665.82,140.1 668.87,142.59 669.28,143.01C669.53,143.27 670.12,144.54 670.26,144.5C670.66,144.39 670.97,130.96 671.24,129.3C671.38,128.47 672.01,125.63 672.22,125.63C672.58,125.63 674.76,135.36 675.15,136.49C675.33,137.03 675.98,138.34 676.12,138.8C676.32,139.44 676.94,142.72 677.1,143.55C677.27,144.46 677.94,147.8 678.08,149.26C678.51,153.84 678.18,206.56 679.06,206.69C679.43,206.74 681.66,197.28 681.99,197.32C682.4,197.37 682.81,209.58 682.96,212.39C683.15,215.97 683.78,236.83 683.94,236.83C684.11,236.83 684.34,211.51 684.92,211.3C685.06,211.25 685.73,212.43 685.89,212.39C686.36,212.27 688.5,202.31 688.83,200.44C689.11,198.81 689.65,191.21 689.8,191.21C689.99,191.21 690.63,206.96 690.78,206.96C690.96,206.96 691.31,182.96 691.76,182.93C692.17,182.9 695.26,199.34 695.67,202.75C696.1,206.3 696.39,222.2 696.64,224.74C696.78,226.1 697.47,229.87 697.62,230.99C697.8,232.27 698.26,238.63 698.6,239.27C698.73,239.52 699.4,240.13 699.57,240.09C700.01,239.98 702.17,233.54 702.5,232.21C702.81,230.93 703.31,224.47 703.48,224.47C703.64,224.47 704.21,230.28 704.46,230.99C704.6,231.37 705.27,232.65 705.44,232.62C706,232.52 708.94,213.05 709.34,213.07C709.65,213.09 710.18,224.47 710.32,224.47C710.55,224.46 711.01,195.33 711.3,191.89C711.44,190.28 712.13,186.1 712.28,184.83C712.46,183.36 712.96,176.98 713.25,175.32C713.58,173.46 715.85,163.62 716.18,163.65Q716.59,163.69 717.16,182.52" style="vector-effect: none; fill: none; stroke: rgb(255, 73, 73); stroke-opacity: 1; stroke-width: 2px; opacity: 1;"/></g><g class="points"/><g class="text"/></g></g></g></g><g class="zerolinelayer-above"/><path class="xlines-above crisp" d="M63,440.5H789M63,59.5H789" style="fill: none; stroke-width: 1px; stroke: rgb(204, 204, 204); stroke-opacity: 1;"/><path class="ylines-above crisp" d="M63.5,60V440M788.5,60V440" style="fill: none; stroke-width: 1px; stroke: rgb(204, 204, 204); stroke-opacity: 1;"/><g class="overlines-above"/><g class="xaxislayer-above"><g class="xtick"><text text-anchor="middle" x="0" y="455.4" transform="translate(145.1,0)" style="font-family: Arial, sans-serif; font-size: 12px; fill: rgb(51, 51, 51); fill-opacity: 1; white-space: pre;">Oct 2024</text></g><g class="xtick"><text text-anchor="middle" x="0" y="455.4" style="font-family: Arial, sans-serif; font-size: 12px; fill: rgb(51, 51, 51); fill-opacity: 1; white-space: pre;" transform="translate(234.99,0)">Jan 2025</text></g><g class="xtick"><text text-anchor="middle" x="0" y="455.4" style="font-family: Arial, sans-serif; font-size: 12px; fill: rgb(51, 51, 51); fill-opacity: 1; white-space: pre;" transform="translate(322.92,0)">Apr 2025</text></g><g class="xtick"><text text-anchor="middle" x="0" y="455.4" style="font-family: Arial, sans-serif; font-size: 12px; fill: rgb(51, 51, 51); fill-opacity: 1; white-space: pre;" transform="translate(411.83,0)">Jul 2025</text></g><g class="xtick"><text text-anchor="middle" x="0" y="455.4" style="font-family: Arial, sans-serif; font-size: 12px; fill: rgb(51, 51, 51); fill-opacity: 1; white-space: pre;" transform="translate(501.72,0)">Oct 2025</text></g><g class="xtick"><text text-anchor="middle" x="0" y="455.4" style="font-family: Arial, sans-serif; font-size: 12px; fill: rgb(51, 51, 51); fill-opacity: 1; white-space: pre;" transform="translate(591.61,0)">Jan 2026</text></g><g class="xtick"><text text-anchor="middle" x="0" y="455.4" style="font-family: Arial, sans-serif; font-size: 12px; fill: rgb(51, 51, 51); fill-opacity: 1; white-space: pre;" transform="translate(679.55,0)">Apr 2026</text></g><g class="xtick"><text text-anchor="middle" x="0" y="455.4" style="font-family: Arial, sans-serif; font-size: 12px; fill: rgb(51, 51, 51); fill-opacity: 1; white-space: pre;" transform="translate(768.46,0)">Jul 2026</text></g></g><g class="yaxislayer-above"><path class="ytick ticks crisp" d="M63,0h-6" transform="translate(0,405.85)" style="stroke: rgb(255, 255, 255); stroke-opacity: 1; stroke-width: 1px;"/><path class="ytick ticks crisp" d="M63,0h-6" transform="translate(0,337.96)" style="stroke: rgb(255, 255, 255); stroke-opacity: 1; stroke-width: 1px;"/><path class="ytick ticks crisp" d="M63,0h-6" transform="translate(0,270.08000000000004)" style="stroke: rgb(255, 255, 255); stroke-opacity: 1; stroke-width: 1px;"/><path class="ytick ticks crisp" d="M63,0h-6" transform="translate(0,202.2)" style="stroke: rgb(255, 255, 255); stroke-opacity: 1; stroke-width: 1px;"/><path class="ytick ticks crisp" d="M63,0h-6" transform="translate(0,134.31)" style="stroke: rgb(255, 255, 255); stroke-opacity: 1; stroke-width: 1px;"/><path class="ytick ticks crisp" d="M63,0h-6" transform="translate(0,66.43)" style="stroke: rgb(255, 255, 255); stroke-opacity: 1; stroke-width: 1px;"/><g class="ytick"><text text-anchor="end" x="54.6" y="4.199999999999999" transform="translate(0,405.85)" style="font-family: Arial, sans-serif; font-size: 12px; fill: rgb(51, 51, 51); fill-opacity: 1; white-space: pre;">−10</text></g><g class="ytick"><text text-anchor="end" x="54.6" y="4.199999999999999" style="font-family: Arial, sans-serif; font-size: 12px; fill: rgb(51, 51, 51); fill-opacity: 1; white-space: pre;" transform="translate(0,337.96)">−5</text></g><g class="ytick"><text text-anchor="end" x="54.6" y="4.199999999999999" style="font-family: Arial, sans-serif; font-size: 12px; fill: rgb(51, 51, 51); fill-opacity: 1; white-space: pre;" transform="translate(0,270.08000000000004)">0</text></g><g class="ytick"><text text-anchor="end" x="54.6" y="4.199999999999999" style="font-family: Arial, sans-serif; font-size: 12px; fill: rgb(51, 51, 51); fill-opacity: 1; white-space: pre;" transform="translate(0,202.2)">5</text></g><g class="ytick"><text text-anchor="end" x="54.6" y="4.199999999999999" style="font-family: Arial, sans-serif; font-size: 12px; fill: rgb(51, 51, 51); fill-opacity: 1; white-space: pre;" transform="translate(0,134.31)">10</text></g><g class="ytick"><text text-anchor="end" x="54.6" y="4.199999999999999" style="font-family: Arial, sans-serif; font-size: 12px; fill: rgb(51, 51, 51); fill-opacity: 1; white-space: pre;" transform="translate(0,66.43)">15</text></g></g><g class="overaxes-above"/></g></g><g class="polarlayer"/><g class="smithlayer"/><g class="ternarylayer"/><g class="geolayer"/><g class="funnelarealayer"/><g class="pielayer"/><g class="iciclelayer"/><g class="treemaplayer"/><g class="sunburstlayer"/><g class="glimages"/><defs id="topdefs-b4a056"><g class="clips"/></defs><g class="layer-above"><g class="imagelayer"/><g class="shapelayer"><g class="shape-group" data-index="0" clip-path="url(#clipb4a056y)"><path data-index="0" fill-rule="evenodd" d="M64,242.93L788,242.93" style="opacity: 1; stroke: rgb(136, 136, 136); stroke-opacity: 1; fill: rgb(0, 0, 0); fill-opacity: 0; stroke-dasharray: 3px, 3px; stroke-width: 1px;"/></g><g class="shape-group" data-index="1" clip-path="url(#clipb4a056y)"><path data-index="1" fill-rule="evenodd" d="M64,270.08000000000004L788,270.08000000000004" style="opacity: 1; stroke: rgb(204, 204, 204); stroke-opacity: 1; fill: rgb(0, 0, 0); fill-opacity: 0; stroke-width: 1px;"/></g></g></g><g class="infolayer"><g class="g-gtitle"><text class="gtitle" x="400" y="30" text-anchor="middle" dy="0em" style="opacity: 1; font-family: Arial, sans-serif; font-size: 16px; fill: rgb(51, 51, 51); fill-opacity: 1; white-space: pre;"><tspan style="font-weight:bold">21-Day Return</tspan></text></g><g class="g-xtitle"><text class="xtitle" x="426" y="482.000390625" text-anchor="middle" style="opacity: 1; font-family: Arial, sans-serif; font-size: 13px; fill: rgb(51, 51, 51); fill-opacity: 1; white-space: pre;"><tspan style="font-weight:bold">Last 104 Weeks</tspan></text></g><g class="g-ytitle"><text class="ytitle" transform="rotate(-90,15.190234375000003,250)" x="15.190234375000003" y="250" text-anchor="middle" style="opacity: 1; font-family: Arial, sans-serif; font-size: 13px; fill: rgb(51, 51, 51); fill-opacity: 1; white-space: pre;"><tspan style="font-weight:bold">Return (%)</tspan></text></g><g class="annotation" data-index="0" style="opacity: 1;"><g class="annotation-text-g" transform="rotate(0,47.7352,242.79)"><g class="cursor-pointer" transform="translate(35,232)"><rect class="bg" x="0.5" y="0.5" width="24" height="21" style="stroke-width: 1px; stroke: rgb(0, 0, 0); stroke-opacity: 0; fill: rgb(255, 255, 255); fill-opacity: 1;"/><text class="annotation-text" text-anchor="middle" x="12.34375" y="15" style="font-family: Arial, sans-serif; font-size: 12px; fill: rgb(51, 51, 51); fill-opacity: 1; white-space: pre;">2.0</text></g></g></g></g></svg>