<svg class="main-svg" xmlns="http://www.w3.org/2000/svg" xmlns:xlink="http://www.w3.org/1999/xlink" width="800" height="600" style="" viewBox="0 0 800 600"><rect x="0" y="0" width="800" height="600" style="fill: rgb(255, 255, 255); fill-opacity: 1;"/><defs id="defs-d0adcf"><g class="clips"><clipPath id="clipd0adcfxyplot" class="plotclip"><rect width="726" height="211.6"/></clipPath><clipPath id="clipd0adcfx2y2plot" class="plotclip"><rect width="726" height="211.60000000000002"/></clipPath><clipPath class="axesclip" id="clipd0adcfx"><rect x="63" y="0" width="726" height="600"/></clipPath><clipPath class="axesclip" id="clipd0adcfy"><rect x="0" y="80" width="800" height="211.6"/></clipPath><clipPath class="axesclip" id="clipd0adcfxy"><rect x="63" y="80" width="726" height="211.6"/></clipPath><clipPath class="axesclip" id="clipd0adcfy2"><rect x="0" y="328.4" width="800" height="211.60000000000002"/></clipPath><clipPath class="axesclip" id="clipd0adcfxy2"><rect x="63" y="328.4" width="726" height="211.60000000000002"/></clipPath><clipPath class="axesclip" id="clipd0adcfx2"><rect x="63" y="0" width="726" height="600"/></clipPath><clipPath class="axesclip" id="clipd0adcfx2y"><rect x="63" y="80" width="726" height="211.6"/></clipPath><clipPath class="axesclip" id="clipd0adcfx2y2"><rect x="63" y="328.4" width="726" height="211.60000000000002"/></clipPath></g><g class="gradients"/><g class="patterns"/></defs><g class="bglayer"/><g class="layer-below"><g class="imagelayer"/><g class="shapelayer"/></g><g class="cartesianlayer"><g class="subplot xy"><g class="layer-subplot"><g class="shapelayer"/><g class="imagelayer"/></g><g class="minor-gridlayer"><g class="x"/><g class="y"/></g><g class="gridlayer"><g class="x"><path class="xgrid crisp" transform="translate(159.93,0)" d="M0,80v211.6" style="stroke: rgb(204, 204, 204); stroke-opacity: 1; stroke-width: 1px;"/><path class="xgrid crisp" transform="translate(280.6,0)" d="M0,80v211.6" style="stroke: rgb(204, 204, 204); stroke-opacity: 1; stroke-width: 1px;"/><path class="xgrid crisp" transform="translate(401.27,0)" d="M0,80v211.6" style="stroke: rgb(204, 204, 204); stroke-opacity: 1; stroke-width: 1px;"/><path class="xgrid crisp" transform="translate(517.99,0)" d="M0,80v211.6" style="stroke: rgb(204, 204, 204); stroke-opacity: 1; stroke-width: 1px;"/><path class="xgrid crisp" transform="translate(638.66,0)" d="M0,80v211.6" style="stroke: rgb(204, 204, 204); stroke-opacity: 1; stroke-width: 1px;"/><path class="xgrid crisp" transform="translate(759.33,0)" d="M0,80v211.6" style="stroke: rgb(204, 204, 204); stroke-opacity: 1; stroke-width: 1px;"/></g><g class="y"><path class="ygrid crisp" transform="translate(0,246.15)" d="M63,0h726" style="stroke: rgb(204, 204, 204); stroke-opacity: 1; stroke-width: 1px;"/><path class="ygrid crisp" transform="translate(0,176.1)" d="M63,0h726" style="stroke: rgb(204, 204, 204); stroke-opacity: 1; stroke-width: 1px;"/><path class="ygrid crisp" transform="translate(0,106.03999999999999)" d="M63,0h726" style="stroke: rgb(204, 204, 204); stroke-opacity: 1; stroke-width: 1px;"/></g></g><g class="zerolinelayer"/><g class="layer-between"><g class="shapelayer"/><g class="imagelayer"/></g><path class="xlines-below"/><path class="ylines-below"/><g class="overlines-below"/><g class="xaxislayer-below"/><g class="yaxislayer-below"/><g class="overaxes-below"/><g class="overplot"><g class="xy" transform="translate(63,80)" clip-path="url(#clipd0adcfxyplot)"><g class="scatterlayer mlayer"><g class="trace scatter tracea2fb3a" style="stroke-miterlimit: 2; opacity: 1;"><g class="fills"/><g class="errorbars"/><g class="lines"><path class="js-line" d="M0,198.58Q1.64,202.03 1.98,202.05C2.3,202.07 3.66,199.81 3.96,199.26C4.33,198.59 5.48,194.83 5.93,194.54C6.21,194.36 7.49,194.65 7.91,194.62C8.64,194.56 13.13,193.57 13.85,193.39C14.27,193.29 15.55,193.11 15.83,192.83C16.35,192.31 17.29,186.45 17.8,185.92C18.08,185.64 19.49,185.54 19.78,185.3C20.19,184.97 21.21,182.09 21.76,181.76C22.43,181.36 27.01,181.27 27.69,181.6C28.19,181.84 29.3,183.93 29.67,184.25C29.97,184.52 31.35,185.07 31.65,185.36C32.04,185.74 33.35,187.88 33.63,188.66C34.16,190.17 34.95,202.76 35.61,202.86C36.27,202.96 40.82,189.98 41.54,189.98C41.96,189.98 43.21,194.31 43.52,194.29C43.88,194.27 45,188.11 45.5,187.86C45.78,187.72 47.2,188.71 47.48,188.57C47.99,188.31 48.76,181.99 49.46,181.64C50.12,181.31 54.72,184.25 55.39,183.88C56.24,183.41 56.89,174.9 57.37,173.75C57.65,173.08 58.96,171.08 59.35,170.84C59.64,170.66 61.02,170.44 61.32,170.56C61.7,170.72 62.8,172.93 63.3,173.19C63.98,173.53 68.58,172.81 69.24,173.28C69.88,173.73 70.82,177.91 71.22,178.57C71.51,179.05 72.88,180.32 73.19,180.75C73.55,181.26 74.89,184.39 75.17,184.34C75.68,184.25 76.21,171.21 77.15,170.79C77.82,170.49 82.41,174.82 83.08,174.65C83.6,174.52 84.69,171.44 85.06,170.92C85.36,170.49 86.72,169.16 87.04,168.76C87.39,168.33 88.73,165.85 89.02,165.89C89.41,165.94 90.36,170.82 91,171.72C91.82,172.88 98.09,178.2 98.91,177.99C99.49,177.84 100.59,174.27 100.89,173.4C101.27,172.31 102.44,165.93 102.87,165.86C103.16,165.81 104.34,168.57 104.84,168.74C105.51,168.97 110.1,167.3 110.78,166.83C111.26,166.5 112.44,164.81 112.76,164.39C113.1,163.95 114.46,162.27 114.74,161.66C115.18,160.73 116.16,154.24 116.71,153.9C116.98,153.73 118.29,154.42 118.69,154.34C119.44,154.18 123.9,150.03 124.63,150C125.04,149.98 126.27,151.01 126.6,151.19C126.92,151.36 128.29,152.2 128.58,152.09C129.01,151.93 130.23,148.4 130.56,147.66C130.89,146.91 131.99,143.79 132.54,143.12C133.21,142.31 137.81,138.81 138.47,139.01C139.05,139.19 140.07,143.47 140.45,144.17C140.75,144.71 142.13,146.3 142.43,146.82C142.8,147.47 144.09,151.49 144.41,151.48C144.75,151.47 145.76,146.68 146.39,146.02C147.05,145.33 151.65,144.18 152.32,143.57C152.87,143.07 153.96,140.35 154.3,139.75C154.62,139.19 155.88,136.86 156.28,136.56C156.57,136.34 157.93,136.03 158.26,135.98C158.59,135.93 159.83,136.03 160.23,135.92C160.97,135.71 165.5,132.3 166.17,132.49C166.69,132.64 167.84,136.11 168.15,136.09C168.51,136.06 169.74,130.66 170.13,130.6C170.42,130.56 171.83,132.49 172.1,133.21C172.86,135.23 173.22,158.66 174.08,158.8C174.75,158.91 179.15,144.71 180.02,144.47C180.37,144.37 181.7,146 181.99,145.93C182.38,145.84 183.67,142.17 183.97,142.19C184.34,142.22 185.61,148.06 185.95,148.07C186.27,148.08 187.46,144.11 187.93,143.17C188.62,141.78 193.01,133.7 193.86,133.21C194.21,133.01 195.56,132.99 195.84,133.18C196.3,133.49 197.5,138.21 197.82,138.21C198.16,138.21 199.49,133.73 199.8,132.74C200.16,131.6 201.26,126.63 201.78,125.28C202.45,123.52 206.92,114.74 207.71,113.59C208.08,113.04 209.32,111.55 209.69,111.39C209.99,111.26 211.4,111.2 211.67,111.43C212.28,111.93 213.16,120.88 213.65,120.99C213.93,121.06 215.13,118.82 215.62,118.49C216.3,118.04 220.89,116.41 221.56,116.84C222.48,117.42 223.07,128.03 223.54,128.11C223.82,128.16 225.23,124.59 225.51,124.64C225.97,124.72 226.9,135.01 227.49,135.28C227.76,135.4 229.13,134.5 229.47,134.1C230.37,133.06 234.57,120.85 235.41,119.58C235.77,119.04 237.02,117.81 237.38,117.59C237.69,117.4 239.09,116.81 239.36,116.99C240.12,117.49 240.57,132.02 241.34,132.88C241.61,133.19 242.96,133.1 243.32,133.35C244.14,133.91 248.59,140.54 249.25,142C249.83,143.27 250.82,149.67 251.23,149.72C251.52,149.76 252.93,146.18 253.21,146.23C253.74,146.33 254.81,160.7 255.19,160.72C255.49,160.73 256.65,153.37 257.17,151.72C257.84,149.58 262.43,139.51 263.1,137.41C263.61,135.83 264.73,130.22 265.08,128.9C265.39,127.73 266.55,123.33 267.06,122.35C267.55,121.4 270.24,117.32 271.01,117.24C271.86,117.15 276.24,122.41 276.95,122.35C277.39,122.31 278.61,120.42 278.93,120C279.27,119.56 280.53,117.48 280.9,117.15C281.2,116.89 282.56,116.34 282.88,116.12C283.23,115.87 284.42,114.31 284.86,114.26C285.56,114.17 290.07,117.24 290.8,117.6C291.21,117.8 292.49,118.57 292.77,118.44C293.26,118.21 294.31,112.72 294.75,111.98C295.03,111.5 296.45,109.89 296.73,109.97C297.26,110.13 297.83,119.35 298.71,120.28C299.38,120.99 303.96,121.39 304.64,121.81C305.12,122.11 306.34,123.51 306.62,124.08C307.15,125.19 308.23,135.12 308.6,135.13C308.9,135.14 310.26,128.93 310.58,127.65C310.92,126.3 311.9,120.5 312.56,119.29C313.22,118.08 317.81,114.12 318.49,113.12C319,112.37 320.12,109.4 320.47,108.74C320.78,108.16 321.97,105.86 322.45,105.62C322.95,105.37 325.7,105.7 326.4,105.91C327.32,106.19 331.62,108.85 332.34,109.3C332.76,109.56 334.04,110.25 334.32,110.64C334.81,111.32 335.66,117.45 336.29,117.74C336.77,117.96 339.57,116.41 340.25,115.93C341.2,115.26 345.53,110.91 346.19,109.82C346.76,108.88 347.78,103.87 348.16,103.83C348.46,103.8 349.73,106.96 350.14,107.18C350.43,107.34 351.84,107.31 352.12,107.1C352.63,106.71 353.42,101.47 354.1,100.82C354.76,100.19 359.34,99.1 360.03,99.28C360.49,99.4 361.72,100.74 362.01,101.18C362.42,101.8 363.6,106.32 363.99,106.38C364.29,106.43 365.6,104 365.97,103.88C366.27,103.79 367.6,104.18 367.95,104.5C369.07,105.55 375.04,124.64 375.86,124.56C376.45,124.5 377.43,115.01 377.84,113.52C378.13,112.46 379.34,108.62 379.81,108.24C380.09,108.01 381.4,108.1 381.79,107.92C382.55,107.58 387.06,103.91 387.73,103.07C388.24,102.43 389.28,99.35 389.71,99.1C389.99,98.93 391.36,99.08 391.68,99.18C392.02,99.29 393.37,100.11 393.66,100.44C394.07,100.9 395.12,104.53 395.64,104.64C396.31,104.78 400.91,99.19 401.57,99.4C402.25,99.61 403.17,106.43 403.55,107.61C403.85,108.55 405.24,111.51 405.53,112.53C405.96,114.06 407.21,124.35 407.51,124.34C407.89,124.33 408.4,107.53 409.49,105.58C410.18,104.35 414.74,100.9 415.42,101.03C415.9,101.12 417,104.02 417.4,104.25C417.69,104.42 419.11,104.05 419.38,104.3C420.14,104.99 420.61,119.01 421.36,119.53C421.63,119.72 422.9,119.13 423.34,119.05C424.22,118.89 430.43,118.71 431.25,118.06C431.94,117.51 432.85,112.78 433.23,112.73C433.53,112.69 434.91,115.5 435.2,115.45C435.61,115.38 436.66,108.84 437.18,108.78C437.85,108.7 442.45,118.92 443.12,118.83C443.66,118.76 444.78,112.74 445.1,111.5C445.43,110.22 446.7,103.67 447.07,103.65C447.37,103.63 448.7,108.05 449.05,108.87C449.37,109.61 450.44,112.73 451.03,113.07C451.69,113.46 456.29,112.18 456.96,112.68C457.79,113.31 458.59,121.78 458.94,121.79C459.26,121.8 460.56,114.4 460.92,114.38C461.23,114.37 462.61,118.71 462.9,119.82C463.33,121.48 464.12,132.33 464.88,132.52C465.54,132.69 470.06,124.73 470.81,124.68C471.21,124.65 472.43,126.47 472.79,126.71C473.1,126.92 474.5,127.16 474.77,127.51C475.49,128.43 476.31,140.13 476.75,141.97C477.03,143.15 478.22,147.57 478.72,147.63C479.4,147.71 483.91,139.25 484.66,138.22C485.06,137.68 486.37,135.8 486.64,135.88C487.2,136.04 488.07,147.4 488.62,148.68C488.89,149.32 490.32,150.58 490.59,151.23C491.16,152.59 491.85,165.1 492.57,165.24C493.23,165.37 497.78,154.8 498.51,154.8C498.93,154.8 500.18,158.27 500.49,158.25C500.85,158.22 502.18,153.24 502.46,153.28C502.94,153.34 504.11,166.71 504.44,169.35C504.77,171.92 505.41,182.99 506.42,184.53C507.1,185.56 511.64,188.42 512.35,188.05C513.73,187.33 513.79,165.03 514.33,162.16C514.61,160.69 515.82,156.19 516.31,155.6C516.59,155.26 517.85,154.8 518.29,154.57C519.17,154.11 525.31,150.86 526.2,150.48C526.63,150.29 527.9,150.14 528.18,149.78C529.1,148.59 529.63,129.1 530.16,126.53C530.44,125.21 531.68,120.84 532.14,120.66C532.42,120.55 533.75,121.85 534.11,121.75C534.93,121.53 539.39,113.79 540.05,112.04C540.71,110.28 541.66,102.38 542.03,100.67C542.34,99.24 543.57,93.8 544.01,92.88C544.29,92.3 545.71,90.94 545.98,90.31C546.51,89.09 547.04,78.96 547.96,78.44C548.63,78.06 553.24,80.1 553.9,80.81C554.57,81.53 555.57,87.15 555.87,87.13C556.25,87.11 557.42,76.84 557.85,76.78C558.14,76.74 559.54,80.94 559.83,80.91C560.22,80.87 561.04,73.71 561.81,72.97C562.47,72.33 567.08,71.38 567.74,71.73C568.36,72.06 569.26,76.27 569.72,76.65C570,76.88 571.43,77.23 571.7,77.05C572.32,76.63 573.2,67.97 573.68,66.81C573.96,66.13 575.18,63.95 575.66,63.86C576.34,63.73 580.93,68.22 581.59,67.97C582.3,67.7 583.28,61.36 583.57,59.78C583.96,57.68 585.04,45.03 585.55,44.94C585.83,44.89 587.24,48.91 587.53,48.87C587.94,48.82 588.71,41.07 589.5,40.2C590.16,39.47 594.74,38.12 595.44,38.26C595.89,38.35 597.14,40 597.42,39.92C597.87,39.79 599.09,34.94 599.4,33.85C599.75,32.62 601.07,25.86 601.37,25.87C601.75,25.89 602.34,37.87 603.35,38.86C604.03,39.53 608.63,39.06 609.29,39.63C610.01,40.25 610.96,46.57 611.26,46.55C611.64,46.53 612.67,36.45 613.24,35.43C613.51,34.94 614.92,34.04 615.22,33.65C615.6,33.15 616.66,30.43 617.2,29.76C618.03,28.74 624.19,23.73 625.11,23.36C625.52,23.2 626.81,23.41 627.09,23.19C627.59,22.8 628.65,17.87 629.07,17.13C629.36,16.62 630.58,15.19 631.05,14.83C631.74,14.31 636.27,12.45 636.98,12.04C637.41,11.79 638.68,10.56 638.96,10.66C639.47,10.85 640.55,18.48 640.94,18.52C641.24,18.55 642.65,14.18 642.92,14.23C643.59,14.35 643.42,41.5 644.89,42.33C645.61,42.73 650.15,39.09 650.83,39.25C651.31,39.36 652.54,41.23 652.81,41.92C653.43,43.47 654.46,58.69 654.78,58.69C655.11,58.69 656.26,42.91 656.76,40.85C657.04,39.7 658.33,36.77 658.74,35.65C659.48,33.62 663.96,18.43 664.68,18.44C665.1,18.44 666.36,23.25 666.65,24.45C667.06,26.17 668.29,37.24 668.63,37.24C668.95,37.24 669.66,26.44 670.61,25.96C671.45,25.54 677.66,28.66 678.52,29.86C679.64,31.43 679.79,43.88 680.5,44.89C680.77,45.28 682.14,45.82 682.48,45.91C682.8,46 684.13,45.96 684.46,46.01C684.79,46.06 686.09,46.66 686.44,46.5C687.33,46.09 691.7,36.25 692.37,34.39C692.9,32.91 693.88,26.25 694.35,26.13C694.63,26.06 695.96,28.22 696.33,28.39C696.63,28.53 697.91,28.55 698.31,28.39C699.25,28.01 705.4,20.63 706.22,20.8C706.78,20.92 707.84,24.82 708.2,25.5C708.5,26.07 709.89,28.52 710.17,28.47C710.61,28.39 711.76,21.11 712.15,19.93C712.44,19.05 713.66,15.53 714.13,15.48C714.82,15.41 719.38,23.95 720.07,23.89Q720.53,23.85 722.04,19.84" style="vector-effect: none; fill: none; stroke: rgb(0, 73, 25); stroke-opacity: 1; stroke-width: 2px; opacity: 1;"/></g><g class="points"/><g class="text"/></g></g></g></g><g class="zerolinelayer-above"/><path class="xlines-above crisp" d="M62,292.1H790M62,79.5H790" style="fill: none; stroke-width: 1px; stroke: rgb(204, 204, 204); stroke-opacity: 1;"/><path class="ylines-above crisp" d="M62.5,80V291.6M789.5,80V291.6" style="fill: none; stroke-width: 1px; stroke: rgb(204, 204, 204); stroke-opacity: 1;"/><g class="overlines-above"/><g class="xaxislayer-above"/><g class="yaxislayer-above"><path class="ytick ticks crisp" d="M62,0h-6" transform="translate(0,246.15)" style="stroke: rgb(255, 255, 255); stroke-opacity: 1; stroke-width: 1px;"/><path class="ytick ticks crisp" d="M62,0h-6" transform="translate(0,176.1)" style="stroke: rgb(255, 255, 255); stroke-opacity: 1; stroke-width: 1px;"/><path class="ytick ticks crisp" d="M62,0h-6" transform="translate(0,106.03999999999999)" style="stroke: rgb(255, 255, 255); stroke-opacity: 1; stroke-width: 1px;"/><g class="ytick"><text text-anchor="end" x="53.6" y="4.199999999999999" transform="translate(0,246.15)" style="font-family: Arial, sans-serif; font-size: 12px; fill: rgb(51, 51, 51); fill-opacity: 1; white-space: pre;">6500.00</text></g><g class="ytick"><text text-anchor="end" x="53.6" y="4.199999999999999" style="font-family: Arial, sans-serif; font-size: 12px; fill: rgb(51, 51, 51); fill-opacity: 1; white-space: pre;" transform="translate(0,176.1)">7000.00</text></g><g class="ytick"><text text-anchor="end" x="53.6" y="4.199999999999999" style="font-family: Arial, sans-serif; font-size: 12px; fill: rgb(51, 51, 51); fill-opacity: 1; white-space: pre;" transform="translate(0,106.03999999999999)">7500.00</text></g></g><g class="overaxes-above"/></g><g class="subplot x2y2"><g class="layer-subplot"><g class="shapelayer"/><g class="imagelayer"/></g><g class="minor-gridlayer"><g class="x2"/><g class="y2"/></g><g class="gridlayer"><g class="x2"><path class="x2grid crisp" transform="translate(159.93,0)" d="M0,328.4v211.60000000000002" style="stroke: rgb(204, 204, 204); stroke-opacity: 1; stroke-width: 1px;"/><path class="x2grid crisp" transform="translate(280.6,0)" d="M0,328.4v211.60000000000002" style="stroke: rgb(204, 204, 204); stroke-opacity: 1; stroke-width: 1px;"/><path class="x2grid crisp" transform="translate(401.27,0)" d="M0,328.4v211.60000000000002" style="stroke: rgb(204, 204, 204); stroke-opacity: 1; stroke-width: 1px;"/><path class="x2grid crisp" transform="translate(517.99,0)" d="M0,328.4v211.60000000000002" style="stroke: rgb(204, 204, 204); stroke-opacity: 1; stroke-width: 1px;"/><path class="x2grid crisp" transform="translate(638.66,0)" d="M0,328.4v211.60000000000002" style="stroke: rgb(204, 204, 204); stroke-opacity: 1; stroke-width: 1px;"/><path class="x2grid crisp" transform="translate(759.33,0)" d="M0,328.4v211.60000000000002" style="stroke: rgb(204, 204, 204); stroke-opacity: 1; stroke-width: 1px;"/></g><g class="y2"><path class="y2grid crisp" transform="translate(0,488.87)" d="M63,0h726" style="stroke: rgb(204, 204, 204); stroke-opacity: 1; stroke-width: 1px;"/><path class="y2grid crisp" transform="translate(0,447.5)" d="M63,0h726" style="stroke: rgb(204, 204, 204); stroke-opacity: 1; stroke-width: 1px;"/><path class="y2grid crisp" transform="translate(0,406.13)" d="M63,0h726" style="stroke: rgb(204, 204, 204); stroke-opacity: 1; stroke-width: 1px;"/><path class="y2grid crisp" transform="translate(0,364.76)" d="M63,0h726" style="stroke: rgb(204, 204, 204); stroke-opacity: 1; stroke-width: 1px;"/></g></g><g class="zerolinelayer"><path class="y2zl zl crisp" transform="translate(0,530.24)" d="M63,0h726" style="stroke: rgb(255, 255, 255); stroke-opacity: 1; stroke-width: 2px;"/></g><g class="layer-between"><g class="shapelayer"/><g class="imagelayer"/></g><path class="xlines-below"/><path class="ylines-below"/><g class="overlines-below"/><g class="xaxislayer-below"/><g class="yaxislayer-below"/><g class="overaxes-below"/><g class="overplot"><g class="x2y2" transform="translate(63,328.4)" clip-path="url(#clipd0adcfx2y2plot)"><g class="scatterlayer mlayer"><g class="trace scatter trace86c2ea" style="stroke-miterlimit: 2; opacity: 1;"><g class="fills"/><g class="errorbars"/><g class="lines"><path class="js-line" d="M0,177.22Q1.7,177.02 1.98,177.22C2.47,177.57 3.65,181.94 3.96,182.96C4.31,184.11 5.55,189.31 5.93,190.35C6.23,191.15 7.33,194.14 7.91,194.45C8.57,194.81 13.13,193.54 13.85,193.63C14.28,193.68 15.49,194.38 15.83,194.45C16.15,194.51 17.52,194.25 17.8,194.45C18.29,194.8 19.31,199.99 19.78,200.2C20.06,200.33 21.33,199.43 21.76,199.38C22.48,199.29 26.97,200.01 27.69,200.2C28.12,200.32 29.33,200.95 29.67,201.02C29.99,201.08 31.33,201.08 31.65,201.02C31.99,200.95 33.36,200.55 33.63,200.2C34.33,199.3 34.88,188.3 35.61,186.24C36.27,184.38 40.84,176.36 41.54,176.39C41.98,176.41 43.21,180.52 43.52,180.5C43.88,180.48 45.12,174.79 45.5,174.75C45.8,174.72 47.17,178.06 47.48,178.04C47.84,178.01 48.84,173.53 49.46,173.11C50.12,172.66 54.71,173.7 55.39,173.11C56.44,172.2 56.67,159.56 57.37,159.16C57.64,159 59.01,159.91 59.35,159.98C59.67,160.04 61.02,159.84 61.32,159.98C61.7,160.16 62.81,162.24 63.3,162.44C63.98,162.71 68.58,162.14 69.24,161.62C69.86,161.13 70.84,157.35 71.22,156.69C71.52,156.18 72.91,154.16 73.19,154.23C73.67,154.34 74.89,163.28 75.17,163.26C75.63,163.23 75.7,140.17 77.15,138.63C77.87,137.87 82.41,138.25 83.08,137.81C83.61,137.46 84.65,134.76 85.06,134.53C85.35,134.37 86.73,134.64 87.04,134.53C87.39,134.4 88.74,133.3 89.02,132.89C89.46,132.26 90.54,127.15 91,127.14C91.87,127.12 98.08,143.94 98.91,147.66C99.84,151.8 100.22,174.62 100.89,174.75C101.16,174.8 102.53,170.67 102.87,170.65C103.19,170.64 104.31,173.67 104.84,173.93C105.51,174.25 110.12,172.66 110.78,173.11C111.57,173.65 112.21,181.04 112.76,181.32C113.04,181.46 114.45,180.39 114.74,180.5C115.16,180.66 116.28,184.33 116.71,184.6C116.99,184.78 118.28,184.68 118.69,184.6C119.43,184.45 123.91,182.14 124.63,182.14C125.05,182.14 126.27,182.96 126.6,182.96C126.93,182.96 128.26,182.09 128.58,182.14C128.93,182.19 130.27,183.85 130.56,183.78C130.97,183.67 131.92,179.34 132.54,178.86C133.2,178.34 137.77,177.5 138.47,178.04C139.68,178.99 139.62,195.34 140.45,196.09C140.73,196.34 142.11,196.15 142.43,196.09C142.77,196.02 144.12,195.52 144.41,195.27C144.8,194.93 145.85,192.29 146.39,191.99C147.06,191.61 151.64,191.67 152.32,191.99C152.82,192.23 153.97,194.04 154.3,194.45C154.63,194.86 155.91,196.64 156.28,196.92C156.58,197.15 157.97,197.49 158.26,197.74C158.65,198.08 159.7,200.76 160.23,201.02C160.9,201.34 165.45,200.39 166.17,200.2C166.6,200.08 167.83,199.57 168.15,199.38C168.5,199.17 169.78,197.87 170.13,197.74C170.44,197.63 171.81,198.02 172.1,197.74C173.95,195.94 172.71,126.99 174.08,118.11C174.79,113.51 179.06,97.88 180.02,97.59C180.35,97.49 181.64,99.1 181.99,99.23C182.3,99.34 183.69,99.42 183.97,99.23C184.43,98.92 185.49,94.62 185.95,94.31C186.23,94.12 187.54,94.43 187.93,94.31C188.68,94.07 193.12,90.28 193.86,90.2C194.26,90.16 195.52,90.83 195.84,91.02C196.19,91.23 197.51,92.7 197.82,92.67C198.17,92.63 199.45,90.55 199.8,90.2C200.11,89.88 201.42,89.03 201.78,88.56C202.62,87.46 206.91,75.53 207.71,75.43C208.08,75.38 209.34,77.54 209.69,77.89C210,78.21 211.4,79.63 211.67,79.53C212.27,79.3 212.97,67.8 213.65,67.22C213.92,66.99 215.2,67.22 215.62,67.22C216.34,67.22 220.9,67.73 221.56,67.22C222.31,66.64 223.02,60.09 223.54,59.83C223.82,59.69 225.22,60.75 225.51,60.65C225.9,60.52 227.1,57.5 227.49,57.37C227.78,57.27 229.16,57.78 229.47,58.19C230.93,60.11 234.73,99.22 235.41,105.8C235.89,110.44 236.46,128.34 237.38,129.61C237.66,129.99 239.08,130.6 239.36,130.43C240.37,129.81 240.52,102.78 241.34,102.52C241.61,102.43 242.87,104.94 243.32,104.98C244.02,105.05 248.57,99.93 249.25,100.05C249.73,100.13 250.88,103.32 251.23,103.34C251.55,103.36 252.94,101.53 253.21,100.87C253.88,99.24 254.78,84.56 255.19,82C255.48,80.21 256.62,74.56 257.17,72.97C257.84,71.04 262.38,60.65 263.1,60.65C263.52,60.65 264.71,64.72 265.08,64.76C265.38,64.79 266.62,62.62 267.06,62.29C267.57,61.91 270.33,60.52 271.01,60.65C271.96,60.83 276.22,65.74 276.95,66.4C277.36,66.77 278.62,68.07 278.93,68.04C279.28,68 280.63,65.5 280.9,65.58C281.52,65.76 282.12,81 282.88,82C283.15,82.36 284.5,82.51 284.86,82.82C285.69,83.54 289.97,91.95 290.8,92.67C291.16,92.98 292.5,93.12 292.77,93.49C293.6,94.61 293.88,112.4 294.75,113.19C295.03,113.44 296.46,113.43 296.73,113.19C297.46,112.56 298.22,99.25 298.71,99.23C299.39,99.2 303.46,125.37 304.64,126.32C304.96,126.57 306.31,126.43 306.62,126.32C306.97,126.19 308.25,124.73 308.6,124.68C308.92,124.63 310.3,125.62 310.58,125.5C311.03,125.31 312.18,120.56 312.56,120.58C313.33,120.62 317.53,139.63 318.49,141.1C318.82,141.61 320.19,142.2 320.47,142.74C321.37,144.48 321.42,167.21 322.45,169.83C322.95,171.09 325.66,173.88 326.4,174.75C327.28,175.78 331.64,180.38 332.34,181.32C332.8,181.94 334,184.62 334.32,184.6C334.66,184.58 335.77,180.83 336.29,180.5C336.78,180.19 339.59,180.79 340.25,180.5C341.24,180.06 345.52,175.01 346.19,173.93C346.71,173.1 347.75,169.58 348.16,169.01C348.45,168.61 349.81,167.36 350.14,167.36C350.47,167.36 351.83,169.08 352.12,169.01C352.53,168.91 353.55,164.22 354.1,164.08C354.77,163.91 359.27,168.73 360.03,169.01C360.42,169.15 361.74,168.77 362.01,169.01C362.78,169.69 363.31,184.33 363.99,184.6C364.26,184.71 365.64,182.96 365.97,182.96C366.3,182.96 367.62,184.72 367.95,184.6C369.35,184.08 374.92,142.4 375.86,137.81C376.26,135.87 377.42,129.67 377.84,129.61C378.13,129.57 379.52,132.23 379.81,132.89C380.2,133.78 381.09,139.08 381.79,139.46C382.45,139.82 387.01,138.06 387.73,137.81C388.15,137.66 389.37,137.06 389.71,136.99C390.03,136.93 391.38,136.85 391.68,136.99C392.06,137.17 393.37,139.51 393.66,139.46C394.06,139.39 395.15,133.76 395.64,133.71C396.32,133.64 400.9,143.71 401.57,143.56C402.45,143.36 402.87,124.06 403.55,123.86C403.82,123.78 405.25,126.39 405.53,126.32C406.01,126.21 407.24,119.35 407.51,117.29C408.08,113 407.69,79.96 409.49,77.07C410.23,75.88 414.76,73.55 415.42,73.79C416.01,74 416.94,78.4 417.4,78.71C417.68,78.9 419.11,78.95 419.38,78.71C420.15,78.03 420.68,63.39 421.36,63.12C421.63,63.01 422.87,64.5 423.34,64.76C424.19,65.22 430.42,67.47 431.25,67.22C431.76,67.06 432.95,64.67 433.23,64.76C434.16,65.06 434.68,96 435.2,100.05C435.48,102.21 436.54,109.78 437.18,109.9C437.84,110.03 442.4,102.01 443.12,100.87C443.55,100.19 444.8,98.23 445.1,97.59C445.48,96.78 446.63,92.48 447.07,91.85C447.35,91.44 448.75,90.55 449.05,90.2C449.42,89.77 450.5,87.18 451.03,86.92C451.7,86.6 456.3,88.19 456.96,87.74C457.75,87.2 458.56,80.71 458.94,79.53C459.24,78.59 460.62,74.59 460.92,74.61C461.29,74.63 462.6,82.01 462.9,82C463.27,81.98 463.95,71.09 464.88,70.5C465.55,70.07 470.05,71.19 470.81,72.14C472.9,74.77 471.4,117.6 472.79,118.93C473.08,119.2 474.49,119.18 474.77,118.93C475.72,118.06 476.29,98.8 476.75,95.95C477.03,94.22 478.26,87.76 478.72,87.74C479.41,87.71 483.74,105.53 484.66,105.8C485,105.9 486.36,104.69 486.64,104.16C487.51,102.48 487.75,79.08 488.62,78.71C488.89,78.59 490.32,80.46 490.59,80.35C491.36,80.03 491.67,62.55 492.57,59.83C493.24,57.8 497.85,49.86 498.51,49.98C499.17,50.11 499.91,60.46 500.49,61.47C500.76,61.94 502.19,63.23 502.46,63.12C503.2,62.82 503.99,46.65 504.44,44.24C504.72,42.71 505.67,37.43 506.42,36.85C507.08,36.34 511.67,37.43 512.35,36.85C513.33,36.01 513.64,25.11 514.33,24.53C514.6,24.3 515.98,24.53 516.31,24.53C516.64,24.53 517.85,24.53 518.29,24.53C519.17,24.53 525.33,24.36 526.2,24.53C526.65,24.62 527.9,25.49 528.18,25.36C528.65,25.15 529.69,20.11 530.16,19.61C530.44,19.31 531.81,18.93 532.14,18.79C532.47,18.65 533.69,18 534.11,17.97C534.83,17.93 539.35,19.76 540.05,19.61C540.5,19.51 541.68,18.02 542.03,17.97C542.35,17.92 543.68,18.79 544.01,18.79C544.34,18.79 545.65,17.97 545.98,17.97C546.31,17.97 547.53,18.7 547.96,18.79C548.67,18.93 553.22,18.46 553.9,18.79C554.39,19.03 555.5,20.97 555.87,21.25C556.17,21.48 557.53,22.12 557.85,22.07C558.2,22.02 559.5,20.7 559.83,20.43C560.16,20.16 561.41,18.76 561.81,18.79C562.55,18.84 567.07,24.29 567.74,25.36C568.26,26.19 569.26,29.97 569.72,30.28C570,30.47 571.42,30.02 571.7,30.28C572.83,31.34 572.6,60.77 573.68,62.29C573.96,62.68 575.23,63.06 575.66,63.12C576.37,63.21 580.93,62.81 581.59,62.29C582.21,61.8 583.29,58.45 583.57,57.37C584.06,55.46 585.27,40.94 585.55,40.95C586.1,40.97 586.63,105.66 587.53,105.8C587.81,105.84 588.85,100.67 589.5,100.05C590.16,99.43 594.76,97.96 595.44,98.41C596.47,99.09 597.05,110.3 597.42,112.37C597.72,114.04 598.81,120.92 599.4,121.4C599.67,121.62 601.1,121.65 601.37,121.4C602.2,120.65 602.68,103.42 603.35,103.34C604.01,103.26 608.45,119.61 609.29,119.75C609.65,119.81 610.98,117.89 611.26,117.29C611.77,116.17 612.92,106.62 613.24,106.62C613.58,106.62 614.53,118.35 615.22,118.93C615.49,119.16 616.77,118.86 617.2,118.93C618.09,119.07 624.22,121.26 625.11,121.4C625.54,121.47 626.78,121.51 627.09,121.4C627.44,121.27 628.72,119.96 629.07,119.75C629.39,119.56 630.71,118.79 631.05,118.93C631.94,119.28 636.14,130.96 636.98,132.07C637.34,132.54 638.68,133.81 638.96,133.71C639.5,133.52 640.63,123.85 640.94,123.86C641.29,123.87 642.65,136.19 642.92,136.17C643.6,136.12 642.06,62.23 644.89,59.83C645.68,59.16 650.16,60.02 650.83,60.65C651.7,61.47 652.53,70.52 652.81,70.5C653.33,70.46 654.39,39.56 654.78,34.39C655.07,30.48 655.91,14.37 656.76,13.86C657.04,13.69 658.32,14.68 658.74,14.68C659.46,14.68 664,12.04 664.68,12.22C665.16,12.34 666.32,14.68 666.65,14.68C666.98,14.68 668.25,12.4 668.63,12.22C668.93,12.08 670.18,12.15 670.61,12.22C671.5,12.35 677.7,15.03 678.52,14.68C679.13,14.42 680.11,10.67 680.5,10.58C680.79,10.52 682.15,11.95 682.48,12.22C682.81,12.49 684.11,13.73 684.46,13.86C684.77,13.97 686.04,13.96 686.44,13.86C687.18,13.67 691.63,10.77 692.37,10.58C692.77,10.48 694.03,10.52 694.35,10.58C694.69,10.65 696,11.26 696.33,11.4C696.66,11.54 697.86,12.11 698.31,12.22C699.18,12.44 705.35,13.17 706.22,13.04C706.67,12.97 707.92,12.05 708.2,12.22C709.17,12.82 709.38,38.24 710.17,38.49C710.44,38.58 711.78,36.31 712.15,36.03C712.45,35.8 713.81,35.05 714.13,35.21C715.17,35.72 719.4,52.45 720.07,56.55Q720.95,61.91 722.04,94.31" style="vector-effect: none; fill: none; stroke: rgb(255, 73, 73); stroke-opacity: 1; stroke-width: 2px; opacity: 1;"/></g><g class="points"/><g class="text"/></g></g></g></g><g class="zerolinelayer-above"/><path class="xlines-above crisp" d="M62,540.5H790M62,327.9H790" style="fill: none; stroke-width: 1px; stroke: rgb(204, 204, 204); stroke-opacity: 1;"/><path class="ylines-above crisp" d="M62.5,328.4V540M789.5,328.4V540" style="fill: none; stroke-width: 1px; stroke: rgb(204, 204, 204); stroke-opacity: 1;"/><g class="overlines-above"/><g class="xaxislayer-above"><g class="x2tick"><text text-anchor="middle" x="0" y="555.4" transform="translate(159.93,0)" style="font-family: Arial, sans-serif; font-size: 12px; fill: rgb(51, 51, 51); fill-opacity: 1; white-space: pre;">Sep 2025</text></g><g class="x2tick"><text text-anchor="middle" x="0" y="555.4" style="font-family: Arial, sans-serif; font-size: 12px; fill: rgb(51, 51, 51); fill-opacity: 1; white-space: pre;" transform="translate(280.6,0)">Nov 2025</text></g><g class="x2tick"><text text-anchor="middle" x="0" y="555.4" style="font-family: Arial, sans-serif; font-size: 12px; fill: rgb(51, 51, 51); fill-opacity: 1; white-space: pre;" transform="translate(401.27,0)">Jan 2026</text></g><g class="x2tick"><text text-anchor="middle" x="0" y="555.4" style="font-family: Arial, sans-serif; font-size: 12px; fill: rgb(51, 51, 51); fill-opacity: 1; white-space: pre;" transform="translate(517.99,0)">Mar 2026</text></g><g class="x2tick"><text text-anchor="middle" x="0" y="555.4" style="font-family: Arial, sans-serif; font-size: 12px; fill: rgb(51, 51, 51); fill-opacity: 1; white-space: pre;" transform="translate(638.66,0)">May 2026</text></g><g class="x2tick"><text text-anchor="middle" x="0" y="555.4" style="font-family: Arial, sans-serif; font-size: 12px; fill: rgb(51, 51, 51); fill-opacity: 1; white-space: pre;" transform="translate(759.33,0)">Jul 2026</text></g></g><g class="yaxislayer-above"><path class="y2tick ticks crisp" d="M62,0h-6" transform="translate(0,530.24)" style="stroke: rgb(255, 255, 255); stroke-opacity: 1; stroke-width: 1px;"/><path class="y2tick ticks crisp" d="M62,0h-6" transform="translate(0,488.87)" style="stroke: rgb(255, 255, 255); stroke-opacity: 1; stroke-width: 1px;"/><path class="y2tick ticks crisp" d="M62,0h-6" transform="translate(0,447.5)" style="stroke: rgb(255, 255, 255); stroke-opacity: 1; stroke-width: 1px;"/><path class="y2tick ticks crisp" d="M62,0h-6" transform="translate(0,406.13)" style="stroke: rgb(255, 255, 255); stroke-opacity: 1; stroke-width: 1px;"/><path class="y2tick ticks crisp" d="M62,0h-6" transform="translate(0,364.76)" style="stroke: rgb(255, 255, 255); stroke-opacity: 1; stroke-width: 1px;"/><g class="y2tick"><text text-anchor="end" x="53.6" y="4.199999999999999" transform="translate(0,530.24)" style="font-family: Arial, sans-serif; font-size: 12px; fill: rgb(51, 51, 51); fill-opacity: 1; white-space: pre;">0</text></g><g class="y2tick"><text text-anchor="end" x="53.6" y="4.199999999999999" style="font-family: Arial, sans-serif; font-size: 12px; fill: rgb(51, 51, 51); fill-opacity: 1; white-space: pre;" transform="translate(0,488.87)">20</text></g><g class="y2tick"><text text-anchor="end" x="53.6" y="4.199999999999999" style="font-family: Arial, sans-serif; font-size: 12px; fill: rgb(51, 51, 51); fill-opacity: 1; white-space: pre;" transform="translate(0,447.5)">40</text></g><g class="y2tick"><text text-anchor="end" x="53.6" y="4.199999999999999" style="font-family: Arial, sans-serif; font-size: 12px; fill: rgb(51, 51, 51); fill-opacity: 1; white-space: pre;" transform="translate(0,406.13)">60</text></g><g class="y2tick"><text text-anchor="end" x="53.6" y="4.199999999999999" style="font-family: Arial, sans-serif; font-size: 12px; fill: rgb(51, 51, 51); fill-opacity: 1; white-space: pre;" transform="translate(0,364.76)">80</text></g></g><g class="overaxes-above"/></g></g><g class="polarlayer"/><g class="smithlayer"/><g class="ternarylayer"/><g class="geolayer"/><g class="funnelarealayer"/><g class="pielayer"/><g class="iciclelayer"/><g class="treemaplayer"/><g class="sunburstlayer"/><g class="glimages"/><defs id="topdefs-d0adcf"><g class="clips"/></defs><g class="layer-above"><g class="imagelayer"/><g class="shapelayer"><g class="shape-group" data-index="0" clip-path="url(#clipd0adcfy)"><path data-index="0" fill-rule="evenodd" d="M63,99.84L789,99.84" style="opacity: 1; stroke: rgb(136, 136, 136); stroke-opacity: 1; fill: rgb(0, 0, 0); fill-opacity: 0; stroke-dasharray: 3px, 3px; stroke-width: 1px;"/></g><g class="shape-group" data-index="1" clip-path="url(#clipd0adcfy)"><path data-index="1" fill-rule="evenodd" d="M63,1156.86L789,1156.86" style="opacity: 1; stroke: rgb(204, 204, 204); stroke-opacity: 1; fill: rgb(0, 0, 0); fill-opacity: 0; stroke-width: 1px;"/></g><g class="shape-group" data-index="2" clip-path="url(#clipd0adcfy2)"><path data-index="2" fill-rule="evenodd" d="M63,530.24L789,530.24" style="opacity: 1; stroke: rgb(204, 204, 204); stroke-opacity: 1; fill: rgb(0, 0, 0); fill-opacity: 0; stroke-width: 1px;"/></g></g></g><g class="infolayer"><g class="g-gtitle"/><g class="g-xtitle"/><g class="g-x2title"><text class="x2title" x="426" y="582.000390625" text-anchor="middle" style="opacity: 1; font-family: Arial, sans-serif; font-size: 13px; fill: rgb(51, 51, 51); fill-opacity: 1; white-space: pre;"><tspan style="font-weight:bold">Last 52 Weeks</tspan></text></g><g class="g-ytitle"/><g class="g-y2title"/><g class="annotation" data-index="0" style="opacity: 1;"><g class="annotation-text-g" transform="rotate(0,426,64.89999999999999)"><g class="cursor-pointer" transform="translate(405,54)"><rect class="bg" x="0.5" y="0.5" width="42" height="20" style="stroke-width: 1px; stroke: rgb(0, 0, 0); stroke-opacity: 0; fill: rgb(0, 0, 0); fill-opacity: 0;"/><text class="annotation-text" text-anchor="middle" x="21.5703125" y="16" style="font-family: Arial, sans-serif; font-size: 16px; fill: rgb(51, 51, 51); fill-opacity: 1; white-space: pre;"><tspan style="font-weight:bold">Price</tspan></text></g></g></g><g class="annotation" data-index="1" style="opacity: 1;"><g class="annotation-text-g" transform="rotate(0,426,313.3)"><g class="cursor-pointer" transform="translate(344,303)"><rect class="bg" x="0.5" y="0.5" width="163" height="20" style="stroke-width: 1px; stroke: rgb(0, 0, 0); stroke-opacity: 0; fill: rgb(0, 0, 0); fill-opacity: 0;"/><text class="annotation-text" text-anchor="middle" x="81.8984375" y="16" style="font-family: Arial, sans-serif; font-size: 16px; fill: rgb(51, 51, 51); fill-opacity: 1; white-space: pre;"><tspan style="font-weight:bold">21-Day RV Percentile</tspan></text></g></g></g><g class="annotation" data-index="2" style="opacity: 1;"><g class="annotation-text-g" transform="rotate(0,31.918,99.84)"><g class="cursor-pointer" transform="translate(6,89)"><rect class="bg" x="0.5" y="0.5" width="51" height="21" style="stroke-width: 1px; stroke: rgb(0, 0, 0); stroke-opacity: 0; fill: rgb(255, 255, 255); fill-opacity: 1;"/><text class="annotation-text" text-anchor="middle" x="25.6953125" y="15" style="font-family: Arial, sans-serif; font-size: 12px; fill: rgb(51, 51, 51); fill-opacity: 1; white-space: pre;">7544.29</text></g></g></g></g></svg>