<svg class="main-svg" xmlns="http://www.w3.org/2000/svg" xmlns:xlink="http://www.w3.org/1999/xlink" width="800" height="500" style="" viewBox="0 0 800 500"><rect x="0" y="0" width="800" height="500" style="fill: rgb(255, 255, 255); fill-opacity: 1;"/><defs id="defs-bed3ef"><g class="clips"><clipPath id="clipbed3efxyplot" class="plotclip"><rect width="640" height="380"/></clipPath><clipPath class="axesclip" id="clipbed3efx"><rect x="64" y="0" width="640" height="500"/></clipPath><clipPath class="axesclip" id="clipbed3efy"><rect x="0" y="60" width="800" height="380"/></clipPath><clipPath class="axesclip" id="clipbed3efxy"><rect x="64" y="60" width="640" height="380"/></clipPath></g><g class="gradients"/><g class="patterns"/></defs><g class="bglayer"/><g class="layer-below"><g class="imagelayer"/><g class="shapelayer"/></g><g class="cartesianlayer"><g class="subplot xy"><g class="layer-subplot"><g class="shapelayer"/><g class="imagelayer"/></g><g class="minor-gridlayer"><g class="x"/><g class="y"/></g><g class="gridlayer"><g class="x"><path class="xgrid crisp" transform="translate(188.44,0)" d="M0,60v380" style="stroke: rgb(204, 204, 204); stroke-opacity: 1; stroke-width: 1px;"/><path class="xgrid crisp" transform="translate(315.43,0)" d="M0,60v380" style="stroke: rgb(204, 204, 204); stroke-opacity: 1; stroke-width: 1px;"/><path class="xgrid crisp" transform="translate(442.41,0)" d="M0,60v380" style="stroke: rgb(204, 204, 204); stroke-opacity: 1; stroke-width: 1px;"/><path class="xgrid crisp" transform="translate(569.4,0)" d="M0,60v380" style="stroke: rgb(204, 204, 204); stroke-opacity: 1; stroke-width: 1px;"/><path class="xgrid crisp" transform="translate(696.38,0)" d="M0,60v380" style="stroke: rgb(204, 204, 204); stroke-opacity: 1; stroke-width: 1px;"/></g><g class="y"><path class="ygrid crisp" transform="translate(0,420.26)" d="M64,0h640" style="stroke: rgb(204, 204, 204); stroke-opacity: 1; stroke-width: 1px;"/><path class="ygrid crisp" transform="translate(0,380.96)" d="M64,0h640" style="stroke: rgb(204, 204, 204); stroke-opacity: 1; stroke-width: 1px;"/><path class="ygrid crisp" transform="translate(0,341.65)" d="M64,0h640" style="stroke: rgb(204, 204, 204); stroke-opacity: 1; stroke-width: 1px;"/><path class="ygrid crisp" transform="translate(0,263.03999999999996)" d="M64,0h640" style="stroke: rgb(204, 204, 204); stroke-opacity: 1; stroke-width: 1px;"/><path class="ygrid crisp" transform="translate(0,223.73)" d="M64,0h640" style="stroke: rgb(204, 204, 204); stroke-opacity: 1; stroke-width: 1px;"/><path class="ygrid crisp" transform="translate(0,184.42000000000002)" d="M64,0h640" style="stroke: rgb(204, 204, 204); stroke-opacity: 1; stroke-width: 1px;"/><path class="ygrid crisp" transform="translate(0,145.11)" d="M64,0h640" style="stroke: rgb(204, 204, 204); stroke-opacity: 1; stroke-width: 1px;"/><path class="ygrid crisp" transform="translate(0,105.81)" d="M64,0h640" style="stroke: rgb(204, 204, 204); stroke-opacity: 1; stroke-width: 1px;"/><path class="ygrid crisp" transform="translate(0,66.5)" d="M64,0h640" style="stroke: rgb(204, 204, 204); stroke-opacity: 1; stroke-width: 1px;"/></g></g><g class="zerolinelayer"><path class="yzl zl crisp" transform="translate(0,302.34000000000003)" d="M64,0h640" style="stroke: rgb(204, 204, 204); stroke-opacity: 1; stroke-width: 1px;"/></g><g class="layer-between"><g class="shapelayer"/><g class="imagelayer"/></g><path class="xlines-below"/><path class="ylines-below"/><g class="overlines-below"/><g class="xaxislayer-below"/><g class="yaxislayer-below"/><g class="overaxes-below"/><g class="overplot"><g class="xy" transform="translate(64,60)" clip-path="url(#clipbed3efxyplot)"><g class="scatterlayer mlayer"><g class="trace scatter tracedb7798" style="stroke-miterlimit: 2; opacity: 1;"><g class="fills"/><g class="errorbars"/><g class="lines"><path class="js-line" d="M0,242.34L2.54,248.64L5.08,251.32L7.62,249.9L10.16,238.91L12.7,240.08L15.24,235.61L17.78,236.14L20.32,235.55L22.86,238.51L25.4,242.94L27.94,236.03L30.48,226.27L35.56,222.16L38.1,221.5L40.63,217.26L43.17,217.79L45.71,211.66L48.25,212.15L50.79,225.3L53.33,215.27L55.87,206.58L58.41,209.2L60.95,207.3L63.49,200.53L66.03,200.06L68.57,195.31L71.11,196.1L73.65,207.48L76.19,199.61L78.73,194.79L83.81,203.78L86.35,202.73L88.89,185.29L91.43,185L93.97,188.19L96.51,186.76L99.05,188.15L101.59,176.99L104.13,178.01L106.67,186.68L109.21,182.35L111.75,173.63L114.29,179.21L116.83,180.17L119.37,170.66L121.9,172.32L124.44,174.77L126.98,180.31L132.06,170.13L134.6,162.48L137.14,159.68L139.68,160.9L144.76,165.97L147.3,158.53L149.84,157.56L152.38,159.31L154.92,165.6L157.46,164.66L160,175.32L162.54,165.85L165.08,166.17L167.62,164.92L170.16,173.09L172.7,166.72L177.78,189.47L180.32,191.19L182.86,196.03L185.4,197.87L187.94,205.15L190.48,197.96L193.02,188.02L195.56,187.84L198.1,191.69L200.63,183.15L203.17,180.46L205.71,193.8L208.25,196.67L210.79,189.07L215.87,169.76L218.41,168.6L220.95,168.61L223.49,164.23L226.03,162.81L228.57,163.01L231.11,158.83L233.65,148.64L236.19,150.47L238.73,149.45L241.27,148.64L243.81,146.44L246.35,148.83L248.89,155.32L251.43,149.21L253.97,148.99L259.05,160.68L261.59,153.72L266.67,151.43L269.21,141.03L271.75,141.21L274.29,142.2L279.37,137.51L281.9,129.93L284.44,127.82L286.98,128.18L289.52,121.28L292.06,118.99L299.68,125.48L302.22,121.93L307.3,119.68L309.84,123.39L312.38,120.97L314.92,115.35L320,105.7L322.54,104.76L325.08,104.08L327.62,94.64L330.16,102.83L332.7,97.72L335.24,95.09L337.78,89.13L340.32,102.21L342.86,109.45L345.4,116.01L347.94,106.16L350.48,107.6L353.02,128.92L355.56,133.54L358.1,123.62L360.63,122.88L363.17,127.37L365.71,113.14L368.25,125.68L370.79,142.27L373.33,168.83L375.87,159.93L378.41,166.65L380.95,146.79L383.49,142.67L386.03,142.63L388.57,127.71L391.11,124.26L393.65,109.68L396.19,107.85L398.73,98.9L401.27,100.74L403.81,96.81L406.35,105.13L408.89,94.53L411.43,97.47L413.97,95.99L416.51,101.56L419.05,101.6L421.59,92.24L424.13,112.04L426.67,113.51L429.21,116.27L431.75,132.02L434.29,121.64L436.83,117.58L439.37,107.87L444.44,95.95L446.98,94.78L449.52,94.53L452.06,97.24L454.6,81.43L457.14,83.27L462.22,78.23L464.76,80L467.3,76.17L469.84,77.36L472.38,73.33L474.92,82.24L477.46,82.11L480,83.7L482.54,75.22L485.08,84.36L490.16,68.43L492.7,70.42L497.78,57.19L500.32,64.58L502.86,60.07L505.4,60.24L507.94,56.39L510.48,58.17L513.02,58.63L515.56,67.54L518.1,65.48L520.63,65.77L525.71,61.66L528.25,64.85L530.79,82.79L533.33,78.91L535.87,81.59L538.41,69.97L540.95,45.72L543.49,38.42L546.03,34.7L548.57,33.74L551.11,36.62L553.65,36.39L556.19,42.39L558.73,55.41L563.81,47.72L566.35,47.7L568.89,42.46L571.43,39.04L573.97,36.06L576.51,30.38L579.05,34.17L581.59,28.6L584.13,26.15L586.67,25.69L589.21,19.63L591.75,21.51L594.29,19L596.83,25.2L599.37,28.18L601.9,20.01L604.44,25.47L606.98,25.49L609.52,21.68L612.06,25.57L614.6,55.15L617.14,55.99L619.68,45.42L622.22,38.26L624.76,27.33L627.3,27.73L632.38,49.39L634.92,53.58" style="vector-effect: none; fill: none; stroke: rgb(255, 73, 73); stroke-opacity: 1; stroke-width: 2px; opacity: 1;"/></g><g class="points"/><g class="text"/></g><g class="trace scatter tracee78c28" style="stroke-miterlimit: 2; opacity: 1;"><g class="fills"/><g class="errorbars"/><g class="lines"><path class="js-line" d="M0,242.34L2.54,232.44L5.08,228.03L7.62,236.92L10.16,235.68L12.7,247.9L15.24,246.67L17.78,245.78L20.32,231.44L22.86,233.13L25.4,225.18L30.48,213.16L33.02,208.83L35.56,211.17L38.1,223.09L40.63,215.66L43.17,219.47L45.71,215.2L48.25,219.3L50.79,225.46L53.33,219.66L58.41,213.54L60.95,221.25L63.49,215.83L66.03,215.56L68.57,217.77L71.11,209.32L73.65,209.38L76.19,207.38L78.73,205.42L81.27,208.99L83.81,222.97L86.35,226.98L88.89,230.73L91.43,230.62L93.97,243.28L96.51,230.83L99.05,244.87L101.59,254.45L104.13,245.81L106.67,259.76L109.21,255.52L111.75,276.37L114.29,282.06L116.83,278.41L119.37,288.83L121.9,273.1L124.44,268.25L126.98,276.35L129.52,268.23L132.06,269.89L134.6,269.27L137.14,255.87L139.68,254.65L142.22,263.29L144.76,265.82L147.3,280.87L154.92,268.81L157.46,305.57L160,348.77L162.54,350.35L165.08,361L167.62,297.49L170.16,322.78L172.7,310.02L175.24,304.31L177.78,305.56L180.32,321.76L182.86,320.82L185.4,337.5L187.94,320.14L193.02,293.75L195.56,288.34L198.1,287.86L200.63,283.56L203.17,282.46L205.71,277.76L208.25,266.71L210.79,271.57L213.33,277.39L215.87,274.13L218.41,269.75L220.95,270.29L223.49,245.61L226.03,239.93L228.57,239.12L231.11,235.86L233.65,230.31L236.19,229.61L238.73,232.71L241.27,245.55L243.81,245.9L246.35,251.15L248.89,235.24L251.43,239.66L253.97,236.5L256.51,236.56L259.05,233.32L261.59,228.7L264.13,228.64L266.67,232.87L269.21,224.69L271.75,223.95L274.29,219.53L276.83,221.75L279.37,218.67L281.9,227.82L284.44,220.3L286.98,227.05L289.52,227.3L292.06,229.04L297.14,212.39L299.68,212.39L302.22,205.84L304.76,201.55L307.3,197.28L309.84,198.21L312.38,194.27L314.92,187.31L317.46,193.93L320,194.52L322.54,189.47L325.08,187.16L327.62,189.94L330.16,188.76L332.7,192.08L335.24,189.41L337.78,184.9L340.32,184.98L345.4,183.26L347.94,176.65L350.48,176.06L353.02,172.67L355.56,172.52L358.1,175.05L360.63,176.12L363.17,179.27L365.71,192.85L368.25,180.54L370.79,184.65L373.33,178.51L375.87,179.19L378.41,172.56L380.95,174.71L383.49,165.02L386.03,162.23L388.57,161.97L391.11,164.48L393.65,164.57L396.19,169.63L398.73,171.72L401.27,175.15L403.81,162.19L406.35,165.88L408.89,162.32L413.97,157.51L416.51,163.08L419.05,169.07L421.59,164.69L424.13,157.48L426.67,160.23L431.75,156.07L434.29,153.46L436.83,146.04L439.37,146.46L441.9,142.31L444.44,143.45L446.98,144.31L449.52,140.08L454.6,131.8L457.14,136.73L459.68,139.27L462.22,143.73L464.76,138.51L467.3,136.16L472.38,129.46L474.92,128.91L477.46,128.85L480,125.57L482.54,129.01L485.08,123.77L487.62,126.26L490.16,150.72L492.7,137.03L495.24,138.42L497.78,134.84L500.32,140.46L502.86,135.78L505.4,126.26L507.94,126.23L510.48,131.04L513.02,125.81L515.56,118.68L518.1,107.5L520.63,105.39L523.17,105.43L525.71,114.57L530.79,110.61L533.33,121.38L535.87,118.06L538.41,128.24L540.95,127.11L543.49,113.22L546.03,111.32L548.57,110.75L551.11,125.94L553.65,126.39L558.73,142.04L561.27,138.71L563.81,152.56L566.35,143.96L568.89,130.28L571.43,122.14L576.51,110.99L579.05,115.88L584.13,110.91L586.67,109.92L589.21,108.14L591.75,111.34L594.29,112.14L596.83,105.96L599.37,104.04L601.9,113.9L606.98,117.53L609.52,128.09L617.14,107.05L619.68,102.86L622.22,99.88L624.76,100.16L627.3,103.4L629.84,104.68L632.38,111.47" style="vector-effect: none; fill: none; stroke: rgb(255, 121, 25); stroke-opacity: 1; stroke-width: 2px; opacity: 1;"/></g><g class="points"/><g class="text"/></g><g class="trace scatter trace7c631e" style="stroke-miterlimit: 2; opacity: 1;"><g class="fills"/><g class="errorbars"/><g class="lines"><path class="js-line" d="M0,242.34L5.08,232.44L7.62,235.18L10.16,235.12L12.7,229.99L15.24,228.73L17.78,230.28L20.32,234.53L22.86,232.49L25.4,233L27.94,249.4L30.48,240.38L33.02,236.05L35.56,235.79L38.1,231.82L40.63,228.57L43.17,228.64L45.71,229.67L48.25,233.11L50.79,228.82L53.33,235.54L55.87,239.56L58.41,249.23L60.95,233.88L63.49,230.15L66.03,232.79L68.57,232.83L71.11,245.29L73.65,244.9L76.19,244.09L78.73,239.72L81.27,241.95L83.81,236.49L86.35,244.72L88.89,238.72L91.43,232.29L93.97,236.57L96.51,240L99.05,239.69L101.59,247.14L104.13,241.08L106.67,245.52L109.21,255.92L111.75,249.5L114.29,251.17L116.83,251.82L119.37,263.65L121.9,268.28L124.44,260.58L126.98,258.66L129.52,269.14L132.06,271.23L134.6,282.69L137.14,274.15L139.68,276.97L142.22,272.9L144.76,286.05L147.3,298.46L149.84,301.34L152.38,280.16L154.92,274.8L157.46,273.95L160,270.61L162.54,270.04L165.08,251.02L167.62,246.22L170.16,247.11L177.78,223.49L180.32,221.39L182.86,211.67L185.4,213.61L187.94,218.78L190.48,210.31L193.02,213.69L195.56,207.2L198.1,206.19L200.63,210.21L203.17,210.54L205.71,202.16L208.25,199.74L210.79,203.11L213.33,196.41L215.87,184.27L218.41,187.48L220.95,180.39L223.49,178.8L226.03,180.16L231.11,168.67L233.65,179.3L236.19,179.92L238.73,185.59L241.27,176.49L243.81,175.03L246.35,171.85L248.89,166.62L251.43,166.47L253.97,161.51L261.59,156.23L264.13,162.66L266.67,159.14L269.21,182.13L271.75,179.61L274.29,181.8L276.83,195.52L279.37,180.92L281.9,176.66L284.44,162.59L286.98,167.51L289.52,177.97L292.06,168.74L294.6,171.93L297.14,184.23L299.68,185.06L304.76,185.54L307.3,175.64L309.84,168.88L312.38,170.73L314.92,170.73L317.46,164.52L320,168.37L322.54,170.79L325.08,163.81L327.62,160.17L330.16,167.05L332.7,163.73" style="vector-effect: none; fill: none; stroke: rgb(0, 73, 25); stroke-opacity: 1; stroke-width: 2px; opacity: 1;"/></g><g class="points"/><g class="text"/></g></g></g></g><g class="zerolinelayer-above"/><path class="xlines-above crisp" d="M63,440.5H705M63,59.5H705" style="fill: none; stroke-width: 1px; stroke: rgb(204, 204, 204); stroke-opacity: 1;"/><path class="ylines-above crisp" d="M63.5,60V440M704.5,60V440" style="fill: none; stroke-width: 1px; stroke: rgb(204, 204, 204); stroke-opacity: 1;"/><g class="overlines-above"/><g class="xaxislayer-above"><g class="xtick"><text text-anchor="middle" x="0" y="455.4" transform="translate(188.44,0)" style="font-family: Arial, sans-serif; font-size: 12px; fill: rgb(51, 51, 51); fill-opacity: 1; white-space: pre;">50</text></g><g class="xtick"><text text-anchor="middle" x="0" y="455.4" style="font-family: Arial, sans-serif; font-size: 12px; fill: rgb(51, 51, 51); fill-opacity: 1; white-space: pre;" transform="translate(315.43,0)">100</text></g><g class="xtick"><text text-anchor="middle" x="0" y="455.4" style="font-family: Arial, sans-serif; font-size: 12px; fill: rgb(51, 51, 51); fill-opacity: 1; white-space: pre;" transform="translate(442.41,0)">150</text></g><g class="xtick"><text text-anchor="middle" x="0" y="455.4" style="font-family: Arial, sans-serif; font-size: 12px; fill: rgb(51, 51, 51); fill-opacity: 1; white-space: pre;" transform="translate(569.4,0)">200</text></g><g class="xtick"><text text-anchor="middle" x="0" y="455.4" style="font-family: Arial, sans-serif; font-size: 12px; fill: rgb(51, 51, 51); fill-opacity: 1; white-space: pre;" transform="translate(696.38,0)">250</text></g></g><g class="yaxislayer-above"><path class="ytick ticks crisp" d="M63,0h-6" transform="translate(0,420.26)" style="stroke: rgb(255, 255, 255); stroke-opacity: 1; stroke-width: 1px;"/><path class="ytick ticks crisp" d="M63,0h-6" transform="translate(0,380.96)" style="stroke: rgb(255, 255, 255); stroke-opacity: 1; stroke-width: 1px;"/><path class="ytick ticks crisp" d="M63,0h-6" transform="translate(0,341.65)" style="stroke: rgb(255, 255, 255); stroke-opacity: 1; stroke-width: 1px;"/><path class="ytick ticks crisp" d="M63,0h-6" transform="translate(0,302.34000000000003)" style="stroke: rgb(255, 255, 255); stroke-opacity: 1; stroke-width: 1px;"/><path class="ytick ticks crisp" d="M63,0h-6" transform="translate(0,263.03999999999996)" style="stroke: rgb(255, 255, 255); stroke-opacity: 1; stroke-width: 1px;"/><path class="ytick ticks crisp" d="M63,0h-6" transform="translate(0,223.73)" style="stroke: rgb(255, 255, 255); stroke-opacity: 1; stroke-width: 1px;"/><path class="ytick ticks crisp" d="M63,0h-6" transform="translate(0,184.42000000000002)" style="stroke: rgb(255, 255, 255); stroke-opacity: 1; stroke-width: 1px;"/><path class="ytick ticks crisp" d="M63,0h-6" transform="translate(0,145.11)" style="stroke: rgb(255, 255, 255); stroke-opacity: 1; stroke-width: 1px;"/><path class="ytick ticks crisp" d="M63,0h-6" transform="translate(0,105.81)" style="stroke: rgb(255, 255, 255); stroke-opacity: 1; stroke-width: 1px;"/><path class="ytick ticks crisp" d="M63,0h-6" transform="translate(0,66.5)" style="stroke: rgb(255, 255, 255); stroke-opacity: 1; stroke-width: 1px;"/><g class="ytick"><text text-anchor="end" x="54.6" y="4.199999999999999" transform="translate(0,420.26)" style="font-family: Arial, sans-serif; font-size: 12px; fill: rgb(51, 51, 51); fill-opacity: 1; white-space: pre;">−15</text></g><g class="ytick"><text text-anchor="end" x="54.6" y="4.199999999999999" style="font-family: Arial, sans-serif; font-size: 12px; fill: rgb(51, 51, 51); fill-opacity: 1; white-space: pre;" transform="translate(0,380.96)">−10</text></g><g class="ytick"><text text-anchor="end" x="54.6" y="4.199999999999999" style="font-family: Arial, sans-serif; font-size: 12px; fill: rgb(51, 51, 51); fill-opacity: 1; white-space: pre;" transform="translate(0,341.65)">−5</text></g><g class="ytick"><text text-anchor="end" x="54.6" y="4.199999999999999" style="font-family: Arial, sans-serif; font-size: 12px; fill: rgb(51, 51, 51); fill-opacity: 1; white-space: pre;" transform="translate(0,302.34000000000003)">0</text></g><g class="ytick"><text text-anchor="end" x="54.6" y="4.199999999999999" style="font-family: Arial, sans-serif; font-size: 12px; fill: rgb(51, 51, 51); fill-opacity: 1; white-space: pre;" transform="translate(0,263.03999999999996)">5</text></g><g class="ytick"><text text-anchor="end" x="54.6" y="4.199999999999999" style="font-family: Arial, sans-serif; font-size: 12px; fill: rgb(51, 51, 51); fill-opacity: 1; white-space: pre;" transform="translate(0,223.73)">10</text></g><g class="ytick"><text text-anchor="end" x="54.6" y="4.199999999999999" style="font-family: Arial, sans-serif; font-size: 12px; fill: rgb(51, 51, 51); fill-opacity: 1; white-space: pre;" transform="translate(0,184.42000000000002)">15</text></g><g class="ytick"><text text-anchor="end" x="54.6" y="4.199999999999999" style="font-family: Arial, sans-serif; font-size: 12px; fill: rgb(51, 51, 51); fill-opacity: 1; white-space: pre;" transform="translate(0,145.11)">20</text></g><g class="ytick"><text text-anchor="end" x="54.6" y="4.199999999999999" style="font-family: Arial, sans-serif; font-size: 12px; fill: rgb(51, 51, 51); fill-opacity: 1; white-space: pre;" transform="translate(0,105.81)">25</text></g><g class="ytick"><text text-anchor="end" x="54.6" y="4.199999999999999" style="font-family: Arial, sans-serif; font-size: 12px; fill: rgb(51, 51, 51); fill-opacity: 1; white-space: pre;" transform="translate(0,66.5)">30</text></g></g><g class="overaxes-above"/></g></g><g class="polarlayer"/><g class="smithlayer"/><g class="ternarylayer"/><g class="geolayer"/><g class="funnelarealayer"/><g class="pielayer"/><g class="iciclelayer"/><g class="treemaplayer"/><g class="sunburstlayer"/><g class="glimages"/><defs id="topdefs-bed3ef"><g class="clips"/><clipPath id="legendbed3ef"><rect width="73" height="67" x="0" y="0"/></clipPath></defs><g class="layer-above"><g class="imagelayer"/><g class="shapelayer"><g class="shape-group" data-index="0" clip-path="url(#clipbed3efx)"><path data-index="0" fill-rule="evenodd" d="M396.7,440L396.7,60" style="opacity: 1; stroke: rgb(136, 136, 136); stroke-opacity: 1; fill: rgb(0, 0, 0); fill-opacity: 0; stroke-dasharray: 3px, 3px; stroke-width: 1px;"/></g><g class="shape-group" data-index="1" clip-path="url(#clipbed3efx)"><path data-index="1" fill-rule="evenodd" d="M396.7,440L396.7,60" style="opacity: 1; stroke: rgb(136, 136, 136); stroke-opacity: 1; fill: rgb(0, 0, 0); fill-opacity: 0; stroke-dasharray: 3px, 3px; stroke-width: 1px;"/></g><g class="shape-group" data-index="2" clip-path="url(#clipbed3efx)"><path data-index="2" fill-rule="evenodd" d="M396.7,440L396.7,60" style="opacity: 1; stroke: rgb(136, 136, 136); stroke-opacity: 1; fill: rgb(0, 0, 0); fill-opacity: 0; stroke-dasharray: 3px, 3px; stroke-width: 1px;"/></g></g></g><g class="infolayer"><g class="legend" pointer-events="all" transform="translate(716.8,60)"><rect class="bg" shape-rendering="crispEdges" style="stroke: rgb(68, 68, 68); stroke-opacity: 1; fill: rgb(255, 255, 255); fill-opacity: 1; stroke-width: 0px;" width="73" height="67" x="0" y="0"/><g class="scrollbox" transform="" clip-path="url(#legendbed3ef)"><g class="groups"><g class="traces" transform="translate(0,14.5)" style="opacity: 1;"><text class="legendtext" text-anchor="start" x="40" y="4.680000000000001" style="font-family: Arial, sans-serif; font-size: 12px; fill: rgb(51, 51, 51); fill-opacity: 1; white-space: pre;">2024</text><g class="layers" style="opacity: 1;"><g class="legendfill"/><g class="legendlines"><path class="js-line" d="M5,0h30" style="fill: none; stroke: rgb(255, 73, 73); stroke-opacity: 1; stroke-width: 2px;"/></g><g class="legendsymbols"><g class="legendpoints"/></g></g><rect class="legendtoggle" x="0" y="-9.5" width="67.021484375" height="19" style="fill: rgb(0, 0, 0); fill-opacity: 0;"/></g><g class="traces" transform="translate(0,33.5)" style="opacity: 1;"><text class="legendtext" text-anchor="start" x="40" y="4.680000000000001" style="font-family: Arial, sans-serif; font-size: 12px; fill: rgb(51, 51, 51); fill-opacity: 1; white-space: pre;">2025</text><g class="layers" style="opacity: 1;"><g class="legendfill"/><g class="legendlines"><path class="js-line" d="M5,0h30" style="fill: none; stroke: rgb(255, 121, 25); stroke-opacity: 1; stroke-width: 2px;"/></g><g class="legendsymbols"><g class="legendpoints"/></g></g><rect class="legendtoggle" x="0" y="-9.5" width="67.021484375" height="19" style="fill: rgb(0, 0, 0); fill-opacity: 0;"/></g><g class="traces" transform="translate(0,52.5)" style="opacity: 1;"><text class="legendtext" text-anchor="start" x="40" y="4.680000000000001" style="font-family: Arial, sans-serif; font-size: 12px; fill: rgb(51, 51, 51); fill-opacity: 1; white-space: pre;">2026</text><g class="layers" style="opacity: 1;"><g class="legendfill"/><g class="legendlines"><path class="js-line" d="M5,0h30" style="fill: none; stroke: rgb(0, 73, 25); stroke-opacity: 1; stroke-width: 2px;"/></g><g class="legendsymbols"><g class="legendpoints"/></g></g><rect class="legendtoggle" x="0" y="-9.5" width="67.021484375" height="19" style="fill: rgb(0, 0, 0); fill-opacity: 0;"/></g></g></g><rect class="scrollbar" rx="20" ry="3" width="0" height="0" style="fill: rgb(128, 139, 164); fill-opacity: 1;" x="0" y="0"/></g><g class="g-gtitle"><text class="gtitle" x="400" y="30" text-anchor="middle" dy="0em" style="opacity: 1; font-family: Arial, sans-serif; font-size: 16px; fill: rgb(51, 51, 51); fill-opacity: 1; white-space: pre;"><tspan style="font-weight:bold">Seasonality (Normalized)</tspan></text></g><g class="g-xtitle"><text class="xtitle" x="384" y="482.000390625" text-anchor="middle" style="opacity: 1; font-family: Arial, sans-serif; font-size: 13px; fill: rgb(51, 51, 51); fill-opacity: 1; white-space: pre;"><tspan style="font-weight:bold">Trading Day of the Year</tspan></text></g><g class="g-ytitle"><text class="ytitle" transform="rotate(-90,15.190234375000003,250)" x="15.190234375000003" y="250" text-anchor="middle" style="opacity: 1; font-family: Arial, sans-serif; font-size: 13px; fill: rgb(51, 51, 51); fill-opacity: 1; white-space: pre;"><tspan style="font-weight:bold">Cumulative Return (%)</tspan></text></g><g class="annotation" data-index="0" style="opacity: 1;"><g class="annotation-text-g" transform="rotate(0,396.7,46.30000000000004)"><g class="cursor-pointer" transform="translate(379,38)"><rect class="bg" x="0.5" y="0.5" width="34" height="15" style="stroke-width: 1px; stroke: rgb(0, 0, 0); stroke-opacity: 0; fill: rgb(0, 0, 0); fill-opacity: 0;"/><text class="annotation-text" text-anchor="middle" x="17.6796875" y="12" style="font-family: Arial, sans-serif; font-size: 11px; fill: rgb(102, 102, 102); fill-opacity: 1; white-space: pre;">Today</text></g></g></g><g class="annotation" data-index="1" style="opacity: 1;"><g class="annotation-text-g" transform="rotate(0,396.7,46.30000000000004)"><g class="cursor-pointer" transform="translate(379,38)"><rect class="bg" x="0.5" y="0.5" width="34" height="15" style="stroke-width: 1px; stroke: rgb(0, 0, 0); stroke-opacity: 0; fill: rgb(0, 0, 0); fill-opacity: 0;"/><text class="annotation-text" text-anchor="middle" x="17.6796875" y="12" style="font-family: Arial, sans-serif; font-size: 11px; fill: rgb(102, 102, 102); fill-opacity: 1; white-space: pre;">Today</text></g></g></g><g class="annotation" data-index="2" style="opacity: 1;"><g class="annotation-text-g" transform="rotate(0,396.7,46.30000000000004)"><g class="cursor-pointer" transform="translate(379,38)"><rect class="bg" x="0.5" y="0.5" width="34" height="15" style="stroke-width: 1px; stroke: rgb(0, 0, 0); stroke-opacity: 0; fill: rgb(0, 0, 0); fill-opacity: 0;"/><text class="annotation-text" text-anchor="middle" x="17.6796875" y="12" style="font-family: Arial, sans-serif; font-size: 11px; fill: rgb(102, 102, 102); fill-opacity: 1; white-space: pre;">Today</text></g></g></g></g></svg>