<svg class="main-svg" xmlns="http://www.w3.org/2000/svg" xmlns:xlink="http://www.w3.org/1999/xlink" width="800" height="500" style="" viewBox="0 0 800 500"><rect x="0" y="0" width="800" height="500" style="fill: rgb(255, 255, 255); fill-opacity: 1;"/><defs id="defs-0d3a77"><g class="clips"><clipPath id="clip0d3a77xyplot" class="plotclip"><rect width="634" height="380"/></clipPath><clipPath class="axesclip" id="clip0d3a77x"><rect x="67" y="0" width="634" height="500"/></clipPath><clipPath class="axesclip" id="clip0d3a77y"><rect x="0" y="60" width="800" height="380"/></clipPath><clipPath class="axesclip" id="clip0d3a77xy"><rect x="67" y="60" width="634" height="380"/></clipPath></g><g class="gradients"/><g class="patterns"/></defs><g class="bglayer"/><g class="layer-below"><g class="imagelayer"/><g class="shapelayer"/></g><g class="cartesianlayer"><g class="subplot xy"><g class="layer-subplot"><g class="shapelayer"/><g class="imagelayer"/></g><g class="minor-gridlayer"><g class="x"/><g class="y"/></g><g class="gridlayer"><g class="x"><path class="xgrid crisp" transform="translate(150.64,0)" d="M0,60v380" style="stroke: rgb(204, 204, 204); stroke-opacity: 1; stroke-width: 1px;"/><path class="xgrid crisp" transform="translate(234.28,0)" d="M0,60v380" style="stroke: rgb(204, 204, 204); stroke-opacity: 1; stroke-width: 1px;"/><path class="xgrid crisp" transform="translate(317.91999999999996,0)" d="M0,60v380" style="stroke: rgb(204, 204, 204); stroke-opacity: 1; stroke-width: 1px;"/><path class="xgrid crisp" transform="translate(401.56,0)" d="M0,60v380" style="stroke: rgb(204, 204, 204); stroke-opacity: 1; stroke-width: 1px;"/><path class="xgrid crisp" transform="translate(485.21,0)" d="M0,60v380" style="stroke: rgb(204, 204, 204); stroke-opacity: 1; stroke-width: 1px;"/><path class="xgrid crisp" transform="translate(568.85,0)" d="M0,60v380" style="stroke: rgb(204, 204, 204); stroke-opacity: 1; stroke-width: 1px;"/><path class="xgrid crisp" transform="translate(652.49,0)" d="M0,60v380" style="stroke: rgb(204, 204, 204); stroke-opacity: 1; stroke-width: 1px;"/></g><g class="y"><path class="ygrid crisp" transform="translate(0,421)" d="M67,0h634" style="stroke: rgb(204, 204, 204); stroke-opacity: 1; stroke-width: 1px;"/><path class="ygrid crisp" transform="translate(0,335.5)" d="M67,0h634" style="stroke: rgb(204, 204, 204); stroke-opacity: 1; stroke-width: 1px;"/><path class="ygrid crisp" transform="translate(0,164.5)" d="M67,0h634" style="stroke: rgb(204, 204, 204); stroke-opacity: 1; stroke-width: 1px;"/><path class="ygrid crisp" transform="translate(0,79)" d="M67,0h634" style="stroke: rgb(204, 204, 204); stroke-opacity: 1; stroke-width: 1px;"/></g></g><g class="zerolinelayer"><path class="yzl zl crisp" transform="translate(0,250)" d="M67,0h634" style="stroke: rgb(204, 204, 204); stroke-opacity: 1; stroke-width: 1px;"/></g><g class="layer-between"><g class="shapelayer"/><g class="imagelayer"/></g><path class="xlines-below"/><path class="ylines-below"/><g class="overlines-below"/><g class="xaxislayer-below"/><g class="yaxislayer-below"/><g class="overaxes-below"/><g class="overplot"><g class="xy" transform="translate(67,60)" clip-path="url(#clip0d3a77xyplot)"><g class="scatterlayer mlayer"><g class="trace scatter traceb6a182" style="stroke-miterlimit: 2; opacity: 1;"><g class="fills"/><g class="errorbars"/><g class="lines"><path class="js-line" d="M0,242.84L23.42,84.66L25.09,75.6L31.78,44.99L33.46,39.01L36.8,29.26L38.47,25.67L41.82,20.71L43.49,19.34L46.84,19.34L48.51,20.71L51.86,25.67L53.53,29.26L56.88,39.01L58.55,44.99L63.57,67.05L65.24,75.6L71.93,115.1L73.6,125.88L98.7,295.34L100.37,304.4L102.04,361L103.72,360.66L107.06,357.24L108.73,354.33L112.08,346.29L113.75,340.99L115.42,361L117.1,360.66L120.44,357.24L122.12,354.33L125.46,346.29L127.13,340.99L132.15,320.99L133.83,312.95L140.52,275.5L142.19,264.9L152.23,195.99L153.9,184.02L165.61,104.5L167.28,94.41L173.97,59.01L175.65,51.66L180.66,33.71L182.34,29.26L185.68,22.76L187.36,20.71L189.03,19.34L190.7,19L192.37,19.34L194.05,20.71L197.39,25.67L199.07,29.26L202.41,39.01L204.08,44.99L209.1,67.05L210.78,75.6L217.47,115.1L219.14,125.88L244.23,295.34L245.91,304.4L252.6,335.01L254.27,340.99L257.61,350.74L259.29,354.33L262.63,359.29L264.31,360.66L267.65,360.66L269.32,359.29L272.67,354.33L274.34,350.74L277.69,340.99L279.36,335.01L284.38,312.95L286.05,304.4L292.74,264.9L294.42,254.13L319.51,84.66L321.18,75.6L327.87,44.99L329.55,39.01L332.89,29.26L334.56,25.67L337.91,20.71L339.58,19.34L342.93,19.34L344.6,20.71L347.95,25.67L349.62,29.26L352.97,39.01L354.64,44.99L359.66,67.05L361.33,75.6L363,84.66L364.68,361L366.35,360.66L368.02,359.29L371.37,354.33L373.04,350.74L376.39,340.99L378.06,335.01L383.08,312.95L384.75,304.4L391.44,264.9L393.11,254.13L418.21,84.66L419.88,75.6L426.57,44.99L428.24,39.01L431.59,29.26L433.26,25.67L436.61,20.71L438.28,19.34L441.63,19.34L443.3,20.71L446.64,25.67L448.32,29.26L451.66,39.01L453.34,44.99L458.35,67.05L460.03,75.6L466.72,115.1L468.39,125.88L493.48,295.34L495.16,304.4L501.85,335.01L503.52,340.99L506.87,350.74L508.54,354.33L510.21,361L511.88,360.66L515.23,357.24L516.9,354.33L520.25,346.29L521.92,340.99L526.94,320.99L528.61,312.95L535.3,275.5L536.98,264.9L547.01,195.99L548.69,184.02L560.4,104.5L562.07,94.41L568.76,59.01L570.43,51.66L575.45,33.71L577.12,29.26L580.47,22.76L582.14,20.71L583.82,19.34L585.49,19L587.16,19.34L588.83,20.71L592.18,25.67L593.85,29.26L597.2,39.01L598.87,44.99L603.89,67.05L605.56,75.6L612.25,115.1L613.93,125.88L630.65,242.84" style="vector-effect: none; fill: none; stroke: rgb(255, 121, 25); stroke-opacity: 1; stroke-width: 2px; opacity: 1;"/></g><g class="points"/><g class="text"/></g><g class="trace scatter tracef3bf67" style="stroke-miterlimit: 2; opacity: 1;"><g class="fills"/><g class="errorbars"/><g class="lines"><path class="js-line" d="M0,239.21L1.67,251.09L3.35,249.89L5.02,249.02L6.69,235.09L8.36,236.73L10.04,229.01L13.38,217.33L15.06,213.12L16.73,215.39L18.4,226.97L20.07,219.76L21.75,223.45L23.42,219.31L25.09,223.29L26.77,229.28L28.44,223.64L31.78,217.69L33.46,225.19L35.13,219.92L36.8,219.65L38.47,221.81L40.15,213.59L41.82,213.65L43.49,211.7L45.17,209.8L46.84,213.27L48.51,226.86L50.18,230.75L51.86,234.4L53.53,234.29L55.2,246.59L56.88,234.49L60.22,257.45L61.89,249.06L63.57,262.61L65.24,258.49L66.91,278.75L68.59,284.28L70.26,280.74L71.93,290.86L73.6,275.58L75.28,270.87L76.95,278.74L78.62,270.84L80.3,272.46L81.97,271.85L83.64,258.83L85.31,257.65L86.99,266.04L88.66,268.5L90.33,283.13L92.01,279.1L93.68,276.34L95.35,271.41L98.7,349.11L100.37,350.65L102.04,361L103.72,299.27L105.39,323.86L107.06,311.45L108.73,305.91L110.41,307.12L112.08,322.86L113.75,321.95L115.42,338.16L117.1,321.29L120.44,295.65L122.12,290.38L123.79,289.92L125.46,285.74L127.13,284.67L128.81,280.11L130.48,269.36L132.15,274.09L133.83,279.75L135.5,276.57L137.17,272.32L138.84,272.85L140.52,248.86L142.19,243.34L143.86,242.56L145.54,239.39L147.21,233.99L148.88,233.31L150.55,236.32L152.23,248.8L153.9,249.14L155.57,254.24L157.25,238.79L158.92,243.08L160.59,240.01L162.26,240.07L165.61,232.43L167.28,232.37L168.96,236.47L170.63,228.52L172.3,227.81L173.97,223.52L175.65,225.68L177.32,222.68L178.99,231.57L180.66,224.26L182.34,230.82L184.01,231.06L185.68,232.76L187.36,225.29L189.03,216.57L190.7,216.57L194.05,206.04L195.72,201.89L197.39,202.79L199.07,198.96L200.74,192.2L202.41,198.63L204.08,199.21L205.76,194.3L207.43,192.06L209.1,194.76L210.78,193.61L212.45,196.84L214.12,194.24L215.79,189.86L217.47,189.93L219.14,188.79L220.81,188.26L222.49,181.85L224.16,181.27L225.83,177.98L227.5,177.83L229.18,180.29L230.85,181.33L232.52,184.39L234.2,197.59L235.87,185.62L237.54,189.62L239.21,183.65L240.89,184.31L242.56,177.87L244.23,179.95L245.91,170.54L247.58,167.83L249.25,167.57L250.92,170.01L252.6,170.1L254.27,175.02L255.94,177.05L257.61,180.38L259.29,167.79L260.96,171.38L262.63,167.91L265.98,163.24L267.65,168.65L269.32,174.47L271,170.21L272.67,163.21L274.34,165.89L277.69,161.84L279.36,159.31L281.03,152.09L282.71,152.5L284.38,148.47L286.05,149.58L287.73,150.41L289.4,146.3L292.74,138.25L294.42,143.05L296.09,145.52L297.76,149.84L299.44,144.77L301.11,142.49L304.45,135.98L306.13,135.44L307.8,135.39L309.47,132.2L311.15,135.54L312.82,130.45L314.49,132.87L316.16,156.64L317.84,143.34L319.51,144.69L321.18,141.21L322.85,146.67L324.53,142.13L326.2,132.87L327.87,132.84L329.55,137.52L332.89,125.5L334.56,114.64L336.24,112.59L337.91,112.63L339.58,121.51L341.26,119.19L342.93,117.66L344.6,128.13L346.27,124.91L347.95,134.8L349.62,133.69L351.29,120.2L352.97,118.35L354.64,117.79L356.31,132.56L357.98,133L361.33,148.2L363,144.97L364.68,158.43L366.35,150.07L369.69,128.86L371.37,122.78L373.04,118.03L374.71,122.78L379.73,116.99L381.4,115.26L383.08,118.37L384.75,119.15L386.42,113.14L388.09,111.27L389.77,120.85L391.44,122.27L393.11,124.39L394.79,134.65L399.8,114.2L401.48,110.13L403.15,107.23L404.82,107.51L406.5,110.66L408.17,111.89L409.84,118.5L411.51,116.81L414.86,105.57L416.53,108.68L418.21,108.61L419.88,102.77L421.55,101.34L423.22,103.11L424.9,107.94L426.57,105.61L428.24,106.19L429.92,124.83L431.59,114.58L433.26,109.67L434.93,109.37L436.61,104.86L438.28,101.17L439.95,101.25L441.63,102.42L443.3,106.32L444.97,101.45L446.64,109.08L448.32,113.65L449.99,124.63L451.66,107.2L453.34,102.96L455.01,105.96L456.68,106L458.35,120.16L460.03,119.71L461.7,118.8L463.37,113.84L465.04,116.36L466.72,110.17L468.39,119.51L470.06,112.7L471.74,105.4L473.41,110.25L475.08,114.15L476.75,113.8L478.43,122.26L480.1,115.37L481.77,120.42L483.45,132.23L485.12,124.94L486.79,126.83L488.46,127.57L490.14,141.01L491.81,146.27L493.48,137.52L495.16,135.35L496.83,147.24L498.5,149.61L500.17,162.63L501.85,152.93L503.52,156.14L505.19,151.51L506.87,166.45L508.54,180.55L510.21,183.82L511.88,159.76L513.56,153.67L515.23,152.71L516.9,148.92L518.58,148.27L520.25,126.66L521.92,121.21L523.59,122.22L528.61,95.4L530.28,93.01L531.96,81.97L533.63,84.18L535.3,90.05L536.98,80.43L538.65,84.27L540.32,76.89L541.99,75.74L543.67,80.32L545.34,80.69L547.01,71.17L548.69,68.43L550.36,72.25L552.03,64.64L553.7,50.85L555.38,54.5L557.05,46.45L558.72,44.64L560.4,46.19L563.74,33.13L565.41,45.2L567.09,45.91L568.76,52.35L570.43,42.02L572.11,40.36L573.78,36.75L575.45,30.8L577.12,30.64L578.8,25.01L583.82,19L585.49,26.3L587.16,22.32L588.83,48.43L590.51,45.56L592.18,48.05L593.85,63.63L595.53,47.05L597.2,42.21L598.87,26.22L600.54,31.81L602.22,43.69L603.89,33.22L605.56,36.83L607.23,50.81L608.91,51.75L612.25,52.3L613.93,41.05L615.6,33.38L617.27,35.48L618.94,35.47L620.62,28.42L623.96,35.54L625.64,27.61L627.31,23.48L628.98,31.29L630.65,27.53" style="vector-effect: none; fill: none; stroke: rgb(0, 73, 25); stroke-opacity: 1; stroke-width: 2px; opacity: 1;"/></g><g class="points"/><g class="text"/></g></g></g></g><g class="zerolinelayer-above"/><path class="xlines-above crisp" d="M66,440.5H702M66,59.5H702" style="fill: none; stroke-width: 1px; stroke: rgb(204, 204, 204); stroke-opacity: 1;"/><path class="ylines-above crisp" d="M66.5,60V440M701.5,60V440" style="fill: none; stroke-width: 1px; stroke: rgb(204, 204, 204); stroke-opacity: 1;"/><g class="overlines-above"/><g class="xaxislayer-above"><g class="xtick"><text text-anchor="middle" x="0" y="455.4" transform="translate(67,0)" style="font-family: Arial, sans-serif; font-size: 12px; fill: rgb(51, 51, 51); fill-opacity: 1; white-space: pre;">0</text></g><g class="xtick"><text text-anchor="middle" x="0" y="455.4" style="font-family: Arial, sans-serif; font-size: 12px; fill: rgb(51, 51, 51); fill-opacity: 1; white-space: pre;" transform="translate(150.64,0)">50</text></g><g class="xtick"><text text-anchor="middle" x="0" y="455.4" style="font-family: Arial, sans-serif; font-size: 12px; fill: rgb(51, 51, 51); fill-opacity: 1; white-space: pre;" transform="translate(234.28,0)">100</text></g><g class="xtick"><text text-anchor="middle" x="0" y="455.4" style="font-family: Arial, sans-serif; font-size: 12px; fill: rgb(51, 51, 51); fill-opacity: 1; white-space: pre;" transform="translate(317.91999999999996,0)">150</text></g><g class="xtick"><text text-anchor="middle" x="0" y="455.4" style="font-family: Arial, sans-serif; font-size: 12px; fill: rgb(51, 51, 51); fill-opacity: 1; white-space: pre;" transform="translate(401.56,0)">200</text></g><g class="xtick"><text text-anchor="middle" x="0" y="455.4" style="font-family: Arial, sans-serif; font-size: 12px; fill: rgb(51, 51, 51); fill-opacity: 1; white-space: pre;" transform="translate(485.21,0)">250</text></g><g class="xtick"><text text-anchor="middle" x="0" y="455.4" style="font-family: Arial, sans-serif; font-size: 12px; fill: rgb(51, 51, 51); fill-opacity: 1; white-space: pre;" transform="translate(568.85,0)">300</text></g><g class="xtick"><text text-anchor="middle" x="0" y="455.4" style="font-family: Arial, sans-serif; font-size: 12px; fill: rgb(51, 51, 51); fill-opacity: 1; white-space: pre;" transform="translate(652.49,0)">350</text></g></g><g class="yaxislayer-above"><path class="ytick ticks crisp" d="M66,0h-6" transform="translate(0,421)" style="stroke: rgb(255, 255, 255); stroke-opacity: 1; stroke-width: 1px;"/><path class="ytick ticks crisp" d="M66,0h-6" transform="translate(0,335.5)" style="stroke: rgb(255, 255, 255); stroke-opacity: 1; stroke-width: 1px;"/><path class="ytick ticks crisp" d="M66,0h-6" transform="translate(0,250)" style="stroke: rgb(255, 255, 255); stroke-opacity: 1; stroke-width: 1px;"/><path class="ytick ticks crisp" d="M66,0h-6" transform="translate(0,164.5)" style="stroke: rgb(255, 255, 255); stroke-opacity: 1; stroke-width: 1px;"/><path class="ytick ticks crisp" d="M66,0h-6" transform="translate(0,79)" style="stroke: rgb(255, 255, 255); stroke-opacity: 1; stroke-width: 1px;"/><g class="ytick"><text text-anchor="end" x="57.6" y="4.199999999999999" transform="translate(0,421)" style="font-family: Arial, sans-serif; font-size: 12px; fill: rgb(51, 51, 51); fill-opacity: 1; white-space: pre;">−1</text></g><g class="ytick"><text text-anchor="end" x="57.6" y="4.199999999999999" style="font-family: Arial, sans-serif; font-size: 12px; fill: rgb(51, 51, 51); fill-opacity: 1; white-space: pre;" transform="translate(0,335.5)">−0.5</text></g><g class="ytick"><text text-anchor="end" x="57.6" y="4.199999999999999" style="font-family: Arial, sans-serif; font-size: 12px; fill: rgb(51, 51, 51); fill-opacity: 1; white-space: pre;" transform="translate(0,250)">0</text></g><g class="ytick"><text text-anchor="end" x="57.6" y="4.199999999999999" style="font-family: Arial, sans-serif; font-size: 12px; fill: rgb(51, 51, 51); fill-opacity: 1; white-space: pre;" transform="translate(0,164.5)">0.5</text></g><g class="ytick"><text text-anchor="end" x="57.6" y="4.199999999999999" style="font-family: Arial, sans-serif; font-size: 12px; fill: rgb(51, 51, 51); fill-opacity: 1; white-space: pre;" transform="translate(0,79)">1</text></g></g><g class="overaxes-above"/></g></g><g class="polarlayer"/><g class="smithlayer"/><g class="ternarylayer"/><g class="geolayer"/><g class="funnelarealayer"/><g class="pielayer"/><g class="iciclelayer"/><g class="treemaplayer"/><g class="sunburstlayer"/><g class="glimages"/><defs id="topdefs-0d3a77"><g class="clips"/><clipPath id="legend0d3a77"><rect width="76" height="48" x="0" y="0"/></clipPath></defs><g class="layer-above"><g class="imagelayer"/><g class="shapelayer"><g class="shape-group" data-index="0" clip-path="url(#clip0d3a77x)"><path data-index="0" fill-rule="evenodd" d="M67,557.42L68.67,557.42" style="opacity: 1; stroke: rgb(136, 136, 136); stroke-opacity: 1; fill: rgb(0, 0, 0); fill-opacity: 0; stroke-dasharray: 3px, 3px; stroke-width: 1px;"/></g><g class="shape-group" data-index="1" clip-path="url(#clip0d3a77x)"><path data-index="1" fill-rule="evenodd" d="M67,557.42L68.67,557.42" style="opacity: 1; stroke: rgb(136, 136, 136); stroke-opacity: 1; fill: rgb(0, 0, 0); fill-opacity: 0; stroke-dasharray: 3px, 3px; stroke-width: 1px;"/></g></g></g><g class="infolayer"><g class="legend" pointer-events="all" transform="translate(713.6800000000001,60)"><rect class="bg" shape-rendering="crispEdges" style="stroke: rgb(68, 68, 68); stroke-opacity: 1; fill: rgb(255, 255, 255); fill-opacity: 1; stroke-width: 0px;" width="76" height="48" x="0" y="0"/><g class="scrollbox" transform="" clip-path="url(#legend0d3a77)"><g class="groups"><g class="traces" transform="translate(0,14.5)" style="opacity: 1;"><text class="legendtext" text-anchor="start" x="40" y="4.680000000000001" style="font-family: Arial, sans-serif; font-size: 12px; fill: rgb(51, 51, 51); fill-opacity: 1; white-space: pre;">Cycle</text><g class="layers" style="opacity: 1;"><g class="legendfill"/><g class="legendlines"><path class="js-line" d="M5,0h30" style="fill: none; stroke: rgb(255, 121, 25); stroke-opacity: 1; stroke-width: 2px;"/></g><g class="legendsymbols"><g class="legendpoints"/></g></g><rect class="legendtoggle" x="0" y="-9.5" width="70.33203125" height="19" style="fill: rgb(0, 0, 0); fill-opacity: 0;"/></g><g class="traces" transform="translate(0,33.5)" style="opacity: 1;"><text class="legendtext" text-anchor="start" x="40" y="4.680000000000001" style="font-family: Arial, sans-serif; font-size: 12px; fill: rgb(51, 51, 51); fill-opacity: 1; white-space: pre;">Price</text><g class="layers" style="opacity: 1;"><g class="legendfill"/><g class="legendlines"><path class="js-line" d="M5,0h30" style="fill: none; stroke: rgb(0, 73, 25); stroke-opacity: 1; stroke-width: 2px;"/></g><g class="legendsymbols"><g class="legendpoints"/></g></g><rect class="legendtoggle" x="0" y="-9.5" width="70.33203125" height="19" style="fill: rgb(0, 0, 0); fill-opacity: 0;"/></g></g></g><rect class="scrollbar" rx="20" ry="3" width="0" height="0" style="fill: rgb(128, 139, 164); fill-opacity: 1;" x="0" y="0"/></g><g class="g-gtitle"><text class="gtitle" x="400" y="30" text-anchor="middle" dy="0em" style="opacity: 1; font-family: Arial, sans-serif; font-size: 16px; fill: rgb(51, 51, 51); fill-opacity: 1; white-space: pre;"><tspan style="font-weight:bold">Time Cycles</tspan></text></g><g class="g-xtitle"><text class="xtitle" x="384" y="482.000390625" text-anchor="middle" style="opacity: 1; font-family: Arial, sans-serif; font-size: 13px; fill: rgb(51, 51, 51); fill-opacity: 1; white-space: pre;"><tspan style="font-weight:bold">Trading Days</tspan></text></g><g class="g-ytitle"><text class="ytitle" transform="rotate(-90,14.846484375000003,250)" x="14.846484375000003" y="250" text-anchor="middle" style="opacity: 1; font-family: Arial, sans-serif; font-size: 13px; fill: rgb(51, 51, 51); fill-opacity: 1; white-space: pre;"><tspan style="font-weight:bold">Phase</tspan></text></g><g class="annotation" data-index="0" style="opacity: 1;"><g class="annotation-text-g" transform="rotate(0,42.7032,302.84000000000003)"><g class="cursor-pointer" transform="translate(22,292)"><rect class="bg" x="0.5" y="0.5" width="41" height="21" style="stroke-width: 1px; stroke: rgb(0, 0, 0); stroke-opacity: 0; fill: rgb(255, 255, 255); fill-opacity: 1;"/><text class="annotation-text" text-anchor="middle" x="21.015625" y="15" style="font-family: Arial, sans-serif; font-size: 12px; fill: rgb(51, 51, 51); fill-opacity: 1; white-space: pre;">-0.309</text></g></g></g><g class="annotation" data-index="1" style="opacity: 1;"><g class="annotation-text-g" transform="rotate(0,42.7032,302.84000000000003)"><g class="cursor-pointer" transform="translate(22,292)"><rect class="bg" x="0.5" y="0.5" width="41" height="21" style="stroke-width: 1px; stroke: rgb(0, 0, 0); stroke-opacity: 0; fill: rgb(255, 255, 255); fill-opacity: 1;"/><text class="annotation-text" text-anchor="middle" x="21.015625" y="15" style="font-family: Arial, sans-serif; font-size: 12px; fill: rgb(51, 51, 51); fill-opacity: 1; white-space: pre;">-0.309</text></g></g></g></g></svg>