<svg class="main-svg" xmlns="http://www.w3.org/2000/svg" xmlns:xlink="http://www.w3.org/1999/xlink" width="800" height="500" style="" viewBox="0 0 800 500"><rect x="0" y="0" width="800" height="500" style="fill: rgb(255, 255, 255); fill-opacity: 1;"/><defs id="defs-1109d5"><g class="clips"><clipPath id="clip1109d5xyplot" class="plotclip"><rect width="640" height="380"/></clipPath><clipPath class="axesclip" id="clip1109d5x"><rect x="64" y="0" width="640" height="500"/></clipPath><clipPath class="axesclip" id="clip1109d5y"><rect x="0" y="60" width="800" height="380"/></clipPath><clipPath class="axesclip" id="clip1109d5xy"><rect x="64" y="60" width="640" height="380"/></clipPath></g><g class="gradients"/><g class="patterns"/></defs><g class="bglayer"/><g class="layer-below"><g class="imagelayer"/><g class="shapelayer"/></g><g class="cartesianlayer"><g class="subplot xy"><g class="layer-subplot"><g class="shapelayer"/><g class="imagelayer"/></g><g class="minor-gridlayer"><g class="x"/><g class="y"/></g><g class="gridlayer"><g class="x"><path class="xgrid crisp" transform="translate(185.07999999999998,0)" d="M0,60v380" style="stroke: rgb(204, 204, 204); stroke-opacity: 1; stroke-width: 1px;"/><path class="xgrid crisp" transform="translate(308.63,0)" d="M0,60v380" style="stroke: rgb(204, 204, 204); stroke-opacity: 1; stroke-width: 1px;"/><path class="xgrid crisp" transform="translate(432.19,0)" d="M0,60v380" style="stroke: rgb(204, 204, 204); stroke-opacity: 1; stroke-width: 1px;"/><path class="xgrid crisp" transform="translate(555.74,0)" d="M0,60v380" style="stroke: rgb(204, 204, 204); stroke-opacity: 1; stroke-width: 1px;"/><path class="xgrid crisp" transform="translate(679.29,0)" d="M0,60v380" style="stroke: rgb(204, 204, 204); stroke-opacity: 1; stroke-width: 1px;"/></g><g class="y"><path class="ygrid crisp" transform="translate(0,431.19)" d="M64,0h640" style="stroke: rgb(204, 204, 204); stroke-opacity: 1; stroke-width: 1px;"/><path class="ygrid crisp" transform="translate(0,343.67)" d="M64,0h640" style="stroke: rgb(204, 204, 204); stroke-opacity: 1; stroke-width: 1px;"/><path class="ygrid crisp" transform="translate(0,299.90999999999997)" d="M64,0h640" style="stroke: rgb(204, 204, 204); stroke-opacity: 1; stroke-width: 1px;"/><path class="ygrid crisp" transform="translate(0,256.15)" d="M64,0h640" style="stroke: rgb(204, 204, 204); stroke-opacity: 1; stroke-width: 1px;"/><path class="ygrid crisp" transform="translate(0,212.39)" d="M64,0h640" style="stroke: rgb(204, 204, 204); stroke-opacity: 1; stroke-width: 1px;"/><path class="ygrid crisp" transform="translate(0,168.63)" d="M64,0h640" style="stroke: rgb(204, 204, 204); stroke-opacity: 1; stroke-width: 1px;"/><path class="ygrid crisp" transform="translate(0,124.87)" d="M64,0h640" style="stroke: rgb(204, 204, 204); stroke-opacity: 1; stroke-width: 1px;"/><path class="ygrid crisp" transform="translate(0,81.11)" d="M64,0h640" style="stroke: rgb(204, 204, 204); stroke-opacity: 1; stroke-width: 1px;"/></g></g><g class="zerolinelayer"><path class="yzl zl crisp" transform="translate(0,387.43)" d="M64,0h640" style="stroke: rgb(204, 204, 204); stroke-opacity: 1; stroke-width: 1px;"/></g><g class="layer-between"><g class="shapelayer"/><g class="imagelayer"/></g><path class="xlines-below"/><path class="ylines-below"/><g class="overlines-below"/><g class="xaxislayer-below"/><g class="yaxislayer-below"/><g class="overaxes-below"/><g class="overplot"><g class="xy" transform="translate(64,60)" clip-path="url(#clip1109d5xyplot)"><g class="scatterlayer mlayer"><g class="trace scatter trace36912c" style="stroke-miterlimit: 2; opacity: 1;"><g class="fills"/><g class="errorbars"/><g class="lines"><path class="js-line" d="M0,327.43L2.47,331.17L4.94,330.44L7.41,330.82L9.88,334.04L12.36,333.34L14.83,334.84L17.3,333.79L19.77,329.69L22.24,328.41L24.71,334.14L27.18,338.59L29.65,335.34L32.12,334.18L34.59,335.27L37.07,333.63L39.54,336.93L42.01,336.04L44.48,336.12L46.95,332.85L49.42,332.08L51.89,331.51L54.36,328.05L59.31,334.57L61.78,332.34L66.72,332.91L69.19,334.6L71.66,335.56L74.13,341.15L76.6,341.57L79.07,338.87L81.54,336.99L84.02,336.08L86.49,334.46L88.96,334.34L91.43,334.73L93.9,332.37L96.37,333.35L98.84,333.28L101.31,332.82L103.78,321.98L106.25,315.87L108.73,312.75L113.67,305.86L116.14,302.42L118.61,301.13L121.08,306.37L123.55,302.94L126.02,305.44L130.97,306.09L133.44,306.52L135.91,300.44L138.38,301.39L140.85,304.79L143.32,303.26L145.79,302.05L148.26,298.72L150.73,290.88L153.2,286.34L155.68,280.17L158.15,276.25L160.62,278.12L163.09,270.88L168.03,264.95L170.5,269.01L172.97,260.77L175.44,266.67L177.92,258.61L180.39,258.51L182.86,263.38L185.33,259.26L187.8,257.02L190.27,270.38L195.21,272.77L197.68,269.12L202.63,268.51L205.1,278.94L207.57,272.05L210.04,275.46L212.51,276.01L214.98,271.01L219.92,274.24L222.39,266.17L224.86,262.68L227.34,268.06L229.81,263.75L232.28,257.68L234.75,259.84L237.22,251.39L239.69,249.32L242.16,249.8L247.1,269.37L249.58,269.25L252.05,264.87L254.52,263.17L256.99,268.43L259.46,266.89L261.93,270.14L264.4,265.36L266.87,270.44L269.34,264.41L271.81,260L274.29,277.22L276.76,273.83L279.23,272.49L281.7,270.95L284.17,275.37L286.64,269.71L289.11,272.06L291.58,269.95L294.05,270.05L296.53,263.28L299,271.16L301.47,268.86L303.94,271.99L306.41,276.71L308.88,270.23L311.35,270.44L313.82,269.4L316.29,269.69L318.76,264.22L321.24,264.1L323.71,257.42L326.18,263.7L328.65,262.55L331.12,261.02L333.59,251.69L336.06,252.29L338.53,250.01L341,240.24L343.47,242.38L345.95,245.24L348.42,254.39L350.89,255.59L353.36,252.91L355.83,255.45L358.3,262.53L360.77,257.78L363.24,258.28L365.71,252.53L368.19,244.72L373.13,244.74L375.6,252.43L378.07,256.72L380.54,258.54L383.01,249.13L385.48,248.5L387.95,239.5L390.42,241.04L392.9,244.73L395.37,242.82L397.84,232.53L400.31,232.77L402.78,230.46L405.25,231.05L407.72,236.84L410.19,231.21L415.14,228.43L417.61,232.67L420.08,229.1L422.55,232.96L425.02,233.64L427.49,235.19L429.96,234.6L432.43,230.05L434.9,235.24L437.37,232.34L439.85,230.23L442.32,231.14L444.79,221.08L447.26,216.13L449.73,216.04L452.2,218.85L454.67,221.17L457.14,215.22L459.61,207.61L462.08,206.6L464.56,200.18L467.03,199.93L469.5,196.98L471.97,200L474.44,205.08L476.91,199.02L484.32,201.69L486.8,203.32L491.74,210.73L494.21,206.04L496.68,199.97L499.15,201.91L506.56,192.59L509.03,186.59L511.51,186.99L513.98,180.85L516.45,187.95L518.92,183.51L521.39,180.76L523.86,182.17L526.33,175.58L528.8,172.69L531.27,181.7L533.75,183.59L538.69,182.21L541.16,199.77L543.63,189.82L546.1,193.82L548.57,208.18L551.04,212.72L553.51,218.15L555.98,219.89L558.46,220.68L560.93,209.94L568.34,197.52L570.81,188.41L573.28,206.89L575.75,205.57L578.22,203.85L580.69,204.31L583.17,200.68L585.64,204.05L590.58,201.71L593.05,205.81L595.52,204.86L597.99,199.25L602.93,187.27L605.41,195.24L607.88,202.1L610.35,200.97L612.82,202.91L615.29,209.62L617.76,213.72L620.23,207.4L622.7,209.98L625.17,208.82L627.64,205.01L630.12,208.54L632.59,210.93L635.06,207.38" style="vector-effect: none; fill: none; stroke: rgb(255, 73, 73); stroke-opacity: 1; stroke-width: 2px; opacity: 1;"/></g><g class="points"/><g class="text"/></g><g class="trace scatter trace27c6aa" style="stroke-miterlimit: 2; opacity: 1;"><g class="fills"/><g class="errorbars"/><g class="lines"><path class="js-line" d="M0,327.43L2.47,330.43L4.94,330.98L9.88,326.66L12.36,325.5L14.83,322.33L17.3,326.43L19.77,324.44L22.24,321.4L24.71,317.95L27.18,320.54L29.65,319.24L32.12,313.2L34.59,311.28L37.07,311.5L39.54,308.88L42.01,313.99L44.48,310.01L46.95,310.89L49.42,305.37L51.89,303.81L54.36,301.27L56.83,296.93L59.31,293.25L61.78,294.73L64.25,294L66.72,286.23L69.19,287.91L71.66,286.88L74.13,282.9L76.6,290.24L79.07,287.38L81.54,281.78L84.02,282.11L86.49,280.66L88.96,281.67L91.43,278.82L93.9,285.17L96.37,284.87L98.84,291.24L101.31,294.7L106.25,284.53L108.73,284.43L113.67,285.62L116.14,289.57L118.61,284.7L121.08,282.11L123.55,273.39L126.02,274.38L128.49,270.89L130.97,265.35L133.44,263.68L135.91,263.71L140.85,269.59L143.32,267.73L145.79,267.85L148.26,261.88L153.2,250.71L155.68,252.39L158.15,249.46L160.62,252.23L163.09,265.14L165.56,273.86L168.03,273.97L170.5,257.47L172.97,242.22L175.44,232.21L177.92,236.37L180.39,233.12L182.86,214.64L185.33,217.6L187.8,201.28L190.27,208.41L192.74,223.52L195.21,213.43L197.68,218.45L200.15,214.43L205.1,223.6L207.57,231.79L210.04,231.71L212.51,215.97L214.98,200.06L217.45,211.13L219.92,220.79L222.39,217.69L224.86,232.26L227.34,229.91L229.81,241.97L232.28,231.57L234.75,237.75L237.22,233.34L239.69,223.33L242.16,219.15L244.63,222.57L247.1,211.53L249.58,214.9L252.05,221.61L254.52,224L256.99,218.76L259.46,223.5L261.93,208.35L264.4,212.96L266.87,209.71L269.34,213.04L271.81,219.82L274.29,217.51L276.76,217.9L281.7,207.56L284.17,199.59L286.64,207.89L289.11,207.35L291.58,210.34L294.05,210.28L299,210.48L301.47,217.94L303.94,216.38L306.41,217.08L308.88,226.96L311.35,221.24L313.82,215.48L316.29,212.26L318.76,217.4L321.24,215.97L323.71,215.66L326.18,221.52L331.12,217.79L333.59,212.39L338.53,217.61L341,213.84L343.47,215.37L345.95,213.33L350.89,200.13L353.36,207.35L355.83,210.48L358.3,215.55L360.77,219.32L363.24,217.49L365.71,225.83L368.19,223.27L370.66,211.38L373.13,209.63L375.6,208.34L378.07,210.38L380.54,206.1L383.01,205.45L385.48,214.69L387.95,213.8L390.42,212.54L392.9,215.92L395.37,215.76L397.84,216.37L400.31,219.03L402.78,214.06L405.25,215.21L407.72,209.7L410.19,210.8L412.66,206.29L415.14,205.64L417.61,202.46L422.55,192.61L425.02,183.15L427.49,179.07L429.96,181.07L434.9,166.51L437.37,167.57L439.85,165.69L442.32,166.76L444.79,165.26L447.26,159.28L449.73,157.38L452.2,162.41L454.67,165.11L457.14,158.4L459.61,148.08L462.08,145.37L464.56,149.94L467.03,147.69L469.5,144.59L471.97,133.97L474.44,129.74L476.91,128.66L479.38,129.92L481.85,125.18L484.32,112.87L486.8,108.84L489.27,99.49L491.74,110.34L494.21,104.32L496.68,88.5L499.15,83.04L501.62,72.21L504.09,52.41L506.56,65.32L509.03,47.8L511.51,86.03L513.98,89.92L516.45,85.76L518.92,88.08L521.39,109.49L526.33,117.92L528.8,102.44L531.27,105.77L533.75,106.06L536.22,117.65L538.69,109.77L541.16,110.24L543.63,106.34L546.1,87.4L548.57,85.7L551.04,74.33L553.51,78.33L555.98,92.82L558.46,98.88L560.93,95.46L563.4,93.62L565.87,93.85L568.34,96.34L570.81,83.93L573.28,84.96L575.75,79.72L578.22,80.21L580.69,70.65L583.17,68.38L585.64,72.58L588.11,73.07L590.58,72.22L593.05,73.76L595.52,75.2L597.99,72.23L600.46,69.35L602.93,60.4L605.41,57.44L607.88,56.3L610.35,56.6L612.82,50.83L615.29,52.01L617.76,50.08L620.23,33.34L622.7,26.77L625.17,27.36L627.64,19L630.12,51.67L632.59,50.81L635.06,53.85" style="vector-effect: none; fill: none; stroke: rgb(255, 121, 25); stroke-opacity: 1; stroke-width: 2px; opacity: 1;"/></g><g class="points"/><g class="text"/></g><g class="trace scatter trace2b21fe" style="stroke-miterlimit: 2; opacity: 1;"><g class="fills"/><g class="errorbars"/><g class="lines"><path class="js-line" d="M0,327.43L2.47,315.83L4.94,310.92L7.41,314.8L9.88,312.65L12.36,309.39L14.83,300.46L17.3,301.73L19.77,297.62L22.24,298.76L24.71,300.79L34.59,266.45L37.07,261.2L39.54,258.79L42.01,241.62L44.48,217.42L46.95,221.81L49.42,271.46L51.89,294.27L54.36,265.27L56.83,263.44L59.31,282.32L61.78,263.07L64.25,253.96L66.72,257.55L69.19,251.36L71.66,267.8L74.13,255.45L76.6,260.84L79.07,272.14L81.54,262.32L84.02,259.8L86.49,248.92L88.96,236.99L91.43,245.85L96.37,241.3L98.84,231.87L101.31,227.35L103.78,250.98L106.25,246.27L108.73,251.43L111.2,243.9L113.67,245.85L116.14,240.85L118.61,241.82L121.08,251.97L123.55,257.72L126.02,259.25L128.49,259.25L135.91,311.6L138.38,319.74L143.32,307.53L145.79,322.5L148.26,310.96L150.73,308.92L153.2,292.84L155.68,281.64L158.15,292.56L160.62,295.23L163.09,289.49L165.56,288.18L168.03,283.87L170.5,285.03L172.97,285.65L175.44,275.91L177.92,281.16L180.39,281.31L182.86,276.76L185.33,278L187.8,288.11L190.27,286.24L192.74,290.42L195.21,289.32L197.68,291.95L200.15,300.72L202.63,305.81L205.1,298.05L207.57,299.09L210.04,308.11L212.51,304.8L214.98,291.11L217.45,291.64L219.92,288.65L222.39,286.65L224.86,288.73L229.81,295.18L232.28,305.62L234.75,303.68L237.22,312.12L239.69,306.58L242.16,306.12L244.63,308.77L247.1,303.45L252.05,314.91L254.52,310.91L256.99,306.43L259.46,311.98L261.93,311.46L264.4,317.03L266.87,312.91L269.34,327.53L271.81,327.49L274.29,334.61L276.76,353.69L279.23,339.49L281.7,338.54L284.17,329.68L286.64,327.49L289.11,334.86L294.05,345.63L296.53,341.61L299,349.62L301.47,361L303.94,358.22L306.41,352.04L308.88,359.32L311.35,360.19L313.82,357.8L316.29,348.56L318.76,343.77L321.24,344.31L323.71,350.28L326.18,353.41L328.65,348.46L331.12,348.76L333.59,360.78L336.06,355.53" style="vector-effect: none; fill: none; stroke: rgb(0, 73, 25); stroke-opacity: 1; stroke-width: 2px; opacity: 1;"/></g><g class="points"/><g class="text"/></g></g></g></g><g class="zerolinelayer-above"/><path class="xlines-above crisp" d="M63,440.5H705M63,59.5H705" style="fill: none; stroke-width: 1px; stroke: rgb(204, 204, 204); stroke-opacity: 1;"/><path class="ylines-above crisp" d="M63.5,60V440M704.5,60V440" style="fill: none; stroke-width: 1px; stroke: rgb(204, 204, 204); stroke-opacity: 1;"/><g class="overlines-above"/><g class="xaxislayer-above"><g class="xtick"><text text-anchor="middle" x="0" y="455.4" transform="translate(185.07999999999998,0)" style="font-family: Arial, sans-serif; font-size: 12px; fill: rgb(51, 51, 51); fill-opacity: 1; white-space: pre;">50</text></g><g class="xtick"><text text-anchor="middle" x="0" y="455.4" style="font-family: Arial, sans-serif; font-size: 12px; fill: rgb(51, 51, 51); fill-opacity: 1; white-space: pre;" transform="translate(308.63,0)">100</text></g><g class="xtick"><text text-anchor="middle" x="0" y="455.4" style="font-family: Arial, sans-serif; font-size: 12px; fill: rgb(51, 51, 51); fill-opacity: 1; white-space: pre;" transform="translate(432.19,0)">150</text></g><g class="xtick"><text text-anchor="middle" x="0" y="455.4" style="font-family: Arial, sans-serif; font-size: 12px; fill: rgb(51, 51, 51); fill-opacity: 1; white-space: pre;" transform="translate(555.74,0)">200</text></g><g class="xtick"><text text-anchor="middle" x="0" y="455.4" style="font-family: Arial, sans-serif; font-size: 12px; fill: rgb(51, 51, 51); fill-opacity: 1; white-space: pre;" transform="translate(679.29,0)">250</text></g></g><g class="yaxislayer-above"><path class="ytick ticks crisp" d="M63,0h-6" transform="translate(0,431.19)" style="stroke: rgb(255, 255, 255); stroke-opacity: 1; stroke-width: 1px;"/><path class="ytick ticks crisp" d="M63,0h-6" transform="translate(0,387.43)" style="stroke: rgb(255, 255, 255); stroke-opacity: 1; stroke-width: 1px;"/><path class="ytick ticks crisp" d="M63,0h-6" transform="translate(0,343.67)" style="stroke: rgb(255, 255, 255); stroke-opacity: 1; stroke-width: 1px;"/><path class="ytick ticks crisp" d="M63,0h-6" transform="translate(0,299.90999999999997)" style="stroke: rgb(255, 255, 255); stroke-opacity: 1; stroke-width: 1px;"/><path class="ytick ticks crisp" d="M63,0h-6" transform="translate(0,256.15)" style="stroke: rgb(255, 255, 255); stroke-opacity: 1; stroke-width: 1px;"/><path class="ytick ticks crisp" d="M63,0h-6" transform="translate(0,212.39)" style="stroke: rgb(255, 255, 255); stroke-opacity: 1; stroke-width: 1px;"/><path class="ytick ticks crisp" d="M63,0h-6" transform="translate(0,168.63)" style="stroke: rgb(255, 255, 255); stroke-opacity: 1; stroke-width: 1px;"/><path class="ytick ticks crisp" d="M63,0h-6" transform="translate(0,124.87)" style="stroke: rgb(255, 255, 255); stroke-opacity: 1; stroke-width: 1px;"/><path class="ytick ticks crisp" d="M63,0h-6" transform="translate(0,81.11)" style="stroke: rgb(255, 255, 255); stroke-opacity: 1; stroke-width: 1px;"/><g class="ytick"><text text-anchor="end" x="54.6" y="4.199999999999999" transform="translate(0,431.19)" style="font-family: Arial, sans-serif; font-size: 12px; fill: rgb(51, 51, 51); fill-opacity: 1; white-space: pre;">−10</text></g><g class="ytick"><text text-anchor="end" x="54.6" y="4.199999999999999" style="font-family: Arial, sans-serif; font-size: 12px; fill: rgb(51, 51, 51); fill-opacity: 1; white-space: pre;" transform="translate(0,387.43)">0</text></g><g class="ytick"><text text-anchor="end" x="54.6" y="4.199999999999999" style="font-family: Arial, sans-serif; font-size: 12px; fill: rgb(51, 51, 51); fill-opacity: 1; white-space: pre;" transform="translate(0,343.67)">10</text></g><g class="ytick"><text text-anchor="end" x="54.6" y="4.199999999999999" style="font-family: Arial, sans-serif; font-size: 12px; fill: rgb(51, 51, 51); fill-opacity: 1; white-space: pre;" transform="translate(0,299.90999999999997)">20</text></g><g class="ytick"><text text-anchor="end" x="54.6" y="4.199999999999999" style="font-family: Arial, sans-serif; font-size: 12px; fill: rgb(51, 51, 51); fill-opacity: 1; white-space: pre;" transform="translate(0,256.15)">30</text></g><g class="ytick"><text text-anchor="end" x="54.6" y="4.199999999999999" style="font-family: Arial, sans-serif; font-size: 12px; fill: rgb(51, 51, 51); fill-opacity: 1; white-space: pre;" transform="translate(0,212.39)">40</text></g><g class="ytick"><text text-anchor="end" x="54.6" y="4.199999999999999" style="font-family: Arial, sans-serif; font-size: 12px; fill: rgb(51, 51, 51); fill-opacity: 1; white-space: pre;" transform="translate(0,168.63)">50</text></g><g class="ytick"><text text-anchor="end" x="54.6" y="4.199999999999999" style="font-family: Arial, sans-serif; font-size: 12px; fill: rgb(51, 51, 51); fill-opacity: 1; white-space: pre;" transform="translate(0,124.87)">60</text></g><g class="ytick"><text text-anchor="end" x="54.6" y="4.199999999999999" style="font-family: Arial, sans-serif; font-size: 12px; fill: rgb(51, 51, 51); fill-opacity: 1; white-space: pre;" transform="translate(0,81.11)">70</text></g></g><g class="overaxes-above"/></g></g><g class="polarlayer"/><g class="smithlayer"/><g class="ternarylayer"/><g class="geolayer"/><g class="funnelarealayer"/><g class="pielayer"/><g class="iciclelayer"/><g class="treemaplayer"/><g class="sunburstlayer"/><g class="glimages"/><defs id="topdefs-1109d5"><g class="clips"/><clipPath id="legend1109d5"><rect width="73" height="67" x="0" y="0"/></clipPath></defs><g class="layer-above"><g class="imagelayer"/><g class="shapelayer"><g class="shape-group" data-index="0" clip-path="url(#clip1109d5x)"><path data-index="0" fill-rule="evenodd" d="M400.06,440L400.06,60" style="opacity: 1; stroke: rgb(136, 136, 136); stroke-opacity: 1; fill: rgb(0, 0, 0); fill-opacity: 0; stroke-dasharray: 3px, 3px; stroke-width: 1px;"/></g><g class="shape-group" data-index="1" clip-path="url(#clip1109d5x)"><path data-index="1" fill-rule="evenodd" d="M400.06,440L400.06,60" style="opacity: 1; stroke: rgb(136, 136, 136); stroke-opacity: 1; fill: rgb(0, 0, 0); fill-opacity: 0; stroke-dasharray: 3px, 3px; stroke-width: 1px;"/></g><g class="shape-group" data-index="2" clip-path="url(#clip1109d5x)"><path data-index="2" fill-rule="evenodd" d="M400.06,440L400.06,60" style="opacity: 1; stroke: rgb(136, 136, 136); stroke-opacity: 1; fill: rgb(0, 0, 0); fill-opacity: 0; stroke-dasharray: 3px, 3px; stroke-width: 1px;"/></g></g></g><g class="infolayer"><g class="legend" pointer-events="all" transform="translate(716.8,60)"><rect class="bg" shape-rendering="crispEdges" style="stroke: rgb(68, 68, 68); stroke-opacity: 1; fill: rgb(255, 255, 255); fill-opacity: 1; stroke-width: 0px;" width="73" height="67" x="0" y="0"/><g class="scrollbox" transform="" clip-path="url(#legend1109d5)"><g class="groups"><g class="traces" transform="translate(0,14.5)" style="opacity: 1;"><text class="legendtext" text-anchor="start" x="40" y="4.680000000000001" style="font-family: Arial, sans-serif; font-size: 12px; fill: rgb(51, 51, 51); fill-opacity: 1; white-space: pre;">2024</text><g class="layers" style="opacity: 1;"><g class="legendfill"/><g class="legendlines"><path class="js-line" d="M5,0h30" style="fill: none; stroke: rgb(255, 73, 73); stroke-opacity: 1; stroke-width: 2px;"/></g><g class="legendsymbols"><g class="legendpoints"/></g></g><rect class="legendtoggle" x="0" y="-9.5" width="67.021484375" height="19" style="fill: rgb(0, 0, 0); fill-opacity: 0;"/></g><g class="traces" transform="translate(0,33.5)" style="opacity: 1;"><text class="legendtext" text-anchor="start" x="40" y="4.680000000000001" style="font-family: Arial, sans-serif; font-size: 12px; fill: rgb(51, 51, 51); fill-opacity: 1; white-space: pre;">2025</text><g class="layers" style="opacity: 1;"><g class="legendfill"/><g class="legendlines"><path class="js-line" d="M5,0h30" style="fill: none; stroke: rgb(255, 121, 25); stroke-opacity: 1; stroke-width: 2px;"/></g><g class="legendsymbols"><g class="legendpoints"/></g></g><rect class="legendtoggle" x="0" y="-9.5" width="67.021484375" height="19" style="fill: rgb(0, 0, 0); fill-opacity: 0;"/></g><g class="traces" transform="translate(0,52.5)" style="opacity: 1;"><text class="legendtext" text-anchor="start" x="40" y="4.680000000000001" style="font-family: Arial, sans-serif; font-size: 12px; fill: rgb(51, 51, 51); fill-opacity: 1; white-space: pre;">2026</text><g class="layers" style="opacity: 1;"><g class="legendfill"/><g class="legendlines"><path class="js-line" d="M5,0h30" style="fill: none; stroke: rgb(0, 73, 25); stroke-opacity: 1; stroke-width: 2px;"/></g><g class="legendsymbols"><g class="legendpoints"/></g></g><rect class="legendtoggle" x="0" y="-9.5" width="67.021484375" height="19" style="fill: rgb(0, 0, 0); fill-opacity: 0;"/></g></g></g><rect class="scrollbar" rx="20" ry="3" width="0" height="0" style="fill: rgb(128, 139, 164); fill-opacity: 1;" x="0" y="0"/></g><g class="g-gtitle"><text class="gtitle" x="400" y="30" text-anchor="middle" dy="0em" style="opacity: 1; font-family: Arial, sans-serif; font-size: 16px; fill: rgb(51, 51, 51); fill-opacity: 1; white-space: pre;"><tspan style="font-weight:bold">Seasonality (Normalized)</tspan></text></g><g class="g-xtitle"><text class="xtitle" x="384" y="482.000390625" text-anchor="middle" style="opacity: 1; font-family: Arial, sans-serif; font-size: 13px; fill: rgb(51, 51, 51); fill-opacity: 1; white-space: pre;"><tspan style="font-weight:bold">Trading Day of the Year</tspan></text></g><g class="g-ytitle"><text class="ytitle" transform="rotate(-90,15.190234375000003,250)" x="15.190234375000003" y="250" text-anchor="middle" style="opacity: 1; font-family: Arial, sans-serif; font-size: 13px; fill: rgb(51, 51, 51); fill-opacity: 1; white-space: pre;"><tspan style="font-weight:bold">Cumulative Return (%)</tspan></text></g><g class="annotation" data-index="0" style="opacity: 1;"><g class="annotation-text-g" transform="rotate(0,400.06,46.30000000000004)"><g class="cursor-pointer" transform="translate(383,38)"><rect class="bg" x="0.5" y="0.5" width="34" height="15" style="stroke-width: 1px; stroke: rgb(0, 0, 0); stroke-opacity: 0; fill: rgb(0, 0, 0); fill-opacity: 0;"/><text class="annotation-text" text-anchor="middle" x="17.6796875" y="12" style="font-family: Arial, sans-serif; font-size: 11px; fill: rgb(102, 102, 102); fill-opacity: 1; white-space: pre;">Today</text></g></g></g><g class="annotation" data-index="1" style="opacity: 1;"><g class="annotation-text-g" transform="rotate(0,400.06,46.30000000000004)"><g class="cursor-pointer" transform="translate(383,38)"><rect class="bg" x="0.5" y="0.5" width="34" height="15" style="stroke-width: 1px; stroke: rgb(0, 0, 0); stroke-opacity: 0; fill: rgb(0, 0, 0); fill-opacity: 0;"/><text class="annotation-text" text-anchor="middle" x="17.6796875" y="12" style="font-family: Arial, sans-serif; font-size: 11px; fill: rgb(102, 102, 102); fill-opacity: 1; white-space: pre;">Today</text></g></g></g><g class="annotation" data-index="2" style="opacity: 1;"><g class="annotation-text-g" transform="rotate(0,400.06,46.30000000000004)"><g class="cursor-pointer" transform="translate(383,38)"><rect class="bg" x="0.5" y="0.5" width="34" height="15" style="stroke-width: 1px; stroke: rgb(0, 0, 0); stroke-opacity: 0; fill: rgb(0, 0, 0); fill-opacity: 0;"/><text class="annotation-text" text-anchor="middle" x="17.6796875" y="12" style="font-family: Arial, sans-serif; font-size: 11px; fill: rgb(102, 102, 102); fill-opacity: 1; white-space: pre;">Today</text></g></g></g></g></svg>