<svg class="main-svg" xmlns="http://www.w3.org/2000/svg" xmlns:xlink="http://www.w3.org/1999/xlink" width="800" height="500" style="" viewBox="0 0 800 500"><rect x="0" y="0" width="800" height="500" style="fill: rgb(255, 255, 255); fill-opacity: 1;"/><defs id="defs-985424"><g class="clips"><clipPath id="clip985424xyplot" class="plotclip"><rect width="723" height="380"/></clipPath><clipPath class="axesclip" id="clip985424x"><rect x="64" y="0" width="723" height="500"/></clipPath><clipPath class="axesclip" id="clip985424y"><rect x="0" y="60" width="800" height="380"/></clipPath><clipPath class="axesclip" id="clip985424xy"><rect x="64" y="60" width="723" height="380"/></clipPath></g><g class="gradients"/><g class="patterns"/></defs><g class="bglayer"/><g class="layer-below"><g class="imagelayer"/><g class="shapelayer"/></g><g class="cartesianlayer"><g class="subplot xy"><g class="layer-subplot"><g class="shapelayer"/><g class="imagelayer"/></g><g class="minor-gridlayer"><g class="x"/><g class="y"/></g><g class="gridlayer"><g class="x"><path class="xgrid crisp" transform="translate(126.25999999999999,0)" d="M0,60v380" style="stroke: rgb(204, 204, 204); stroke-opacity: 1; stroke-width: 1px;"/><path class="xgrid crisp" transform="translate(218.64,0)" d="M0,60v380" style="stroke: rgb(204, 204, 204); stroke-opacity: 1; stroke-width: 1px;"/><path class="xgrid crisp" transform="translate(309.02,0)" d="M0,60v380" style="stroke: rgb(204, 204, 204); stroke-opacity: 1; stroke-width: 1px;"/><path class="xgrid crisp" transform="translate(400.4,0)" d="M0,60v380" style="stroke: rgb(204, 204, 204); stroke-opacity: 1; stroke-width: 1px;"/><path class="xgrid crisp" transform="translate(492.78,0)" d="M0,60v380" style="stroke: rgb(204, 204, 204); stroke-opacity: 1; stroke-width: 1px;"/><path class="xgrid crisp" transform="translate(585.16,0)" d="M0,60v380" style="stroke: rgb(204, 204, 204); stroke-opacity: 1; stroke-width: 1px;"/><path class="xgrid crisp" transform="translate(675.54,0)" d="M0,60v380" style="stroke: rgb(204, 204, 204); stroke-opacity: 1; stroke-width: 1px;"/><path class="xgrid crisp" transform="translate(766.92,0)" d="M0,60v380" style="stroke: rgb(204, 204, 204); stroke-opacity: 1; stroke-width: 1px;"/></g><g class="y"><path class="ygrid crisp" transform="translate(0,435.53)" d="M64,0h723" style="stroke: rgb(204, 204, 204); stroke-opacity: 1; stroke-width: 1px;"/><path class="ygrid crisp" transform="translate(0,389.29)" d="M64,0h723" style="stroke: rgb(204, 204, 204); stroke-opacity: 1; stroke-width: 1px;"/><path class="ygrid crisp" transform="translate(0,343.06)" d="M64,0h723" style="stroke: rgb(204, 204, 204); stroke-opacity: 1; stroke-width: 1px;"/><path class="ygrid crisp" transform="translate(0,250.59)" d="M64,0h723" style="stroke: rgb(204, 204, 204); stroke-opacity: 1; stroke-width: 1px;"/><path class="ygrid crisp" transform="translate(0,204.36)" d="M64,0h723" style="stroke: rgb(204, 204, 204); stroke-opacity: 1; stroke-width: 1px;"/><path class="ygrid crisp" transform="translate(0,158.13)" d="M64,0h723" style="stroke: rgb(204, 204, 204); stroke-opacity: 1; stroke-width: 1px;"/><path class="ygrid crisp" transform="translate(0,111.89)" d="M64,0h723" style="stroke: rgb(204, 204, 204); stroke-opacity: 1; stroke-width: 1px;"/><path class="ygrid crisp" transform="translate(0,65.66)" d="M64,0h723" style="stroke: rgb(204, 204, 204); stroke-opacity: 1; stroke-width: 1px;"/></g></g><g class="zerolinelayer"><path class="yzl zl crisp" transform="translate(0,296.83000000000004)" d="M64,0h723" style="stroke: rgb(204, 204, 204); stroke-opacity: 1; stroke-width: 1px;"/></g><g class="layer-between"><g class="shapelayer"/><g class="imagelayer"/></g><path class="xlines-below"/><path class="ylines-below"/><g class="overlines-below"/><g class="xaxislayer-below"/><g class="yaxislayer-below"/><g class="overaxes-below"/><g class="overplot"><g class="xy" transform="translate(64,60)" clip-path="url(#clip985424xyplot)"><g class="scatterlayer mlayer"><g class="trace scatter trace205094" style="stroke-miterlimit: 2; opacity: 1;"><g class="fills"/><g class="errorbars"/><g class="lines"><path class="js-line" d="M0,190.22Q0.54,200.97 1,201.32C1.14,201.43 1.85,201.02 2.01,201.14C2.81,201.74 4.57,227.74 5.02,227.77C5.19,227.78 5.86,223.97 6.02,223.98C6.2,223.99 6.89,229.44 7.03,229.43C7.26,229.42 7.87,215.01 8.03,215.01C8.2,215.01 8.72,231.08 9.04,231.1C9.38,231.12 11.69,213.79 12.05,213.8C12.27,213.8 12.91,219.23 13.05,220.74C13.31,223.54 13.8,244.77 14.06,244.78C14.2,244.79 14.92,239.12 15.06,237.57C15.31,234.79 15.67,217.72 16.07,214.17C16.41,211.17 18.72,199.83 19.08,197.71C19.3,196.39 19.91,191.24 20.08,191.24C20.25,191.24 20.92,196.34 21.09,197.34C21.26,198.31 21.95,203.09 22.09,203.08C22.37,203.06 22.46,179.34 23.1,179.22C23.46,179.15 25.76,185.91 26.11,185.88C26.35,185.86 26.97,182.35 27.11,182.37C27.42,182.41 27.9,198.49 28.12,200.95C28.26,202.59 28.94,207.82 29.12,209.09C29.28,210.22 29.66,214.8 30.13,215.47C30.47,215.96 32.78,217.32 33.14,217.13C33.79,216.78 33.96,207.55 34.14,205.76C34.3,204.15 34.99,198.23 35.15,196.6C35.33,194.76 36.01,184.77 36.15,184.77C36.37,184.78 36.28,211.68 37.15,211.95C37.52,212.07 39.82,207.79 40.17,207.89C40.72,208.05 40.77,220.42 41.17,220.55C41.31,220.59 42.03,219.72 42.17,219.35C42.73,217.89 42.88,197.33 43.18,194.76C43.32,193.57 43.98,189.58 44.18,189.58C44.56,189.59 46.81,206.12 47.2,208.16C47.39,209.17 48.05,211.82 48.2,212.69C48.4,213.84 49.04,220.74 49.2,220.74C49.38,220.74 50.06,211.69 50.21,209.46C50.42,206.23 50.64,185.78 51.21,185.69C51.56,185.64 53.88,194.24 54.22,194.2C54.55,194.16 54.96,185.64 55.23,185.6C55.37,185.58 56.09,187.76 56.23,187.73C56.55,187.67 57.07,174.88 57.24,174.88C57.4,174.88 57.58,185.58 58.24,186.62C58.6,187.19 60.89,188.57 61.25,188.38C61.91,188.04 61.89,177.58 62.26,176.63C62.4,176.28 63.1,175.32 63.26,175.34C63.44,175.36 64.13,176.88 64.27,177.37C64.57,178.42 64.87,187.75 65.27,187.82C65.61,187.88 67.94,181.01 68.28,181.07C68.73,181.15 69.1,192.14 69.29,194.11C69.44,195.75 70.13,203.08 70.29,203.08C70.46,203.08 71.12,193.37 71.3,193.37C71.46,193.37 72.03,199.55 72.3,200.95C72.64,202.72 74.95,212.89 75.31,212.88C75.54,212.88 76.17,208.99 76.32,208.07C76.52,206.84 77.16,200.92 77.32,199.38C77.5,197.63 77.88,188.45 78.33,188.19C78.47,188.11 79.17,188.45 79.33,188.65C79.91,189.37 82,202.64 82.34,202.62C82.6,202.61 83.21,194.19 83.35,194.2C83.58,194.21 84.1,216.75 84.35,216.76C84.49,216.77 85,210.2 85.35,210.01C85.49,209.93 86.16,210.5 86.36,210.47C86.75,210.41 89,208.41 89.37,207.61C90.17,205.88 90.12,188.12 90.38,188.1C90.52,188.09 91.24,192.68 91.38,193.83C91.6,195.57 92.06,205.7 92.38,206.96C92.52,207.5 93.14,209.14 93.39,209.18C93.73,209.23 96.07,206.47 96.4,205.85C96.71,205.27 97.26,202.05 97.4,202.06C97.72,202.09 98.24,223.61 98.41,223.61C98.58,223.61 99.22,201.97 99.41,201.97C99.56,201.97 100.19,213.72 100.42,216.67C100.77,221.13 102.96,247.29 103.43,250.24C103.6,251.31 104.29,253.65 104.43,254.58C104.68,256.21 105.23,266.33 105.44,268.17C105.59,269.44 106.28,273.44 106.44,274.55C106.62,275.77 107.13,282.19 107.45,282.23C107.79,282.27 110.13,275.52 110.46,274.18C110.78,272.92 111.25,266.61 111.46,266.6C111.61,266.59 112.33,270.23 112.47,270.21C112.78,270.18 113.25,254.54 113.47,252.18C113.61,250.64 114.28,244.6 114.47,244.6C114.87,244.61 117.02,278.13 117.49,278.16C117.66,278.17 118.34,273.9 118.49,273.91C118.69,273.92 119.31,280.11 119.5,281.21C119.65,282.12 120.36,286.22 120.5,286.21C120.77,286.19 120.68,267.24 121.5,266.88C121.87,266.72 124.14,269.33 124.52,269.38C124.72,269.41 125.36,269.03 125.52,268.91C125.7,268.78 126.38,268.14 126.52,267.8C127.05,266.51 127.34,246.72 127.53,246.72C127.68,246.72 128.21,260.94 128.53,260.96C128.87,260.98 131.2,248.7 131.55,245.61C132.07,241.01 132.34,215.68 132.55,210.94C132.7,207.65 133.26,194.23 133.55,194.2C133.69,194.19 134.41,197.3 134.56,198.08C134.77,199.23 135.08,206.53 135.56,206.68C135.9,206.79 138.21,203.22 138.58,203.35C139.39,203.64 139.41,221.61 139.58,225.08C139.74,228.28 140.39,240.7 140.58,243.49C140.73,245.81 141.32,256.22 141.59,256.25C141.73,256.26 142.41,252.91 142.59,252.92C143.01,252.95 145.26,271.43 145.6,271.41C146.04,271.38 145.93,242.81 146.61,240.06C146.87,239 148.38,235.86 148.62,235.9C148.96,235.96 149.13,243.56 149.62,244.6C149.96,245.33 152.23,247.55 152.63,247.74C152.82,247.83 153.49,247.95 153.64,247.83C154.27,247.31 155.37,230.26 155.65,230.26C155.84,230.26 156.19,237.31 156.65,238.31C156.99,239.05 159.31,241.76 159.66,241.64C160.24,241.44 160.36,230.72 160.67,229.52C160.81,228.98 161.53,227.28 161.67,227.3C161.91,227.33 162.48,233.06 162.67,234.05C162.82,234.85 163.48,237.36 163.68,238.31C164.07,240.19 166.35,255.25 166.69,255.23C167.02,255.21 167.53,241.24 167.7,238.4C167.87,235.48 168.45,222.74 168.7,220.65C168.84,219.49 169.48,215.31 169.7,215.28C169.85,215.26 170.53,217.52 170.71,217.5C171.15,217.45 173.38,205.93 173.72,203.35C174.12,200.29 174.48,183.11 174.72,183.1C174.86,183.09 175.53,190.03 175.73,190.04C175.88,190.05 176.56,186.71 176.73,186.06C176.89,185.44 177.55,182.45 177.74,182.46C178.15,182.48 180.42,200.05 180.75,200.03C181.05,200.01 181.41,186.7 181.75,185.32C181.89,184.75 182.61,183.49 182.76,183.01C182.98,182.29 183.61,177.45 183.76,177.46C183.96,177.47 184.48,186.88 184.77,186.9C185.11,186.92 187.45,176.74 187.78,174.78C188.09,172.97 188.47,165.28 188.78,164.24C188.92,163.77 189.65,162.28 189.79,162.3C190.05,162.34 190.48,168.88 190.79,169.51C190.93,169.79 191.62,170.57 191.8,170.53C192.25,170.42 194.47,162.74 194.81,161.38C195.07,160.32 195.59,155.66 195.81,155.64C195.96,155.62 196.63,158.03 196.82,158.05C196.97,158.07 197.68,156.53 197.82,156.57C198.32,156.71 198.36,179.45 198.83,179.5C199.17,179.54 201.5,169.66 201.84,167.85C202.13,166.31 202.69,159.16 202.84,159.16C203.03,159.16 203.43,172.17 203.85,173.21C203.99,173.55 204.69,174.19 204.85,174.41C205.02,174.65 205.58,175.84 205.85,175.98C206.19,176.16 208.53,175.7 208.87,175.89C209.15,176.05 209.73,177.31 209.87,177.74C210.14,178.59 210.72,184.25 210.88,185.69C211.06,187.38 211.73,194.7 211.88,196.79C212.07,199.49 212.39,215.31 212.88,215.38C213.22,215.43 215.54,207.97 215.9,206.87C216.12,206.18 216.76,203.44 216.9,203.45C217.12,203.47 217.73,210.68 217.9,212.14C218.07,213.62 218.64,221.07 218.91,221.11C219.05,221.13 219.72,218.88 219.91,218.89C220.3,218.91 222.58,226.77 222.92,228.14C223.18,229.2 223.78,233.87 223.93,233.87C224.12,233.86 224.78,227.14 224.93,225.55C225.13,223.44 225.75,210.75 225.94,210.75C226.09,210.75 226.7,220.46 226.94,220.46C227.29,220.47 229.55,201.5 229.95,199.19C230.14,198.07 230.81,194.19 230.96,194.2C231.15,194.21 231.59,201.96 231.96,202.15C232.1,202.22 232.83,201.53 232.97,201.6C233.37,201.81 233.45,209.79 233.97,210.84C234.32,211.54 236.64,213.24 236.98,213.71C237.23,214.06 237.85,215.78 237.99,215.75C238.31,215.69 238.82,205.44 238.99,203.45C239.15,201.58 239.85,194.69 240,192.54C240.21,189.44 240.64,173.42 241,169.79C241.33,166.42 243.67,150.35 244.01,150.37C244.31,150.38 244.73,164.37 245.02,166C245.16,166.77 245.87,168.7 246.02,169.33C246.21,170.13 246.88,173.63 247.02,174.88C247.3,177.42 247.63,194.67 248.03,198.18C248.37,201.11 250.69,214.18 251.04,214.17C251.28,214.16 251.91,208.11 252.05,206.5C252.29,203.77 252.89,188.16 253.05,184.4C253.22,180.49 253.48,161.84 254.05,160.45C254.19,160.1 254.87,159.31 255.06,159.34C255.46,159.39 257.66,164.61 258.07,165.17C258.26,165.43 258.94,166.24 259.08,166.18C259.66,165.96 259.85,142.98 260.08,142.97C260.22,142.97 260.84,151.85 261.08,151.85C261.51,151.85 264.64,121.72 265.1,121.71C265.31,121.71 265.96,126.54 266.1,127.9C266.37,130.51 266.92,150.83 267.11,150.83C267.26,150.83 267.92,135.85 268.11,135.85C268.26,135.85 268.69,143.69 269.12,144.92C269.46,145.88 271.77,148.53 272.13,149.63C272.77,151.62 272.97,164.65 273.13,167.76C273.3,171.05 273.94,185.19 274.14,188.1C274.29,190.3 274.93,198.1 275.14,199.66C275.29,200.73 275.97,205.03 276.15,205.02C276.59,205 278.82,177.74 279.16,171.45C279.59,163.41 279.48,116.58 280.16,116.44C280.3,116.41 281.03,118.16 281.17,118.75C281.54,120.31 282.02,133.38 282.17,136.69C282.36,140.8 282.92,158.94 283.17,164.33C283.52,171.92 285.8,213.08 286.19,219.17C286.38,222.21 287.02,230.57 287.19,232.85C287.36,235.14 288.03,246.63 288.2,246.63C288.36,246.63 289.06,234.15 289.2,234.15C289.46,234.16 289.55,275.59 290.2,275.66C290.56,275.7 292.88,263.44 293.22,263.46C293.51,263.48 294.07,272.98 294.22,272.98C294.42,272.97 295.06,257.77 295.22,254.67C295.39,251.47 295.77,236.54 296.23,235.16C296.37,234.74 297,233.95 297.23,233.68C297.58,233.26 299.88,230.67 300.25,230.82C301.01,231.12 300.94,248.81 301.25,248.85C301.39,248.87 302.11,246.23 302.25,245.43C302.55,243.7 303.03,230.71 303.26,228.6C303.4,227.31 304.07,223.79 304.26,222.4C304.65,219.55 306.93,196.32 307.27,196.33C307.66,196.35 308.08,226.61 308.28,231.74C308.43,235.68 309.09,252.64 309.28,252.64C309.43,252.64 310.06,241.67 310.29,240.06C310.43,239.05 310.88,235.37 311.29,235.16C311.63,234.99 313.92,236.78 314.3,236.55C315.35,235.91 315,214.39 315.31,211.86C315.45,210.72 316.17,208.14 316.31,206.96C316.65,204.03 316.99,176.01 317.32,175.98C317.46,175.97 317.94,180.62 318.32,181.35C318.66,182 320.99,183.79 321.33,184.49C321.77,185.39 322.2,190.08 322.34,191.61C322.59,194.35 323.09,211.89 323.34,214.64C323.48,216.19 324.17,221.85 324.35,221.85C324.51,221.85 325.14,216.02 325.35,216.02C325.72,216.02 328,232.69 328.36,235.07C328.58,236.5 329.22,241.92 329.37,241.91C329.58,241.9 330.07,229.41 330.37,227.95C330.51,227.26 331.24,224.97 331.38,224.99C331.78,225.05 331.98,250.67 332.38,250.7C332.72,250.72 335.05,232.92 335.39,232.94C335.7,232.96 336.22,248.66 336.4,248.66C336.56,248.66 337.24,235.63 337.4,235.63C337.57,235.63 338.2,249.58 338.4,249.59C338.55,249.59 339.14,243.17 339.41,241.73C339.75,239.94 342.09,229.77 342.42,229.8C342.77,229.83 343.16,243.56 343.42,243.58C343.56,243.59 344.27,239.5 344.43,239.51C344.62,239.52 345.11,245.28 345.43,245.43C345.57,245.5 346.28,244.79 346.44,244.87C347.05,245.16 349.1,261.43 349.45,261.42C349.7,261.41 350.26,254.17 350.45,252.92C350.6,251.92 351.25,248.25 351.46,247.55C351.61,247.08 352.3,245.67 352.46,245.24C352.64,244.74 353.27,242.65 353.47,241.91C353.86,240.46 356.14,230.88 356.48,228.88C356.76,227.2 357.08,220.14 357.48,219.54C357.62,219.33 358.35,218.91 358.49,218.98C358.86,219.17 359.32,225.55 359.49,226.84C359.66,228.09 360.22,234.22 360.5,234.24C360.84,234.26 363.17,223.68 363.51,223.7C363.78,223.72 364.37,228.98 364.51,230.45C364.77,233.2 364.94,252.87 365.52,254.21C365.66,254.54 366.38,255.29 366.52,255.23C367.16,254.98 366.32,228.01 367.52,226.66C367.91,226.22 370.2,226.42 370.54,226.19C370.81,226.01 371.4,224.92 371.54,224.53C371.8,223.81 372.35,218.81 372.55,217.87C372.7,217.16 373.35,214.19 373.55,214.17C373.7,214.15 374.39,215.51 374.55,216.02C375.11,217.77 377.17,240.7 377.57,240.71C377.76,240.72 378.41,236.39 378.57,235.44C378.75,234.33 379.43,228.23 379.58,228.23C379.78,228.24 380.3,240.3 380.58,240.34C380.72,240.36 381.32,237.51 381.58,237.48C381.92,237.43 384.24,240.86 384.6,241.91C385.24,243.78 385.05,258.15 385.6,259.02C385.74,259.24 386.46,259.64 386.6,259.57C387.01,259.36 387.46,251.65 387.61,249.87C387.8,247.71 388.13,237.44 388.61,235.53C388.95,234.16 391.29,230.15 391.63,228.78C392.1,226.9 392.29,214.79 392.63,214.73C392.77,214.7 393.49,216.89 393.63,216.86C394.04,216.78 394.35,198.94 394.64,196.79C394.78,195.76 395.43,192.26 395.64,192.26C396,192.26 398.31,205.5 398.65,205.48C398.98,205.46 399.42,194.3 399.66,192.72C399.8,191.77 400.36,188.47 400.66,188.19C400.8,188.06 401.53,188.15 401.67,188.01C401.98,187.71 402.43,183.99 402.67,183.01C403.02,181.57 405.34,174.39 405.68,172.47C406.07,170.23 406.3,158.87 406.69,157.68C406.83,157.26 407.55,156.08 407.69,156.1C407.91,156.14 408.55,160.18 408.7,160.17C408.91,160.16 409.39,152.95 409.7,151.48C410.03,149.89 412.36,143.07 412.71,141.77C412.94,140.91 413.54,137.43 413.72,137.43C413.88,137.43 414.58,140.15 414.72,140.94C414.99,142.47 415.55,154.72 415.72,154.72C415.89,154.72 416.28,143.16 416.73,141.31C417.07,139.9 419.4,135.37 419.74,134.19C420.05,133.11 420.61,127.71 420.75,127.72C420.98,127.73 421.42,143.57 421.75,143.62C421.89,143.64 422.53,141.1 422.75,141.03C422.9,140.98 423.59,141.74 423.76,141.68C424.22,141.53 426.36,133.96 426.77,133.91C426.96,133.89 427.63,134.91 427.77,135.3C428.18,136.44 428.59,148.02 428.78,150.19C428.93,151.89 429.62,159.25 429.78,159.25C429.96,159.25 430.37,149.89 430.79,148.34C431.13,147.09 433.47,141.81 433.8,141.86C434.11,141.9 434.66,147.79 434.8,147.78C435.04,147.77 435.65,131.42 435.81,131.42C435.99,131.42 436.61,151.48 436.81,151.48C436.96,151.48 437.57,142.46 437.82,140.29C438.17,137.25 440.31,118.56 440.83,118.47C440.99,118.44 441.69,120.44 441.83,120.41C442.17,120.34 442.7,109.98 442.84,107.19C443.08,102.4 443.61,68.08 443.84,68.08C443.98,68.08 444.52,83.04 444.85,83.06C445.19,83.08 447.49,68.23 447.86,68.26C448.69,68.34 448.48,137.03 448.86,143.81C449,146.31 449.71,154.07 449.87,154.07C450.05,154.07 450.67,140.3 450.87,140.29C451.02,140.29 451.7,145.84 451.88,147.51C452.3,151.28 454.55,179.01 454.89,184.49C455.16,188.87 455.68,204.92 455.89,208.16C456.04,210.42 456.75,219.63 456.9,219.63C457.1,219.63 457.54,198.78 457.9,198.73C458.04,198.71 458.68,201.09 458.9,201.69C459.26,202.66 461.55,207.43 461.92,209.18C462.67,212.79 462.58,243.55 462.92,243.58C463.06,243.59 463.78,238.11 463.92,238.12C464.15,238.13 464.78,251.72 464.93,251.72C465.12,251.72 465.57,234.49 465.93,231.19C466.27,228.08 468.61,213.14 468.95,213.16C469.3,213.18 469.73,233.03 469.95,233.04C470.09,233.05 470.81,224.98 470.95,224.99C471.18,225 471.81,240.98 471.96,244.97C472.18,250.9 472.12,289.12 472.96,289.26C473.33,289.32 475.63,281.16 475.97,281.21C476.45,281.28 476.84,298.32 476.98,298.32C477.23,298.32 477.53,251.23 477.98,247.18C478.12,245.9 478.84,242.18 478.99,242.19C479.19,242.2 479.76,251.25 479.99,251.25C480.34,251.26 482.66,234.85 483,231.19C483.4,226.82 483.8,206.26 484.01,202.25C484.16,199.39 484.76,189.29 485.01,187.54C485.15,186.55 485.87,182.91 486.02,182.92C486.23,182.93 486.67,192.39 487.02,192.44C487.35,192.48 489.69,184.37 490.03,184.4C490.3,184.42 490.9,189.86 491.04,189.85C491.29,189.83 491.85,173.12 492.04,173.12C492.19,173.12 492.71,182.89 493.05,183.84C493.19,184.23 493.86,184.96 494.05,185.32C494.45,186.09 496.71,191.41 497.06,193.09C497.64,195.88 497.58,215.99 498.07,216.12C498.21,216.16 498.92,214.52 499.07,214.54C499.28,214.57 499.94,218.16 500.08,218.15C500.31,218.13 500.85,210.62 501.08,208.72C501.43,205.81 503.73,189.44 504.09,186.62C504.31,184.87 504.86,179.15 505.1,178.11C505.24,177.48 505.95,175.14 506.1,175.15C506.28,175.16 506.91,179.49 507.1,179.5C507.26,179.51 507.94,177.29 508.11,176.54C508.61,174.32 510.76,149.72 511.12,149.72C511.34,149.72 511.75,159.08 512.13,159.25C512.27,159.31 512.96,158.71 513.13,158.51C513.44,158.15 514.85,154.83 515.14,154.9C516.09,155.11 517.77,193.27 518.15,198.27C518.35,200.91 518.95,208.63 519.15,210.38C519.3,211.73 519.93,217.49 520.16,217.5C520.42,217.51 521.85,210.96 522.17,209.18C522.73,206.06 524.82,186.46 525.18,183.2C525.4,181.24 525.99,173.78 526.18,173.77C526.33,173.77 527.03,179.96 527.19,179.96C527.36,179.96 527.97,174.09 528.19,173.21C528.34,172.62 529.01,171.02 529.2,170.34C529.62,168.82 531.88,155.16 532.21,155.18C532.54,155.2 532.95,170.6 533.21,170.62C533.35,170.63 534.05,166 534.22,166C534.38,166 535.05,169.4 535.22,170.07C535.38,170.72 535.99,173.94 536.22,173.95C536.58,173.96 538.9,166.33 539.24,164.43C539.73,161.74 540.04,147.41 540.24,144.55C540.39,142.38 540.91,133.16 541.25,133.08C541.39,133.05 542.08,134.65 542.25,134.65C542.42,134.65 543.05,133.43 543.25,133.08C543.63,132.42 545.91,128.6 546.27,127.25C546.94,124.73 547.13,109.41 547.27,104.23C547.56,93.45 547.84,4.66 548.27,4.64C548.41,4.63 549.14,12.6 549.28,15.28C549.71,23.49 549.8,101.68 550.28,115.6C550.62,125.55 552.96,166.75 553.3,166.74C553.58,166.74 554,132.73 554.3,132.71C554.44,132.7 555.16,138.46 555.3,140.11C555.58,143.42 556.15,170.07 556.31,170.07C556.48,170.07 556.7,139.62 557.31,135.48C557.66,133.09 559.98,124.35 560.33,124.39C560.86,124.45 561.13,151.39 561.33,151.39C561.48,151.39 562.19,136.32 562.33,136.32C562.57,136.32 563.15,177.83 563.34,177.83C563.49,177.83 563.63,151.08 564.34,150.93C564.7,150.85 566.98,155.65 567.35,157.21C568.24,160.93 567.7,196.79 568.36,196.97C568.5,197.01 569.22,195.37 569.36,195.4C569.66,195.47 569.97,203.53 570.37,204C570.51,204.16 571.21,204.37 571.37,204.28C571.93,203.96 574.04,192.32 574.38,192.35C574.82,192.39 575.23,209.48 575.39,213.16C575.57,217.32 576.23,234.98 576.39,239.79C576.57,245.49 577.21,277.14 577.4,277.14C577.55,277.14 578.21,259.15 578.4,253.93C578.8,243.11 580.44,158.6 581.41,154.16C581.57,153.44 582.28,151.73 582.42,151.76C583.05,151.88 583.15,196.06 583.42,201.69C583.56,204.57 584.28,214.73 584.42,214.73C584.7,214.72 585.06,163.23 585.43,163.22C585.77,163.21 588.02,200.88 588.44,205.11C588.62,206.96 589.26,213.05 589.45,213.06C589.6,213.07 590.31,208.15 590.45,208.16C590.79,208.19 591.26,237.94 591.45,237.94C591.6,237.94 592.16,218.07 592.46,218.06C592.8,218.05 595.11,243.67 595.47,243.67C595.69,243.67 596.32,233.87 596.47,233.87C596.66,233.87 597.34,245.1 597.48,248.2C597.74,253.95 598.29,289.93 598.48,297.39C598.64,303.61 599.14,326 599.49,331.61C599.83,337.05 602.09,360.36 602.5,363.69C602.69,365.2 603.36,370.27 603.5,370.26C603.76,370.25 604.35,346.68 604.51,346.68C604.69,346.68 605.31,377.19 605.51,377.19C605.66,377.19 606.09,359.86 606.52,359.81C606.86,359.77 609.19,370.48 609.53,370.44C610,370.39 610.39,353.81 610.53,349.45C610.77,342.24 611.33,292.03 611.54,292.03C611.69,292.03 611.45,318.85 612.54,319.31C613.03,319.52 616.14,315.62 616.56,315.7C616.83,315.75 617.42,317.76 617.56,317.74C617.79,317.71 618.26,312.34 618.57,312.19C618.71,312.12 619.4,312.65 619.57,312.74C619.74,312.82 620.42,313.29 620.58,313.21C621.19,312.9 623.25,300.49 623.59,297.49C624.04,293.56 624.31,270.04 624.59,270.02C624.73,270.01 625.24,276.47 625.6,276.87C625.74,277.03 626.45,277.25 626.6,277.14C627.55,276.43 627.21,240.74 627.6,234.15C627.94,228.52 630.27,207.07 630.62,202.89C630.85,200.1 631.47,191.51 631.62,188.93C631.81,185.72 632.46,167.29 632.63,167.29C632.8,167.29 633.41,187.2 633.63,190.22C633.77,192.2 634.41,200.03 634.63,200.03C634.99,200.03 637.31,173.02 637.65,173.03C638.08,173.05 638.41,210.66 638.65,215.93C638.79,219.01 639.49,228.03 639.65,230.54C639.82,233.2 640.5,244.02 640.66,247C640.84,250.54 640.79,269.87 641.66,270.21C642.03,270.36 644.32,267.99 644.67,267.25C645.25,266.01 645.52,257.77 645.68,255.69C645.86,253.27 646.39,240 646.68,239.97C646.82,239.96 647.5,243.04 647.69,243.58C647.84,244.03 648.47,245.97 648.69,245.98C649.05,245.99 651.35,239.95 651.7,239.97C651.93,239.98 652.57,242.04 652.71,242.75C653.11,244.75 653.32,266.45 653.71,266.51C653.85,266.53 654.58,263.62 654.72,263.64C655.07,263.69 655.03,281.28 655.72,283.34C656.08,284.41 658.38,286.77 658.73,287.78C659.29,289.4 659.59,301.65 659.74,301.65C659.95,301.65 660.28,272.69 660.74,272.61C660.88,272.59 661.58,275.2 661.75,275.2C661.92,275.2 662.54,273.17 662.75,272.61C663.12,271.62 665.42,264.26 665.76,264.29C666.05,264.32 666.6,270.95 666.77,270.95C666.93,270.95 667.63,266.36 667.77,265.12C668.02,262.95 668.53,247.1 668.77,247.09C668.91,247.08 669.5,252.25 669.78,253.38C670.12,254.77 672.45,262.49 672.79,262.44C673.27,262.38 673.63,243.58 673.8,243.58C673.97,243.58 674.63,258.44 674.8,261.42C674.97,264.41 675.65,276.05 675.8,279.36C675.99,283.46 676.03,304.18 676.81,306.92C677.18,308.21 679.47,311 679.82,312.19C680.41,314.19 680.68,326.13 680.83,329.48C681.04,334.14 681.66,362.95 681.83,362.95C682,362.95 682.55,333.93 682.83,330.31C682.97,328.5 683.65,324.02 683.84,322.17C684.24,318.24 686,286.8 686.85,285.28C687.01,285 687.69,284.69 687.85,284.54C688.03,284.36 688.72,283.2 688.86,283.25C689.36,283.41 689.67,300.76 689.86,303.77C690.01,306.14 690.54,316.42 690.87,316.44C691.21,316.46 693.54,303.37 693.88,303.4C694.36,303.44 694.67,325.78 694.88,329.29C695.03,331.7 695.73,341.5 695.89,341.5C696.07,341.5 696.64,327.69 696.89,325.78C697.03,324.68 697.71,320.59 697.9,320.6C698.3,320.61 700.55,343.44 700.91,343.44C701.13,343.44 701.7,336.32 701.91,335.21C702.06,334.44 702.78,332.29 702.92,331.33C703.3,328.73 703.4,303.9 703.92,301.92C704.06,301.38 704.76,300.52 704.92,299.98C705.49,298.07 707.59,272.33 707.94,272.34C708.18,272.34 708.75,285 708.94,285C709.09,285 709.81,279.11 709.95,277.24C710.31,272.41 710.76,225.08 710.95,225.08C711.1,225.08 711.59,251.85 711.95,256.99C712.29,261.83 714.58,282.04 714.97,285.1Q715.16,286.59 715.97,291.75" style="vector-effect: none; fill: none; stroke: rgb(255, 73, 73); stroke-opacity: 1; stroke-width: 2px; opacity: 1;"/></g><g class="points"/><g class="text"/></g></g></g></g><g class="zerolinelayer-above"/><path class="xlines-above crisp" d="M63,440.5H788M63,59.5H788" style="fill: none; stroke-width: 1px; stroke: rgb(204, 204, 204); stroke-opacity: 1;"/><path class="ylines-above crisp" d="M63.5,60V440M787.5,60V440" style="fill: none; stroke-width: 1px; stroke: rgb(204, 204, 204); stroke-opacity: 1;"/><g class="overlines-above"/><g class="xaxislayer-above"><g class="xtick"><text text-anchor="middle" x="0" y="455.4" transform="translate(126.25999999999999,0)" style="font-family: Arial, sans-serif; font-size: 12px; fill: rgb(51, 51, 51); fill-opacity: 1; white-space: pre;">Oct 2024</text></g><g class="xtick"><text text-anchor="middle" x="0" y="455.4" style="font-family: Arial, sans-serif; font-size: 12px; fill: rgb(51, 51, 51); fill-opacity: 1; white-space: pre;" transform="translate(218.64,0)">Jan 2025</text></g><g class="xtick"><text text-anchor="middle" x="0" y="455.4" style="font-family: Arial, sans-serif; font-size: 12px; fill: rgb(51, 51, 51); fill-opacity: 1; white-space: pre;" transform="translate(309.02,0)">Apr 2025</text></g><g class="xtick"><text text-anchor="middle" x="0" y="455.4" style="font-family: Arial, sans-serif; font-size: 12px; fill: rgb(51, 51, 51); fill-opacity: 1; white-space: pre;" transform="translate(400.4,0)">Jul 2025</text></g><g class="xtick"><text text-anchor="middle" x="0" y="455.4" style="font-family: Arial, sans-serif; font-size: 12px; fill: rgb(51, 51, 51); fill-opacity: 1; white-space: pre;" transform="translate(492.78,0)">Oct 2025</text></g><g class="xtick"><text text-anchor="middle" x="0" y="455.4" style="font-family: Arial, sans-serif; font-size: 12px; fill: rgb(51, 51, 51); fill-opacity: 1; white-space: pre;" transform="translate(585.16,0)">Jan 2026</text></g><g class="xtick"><text text-anchor="middle" x="0" y="455.4" style="font-family: Arial, sans-serif; font-size: 12px; fill: rgb(51, 51, 51); fill-opacity: 1; white-space: pre;" transform="translate(675.54,0)">Apr 2026</text></g><g class="xtick"><text text-anchor="middle" x="0" y="455.4" style="font-family: Arial, sans-serif; font-size: 12px; fill: rgb(51, 51, 51); fill-opacity: 1; white-space: pre;" transform="translate(766.92,0)">Jul 2026</text></g></g><g class="yaxislayer-above"><path class="ytick ticks crisp" d="M63,0h-6" transform="translate(0,435.53)" style="stroke: rgb(255, 255, 255); stroke-opacity: 1; stroke-width: 1px;"/><path class="ytick ticks crisp" d="M63,0h-6" transform="translate(0,389.29)" style="stroke: rgb(255, 255, 255); stroke-opacity: 1; stroke-width: 1px;"/><path class="ytick ticks crisp" d="M63,0h-6" transform="translate(0,343.06)" style="stroke: rgb(255, 255, 255); stroke-opacity: 1; stroke-width: 1px;"/><path class="ytick ticks crisp" d="M63,0h-6" transform="translate(0,296.83000000000004)" style="stroke: rgb(255, 255, 255); stroke-opacity: 1; stroke-width: 1px;"/><path class="ytick ticks crisp" d="M63,0h-6" transform="translate(0,250.59)" style="stroke: rgb(255, 255, 255); stroke-opacity: 1; stroke-width: 1px;"/><path class="ytick ticks crisp" d="M63,0h-6" transform="translate(0,204.36)" style="stroke: rgb(255, 255, 255); stroke-opacity: 1; stroke-width: 1px;"/><path class="ytick ticks crisp" d="M63,0h-6" transform="translate(0,158.13)" style="stroke: rgb(255, 255, 255); stroke-opacity: 1; stroke-width: 1px;"/><path class="ytick ticks crisp" d="M63,0h-6" transform="translate(0,111.89)" style="stroke: rgb(255, 255, 255); stroke-opacity: 1; stroke-width: 1px;"/><path class="ytick ticks crisp" d="M63,0h-6" transform="translate(0,65.66)" style="stroke: rgb(255, 255, 255); stroke-opacity: 1; stroke-width: 1px;"/><g class="ytick"><text text-anchor="end" x="54.6" y="4.199999999999999" transform="translate(0,435.53)" style="font-family: Arial, sans-serif; font-size: 12px; fill: rgb(51, 51, 51); fill-opacity: 1; white-space: pre;">−15</text></g><g class="ytick"><text text-anchor="end" x="54.6" y="4.199999999999999" style="font-family: Arial, sans-serif; font-size: 12px; fill: rgb(51, 51, 51); fill-opacity: 1; white-space: pre;" transform="translate(0,389.29)">−10</text></g><g class="ytick"><text text-anchor="end" x="54.6" y="4.199999999999999" style="font-family: Arial, sans-serif; font-size: 12px; fill: rgb(51, 51, 51); fill-opacity: 1; white-space: pre;" transform="translate(0,343.06)">−5</text></g><g class="ytick"><text text-anchor="end" x="54.6" y="4.199999999999999" style="font-family: Arial, sans-serif; font-size: 12px; fill: rgb(51, 51, 51); fill-opacity: 1; white-space: pre;" transform="translate(0,296.83000000000004)">0</text></g><g class="ytick"><text text-anchor="end" x="54.6" y="4.199999999999999" style="font-family: Arial, sans-serif; font-size: 12px; fill: rgb(51, 51, 51); fill-opacity: 1; white-space: pre;" transform="translate(0,250.59)">5</text></g><g class="ytick"><text text-anchor="end" x="54.6" y="4.199999999999999" style="font-family: Arial, sans-serif; font-size: 12px; fill: rgb(51, 51, 51); fill-opacity: 1; white-space: pre;" transform="translate(0,204.36)">10</text></g><g class="ytick"><text text-anchor="end" x="54.6" y="4.199999999999999" style="font-family: Arial, sans-serif; font-size: 12px; fill: rgb(51, 51, 51); fill-opacity: 1; white-space: pre;" transform="translate(0,158.13)">15</text></g><g class="ytick"><text text-anchor="end" x="54.6" y="4.199999999999999" style="font-family: Arial, sans-serif; font-size: 12px; fill: rgb(51, 51, 51); fill-opacity: 1; white-space: pre;" transform="translate(0,111.89)">20</text></g><g class="ytick"><text text-anchor="end" x="54.6" y="4.199999999999999" style="font-family: Arial, sans-serif; font-size: 12px; fill: rgb(51, 51, 51); fill-opacity: 1; white-space: pre;" transform="translate(0,65.66)">25</text></g></g><g class="overaxes-above"/></g></g><g class="polarlayer"/><g class="smithlayer"/><g class="ternarylayer"/><g class="geolayer"/><g class="funnelarealayer"/><g class="pielayer"/><g class="iciclelayer"/><g class="treemaplayer"/><g class="sunburstlayer"/><g class="glimages"/><defs id="topdefs-985424"><g class="clips"/></defs><g class="layer-above"><g class="imagelayer"/><g class="shapelayer"><g class="shape-group" data-index="0" clip-path="url(#clip985424y)"><path data-index="0" fill-rule="evenodd" d="M64,351.38L787,351.38" style="opacity: 1; stroke: rgb(136, 136, 136); stroke-opacity: 1; fill: rgb(0, 0, 0); fill-opacity: 0; stroke-dasharray: 3px, 3px; stroke-width: 1px;"/></g><g class="shape-group" data-index="1" clip-path="url(#clip985424y)"><path data-index="1" fill-rule="evenodd" d="M64,296.83000000000004L787,296.83000000000004" style="opacity: 1; stroke: rgb(204, 204, 204); stroke-opacity: 1; fill: rgb(0, 0, 0); fill-opacity: 0; stroke-width: 1px;"/></g></g></g><g class="infolayer"><g class="g-gtitle"><text class="gtitle" x="400" y="30" text-anchor="middle" dy="0em" style="opacity: 1; font-family: Arial, sans-serif; font-size: 16px; fill: rgb(51, 51, 51); fill-opacity: 1; white-space: pre;"><tspan style="font-weight:bold">21-Day Return</tspan></text></g><g class="g-xtitle"><text class="xtitle" x="425.5" y="482.000390625" text-anchor="middle" style="opacity: 1; font-family: Arial, sans-serif; font-size: 13px; fill: rgb(51, 51, 51); fill-opacity: 1; white-space: pre;"><tspan style="font-weight:bold">Last 104 Weeks</tspan></text></g><g class="g-ytitle"><text class="ytitle" transform="rotate(-90,15.190234375000003,250)" x="15.190234375000003" y="250" text-anchor="middle" style="opacity: 1; font-family: Arial, sans-serif; font-size: 13px; fill: rgb(51, 51, 51); fill-opacity: 1; white-space: pre;"><tspan style="font-weight:bold">Return (%)</tspan></text></g><g class="annotation" data-index="0" style="opacity: 1;"><g class="annotation-text-g" transform="rotate(0,45.7404,351.29)"><g class="cursor-pointer" transform="translate(31,340)"><rect class="bg" x="0.5" y="0.5" width="28" height="21" style="stroke-width: 1px; stroke: rgb(0, 0, 0); stroke-opacity: 0; fill: rgb(255, 255, 255); fill-opacity: 1;"/><text class="annotation-text" text-anchor="middle" x="14.34375" y="15" style="font-family: Arial, sans-serif; font-size: 12px; fill: rgb(51, 51, 51); fill-opacity: 1; white-space: pre;">-5.9</text></g></g></g></g></svg>