<svg class="main-svg" xmlns="http://www.w3.org/2000/svg" xmlns:xlink="http://www.w3.org/1999/xlink" width="800" height="600" style="" viewBox="0 0 800 600"><rect x="0" y="0" width="800" height="600" style="fill: rgb(255, 255, 255); fill-opacity: 1;"/><defs id="defs-e61500"><g class="clips"><clipPath id="clipe61500xyplot" class="plotclip"><rect width="726" height="211.6"/></clipPath><clipPath id="clipe61500x2y2plot" class="plotclip"><rect width="726" height="211.60000000000002"/></clipPath><clipPath class="axesclip" id="clipe61500x"><rect x="63" y="0" width="726" height="600"/></clipPath><clipPath class="axesclip" id="clipe61500y"><rect x="0" y="80" width="800" height="211.6"/></clipPath><clipPath class="axesclip" id="clipe61500xy"><rect x="63" y="80" width="726" height="211.6"/></clipPath><clipPath class="axesclip" id="clipe61500y2"><rect x="0" y="328.4" width="800" height="211.60000000000002"/></clipPath><clipPath class="axesclip" id="clipe61500xy2"><rect x="63" y="328.4" width="726" height="211.60000000000002"/></clipPath><clipPath class="axesclip" id="clipe61500x2"><rect x="63" y="0" width="726" height="600"/></clipPath><clipPath class="axesclip" id="clipe61500x2y"><rect x="63" y="80" width="726" height="211.6"/></clipPath><clipPath class="axesclip" id="clipe61500x2y2"><rect x="63" y="328.4" width="726" height="211.60000000000002"/></clipPath></g><g class="gradients"/><g class="patterns"/></defs><g class="bglayer"/><g class="layer-below"><g class="imagelayer"/><g class="shapelayer"/></g><g class="cartesianlayer"><g class="subplot xy"><g class="layer-subplot"><g class="shapelayer"/><g class="imagelayer"/></g><g class="minor-gridlayer"><g class="x"/><g class="y"/></g><g class="gridlayer"><g class="x"><path class="xgrid crisp" transform="translate(144.12,0)" d="M0,80v211.6" style="stroke: rgb(204, 204, 204); stroke-opacity: 1; stroke-width: 1px;"/><path class="xgrid crisp" transform="translate(267.82,0)" d="M0,80v211.6" style="stroke: rgb(204, 204, 204); stroke-opacity: 1; stroke-width: 1px;"/><path class="xgrid crisp" transform="translate(391.53,0)" d="M0,80v211.6" style="stroke: rgb(204, 204, 204); stroke-opacity: 1; stroke-width: 1px;"/><path class="xgrid crisp" transform="translate(511.17,0)" d="M0,80v211.6" style="stroke: rgb(204, 204, 204); stroke-opacity: 1; stroke-width: 1px;"/><path class="xgrid crisp" transform="translate(634.88,0)" d="M0,80v211.6" style="stroke: rgb(204, 204, 204); stroke-opacity: 1; stroke-width: 1px;"/><path class="xgrid crisp" transform="translate(758.58,0)" d="M0,80v211.6" style="stroke: rgb(204, 204, 204); stroke-opacity: 1; stroke-width: 1px;"/></g><g class="y"><path class="ygrid crisp" transform="translate(0,267.19)" d="M63,0h726" style="stroke: rgb(204, 204, 204); stroke-opacity: 1; stroke-width: 1px;"/><path class="ygrid crisp" transform="translate(0,219.8)" d="M63,0h726" style="stroke: rgb(204, 204, 204); stroke-opacity: 1; stroke-width: 1px;"/><path class="ygrid crisp" transform="translate(0,172.42000000000002)" d="M63,0h726" style="stroke: rgb(204, 204, 204); stroke-opacity: 1; stroke-width: 1px;"/><path class="ygrid crisp" transform="translate(0,125.03)" d="M63,0h726" style="stroke: rgb(204, 204, 204); stroke-opacity: 1; stroke-width: 1px;"/></g></g><g class="zerolinelayer"/><g class="layer-between"><g class="shapelayer"/><g class="imagelayer"/></g><path class="xlines-below"/><path class="ylines-below"/><g class="overlines-below"/><g class="xaxislayer-below"/><g class="yaxislayer-below"/><g class="overaxes-below"/><g class="overplot"><g class="xy" transform="translate(63,80)" clip-path="url(#clipe61500xyplot)"><g class="scatterlayer mlayer"><g class="trace scatter trace709547" style="stroke-miterlimit: 2; opacity: 1;"><g class="fills"/><g class="errorbars"/><g class="lines"><path class="js-line" d="M0,197.86Q1.71,199.3 2.03,199.66C2.39,200.07 3.55,202.19 4.06,202.58C4.75,203.11 9.41,204.8 10.14,204.75C10.58,204.72 11.88,203.58 12.17,203.69C12.61,203.85 13.77,208.38 14.2,208.5C14.49,208.58 15.93,207.43 16.22,207.02C16.7,206.33 17.52,200.82 18.25,200.18C18.93,199.58 23.6,199.36 24.34,199.17C24.77,199.06 26.03,198.4 26.36,198.43C26.7,198.46 28.07,199.66 28.39,199.6C28.76,199.53 30.04,197.37 30.42,197.14C30.73,196.96 32.05,196.65 32.45,196.76C33.23,196.97 37.75,201.89 38.53,202.08C38.93,202.18 40.22,201.67 40.56,201.57C40.9,201.47 42.27,200.77 42.59,200.84C42.95,200.92 44.24,202.65 44.61,202.79C44.92,202.91 46.21,202.7 46.64,202.7C47.38,202.7 52.01,202.79 52.73,203.05C53.19,203.22 54.44,204.63 54.75,204.58C55.12,204.52 56.39,201.85 56.78,201.72C57.09,201.62 58.51,202.49 58.81,202.38C59.21,202.24 60.3,199.47 60.84,199.21C61.53,198.88 66.23,200.14 66.92,199.84C67.43,199.62 68.56,197.47 68.95,197.24C69.26,197.05 70.66,197.03 70.98,196.87C71.35,196.69 72.69,195.41 73.01,195.04C73.38,194.62 74.52,192.43 75.03,192C75.72,191.42 80.44,190.08 81.12,189.37C81.75,188.7 82.74,184.62 83.15,183.93C83.45,183.42 84.8,181.64 85.17,181.58C85.49,181.52 86.9,182.82 87.2,182.73C87.62,182.6 88.68,179.06 89.23,178.42C89.91,177.62 94.55,174.45 95.31,174.34C95.72,174.28 97.01,174.99 97.34,174.96C97.69,174.93 99.02,173.9 99.37,173.87C99.7,173.84 101.07,174.51 101.4,174.49C101.74,174.47 103,173.84 103.42,173.63C104.17,173.26 108.77,170.6 109.51,170.19C109.94,169.95 111.23,169.02 111.54,169.09C111.92,169.18 113.19,171.6 113.56,171.99C113.87,172.32 115.29,173.61 115.59,173.54C115.99,173.45 117.12,170.35 117.62,169.68C118.32,168.74 122.94,164.4 123.7,163.74C124.12,163.38 125.41,162.14 125.73,162.18C126.09,162.23 127.39,164.75 127.76,164.81C128.08,164.87 129.46,163.77 129.79,163.52C130.14,163.26 131.4,162.13 131.82,161.73C132.57,161.02 137.17,156.42 137.9,155.62C138.34,155.13 139.55,153.43 139.93,153.18C140.24,152.97 141.62,152.55 141.96,152.56C142.3,152.57 143.67,153.37 143.98,153.28C144.37,153.16 145.57,151.1 146.01,150.55C146.74,149.64 151.35,144.33 152.09,143.47C152.52,142.98 153.82,141.65 154.12,141.15C154.53,140.47 155.82,135.76 156.15,135.77C156.5,135.78 157.79,141.97 158.18,142.01C158.49,142.04 159.77,139.26 160.21,138.55C160.94,137.38 165.55,130.57 166.29,129.44C166.72,128.78 168.02,126.94 168.32,126.3C168.72,125.46 170.05,121.27 170.35,120.06C170.75,118.46 171.99,108.69 172.37,108.67C172.68,108.66 173.85,116.02 174.4,116.1C175.09,116.2 179.8,105.85 180.49,106.01C181.44,106.23 181.75,126.29 182.51,128.02C182.79,128.66 184.2,130.27 184.54,130.26C184.88,130.25 186.21,127.91 186.57,127.86C186.89,127.81 188.24,128.79 188.6,129.2C189.47,130.18 193.89,140.21 194.68,141.52C195.08,142.18 196.35,143.92 196.71,144.34C197.03,144.72 198.46,146.46 198.74,146.38C199.25,146.23 200.26,137.63 200.77,137.47C201.05,137.38 202.31,139.18 202.79,139.38C203.5,139.67 208.2,139.03 208.88,139.55C209.6,140.1 210.54,146.2 210.91,146.22C211.22,146.24 212.48,141.94 212.93,141.69C213.22,141.53 214.65,142.06 214.96,141.95C215.34,141.81 216.6,140.26 216.99,139.71C217.78,138.6 222.21,129.62 223.07,128.81C223.44,128.47 224.81,128.16 225.1,127.83C225.6,127.25 226.69,121.38 227.13,121.29C227.42,121.23 228.87,123.04 229.16,123.59C229.64,124.51 230.43,130.93 231.18,131.93C231.86,132.83 236.55,135.51 237.27,135.42C237.73,135.36 238.94,133.71 239.3,133.45C239.62,133.22 240.97,132.46 241.32,132.39C241.65,132.32 243.03,132.41 243.35,132.52C243.71,132.65 244.98,134 245.38,133.95C246.16,133.85 250.65,127.05 251.46,126.81C251.84,126.69 253.19,127.51 253.49,127.4C253.89,127.26 255.12,124.57 255.52,124.39C255.82,124.25 257.26,124.84 257.55,124.67C258.04,124.38 258.92,119.73 259.58,119.16C260.26,118.57 264.96,117.62 265.66,117.86C266.16,118.03 267.31,120.06 267.69,120.27C268,120.44 269.38,120.58 269.72,120.56C270.06,120.54 271.41,120.04 271.74,120.07C272.08,120.1 273.33,120.84 273.77,120.96C274.5,121.17 279.14,121.99 279.85,121.78C280.32,121.64 281.54,120.36 281.88,120.08C282.22,119.8 283.61,118.82 283.91,118.42C284.34,117.83 285.51,113.85 285.94,113.26C286.24,112.85 287.5,111.76 287.97,111.56C288.68,111.26 293.31,110.91 294.05,110.9C294.48,110.9 295.78,111.23 296.08,111.08C296.49,110.87 297.7,107.9 298.11,107.75C298.41,107.64 299.8,108.46 300.13,108.43C300.47,108.4 301.78,107.67 302.16,107.32C302.99,106.54 307.52,98.93 308.25,97.68C308.69,96.92 309.84,94.12 310.27,93.91C310.57,93.76 311.94,94.38 312.3,94.25C312.92,94.02 315.72,89.3 316.36,89.43C317.49,89.65 321.41,107.66 322.44,108.24C322.78,108.43 324.15,107.66 324.47,107.74C324.83,107.83 326.07,109.4 326.5,109.49C327.04,109.61 329.91,108.85 330.55,108.34C331.66,107.46 335.92,98.9 336.64,97.46C337.1,96.54 338.3,92.88 338.66,92.86C338.98,92.84 340.31,96.44 340.69,96.49C341,96.53 342.4,94.87 342.72,94.48C343.08,94.04 344.31,92.04 344.75,91.41C345.48,90.35 350.02,83.21 350.83,83.04C351.22,82.96 352.56,84.32 352.86,84.23C353.27,84.11 354.48,80.5 354.89,80.37C355.19,80.28 356.6,81.22 356.92,81.45C357.27,81.7 358.53,83.38 358.94,83.35C359.71,83.29 364.35,76.96 365.03,75.57C365.65,74.3 366.7,68.73 367.06,67.47C367.38,66.34 368.77,62.32 369.08,61.13C369.46,59.66 370.7,52.49 371.11,51.13C371.41,50.15 372.53,46.79 373.14,46.2C373.82,45.55 378.52,44.84 379.22,43.95C380.33,42.55 380.94,30.76 381.25,27.84C381.62,24.38 382.65,5.26 383.28,5.14C383.56,5.09 385.03,8.15 385.31,9.25C386.21,12.77 386.33,49.6 387.34,55.83C388.03,60.13 392.74,77.3 393.42,77.23C394.17,77.15 394.55,51.79 395.45,50.02C395.73,49.47 397.19,48.2 397.47,48.31C398.19,48.6 399.16,66.02 399.5,66.02C399.84,66.02 400.63,50.33 401.53,47.96C402.22,46.16 406.88,39.38 407.61,39.41C408.06,39.43 409.33,42.81 409.64,42.78C410.03,42.74 411.38,36.95 411.67,36.98C412.13,37.03 413.33,52.39 413.7,52.4C414.02,52.41 414.9,41.13 415.73,40.82C416.41,40.57 421.13,44.72 421.81,45.87C422.6,47.21 423.49,56.47 423.84,56.47C424.17,56.47 425.37,48.26 425.87,47.26C426.15,46.69 427.61,45.47 427.89,44.89C428.41,43.82 429.31,36.38 429.92,34.69C430.6,32.82 435.33,23.4 436.01,23.49C436.57,23.56 437.55,31.69 438.03,31.8C438.32,31.87 439.71,29.78 440.06,29.42C440.39,29.08 441.81,28.02 442.09,27.53C442.6,26.64 443.37,19.8 444.12,18.69C444.8,17.69 449.49,14.12 450.2,14.45C451.44,15.03 451.63,36.52 452.23,36.62C452.51,36.67 453.93,32.19 454.26,32.2C454.6,32.21 455.97,37.06 456.28,37.04C456.65,37.02 457.58,30.38 458.31,29.98C458.99,29.61 463.72,32.13 464.4,31.81C465.01,31.53 465.98,27.28 466.42,27.11C466.71,27 468.17,27.67 468.45,28.02C469.04,28.75 470.08,36.2 470.48,37.55C470.78,38.59 471.86,42.37 472.51,42.94C473.19,43.53 477.84,44.29 478.59,44.38C479.02,44.43 480.34,44.13 480.62,44.38C481.46,45.13 482.3,59.27 482.65,62.15C482.98,64.89 484.34,75.52 484.68,78.16C485.01,80.74 485.84,91.47 486.7,93.49C487.38,95.1 492.11,101.24 492.79,101.12C493.35,101.02 494.47,95.95 494.82,94.97C495.15,94.05 496.55,89.65 496.84,89.68C497.3,89.73 498.51,103.71 498.87,103.72C499.19,103.73 500,93.91 500.9,92.89C501.59,92.12 506.28,91.8 506.98,90.97C508.06,89.68 508.64,78.17 509.01,75.89C509.32,73.98 510.7,65.39 511.04,65.39C511.38,65.39 512.12,74.58 513.07,75.63C513.93,76.58 520.34,78.54 521.18,78.13C521.87,77.79 522.76,73.3 523.21,72.75C523.5,72.4 524.93,71.84 525.23,71.52C525.64,71.07 526.84,67.6 527.26,67.47C527.56,67.38 528.84,68.43 529.29,68.57C530.02,68.79 534.69,69.65 535.37,69.15C536.22,68.54 537,60.04 537.4,60.01C537.7,59.98 538.96,64.59 539.43,64.93C539.72,65.14 541.17,65.25 541.46,65.08C541.91,64.82 542.9,61.11 543.49,60.81C544.17,60.47 548.89,61.3 549.57,61.97C550.43,62.81 551.06,71.27 551.6,71.45C551.88,71.55 553.32,69.64 553.63,69.7C554.02,69.78 555.24,73.49 555.65,73.62C555.95,73.72 557.25,72.61 557.68,72.59C558.42,72.56 563.09,74.28 563.77,75.06C564.54,75.95 565.4,82.11 565.79,83.28C566.1,84.2 567.51,88.08 567.82,88.06C568.2,88.04 569.33,81 569.85,80.77C570.13,80.64 571.5,81.44 571.88,81.76C572.7,82.45 577.23,90.24 577.96,90.22C578.4,90.21 579.71,87.85 579.99,87.11C580.52,85.73 581.32,74.73 582.02,74.27C582.3,74.08 583.74,74.88 584.04,74.77C584.43,74.63 585.56,72.33 586.07,71.96C586.76,71.46 591.45,69.92 592.16,70.09C592.63,70.2 593.86,71.67 594.18,72.04C594.53,72.44 595.88,74.27 596.21,74.75C596.56,75.27 597.95,77.36 598.24,78.09C598.7,79.27 599.41,87.37 600.27,87.88C600.95,88.29 605.67,85.68 606.35,86.06C607.12,86.49 608,93.95 608.38,93.97C608.69,93.99 609.94,89.18 610.41,88.78C610.7,88.54 612.13,88.24 612.44,88.35C612.82,88.49 614,90.78 614.46,90.83C615.18,90.9 619.87,85.65 620.55,85.84C621.14,86 622.24,90.53 622.58,91.44C622.91,92.32 624.24,96.58 624.6,96.6C624.92,96.62 626.3,93.5 626.63,92.85C626.98,92.17 628.13,88.75 628.66,88.64C629.35,88.5 633.96,93.65 634.74,93.84C635.14,93.94 636.48,93.21 636.77,93.36C637.24,93.61 638.44,98.57 638.8,98.59C639.12,98.61 640.55,94.67 640.83,94.72C641.34,94.81 641.8,107.52 642.85,108.43C643.55,109.03 648.26,107.9 648.94,108.4C649.66,108.93 650.68,113.67 650.97,115.07C651.43,117.32 652.62,132.96 652.99,132.97C653.31,132.98 654.33,120.55 655.02,119.65C655.3,119.28 656.67,119.06 657.05,118.76C657.87,118.1 662.36,111.35 663.13,110.45C663.54,109.97 664.87,108.33 665.16,108.4C665.62,108.52 666.82,114.29 667.19,115.31C667.5,116.16 668.89,119.09 669.22,119.9C669.57,120.77 670.64,125.21 671.25,125.42C671.93,125.65 676.65,121.37 677.33,121.64C678.04,121.92 679.05,127.79 679.36,129.16C679.73,130.78 680.88,139.72 681.39,139.84C681.67,139.91 683.11,137.78 683.41,137.23C683.82,136.48 684.88,131.54 685.44,131.43C686.12,131.29 690.73,137.7 691.53,138.26C691.92,138.53 693.24,139.14 693.55,139.07C693.92,138.99 695.29,137.38 695.58,136.84C696.07,135.9 697.21,129.36 697.61,128.17C697.91,127.28 699.03,124.03 699.64,123.67C700.32,123.27 705.04,123.66 705.72,124.18C706.39,124.69 707.36,129.02 707.75,129.78C708.06,130.37 709.47,132.75 709.78,132.72C710.15,132.68 711.34,128.33 711.8,128.07C712.09,127.91 713.47,128.1 713.83,128.35C714.72,128.97 719.2,139.67 719.92,139.63Q720.38,139.61 721.94,134.71" style="vector-effect: none; fill: none; stroke: rgb(0, 73, 25); stroke-opacity: 1; stroke-width: 2px; opacity: 1;"/></g><g class="points"/><g class="text"/></g></g></g></g><g class="zerolinelayer-above"/><path class="xlines-above crisp" d="M62,292.1H790M62,79.5H790" style="fill: none; stroke-width: 1px; stroke: rgb(204, 204, 204); stroke-opacity: 1;"/><path class="ylines-above crisp" d="M62.5,80V291.6M789.5,80V291.6" style="fill: none; stroke-width: 1px; stroke: rgb(204, 204, 204); stroke-opacity: 1;"/><g class="overlines-above"/><g class="xaxislayer-above"/><g class="yaxislayer-above"><path class="ytick ticks crisp" d="M62,0h-6" transform="translate(0,267.19)" style="stroke: rgb(255, 255, 255); stroke-opacity: 1; stroke-width: 1px;"/><path class="ytick ticks crisp" d="M62,0h-6" transform="translate(0,219.8)" style="stroke: rgb(255, 255, 255); stroke-opacity: 1; stroke-width: 1px;"/><path class="ytick ticks crisp" d="M62,0h-6" transform="translate(0,172.42000000000002)" style="stroke: rgb(255, 255, 255); stroke-opacity: 1; stroke-width: 1px;"/><path class="ytick ticks crisp" d="M62,0h-6" transform="translate(0,125.03)" style="stroke: rgb(255, 255, 255); stroke-opacity: 1; stroke-width: 1px;"/><g class="ytick"><text text-anchor="end" x="53.6" y="4.199999999999999" transform="translate(0,267.19)" style="font-family: Arial, sans-serif; font-size: 12px; fill: rgb(51, 51, 51); fill-opacity: 1; white-space: pre;">3500.00</text></g><g class="ytick"><text text-anchor="end" x="53.6" y="4.199999999999999" style="font-family: Arial, sans-serif; font-size: 12px; fill: rgb(51, 51, 51); fill-opacity: 1; white-space: pre;" transform="translate(0,219.8)">4000.00</text></g><g class="ytick"><text text-anchor="end" x="53.6" y="4.199999999999999" style="font-family: Arial, sans-serif; font-size: 12px; fill: rgb(51, 51, 51); fill-opacity: 1; white-space: pre;" transform="translate(0,172.42000000000002)">4500.00</text></g><g class="ytick"><text text-anchor="end" x="53.6" y="4.199999999999999" style="font-family: Arial, sans-serif; font-size: 12px; fill: rgb(51, 51, 51); fill-opacity: 1; white-space: pre;" transform="translate(0,125.03)">5000.00</text></g></g><g class="overaxes-above"/></g><g class="subplot x2y2"><g class="layer-subplot"><g class="shapelayer"/><g class="imagelayer"/></g><g class="minor-gridlayer"><g class="x2"/><g class="y2"/></g><g class="gridlayer"><g class="x2"><path class="x2grid crisp" transform="translate(144.12,0)" d="M0,328.4v211.60000000000002" style="stroke: rgb(204, 204, 204); stroke-opacity: 1; stroke-width: 1px;"/><path class="x2grid crisp" transform="translate(267.82,0)" d="M0,328.4v211.60000000000002" style="stroke: rgb(204, 204, 204); stroke-opacity: 1; stroke-width: 1px;"/><path class="x2grid crisp" transform="translate(391.53,0)" d="M0,328.4v211.60000000000002" style="stroke: rgb(204, 204, 204); stroke-opacity: 1; stroke-width: 1px;"/><path class="x2grid crisp" transform="translate(511.17,0)" d="M0,328.4v211.60000000000002" style="stroke: rgb(204, 204, 204); stroke-opacity: 1; stroke-width: 1px;"/><path class="x2grid crisp" transform="translate(634.88,0)" d="M0,328.4v211.60000000000002" style="stroke: rgb(204, 204, 204); stroke-opacity: 1; stroke-width: 1px;"/><path class="x2grid crisp" transform="translate(758.58,0)" d="M0,328.4v211.60000000000002" style="stroke: rgb(204, 204, 204); stroke-opacity: 1; stroke-width: 1px;"/></g><g class="y2"><path class="y2grid crisp" transform="translate(0,491.93999999999994)" d="M63,0h726" style="stroke: rgb(204, 204, 204); stroke-opacity: 1; stroke-width: 1px;"/><path class="y2grid crisp" transform="translate(0,453.7)" d="M63,0h726" style="stroke: rgb(204, 204, 204); stroke-opacity: 1; stroke-width: 1px;"/><path class="y2grid crisp" transform="translate(0,415.46)" d="M63,0h726" style="stroke: rgb(204, 204, 204); stroke-opacity: 1; stroke-width: 1px;"/><path class="y2grid crisp" transform="translate(0,377.21999999999997)" d="M63,0h726" style="stroke: rgb(204, 204, 204); stroke-opacity: 1; stroke-width: 1px;"/><path class="y2grid crisp" transform="translate(0,338.97999999999996)" d="M63,0h726" style="stroke: rgb(204, 204, 204); stroke-opacity: 1; stroke-width: 1px;"/></g></g><g class="zerolinelayer"><path class="y2zl zl crisp" transform="translate(0,530.18)" d="M63,0h726" style="stroke: rgb(255, 255, 255); stroke-opacity: 1; stroke-width: 2px;"/></g><g class="layer-between"><g class="shapelayer"/><g class="imagelayer"/></g><path class="xlines-below"/><path class="ylines-below"/><g class="overlines-below"/><g class="xaxislayer-below"/><g class="yaxislayer-below"/><g class="overaxes-below"/><g class="overplot"><g class="x2y2" transform="translate(63,328.4)" clip-path="url(#clipe61500x2y2plot)"><g class="scatterlayer mlayer"><g class="trace scatter tracef126b6" style="stroke-miterlimit: 2; opacity: 1;"><g class="fills"/><g class="errorbars"/><g class="lines"><path class="js-line" d="M0,116.8Q1.74,114.42 2.03,113.77C2.46,112.82 3.69,106.16 4.06,106.18C4.9,106.23 9.45,140.63 10.14,146.39C10.66,150.71 11.84,169.15 12.17,169.15C12.52,169.15 13.2,143.23 14.2,142.6C14.48,142.42 15.93,143.55 16.22,143.36C17.6,142.45 16.05,97.18 18.25,94.8C19.03,93.95 23.61,94.22 24.34,94.04C24.78,93.93 26.08,93.14 26.36,93.28C26.87,93.54 27.97,100.05 28.39,100.11C28.69,100.16 30.02,97.29 30.42,97.07C30.72,96.91 32.08,97.27 32.45,97.07C33.3,96.61 37.68,88.43 38.53,87.97C38.9,87.77 40.24,87.86 40.56,87.97C40.92,88.09 42.23,89.37 42.59,89.49C42.91,89.6 44.27,89.49 44.61,89.49C44.95,89.49 46.21,89.49 46.64,89.49C47.38,89.49 52.03,88.88 52.73,89.49C53.81,90.43 54,103.25 54.75,103.9C55.03,104.14 56.5,103.65 56.78,103.9C57.63,104.66 58.39,122.09 58.81,122.11C59.11,122.13 60.29,113.07 60.84,113.01C61.52,112.93 66.2,125.94 66.92,125.91C67.38,125.89 68.48,120.81 68.95,120.6C69.24,120.47 70.69,120.95 70.98,121.35C72.34,123.21 72.57,168.38 73.01,168.39C73.3,168.4 74.58,147.91 75.03,147.91C75.75,147.9 80.42,201.03 81.12,201.02C81.63,201.01 82.12,174.32 83.15,172.95C83.43,172.57 84.83,172.25 85.17,172.19C85.5,172.13 86.92,172.45 87.2,172.19C88.17,171.3 88.6,152.69 89.23,148.67C89.91,144.35 94.62,122.05 95.31,122.11C96.27,122.2 95.85,173.02 97.34,174.46C97.63,174.74 99.03,174.46 99.37,174.46C99.71,174.46 101.08,174.35 101.4,174.46C101.76,174.58 103.04,176.05 103.42,175.98C104.23,175.83 108.73,167.17 109.51,166.12C109.91,165.58 111.26,164.45 111.54,163.84C112.15,162.52 113.24,149.43 113.56,149.43C113.92,149.44 115.28,167.65 115.59,167.64C115.97,167.63 117.02,145.74 117.62,141.08C118.3,135.82 122.73,110.47 123.7,107.7C124.04,106.71 125.36,103.94 125.73,103.9C126.04,103.86 127.42,106.18 127.76,106.18C128.1,106.18 129.45,103.9 129.79,103.9C130.13,103.9 131.47,106.26 131.82,106.18C132.73,105.99 137.04,87.33 137.9,87.21C138.27,87.16 139.65,89.42 139.93,90.25C140.74,92.64 141.54,116.42 141.96,120.6C142.26,123.57 143.64,135.77 143.98,135.77C144.31,135.77 145.49,124.07 146.01,121.35C146.7,117.74 151.37,96.31 152.09,96.32C152.54,96.33 153.82,106.19 154.12,106.18C154.53,106.16 155.63,89.38 156.15,87.21C156.43,86.03 157.71,82.36 158.18,81.9C158.47,81.61 159.87,81.48 160.21,81.14C161.18,80.18 165.32,65.65 166.29,65.21C166.63,65.05 168.01,66.05 168.32,65.97C168.69,65.88 170.07,64.3 170.35,63.69C170.98,62.32 171.6,49.19 172.37,48.52C172.65,48.27 174.04,48.72 174.4,48.52C175.27,48.03 179.81,40.62 180.49,38.65C181.33,36.23 181.68,21.94 182.51,21.2C182.79,20.95 184.22,21.09 184.54,21.2C184.9,21.32 186.23,22.47 186.57,22.72C186.91,22.97 188.23,24.32 188.6,24.24C189.44,24.05 193.88,12.96 194.68,12.86C195.07,12.81 196.34,14.88 196.71,15.13C197.02,15.34 198.45,16.01 198.74,15.89C199.18,15.7 200.32,11.64 200.77,11.34C201.06,11.15 202.37,11.29 202.79,11.34C203.54,11.43 208.16,12.52 208.88,12.86C209.34,13.08 210.6,14.42 210.91,14.37C211.28,14.31 212.62,11.31 212.93,11.34C213.31,11.38 214.55,15.98 214.96,16.65C215.26,17.14 216.58,18.95 216.99,18.93C217.75,18.89 222.39,10.45 223.07,10.58C223.66,10.69 224.69,18.12 225.1,18.17C225.4,18.2 226.81,14.35 227.13,14.37C227.5,14.39 228.82,18.79 229.16,19.68C229.5,20.57 230.54,24.43 231.18,25C231.86,25.6 236.58,25.77 237.27,26.51C238.21,27.51 239.01,35.62 239.3,37.89C239.73,41.24 240.32,62.01 241.32,62.93C241.6,63.19 243.01,62.93 243.35,62.93C243.69,62.93 245.01,63.12 245.38,62.93C246.22,62.5 250.78,54.43 251.46,54.59C252.18,54.76 252.84,65.6 253.49,65.97C253.77,66.13 255.19,65.16 255.52,65.21C255.87,65.26 257.26,66.33 257.55,66.73C258.01,67.37 258.89,72.3 259.58,72.8C260.26,73.29 264.94,73.04 265.66,72.8C266.12,72.65 267.4,71.18 267.69,71.28C268.19,71.45 269.31,77.84 269.72,78.87C270.02,79.63 271.32,82.5 271.74,82.66C272.04,82.77 273.33,81.95 273.77,81.9C274.5,81.81 279.1,81.87 279.85,82.66C281.54,84.45 280.79,113.07 281.88,113.77C282.17,113.96 283.63,112.84 283.91,113.01C284.66,113.46 285.41,126.52 285.94,128.18C286.22,129.06 287.65,130.91 287.97,131.98C289.21,136.11 292.88,191.27 294.05,195.71C294.38,196.95 295.71,200.23 296.08,200.26C296.4,200.29 297.72,197.36 298.11,197.23C298.41,197.13 299.82,198.07 300.13,197.99C300.5,197.9 301.84,196.44 302.16,195.71C303.67,192.22 307.57,126.65 308.25,126.66C308.8,126.67 308.95,169.61 310.27,171.43C310.56,171.83 311.98,172.35 312.3,172.19C313.1,171.8 315.76,162.48 316.36,159.29C317.93,150.87 320.96,65.53 322.44,65.21C322.76,65.14 324.04,68.74 324.47,69C324.77,69.18 326.11,68.93 326.5,69C327.07,69.1 329.87,70.71 330.55,70.52C331.56,70.24 335.83,63.52 336.64,62.93C337.02,62.65 338.33,62.35 338.66,62.17C339.01,61.98 340.33,60.78 340.69,60.66C341.01,60.55 342.4,60.77 342.72,60.66C343.08,60.54 344.34,59.5 344.75,59.14C345.51,58.48 350.12,53 350.83,53.07C351.3,53.12 352.46,55.97 352.86,56.1C353.16,56.2 354.55,55.4 354.89,55.34C355.22,55.28 356.58,55.34 356.92,55.34C357.26,55.34 358.52,55.42 358.94,55.34C359.69,55.2 364.29,53.35 365.03,53.07C365.46,52.91 366.72,52.37 367.06,52.31C367.39,52.25 368.75,52.25 369.08,52.31C369.42,52.37 370.77,53.01 371.11,53.07C371.44,53.13 372.71,53.07 373.14,53.07C373.88,53.07 378.54,53.62 379.22,53.07C380.07,52.39 380.65,44.44 381.25,43.96C381.53,43.73 382.95,44.02 383.28,43.96C383.62,43.9 385.02,43.6 385.31,43.21C386.43,41.71 385.6,12.22 387.34,10.58C388.09,9.87 392.68,10.58 393.42,10.58C393.85,10.58 395.12,10.52 395.45,10.58C395.79,10.64 397.13,11.34 397.47,11.34C397.81,11.34 399.16,10.64 399.5,10.58C399.83,10.52 401.1,10.58 401.53,10.58C402.27,10.58 406.89,10.34 407.61,10.58C408.07,10.73 409.29,12.05 409.64,12.1C409.97,12.15 411.33,11.47 411.67,11.34C412.01,11.21 413.36,10.64 413.7,10.58C414.03,10.52 415.3,10.58 415.73,10.58C416.47,10.58 421.07,10.58 421.81,10.58C422.24,10.58 423.5,10.58 423.84,10.58C424.18,10.58 425.55,10.47 425.87,10.58C426.23,10.7 427.54,11.91 427.89,12.1C428.22,12.28 429.49,12.86 429.92,12.86C430.66,12.86 435.26,10.72 436.01,10.58C436.43,10.5 437.75,10.38 438.03,10.58C438.54,10.94 439.7,15.72 440.06,16.65C440.38,17.47 441.63,20.9 442.09,21.2C442.38,21.39 443.72,21.05 444.12,21.2C444.91,21.5 449.42,26.05 450.2,26.51C450.6,26.75 451.89,27.14 452.23,27.27C452.57,27.4 453.92,27.97 454.26,28.03C454.59,28.09 455.96,27.92 456.28,28.03C456.64,28.15 457.97,29.07 458.31,29.55C459.28,30.9 463.64,46.34 464.4,48.52C464.81,49.68 466.07,52.98 466.42,53.83C466.75,54.62 468.15,58.41 468.45,58.38C468.86,58.34 470.17,49.26 470.48,49.27C470.87,49.29 471.59,62.59 472.51,64.45C473.2,65.84 477.83,69.86 478.59,70.52C479,70.88 480.34,72.14 480.62,72.04C481.14,71.85 482.35,65.31 482.65,63.69C483.06,61.47 484.35,50.48 484.68,47.76C485.03,44.92 485.54,31.02 486.7,30.31C487.41,29.88 492.11,31.88 492.79,32.58C493.46,33.27 494.39,37.91 494.82,38.65C495.11,39.16 496.56,41.01 496.84,40.93C497.39,40.78 498.2,30.11 498.87,29.55C499.15,29.32 500.47,29.52 500.9,29.55C501.64,29.6 506.28,30.57 506.98,30.31C507.47,30.12 508.7,27.99 509.01,28.03C509.38,28.07 510.62,31.66 511.04,31.82C511.34,31.93 512.61,31.13 513.07,31.07C513.96,30.95 520.31,31.48 521.18,31.82C521.67,32.01 522.86,33.15 523.21,33.34C523.53,33.52 524.89,33.97 525.23,34.1C525.57,34.23 526.92,34.8 527.26,34.86C527.59,34.92 528.88,34.76 529.29,34.86C530.05,35.04 534.64,37.95 535.37,37.89C535.81,37.85 537.06,36.63 537.4,36.38C537.74,36.13 539.07,34.98 539.43,34.86C539.75,34.75 541.18,34.61 541.46,34.86C542.29,35.6 542.9,49.23 543.49,52.31C544.17,55.88 548.8,72.49 549.57,75.07C549.97,76.41 551.14,80.5 551.6,81.14C551.89,81.54 553.32,82.33 553.63,82.66C554,83.06 555.31,85.18 555.65,85.69C555.99,86.2 557.22,88.14 557.68,88.73C558.4,89.66 563.09,94.3 563.77,95.56C564.4,96.72 565.33,103.03 565.79,103.14C566.08,103.21 567.54,100.79 567.82,100.87C568.39,101.03 569.5,111.06 569.85,113.01C570.18,114.84 570.97,122.77 571.88,123.63C572.57,124.27 577.23,124.48 577.96,124.39C578.4,124.34 579.71,123.98 579.99,123.63C580.72,122.72 581.27,109.86 582.02,109.21C582.3,108.97 583.71,109.15 584.04,109.21C584.38,109.27 585.64,109.94 586.07,109.97C586.81,110.01 591.42,108.69 592.16,108.46C592.59,108.33 593.9,107.55 594.18,107.7C594.76,108.01 595.63,116.13 596.21,116.8C596.49,117.12 597.96,117.73 598.24,117.56C598.95,117.14 599.24,104.59 600.27,103.9C600.97,103.43 605.67,105.77 606.35,105.42C606.99,105.08 607.99,100.15 608.38,100.11C608.69,100.08 610.01,102.92 610.41,103.14C610.71,103.3 612.14,102.98 612.44,103.14C612.84,103.36 614,106.13 614.46,106.18C615.17,106.25 619.84,100.98 620.55,100.11C621.02,99.54 622.26,97.05 622.58,97.07C622.93,97.09 624.23,100.34 624.6,100.87C624.91,101.32 626.34,102.59 626.63,103.14C627.11,104.06 627.94,111.23 628.66,111.49C629.34,111.73 634.06,106.69 634.74,106.94C635.49,107.22 636.27,115.91 636.77,116.04C637.06,116.11 638.52,113.68 638.8,113.77C639.49,113.99 640.52,131.99 640.83,131.98C641.22,131.97 641.48,103.71 642.85,103.14C643.58,102.84 648.25,108.71 648.94,108.46C649.81,108.14 650.67,98 650.97,95.56C651.37,92.38 652.51,76.25 652.99,73.55C653.28,71.94 654.48,66.25 655.02,65.97C655.3,65.82 656.62,66.6 657.05,66.73C657.79,66.96 662.38,68.15 663.13,68.24C663.55,68.29 664.84,68.13 665.16,68.24C665.52,68.36 666.84,69.57 667.19,69.76C667.52,69.94 668.92,70.63 669.22,70.52C669.64,70.36 670.68,67.12 671.25,66.73C671.93,66.26 676.6,66.15 677.33,65.97C677.77,65.86 679.08,65.53 679.36,65.21C679.92,64.58 680.91,56.98 681.39,56.86C681.68,56.79 683.07,59.14 683.41,59.14C683.75,59.14 684.95,57.12 685.44,56.86C686.14,56.49 690.81,55.91 691.53,56.1C691.99,56.22 693.19,57.5 693.55,57.62C693.87,57.73 695.28,57.8 695.58,57.62C696.01,57.36 697.19,54.2 697.61,53.83C697.91,53.57 699.3,52.91 699.64,53.07C700.63,53.54 704.94,70.49 705.72,70.52C706.12,70.54 707.43,65.95 707.75,65.97C708.11,65.99 709.49,70.74 709.78,72.04C710.26,74.24 711.45,87.36 711.8,90.25C712.12,92.9 713.07,105.27 713.83,105.42C714.51,105.55 719.06,95.11 719.92,94.8Q720.28,94.67 721.94,95.56" style="vector-effect: none; fill: none; stroke: rgb(255, 73, 73); stroke-opacity: 1; stroke-width: 2px; opacity: 1;"/></g><g class="points"/><g class="text"/></g></g></g></g><g class="zerolinelayer-above"/><path class="xlines-above crisp" d="M62,540.5H790M62,327.9H790" style="fill: none; stroke-width: 1px; stroke: rgb(204, 204, 204); stroke-opacity: 1;"/><path class="ylines-above crisp" d="M62.5,328.4V540M789.5,328.4V540" style="fill: none; stroke-width: 1px; stroke: rgb(204, 204, 204); stroke-opacity: 1;"/><g class="overlines-above"/><g class="xaxislayer-above"><g class="x2tick"><text text-anchor="middle" x="0" y="555.4" transform="translate(144.12,0)" style="font-family: Arial, sans-serif; font-size: 12px; fill: rgb(51, 51, 51); fill-opacity: 1; white-space: pre;">Sep 2025</text></g><g class="x2tick"><text text-anchor="middle" x="0" y="555.4" style="font-family: Arial, sans-serif; font-size: 12px; fill: rgb(51, 51, 51); fill-opacity: 1; white-space: pre;" transform="translate(267.82,0)">Nov 2025</text></g><g class="x2tick"><text text-anchor="middle" x="0" y="555.4" style="font-family: Arial, sans-serif; font-size: 12px; fill: rgb(51, 51, 51); fill-opacity: 1; white-space: pre;" transform="translate(391.53,0)">Jan 2026</text></g><g class="x2tick"><text text-anchor="middle" x="0" y="555.4" style="font-family: Arial, sans-serif; font-size: 12px; fill: rgb(51, 51, 51); fill-opacity: 1; white-space: pre;" transform="translate(511.17,0)">Mar 2026</text></g><g class="x2tick"><text text-anchor="middle" x="0" y="555.4" style="font-family: Arial, sans-serif; font-size: 12px; fill: rgb(51, 51, 51); fill-opacity: 1; white-space: pre;" transform="translate(634.88,0)">May 2026</text></g><g class="x2tick"><text text-anchor="middle" x="0" y="555.4" style="font-family: Arial, sans-serif; font-size: 12px; fill: rgb(51, 51, 51); fill-opacity: 1; white-space: pre;" transform="translate(758.58,0)">Jul 2026</text></g></g><g class="yaxislayer-above"><path class="y2tick ticks crisp" d="M62,0h-6" transform="translate(0,530.18)" style="stroke: rgb(255, 255, 255); stroke-opacity: 1; stroke-width: 1px;"/><path class="y2tick ticks crisp" d="M62,0h-6" transform="translate(0,491.93999999999994)" style="stroke: rgb(255, 255, 255); stroke-opacity: 1; stroke-width: 1px;"/><path class="y2tick ticks crisp" d="M62,0h-6" transform="translate(0,453.7)" style="stroke: rgb(255, 255, 255); stroke-opacity: 1; stroke-width: 1px;"/><path class="y2tick ticks crisp" d="M62,0h-6" transform="translate(0,415.46)" style="stroke: rgb(255, 255, 255); stroke-opacity: 1; stroke-width: 1px;"/><path class="y2tick ticks crisp" d="M62,0h-6" transform="translate(0,377.21999999999997)" style="stroke: rgb(255, 255, 255); stroke-opacity: 1; stroke-width: 1px;"/><path class="y2tick ticks crisp" d="M62,0h-6" transform="translate(0,338.97999999999996)" style="stroke: rgb(255, 255, 255); stroke-opacity: 1; stroke-width: 1px;"/><g class="y2tick"><text text-anchor="end" x="53.6" y="4.199999999999999" transform="translate(0,530.18)" style="font-family: Arial, sans-serif; font-size: 12px; fill: rgb(51, 51, 51); fill-opacity: 1; white-space: pre;">0</text></g><g class="y2tick"><text text-anchor="end" x="53.6" y="4.199999999999999" style="font-family: Arial, sans-serif; font-size: 12px; fill: rgb(51, 51, 51); fill-opacity: 1; white-space: pre;" transform="translate(0,491.93999999999994)">20</text></g><g class="y2tick"><text text-anchor="end" x="53.6" y="4.199999999999999" style="font-family: Arial, sans-serif; font-size: 12px; fill: rgb(51, 51, 51); fill-opacity: 1; white-space: pre;" transform="translate(0,453.7)">40</text></g><g class="y2tick"><text text-anchor="end" x="53.6" y="4.199999999999999" style="font-family: Arial, sans-serif; font-size: 12px; fill: rgb(51, 51, 51); fill-opacity: 1; white-space: pre;" transform="translate(0,415.46)">60</text></g><g class="y2tick"><text text-anchor="end" x="53.6" y="4.199999999999999" style="font-family: Arial, sans-serif; font-size: 12px; fill: rgb(51, 51, 51); fill-opacity: 1; white-space: pre;" transform="translate(0,377.21999999999997)">80</text></g><g class="y2tick"><text text-anchor="end" x="53.6" y="4.199999999999999" style="font-family: Arial, sans-serif; font-size: 12px; fill: rgb(51, 51, 51); fill-opacity: 1; white-space: pre;" transform="translate(0,338.97999999999996)">100</text></g></g><g class="overaxes-above"/></g></g><g class="polarlayer"/><g class="smithlayer"/><g class="ternarylayer"/><g class="geolayer"/><g class="funnelarealayer"/><g class="pielayer"/><g class="iciclelayer"/><g class="treemaplayer"/><g class="sunburstlayer"/><g class="glimages"/><defs id="topdefs-e61500"><g class="clips"/></defs><g class="layer-above"><g class="imagelayer"/><g class="shapelayer"><g class="shape-group" data-index="0" clip-path="url(#clipe61500y)"><path data-index="0" fill-rule="evenodd" d="M63,214.71L789,214.71" style="opacity: 1; stroke: rgb(136, 136, 136); stroke-opacity: 1; fill: rgb(0, 0, 0); fill-opacity: 0; stroke-dasharray: 3px, 3px; stroke-width: 1px;"/></g><g class="shape-group" data-index="1" clip-path="url(#clipe61500y)"><path data-index="1" fill-rule="evenodd" d="M63,598.87L789,598.87" style="opacity: 1; stroke: rgb(204, 204, 204); stroke-opacity: 1; fill: rgb(0, 0, 0); fill-opacity: 0; stroke-width: 1px;"/></g><g class="shape-group" data-index="2" clip-path="url(#clipe61500y2)"><path data-index="2" fill-rule="evenodd" d="M63,530.18L789,530.18" style="opacity: 1; stroke: rgb(204, 204, 204); stroke-opacity: 1; fill: rgb(0, 0, 0); fill-opacity: 0; stroke-width: 1px;"/></g></g></g><g class="infolayer"><g class="g-gtitle"/><g class="g-xtitle"/><g class="g-x2title"><text class="x2title" x="426" y="582.000390625" text-anchor="middle" style="opacity: 1; font-family: Arial, sans-serif; font-size: 13px; fill: rgb(51, 51, 51); fill-opacity: 1; white-space: pre;"><tspan style="font-weight:bold">Last 52 Weeks</tspan></text></g><g class="g-ytitle"/><g class="g-y2title"/><g class="annotation" data-index="0" style="opacity: 1;"><g class="annotation-text-g" transform="rotate(0,426,64.89999999999999)"><g class="cursor-pointer" transform="translate(405,54)"><rect class="bg" x="0.5" y="0.5" width="42" height="20" style="stroke-width: 1px; stroke: rgb(0, 0, 0); stroke-opacity: 0; fill: rgb(0, 0, 0); fill-opacity: 0;"/><text class="annotation-text" text-anchor="middle" x="21.5703125" y="16" style="font-family: Arial, sans-serif; font-size: 16px; fill: rgb(51, 51, 51); fill-opacity: 1; white-space: pre;"><tspan style="font-weight:bold">Price</tspan></text></g></g></g><g class="annotation" data-index="1" style="opacity: 1;"><g class="annotation-text-g" transform="rotate(0,426,313.3)"><g class="cursor-pointer" transform="translate(344,303)"><rect class="bg" x="0.5" y="0.5" width="163" height="20" style="stroke-width: 1px; stroke: rgb(0, 0, 0); stroke-opacity: 0; fill: rgb(0, 0, 0); fill-opacity: 0;"/><text class="annotation-text" text-anchor="middle" x="81.8984375" y="16" style="font-family: Arial, sans-serif; font-size: 16px; fill: rgb(51, 51, 51); fill-opacity: 1; white-space: pre;"><tspan style="font-weight:bold">21-Day RV Percentile</tspan></text></g></g></g><g class="annotation" data-index="2" style="opacity: 1;"><g class="annotation-text-g" transform="rotate(0,31.918,214.71)"><g class="cursor-pointer" transform="translate(6,204)"><rect class="bg" x="0.5" y="0.5" width="51" height="21" style="stroke-width: 1px; stroke: rgb(0, 0, 0); stroke-opacity: 0; fill: rgb(255, 255, 255); fill-opacity: 1;"/><text class="annotation-text" text-anchor="middle" x="25.6953125" y="15" style="font-family: Arial, sans-serif; font-size: 12px; fill: rgb(51, 51, 51); fill-opacity: 1; white-space: pre;">4053.76</text></g></g></g></g></svg>