<svg class="main-svg" xmlns="http://www.w3.org/2000/svg" xmlns:xlink="http://www.w3.org/1999/xlink" width="800" height="500" style="" viewBox="0 0 800 500"><rect x="0" y="0" width="800" height="500" style="fill: rgb(255, 255, 255); fill-opacity: 1;"/><defs id="defs-f05b3f"><g class="clips"><clipPath id="clipf05b3fxyplot" class="plotclip"><rect width="731" height="380"/></clipPath><clipPath class="axesclip" id="clipf05b3fx"><rect x="57" y="0" width="731" height="500"/></clipPath><clipPath class="axesclip" id="clipf05b3fy"><rect x="0" y="60" width="800" height="380"/></clipPath><clipPath class="axesclip" id="clipf05b3fxy"><rect x="57" y="60" width="731" height="380"/></clipPath></g><g class="gradients"/><g class="patterns"/></defs><g class="bglayer"/><g class="layer-below"><g class="imagelayer"/><g class="shapelayer"/></g><g class="cartesianlayer"><g class="subplot xy"><g class="layer-subplot"><g class="shapelayer"/><g class="imagelayer"/></g><g class="minor-gridlayer"><g class="x"/><g class="y"/></g><g class="gridlayer"><g class="x"><path class="xgrid crisp" transform="translate(138.88,0)" d="M0,60v380" style="stroke: rgb(204, 204, 204); stroke-opacity: 1; stroke-width: 1px;"/><path class="xgrid crisp" transform="translate(229.64,0)" d="M0,60v380" style="stroke: rgb(204, 204, 204); stroke-opacity: 1; stroke-width: 1px;"/><path class="xgrid crisp" transform="translate(318.42,0)" d="M0,60v380" style="stroke: rgb(204, 204, 204); stroke-opacity: 1; stroke-width: 1px;"/><path class="xgrid crisp" transform="translate(408.2,0)" d="M0,60v380" style="stroke: rgb(204, 204, 204); stroke-opacity: 1; stroke-width: 1px;"/><path class="xgrid crisp" transform="translate(498.95,0)" d="M0,60v380" style="stroke: rgb(204, 204, 204); stroke-opacity: 1; stroke-width: 1px;"/><path class="xgrid crisp" transform="translate(589.71,0)" d="M0,60v380" style="stroke: rgb(204, 204, 204); stroke-opacity: 1; stroke-width: 1px;"/><path class="xgrid crisp" transform="translate(678.5,0)" d="M0,60v380" style="stroke: rgb(204, 204, 204); stroke-opacity: 1; stroke-width: 1px;"/><path class="xgrid crisp" transform="translate(768.27,0)" d="M0,60v380" style="stroke: rgb(204, 204, 204); stroke-opacity: 1; stroke-width: 1px;"/></g><g class="y"><path class="ygrid crisp" transform="translate(0,410.59)" d="M57,0h731" style="stroke: rgb(204, 204, 204); stroke-opacity: 1; stroke-width: 1px;"/><path class="ygrid crisp" transform="translate(0,352.78)" d="M57,0h731" style="stroke: rgb(204, 204, 204); stroke-opacity: 1; stroke-width: 1px;"/><path class="ygrid crisp" transform="translate(0,294.98)" d="M57,0h731" style="stroke: rgb(204, 204, 204); stroke-opacity: 1; stroke-width: 1px;"/><path class="ygrid crisp" transform="translate(0,179.37)" d="M57,0h731" style="stroke: rgb(204, 204, 204); stroke-opacity: 1; stroke-width: 1px;"/><path class="ygrid crisp" transform="translate(0,121.57)" d="M57,0h731" style="stroke: rgb(204, 204, 204); stroke-opacity: 1; stroke-width: 1px;"/><path class="ygrid crisp" transform="translate(0,63.76)" d="M57,0h731" style="stroke: rgb(204, 204, 204); stroke-opacity: 1; stroke-width: 1px;"/></g></g><g class="zerolinelayer"><path class="yzl zl crisp" transform="translate(0,237.18)" d="M57,0h731" style="stroke: rgb(204, 204, 204); stroke-opacity: 1; stroke-width: 1px;"/></g><g class="layer-between"><g class="shapelayer"/><g class="imagelayer"/></g><path class="xlines-below"/><path class="ylines-below"/><g class="overlines-below"/><g class="xaxislayer-below"/><g class="yaxislayer-below"/><g class="overaxes-below"/><g class="overplot"><g class="xy" transform="translate(57,60)" clip-path="url(#clipf05b3fxyplot)"><g class="scatterlayer mlayer"><g class="trace scatter trace059c22" style="stroke-miterlimit: 2; opacity: 1;"><g class="fills"/><g class="errorbars"/><g class="lines"><path class="js-line" d="M0,148.27Q0.77,105.21 0.99,105.21C1.13,105.21 1.76,119.1 1.97,122.84C2.33,129.41 4.52,177.17 4.93,177.18C5.11,177.18 5.74,166.48 5.92,166.48C6.08,166.48 6.7,174.85 6.91,174.86C7.05,174.87 7.75,171.09 7.89,171.11C8.31,171.16 7.83,207.46 8.88,207.81C9.26,207.94 11.51,204.83 11.84,204.06C12.23,203.15 12.68,197.4 12.82,197.41C13.1,197.43 13.58,225.14 13.81,225.15C13.95,225.15 14.66,217.11 14.8,214.75C15.09,209.75 14.31,168.75 15.78,167.93C16.18,167.71 18.35,169.88 18.74,169.66C20.03,168.94 19.58,139.62 19.73,132.38C19.93,122.28 20.5,69.19 20.72,59.83C20.86,53.92 21.53,35.69 21.7,30.93C21.86,26.29 22.2,3.52 22.69,3.47C23.03,3.44 25.3,13.38 25.65,16.19C26.32,21.49 26.4,57.07 26.64,62.72C26.78,65.97 27.46,75.37 27.62,78.04C27.79,80.98 28.36,94.37 28.61,96.54C28.75,97.73 29.33,102.01 29.6,102.03C29.93,102.06 32.19,96.05 32.55,94.23C33.29,90.45 33.31,58.1 33.54,58.1C33.68,58.1 34.39,69.33 34.53,72.26C34.76,77.02 35.33,109.83 35.51,109.83C35.66,109.83 36.19,87.06 36.5,82.38C36.83,77.44 39.13,56.86 39.46,52.03C39.76,47.65 40.17,29.59 40.45,26.88C40.59,25.57 41.27,21.1 41.43,21.1C41.6,21.1 42.16,27.28 42.42,28.04C42.56,28.44 43.25,29.31 43.41,29.78C43.92,31.26 46.04,46.26 46.37,49.43C46.67,52.37 47.19,63.63 47.35,66.48C47.51,69.36 48.19,80.67 48.34,83.82C48.52,87.59 49.19,103.68 49.33,108.68C49.55,116.28 49.76,157.82 50.31,166.19C50.74,172.71 53.85,200.89 54.26,200.88C54.54,200.87 55.1,188.38 55.24,184.98C55.49,178.9 56.05,141.81 56.23,134.11C56.38,127.7 56.74,103.66 57.22,98.85C57.56,95.48 59.8,81.81 60.18,81.8C60.37,81.8 61.02,85.2 61.16,86.13C61.4,87.76 62,97.08 62.15,99.72C62.35,103.41 62.84,123.6 63.14,126.31C63.28,127.52 63.95,131.52 64.12,131.51C64.59,131.48 66.73,89.31 67.08,89.31C67.3,89.31 67.92,103.09 68.07,106.37C68.27,110.85 68.9,132.65 69.06,138.16C69.23,144.13 69.76,171.36 70.04,175.44C70.18,177.45 70.82,184.4 71.03,184.4C71.4,184.4 73.65,156.07 73.99,156.08C74.24,156.08 74.81,168.82 74.97,171.4C75.14,174.02 75.77,187.29 75.96,187.29C76.11,187.29 76.8,179.08 76.95,177.18C77.14,174.74 77.43,160.49 77.93,160.41C78.27,160.35 80.53,167.71 80.89,167.64C81.64,167.5 81.72,133.24 81.88,133.24C82.05,133.24 82.71,167.36 82.87,174.29C83.04,181.42 83.69,210.37 83.85,217.64C84.02,225.01 84.34,256.21 84.84,262.15C85.18,266.14 87.46,279.3 87.8,282.09C88.04,284.1 88.65,290.4 88.79,292.5C89.01,295.7 89.56,313.54 89.77,316.77C89.91,318.92 90.61,327.47 90.76,327.47C90.94,327.47 91.48,313.6 91.74,313.59C92.07,313.58 94.37,335.57 94.7,335.56C95.01,335.55 95.51,319.35 95.69,316.48C95.84,314.11 96.51,303.48 96.68,303.48C96.84,303.48 97.52,316.2 97.66,316.2C97.87,316.2 98.38,289.9 98.65,289.89C98.98,289.88 100.99,326.1 101.61,328.62C101.77,329.26 102.46,330.42 102.6,330.94C102.85,331.87 103.44,339.04 103.58,339.03C103.86,339.02 104.34,305.8 104.57,305.79C104.71,305.79 105.33,315.52 105.56,317.93C105.9,321.48 108.19,344.24 108.52,344.23C108.78,344.22 109.31,328.33 109.5,328.33C109.65,328.33 110.34,337.58 110.49,337.58C110.67,337.58 111.29,324 111.48,324C111.63,324 112.29,332.39 112.46,332.38C112.9,332.37 115.08,286 115.42,278.62C115.66,273.46 116.26,252.32 116.41,252.32C116.6,252.32 117.21,293.65 117.39,293.65C117.54,293.65 118.22,270.44 118.38,265.62C118.55,260.49 118.71,233.92 119.37,233.82C119.72,233.77 121.99,240.76 122.33,242.5C122.81,244.98 123.17,257.31 123.31,260.99C123.52,266.46 124.03,301.73 124.3,301.74C124.44,301.74 125.15,293.21 125.29,291.05C125.51,287.74 125.59,266.05 126.27,265.91C126.62,265.84 128.85,272.06 129.23,271.98C130.27,271.75 129.67,220.61 130.22,220.53C130.36,220.51 130.96,223.52 131.21,223.71C131.35,223.81 132.05,223.58 132.19,223.71C132.7,224.19 132.99,237.29 133.18,237.29C133.57,237.29 135.7,182.76 136.14,177.18C136.31,175.02 136.98,169.98 137.12,168.22C137.33,165.69 137.74,152.13 138.11,149.72C138.35,148.13 139.66,143.17 140.08,141.92C140.49,140.71 142.7,136.42 143.04,134.98C143.55,132.83 143.82,118.23 144.03,118.22C144.17,118.21 144.86,124.41 145.02,125.73C145.19,127.19 145.86,134.99 146,134.98C146.33,134.97 146.61,80.07 146.99,80.06C147.32,80.05 149.62,115.53 149.95,121.68C150.22,126.56 150.75,144.07 150.94,147.98C151.09,151.13 151.73,165.04 151.92,165.04C152.07,165.04 152.75,153.77 152.91,153.77C153.08,153.77 153.62,164.64 153.89,167.06C154.22,169.99 156.51,186.43 156.85,186.42C157.11,186.41 157.7,174.57 157.84,174.57C158.08,174.58 158.67,202.26 158.83,208.1C159,214.49 159.61,248.28 159.81,248.28C159.95,248.28 160.39,228.37 160.8,228.33C161.13,228.3 163.4,241.05 163.76,241.05C163.97,241.05 164.6,236.7 164.75,236.71C165.24,236.75 166.37,278.32 166.72,283.25C166.88,285.55 167.1,293.02 167.71,293.36C168.06,293.56 170.3,291.7 170.67,291.92C171.64,292.5 171.2,311.61 171.65,314.17C171.89,315.57 173.37,320.55 173.62,320.53C173.86,320.51 174.41,314.46 174.61,314.46C174.99,314.47 177.24,333.62 177.57,337.58C177.92,341.75 178.34,359.92 178.56,363.31C178.7,365.53 178.96,373.89 179.54,374.29C179.79,374.46 181.17,373.64 181.52,373.71C181.99,373.8 184.11,376.19 184.48,376.02C185.36,375.62 185.32,359.12 185.46,354.64C185.69,347.08 186.26,302.45 186.45,293.65C186.6,286.93 187.03,261 187.44,258.1C187.58,257.14 188.16,255.09 188.42,254.34C188.83,253.15 191.92,247.34 192.37,245.39C193.12,242.11 193.13,221.53 193.35,217.93C193.49,215.59 194.1,206.39 194.34,206.37C194.48,206.36 195.17,210.14 195.33,210.12C195.92,210.06 197.92,156.37 198.29,156.37C198.49,156.37 198.86,170.78 199.27,171.97C199.41,172.37 200.12,173.46 200.26,173.42C200.86,173.25 201.09,141.92 201.25,141.92C201.43,141.92 201.73,181.77 202.23,181.8C202.57,181.82 204.86,166.31 205.19,163.59C205.46,161.41 206.04,154.32 206.18,151.74C206.44,146.92 206.87,114.46 207.17,110.12C207.31,108.13 207.99,102.98 208.15,101.45C208.32,99.73 208.53,91.51 209.14,90.47C209.49,89.88 211.77,88.92 212.1,88.45C212.44,87.96 212.95,84.67 213.09,84.69C213.44,84.73 213.92,110.12 214.07,110.12C214.26,110.12 214.88,70.53 215.06,70.53C215.21,70.53 215.67,94.91 216.04,100.01C216.45,105.56 219.43,132.02 219.99,134.69C220.16,135.52 220.83,137.3 220.98,137.87C221.16,138.53 221.82,142.21 221.96,142.2C222.33,142.16 222.54,114.39 222.95,109.55C223.28,105.64 225.58,92.14 225.91,88.45C226.27,84.42 226.71,63.01 226.9,63.01C227.05,63.01 227.66,76.57 227.88,78.62C228.02,79.96 228.73,85.28 228.87,85.27C229.08,85.26 229.2,71.76 229.86,70.24C230.21,69.43 232.49,67.7 232.82,67.06C233.17,66.37 233.66,62.14 233.8,62.15C234.13,62.18 234.61,87.44 234.79,91.91C234.94,95.57 235.63,107.74 235.77,111.86C236,118.57 236.34,164.74 236.76,164.75C237.09,164.76 239.35,131.8 239.72,131.8C239.92,131.8 240.53,140.38 240.71,141.92C240.86,143.23 241.55,149.15 241.69,149.14C241.97,149.13 242.5,122.35 242.68,117.35C242.84,112.87 243.39,91.92 243.67,91.91C244,91.9 246.21,124.21 246.63,127.75C246.81,129.25 247.47,134.12 247.61,134.11C247.9,134.09 248.31,108.55 248.6,105.5C248.74,104.05 249.45,99.13 249.59,99.14C249.83,99.15 250.35,114.28 250.57,118.22C250.92,124.66 252.8,166.28 253.53,169.08C253.68,169.67 254.38,170.53 254.52,171.11C255.13,173.64 255.31,207.54 255.5,213.88C255.65,218.96 256.34,241.34 256.49,241.34C256.69,241.34 256.68,192.89 257.48,192.78C257.84,192.73 260.11,202.36 260.44,202.32C260.84,202.27 260.89,188.37 261.42,187.87C261.56,187.74 262.26,188.01 262.41,187.87C263.47,186.83 263.22,144.42 263.4,136.42C263.55,129.43 264.1,97.12 264.38,97.12C264.71,97.12 267.01,143.11 267.34,153.19C267.73,164.99 267.86,224.26 268.33,230.07C268.47,231.79 269.15,235.63 269.32,236.71C269.48,237.74 270.16,241.36 270.3,242.78C270.61,246.03 271,275.14 271.29,275.15C271.62,275.16 273.69,235.98 274.25,232.96C274.41,232.11 275.07,230.34 275.23,229.78C275.4,229.15 276.08,225.72 276.22,225.73C276.55,225.76 276.91,244.91 277.21,249.43C277.62,255.52 280.74,292.22 281.15,292.21C281.44,292.2 281.99,274.64 282.14,270.53C282.33,265.12 282.93,238.32 283.13,232.96C283.28,228.94 283.95,215.56 284.11,211.86C284.28,207.75 284.78,190.2 285.1,185.85C285.43,181.44 287.73,159.25 288.06,159.26C288.34,159.27 288.88,175.08 289.05,178.04C289.21,180.68 289.89,189.83 290.03,193.07C290.28,198.99 290.71,238.28 291.02,243.36C291.16,245.58 291.82,250.74 292.01,252.9C292.41,257.49 294.62,290.05 294.96,295.96C295.2,300.1 295.81,317.06 295.95,317.06C296.23,317.06 296.67,241.86 296.94,232.38C297.08,227.58 297.77,214.56 297.92,210.7C298.1,206.26 298.08,182.32 298.91,182.09C299.28,181.99 301.53,185.99 301.87,186.71C302.13,187.27 302.72,189.05 302.86,189.89C303.35,192.84 303.54,230.64 303.84,230.65C303.98,230.66 304.59,222 304.83,221.97C304.97,221.95 305.54,224.79 305.82,224.86C306.15,224.94 308.4,222.83 308.78,221.97C309.85,219.54 309.61,189.32 309.76,189.32C309.96,189.32 310.2,244.6 310.75,248.56C310.89,249.57 311.6,251.49 311.74,252.32C312,253.85 312.36,265.59 312.72,265.62C313.13,265.65 316.24,249.39 316.67,249.43C317.22,249.49 317.32,277.44 317.65,277.47C317.79,277.48 318.5,273.77 318.64,272.84C318.85,271.46 319.04,262.72 319.63,262.44C319.98,262.28 322.21,264.65 322.59,264.46C323.69,263.9 323.42,239.95 323.57,234.4C323.76,227.52 324.35,188.16 324.56,188.16C324.7,188.16 325.41,205.74 325.55,210.12C325.76,216.63 326.1,258.66 326.53,258.68C326.86,258.69 329.11,232.72 329.49,229.49C329.68,227.88 330.34,223.95 330.48,222.26C330.8,218.31 331.31,189.56 331.47,182.67C331.64,175.16 332.23,135.56 332.45,135.56C332.59,135.56 333.18,151.28 333.44,154.92C333.78,159.63 336.06,187.3 336.4,187.29C336.65,187.29 337.21,172.71 337.38,169.95C337.54,167.43 338.08,157.65 338.37,155.5C338.61,153.74 340.05,148.26 340.34,145.96C341.07,140.18 342.33,84.73 343.3,84.4C343.45,84.35 344.15,85.22 344.29,85.56C344.74,86.69 345.13,99.05 345.28,102.03C345.46,105.56 345.88,125.1 346.26,125.15C346.4,125.17 346.97,122.72 347.25,122.26C347.58,121.71 349.87,119.02 350.21,119.08C350.47,119.12 351.05,121.4 351.2,121.39C351.39,121.38 352.04,117.63 352.18,117.64C352.47,117.67 352.94,131.66 353.17,135.56C353.6,142.86 356.64,198.55 357.11,198.56C357.31,198.56 357.96,190.15 358.1,187.58C358.42,181.58 358.03,128.05 359.09,127.46C359.24,127.38 359.93,127.79 360.07,128.04C360.92,129.5 360.61,162.49 361.06,168.22C361.39,172.53 363.68,186.34 364.02,190.76C364.5,197.03 364.83,236.43 365.01,236.43C365.16,236.43 365.78,209.13 365.99,204.92C366.13,202.09 366.82,190.76 366.98,190.76C367.15,190.76 367.7,208.09 367.97,208.1C368.3,208.11 370.58,185.39 370.93,182.09C371.15,180.06 371.77,172.26 371.91,172.26C372.15,172.27 372.67,198.52 372.9,202.32C373.04,204.65 373.73,213.59 373.89,213.59C374.06,213.59 374.61,201.75 374.87,201.74C375.2,201.73 377.49,221.99 377.83,221.97C378.34,221.94 378.65,175.73 378.82,175.73C378.98,175.73 379.52,217.05 379.8,217.06C379.94,217.07 380.65,209.31 380.79,206.95C381.11,201.46 381.15,158.53 381.78,152.03C382.13,148.41 384.4,138.53 384.74,135.27C385.2,130.77 385.47,102.91 385.72,102.9C385.86,102.89 386.57,110.44 386.71,112.44C386.95,115.83 387.52,135.78 387.7,139.89C387.85,143.24 388.44,158.1 388.68,158.1C389.02,158.1 391.25,119.67 391.64,119.66C391.83,119.66 392.49,128.34 392.63,128.33C392.93,128.32 393.43,86.13 393.62,86.13C393.77,86.13 394.41,108.84 394.6,112.72C394.75,115.75 395.24,126.33 395.59,128.91C395.92,131.32 398.22,140.56 398.55,142.78C398.85,144.78 399.37,152.41 399.53,154.34C399.69,156.27 400.33,165.9 400.52,165.9C400.67,165.9 401.37,160.21 401.51,158.68C401.75,156.06 402.04,137.34 402.49,137.29C402.83,137.25 405.01,147.59 405.45,148.56C405.62,148.94 406.3,149.57 406.44,150.01C407.06,151.93 407.26,184.11 407.43,184.11C407.59,184.11 408.23,153.48 408.41,153.48C408.56,153.48 409.14,171.16 409.4,175.73C409.82,183.08 412.94,233.26 413.35,233.25C413.61,233.25 413.92,212.51 414.33,210.7C414.47,210.1 415.18,209.05 415.32,208.39C415.97,205.35 415.82,162.47 416.3,155.21C416.64,150.14 418.87,132.24 419.26,129.49C419.45,128.18 420.1,124.81 420.25,123.71C420.44,122.26 421.1,115.56 421.24,113.59C421.44,110.83 422.07,93.65 422.22,93.65C422.42,93.65 422.86,129.48 423.21,129.49C423.54,129.5 425.84,101.91 426.17,97.12C426.44,93.32 426.92,76.61 427.16,76.6C427.3,76.59 428,81.96 428.14,83.53C428.42,86.8 428.92,109.75 429.13,113.88C429.27,116.73 429.64,128.25 430.12,128.33C430.46,128.39 432.75,121.62 433.08,121.68C433.5,121.75 433.82,131.85 434.06,133.24C434.2,134.05 434.91,137.01 435.05,137C435.28,136.98 435.84,126.61 436.04,126.6C436.19,126.59 436.72,132.05 437.02,132.09C437.35,132.14 439.65,127.13 439.98,126.02C440.34,124.8 440.83,119.72 440.97,117.93C441.24,114.47 441.77,87.29 441.95,87.29C442.1,87.29 442.76,105.33 442.94,108.68C443.1,111.64 443.73,121.82 443.93,125.44C444.3,132.07 446.49,175.95 446.89,181.8C447.07,184.45 447.69,193.36 447.87,193.36C448.02,193.36 448.72,184.98 448.86,184.98C449.07,184.99 449.7,203.19 449.85,203.19C450.04,203.19 450.28,178.43 450.83,174.86C451.17,172.63 453.4,164.2 453.79,164.17C453.98,164.16 454.64,165.94 454.78,166.48C455.06,167.6 455.63,177.18 455.77,177.18C456.02,177.17 456.44,146.82 456.75,143.36C456.89,141.82 457.53,138.12 457.74,136.71C458.1,134.25 460.37,119.45 460.7,116.48C460.96,114.16 461.48,104.06 461.68,104.05C461.83,104.04 462.48,109.49 462.67,110.41C462.82,111.12 463.5,113.53 463.66,114.17C463.83,114.83 464.42,118.21 464.64,118.22C464.99,118.23 467.27,108.64 467.6,108.68C467.99,108.72 468.43,119.96 468.59,122.26C468.76,124.63 469.43,133.97 469.58,136.71C469.77,140.32 470.37,158.25 470.56,161.86C470.71,164.6 470.99,176.17 471.55,176.31C471.89,176.4 474.15,172.82 474.51,171.68C475.25,169.33 475.35,148.27 475.5,148.27C475.69,148.27 476.28,185.56 476.48,185.56C476.62,185.56 476.91,167.99 477.47,167.06C477.61,166.83 478.3,166.4 478.45,166.48C479.31,166.93 481.06,203.19 481.41,203.19C481.64,203.19 482.16,187.88 482.4,187.87C482.54,187.86 483.23,192.18 483.39,193.07C483.56,194.01 484.23,197.47 484.37,198.85C484.7,202.23 484.83,234.06 485.36,234.11C485.7,234.14 487.98,219.94 488.32,219.95C488.56,219.96 489.16,225.8 489.31,227.18C489.51,229.03 490.07,240.17 490.29,240.18C490.43,240.19 491.14,235.88 491.28,234.69C491.53,232.54 491.94,219.51 492.27,216.48C492.6,213.44 494.84,200.26 495.23,198.27C495.42,197.3 496.07,193.93 496.21,193.94C496.45,193.96 496.93,206.65 497.2,206.66C497.44,206.67 498.8,196.25 499.17,196.25C499.61,196.25 501.8,211.01 502.13,210.99C502.4,210.98 502.96,202.89 503.12,201.16C503.29,199.21 503.95,188.74 504.1,188.74C504.3,188.74 504.9,211.28 505.09,211.28C505.24,211.28 505.86,198.27 506.08,198.27C506.43,198.27 508.64,229.77 509.04,229.78C509.22,229.79 509.86,224.48 510.02,223.42C510.18,222.36 510.84,217.06 511.01,217.06C511.17,217.06 511.86,221.75 512,223.13C512.29,226.01 512.58,249.99 512.98,250.01C513.31,250.03 515.61,235.14 515.94,231.8C516.34,227.77 516.69,204.93 516.93,204.92C517.07,204.91 517.76,213.59 517.91,213.59C518.09,213.59 518.71,202.04 518.9,202.03C519.05,202.03 519.64,207.66 519.89,208.97C520.23,210.72 522.49,219.63 522.85,221.11C523.06,221.96 523.55,224.99 523.83,225.15C523.97,225.23 524.67,224.76 524.82,224.86C525.39,225.23 526.38,239.88 526.79,239.89C527.2,239.9 529.41,227.22 529.75,225.15C530,223.65 530.6,219.02 530.74,217.35C530.99,214.4 531.43,192.79 531.73,192.78C531.97,192.77 532.9,207.55 533.7,208.97C534.08,209.65 536.31,211.43 536.66,211.28C537.3,211 537.51,201.37 537.65,198.85C537.87,194.96 537.95,169.37 538.63,169.08C538.77,169.02 539.48,170 539.62,169.95C539.95,169.83 540.3,162.47 540.6,162.44C540.93,162.41 543.17,169.96 543.56,170.82C543.75,171.23 544.41,172.59 544.55,172.55C545.16,172.4 545.2,135.58 545.54,135.56C545.68,135.55 546.38,139.97 546.52,141.34C546.85,144.67 547.04,170.38 547.51,175.73C547.93,180.46 551.02,202.32 551.46,202.32C551.68,202.32 552.3,197.26 552.44,195.96C552.66,193.91 553.23,182.27 553.43,180.07C553.58,178.49 554.11,173.34 554.42,171.97C554.75,170.5 557.04,162.96 557.38,163.01C557.88,163.08 558.07,181.33 558.36,183.53C558.5,184.58 559.19,187.35 559.35,188.16C559.52,189.03 560.03,193.22 560.33,193.65C560.47,193.85 561.15,194.03 561.32,194.23C561.76,194.73 563.95,201.21 564.28,201.16C564.7,201.09 565.08,189.03 565.27,189.03C565.42,189.03 566.11,196.84 566.25,196.83C566.5,196.82 567.05,171.68 567.24,171.68C567.39,171.68 567.89,187.27 568.23,187.29C568.56,187.31 570.86,174.93 571.19,172.55C571.49,170.36 571.96,159.84 572.17,159.83C572.31,159.82 573.02,165.63 573.16,165.62C573.44,165.6 573.45,140.97 574.15,140.47C574.29,140.37 574.94,140.82 575.13,140.76C575.62,140.59 578.65,136.46 579.08,135.27C579.68,133.62 579.92,124.9 580.06,122.26C580.28,118.18 580.87,91.05 581.05,91.05C581.21,91.05 581.49,115.83 582.04,115.9C582.38,115.95 584.64,106.65 585,106.65C585.21,106.65 585.84,109.09 585.98,109.83C586.27,111.44 586.81,125.44 586.97,125.44C587.14,125.44 587.81,111.54 587.96,108.39C588.15,104.48 588.67,82.1 588.94,82.09C589.27,82.08 591.21,119.14 591.9,121.39C592.06,121.9 592.75,123.16 592.89,123.13C593.15,123.08 593.74,115.89 593.88,115.9C594.11,115.91 594.31,135.91 594.86,136.14C595,136.2 595.69,135.21 595.85,135.27C596.47,135.5 598.45,153.01 598.81,155.5C599.02,156.96 599.65,160.84 599.79,162.44C600.09,165.97 600.62,190.71 600.78,196.54C600.95,202.68 601.16,232.19 601.77,234.4C601.91,234.91 602.55,235.75 602.75,236.14C603.12,236.86 605.38,241.37 605.71,242.5C606.05,243.68 606.56,248.47 606.7,250.01C606.92,252.46 607.5,269.09 607.69,269.09C607.84,269.09 608.53,256.95 608.67,256.95C608.94,256.96 609.19,306.35 609.66,306.37C610,306.39 612.29,281.21 612.62,281.22C612.96,281.23 613.44,308.97 613.61,308.97C613.77,308.97 614.42,286.72 614.59,286.72C614.75,286.72 615.42,302.04 615.58,305.21C615.75,308.58 616.22,326 616.57,326.02C616.9,326.04 619.18,311.75 619.52,308.1C620.04,302.49 619.54,265.98 620.51,265.04C620.66,264.9 621.35,265.1 621.5,265.04C621.68,264.97 622.32,264.47 622.48,264.17C623.23,262.77 626,235.55 626.43,235.56C626.66,235.56 627.27,244.23 627.42,244.23C627.62,244.22 628.06,229.78 628.4,228.33C628.54,227.76 629.25,226.63 629.39,226.02C629.81,224.16 630.06,206.32 630.38,202.32C630.71,198.19 633.01,181.31 633.34,177.18C633.66,173.18 634.17,153.48 634.32,153.48C634.5,153.48 635.12,179.85 635.31,184.4C635.46,188 636.15,203.77 636.3,203.77C636.5,203.77 636.03,169.2 637.28,168.51C637.67,168.29 639.85,170.46 640.24,170.24C641.56,169.51 641.03,131.51 641.23,131.51C641.38,131.51 641.96,152.31 642.21,152.32C642.35,152.33 643.06,145.95 643.2,145.96C643.45,145.97 643.81,165.87 644.19,165.9C644.52,165.93 646.82,153.58 647.15,151.45C647.41,149.79 647.99,142.48 648.13,142.49C648.47,142.51 648.69,193.57 649.12,197.99C649.26,199.39 649.96,203.49 650.11,203.48C650.31,203.47 650.84,193.08 651.09,193.07C651.43,193.06 653.68,212.15 654.05,212.15C654.25,212.15 654.9,207.97 655.04,206.66C655.37,203.5 655.86,174 656.03,174C656.19,174 656.79,203.18 657.01,203.19C657.15,203.19 657.57,191.42 658,191.34C658.33,191.28 660.61,196.22 660.96,197.7C661.65,200.59 661.76,220.55 661.94,224.58C662.09,227.87 662.77,242.5 662.93,242.5C663.09,242.5 663.77,224.58 663.92,224.58C664.12,224.58 664.54,251.56 664.9,256.66C665.23,261.34 667.52,279.66 667.86,283.54C668.12,286.49 668.71,299.14 668.85,299.14C669.07,299.14 669.07,262.64 669.84,260.99C669.98,260.69 670.68,260.41 670.82,260.13C671.31,259.14 671.45,246.8 671.81,243.94C672.22,240.68 675.35,226.22 675.76,223.13C676.08,220.68 676.58,212.1 676.74,209.84C676.91,207.48 677.51,197.27 677.73,195.38C677.87,194.15 678.35,189.42 678.72,189.32C679.05,189.24 681.31,193.08 681.67,193.07C681.88,193.06 682.52,192.02 682.66,191.63C683.03,190.58 683.47,178.91 683.65,178.91C683.8,178.91 684.49,186.34 684.63,188.45C684.9,192.56 684.73,224.65 685.62,224.86C685.99,224.95 688.24,219.34 688.58,219.37C688.83,219.39 689.43,222.56 689.57,222.55C689.81,222.53 690.41,215.2 690.55,213.01C690.85,208.2 690.93,166.89 691.54,166.77C691.68,166.74 692.31,168.61 692.53,169.08C692.88,169.83 695.1,174.95 695.49,174.86C696.71,174.57 695.78,113.7 696.47,110.12C696.61,109.38 697.32,108.19 697.46,107.52C697.86,105.55 698.16,83.54 698.45,83.53C698.86,83.52 701.78,130.01 702.39,130.07C702.56,130.09 703.24,127.45 703.38,126.6C703.73,124.41 704.2,102.61 704.36,102.61C704.53,102.61 705.01,125.63 705.35,128.04C705.49,129.01 706.12,131.26 706.34,132.09C706.69,133.45 708.87,141.84 709.3,142.78C709.47,143.15 710.14,143.81 710.28,144.23C710.76,145.69 711.08,162.71 711.27,165.9C711.42,168.43 711.78,179.41 712.26,179.49C712.68,179.56 715.76,169.87 716.2,169.95C716.86,170.07 716.77,193.28 717.19,193.36C717.33,193.39 718.04,191.6 718.18,191.05C718.48,189.84 719,178.91 719.16,178.91C719.33,178.91 719.64,191.53 720.15,193.36C720.49,194.58 722.75,197.76 723.11,199.14Q723.85,201.99 724.09,226.89" style="vector-effect: none; fill: none; stroke: rgb(255, 73, 73); stroke-opacity: 1; stroke-width: 2px; opacity: 1;"/></g><g class="points"/><g class="text"/></g></g></g></g><g class="zerolinelayer-above"/><path class="xlines-above crisp" d="M56,440.5H789M56,59.5H789" style="fill: none; stroke-width: 1px; stroke: rgb(204, 204, 204); stroke-opacity: 1;"/><path class="ylines-above crisp" d="M56.5,60V440M788.5,60V440" style="fill: none; stroke-width: 1px; stroke: rgb(204, 204, 204); stroke-opacity: 1;"/><g class="overlines-above"/><g class="xaxislayer-above"><g class="xtick"><text text-anchor="middle" x="0" y="455.4" transform="translate(138.88,0)" style="font-family: Arial, sans-serif; font-size: 12px; fill: rgb(51, 51, 51); fill-opacity: 1; white-space: pre;">Oct 2024</text></g><g class="xtick"><text text-anchor="middle" x="0" y="455.4" style="font-family: Arial, sans-serif; font-size: 12px; fill: rgb(51, 51, 51); fill-opacity: 1; white-space: pre;" transform="translate(229.64,0)">Jan 2025</text></g><g class="xtick"><text text-anchor="middle" x="0" y="455.4" style="font-family: Arial, sans-serif; font-size: 12px; fill: rgb(51, 51, 51); fill-opacity: 1; white-space: pre;" transform="translate(318.42,0)">Apr 2025</text></g><g class="xtick"><text text-anchor="middle" x="0" y="455.4" style="font-family: Arial, sans-serif; font-size: 12px; fill: rgb(51, 51, 51); fill-opacity: 1; white-space: pre;" transform="translate(408.2,0)">Jul 2025</text></g><g class="xtick"><text text-anchor="middle" x="0" y="455.4" style="font-family: Arial, sans-serif; font-size: 12px; fill: rgb(51, 51, 51); fill-opacity: 1; white-space: pre;" transform="translate(498.95,0)">Oct 2025</text></g><g class="xtick"><text text-anchor="middle" x="0" y="455.4" style="font-family: Arial, sans-serif; font-size: 12px; fill: rgb(51, 51, 51); fill-opacity: 1; white-space: pre;" transform="translate(589.71,0)">Jan 2026</text></g><g class="xtick"><text text-anchor="middle" x="0" y="455.4" style="font-family: Arial, sans-serif; font-size: 12px; fill: rgb(51, 51, 51); fill-opacity: 1; white-space: pre;" transform="translate(678.5,0)">Apr 2026</text></g><g class="xtick"><text text-anchor="middle" x="0" y="455.4" style="font-family: Arial, sans-serif; font-size: 12px; fill: rgb(51, 51, 51); fill-opacity: 1; white-space: pre;" transform="translate(768.27,0)">Jul 2026</text></g></g><g class="yaxislayer-above"><path class="ytick ticks crisp" d="M56,0h-6" transform="translate(0,410.59)" style="stroke: rgb(255, 255, 255); stroke-opacity: 1; stroke-width: 1px;"/><path class="ytick ticks crisp" d="M56,0h-6" transform="translate(0,352.78)" style="stroke: rgb(255, 255, 255); stroke-opacity: 1; stroke-width: 1px;"/><path class="ytick ticks crisp" d="M56,0h-6" transform="translate(0,294.98)" style="stroke: rgb(255, 255, 255); stroke-opacity: 1; stroke-width: 1px;"/><path class="ytick ticks crisp" d="M56,0h-6" transform="translate(0,237.18)" style="stroke: rgb(255, 255, 255); stroke-opacity: 1; stroke-width: 1px;"/><path class="ytick ticks crisp" d="M56,0h-6" transform="translate(0,179.37)" style="stroke: rgb(255, 255, 255); stroke-opacity: 1; stroke-width: 1px;"/><path class="ytick ticks crisp" d="M56,0h-6" transform="translate(0,121.57)" style="stroke: rgb(255, 255, 255); stroke-opacity: 1; stroke-width: 1px;"/><path class="ytick ticks crisp" d="M56,0h-6" transform="translate(0,63.76)" style="stroke: rgb(255, 255, 255); stroke-opacity: 1; stroke-width: 1px;"/><g class="ytick"><text text-anchor="end" x="47.6" y="4.199999999999999" transform="translate(0,410.59)" style="font-family: Arial, sans-serif; font-size: 12px; fill: rgb(51, 51, 51); fill-opacity: 1; white-space: pre;">−6</text></g><g class="ytick"><text text-anchor="end" x="47.6" y="4.199999999999999" style="font-family: Arial, sans-serif; font-size: 12px; fill: rgb(51, 51, 51); fill-opacity: 1; white-space: pre;" transform="translate(0,352.78)">−4</text></g><g class="ytick"><text text-anchor="end" x="47.6" y="4.199999999999999" style="font-family: Arial, sans-serif; font-size: 12px; fill: rgb(51, 51, 51); fill-opacity: 1; white-space: pre;" transform="translate(0,294.98)">−2</text></g><g class="ytick"><text text-anchor="end" x="47.6" y="4.199999999999999" style="font-family: Arial, sans-serif; font-size: 12px; fill: rgb(51, 51, 51); fill-opacity: 1; white-space: pre;" transform="translate(0,237.18)">0</text></g><g class="ytick"><text text-anchor="end" x="47.6" y="4.199999999999999" style="font-family: Arial, sans-serif; font-size: 12px; fill: rgb(51, 51, 51); fill-opacity: 1; white-space: pre;" transform="translate(0,179.37)">2</text></g><g class="ytick"><text text-anchor="end" x="47.6" y="4.199999999999999" style="font-family: Arial, sans-serif; font-size: 12px; fill: rgb(51, 51, 51); fill-opacity: 1; white-space: pre;" transform="translate(0,121.57)">4</text></g><g class="ytick"><text text-anchor="end" x="47.6" y="4.199999999999999" style="font-family: Arial, sans-serif; font-size: 12px; fill: rgb(51, 51, 51); fill-opacity: 1; white-space: pre;" transform="translate(0,63.76)">6</text></g></g><g class="overaxes-above"/></g></g><g class="polarlayer"/><g class="smithlayer"/><g class="ternarylayer"/><g class="geolayer"/><g class="funnelarealayer"/><g class="pielayer"/><g class="iciclelayer"/><g class="treemaplayer"/><g class="sunburstlayer"/><g class="glimages"/><defs id="topdefs-f05b3f"><g class="clips"/></defs><g class="layer-above"><g class="imagelayer"/><g class="shapelayer"><g class="shape-group" data-index="0" clip-path="url(#clipf05b3fy)"><path data-index="0" fill-rule="evenodd" d="M57,286.31L788,286.31" style="opacity: 1; stroke: rgb(136, 136, 136); stroke-opacity: 1; fill: rgb(0, 0, 0); fill-opacity: 0; stroke-dasharray: 3px, 3px; stroke-width: 1px;"/></g><g class="shape-group" data-index="1" clip-path="url(#clipf05b3fy)"><path data-index="1" fill-rule="evenodd" d="M57,237.18L788,237.18" style="opacity: 1; stroke: rgb(204, 204, 204); stroke-opacity: 1; fill: rgb(0, 0, 0); fill-opacity: 0; stroke-width: 1px;"/></g></g></g><g class="infolayer"><g class="g-gtitle"><text class="gtitle" x="400" y="30" text-anchor="middle" dy="0em" style="opacity: 1; font-family: Arial, sans-serif; font-size: 16px; fill: rgb(51, 51, 51); fill-opacity: 1; white-space: pre;"><tspan style="font-weight:bold">21-Day Return</tspan></text></g><g class="g-xtitle"><text class="xtitle" x="422.5" y="482.000390625" text-anchor="middle" style="opacity: 1; font-family: Arial, sans-serif; font-size: 13px; fill: rgb(51, 51, 51); fill-opacity: 1; white-space: pre;"><tspan style="font-weight:bold">Last 104 Weeks</tspan></text></g><g class="g-ytitle"><text class="ytitle" transform="rotate(-90,14.862109375000003,250)" x="14.862109375000003" y="250" text-anchor="middle" style="opacity: 1; font-family: Arial, sans-serif; font-size: 13px; fill: rgb(51, 51, 51); fill-opacity: 1; white-space: pre;"><tspan style="font-weight:bold">Return (%)</tspan></text></g><g class="annotation" data-index="0" style="opacity: 1;"><g class="annotation-text-g" transform="rotate(0,38.6988,286.02)"><g class="cursor-pointer" transform="translate(24,275)"><rect class="bg" x="0.5" y="0.5" width="28" height="21" style="stroke-width: 1px; stroke: rgb(0, 0, 0); stroke-opacity: 0; fill: rgb(255, 255, 255); fill-opacity: 1;"/><text class="annotation-text" text-anchor="middle" x="14.34375" y="15" style="font-family: Arial, sans-serif; font-size: 12px; fill: rgb(51, 51, 51); fill-opacity: 1; white-space: pre;">-1.7</text></g></g></g></g></svg>