<svg class="main-svg" xmlns="http://www.w3.org/2000/svg" xmlns:xlink="http://www.w3.org/1999/xlink" width="800" height="600" style="" viewBox="0 0 800 600"><rect x="0" y="0" width="800" height="600" style="fill: rgb(255, 255, 255); fill-opacity: 1;"/><defs id="defs-70dd40"><g class="clips"><clipPath id="clip70dd40xyplot" class="plotclip"><rect width="733" height="211.6"/></clipPath><clipPath id="clip70dd40x2y2plot" class="plotclip"><rect width="733" height="211.60000000000002"/></clipPath><clipPath class="axesclip" id="clip70dd40x"><rect x="56" y="0" width="733" height="600"/></clipPath><clipPath class="axesclip" id="clip70dd40y"><rect x="0" y="80" width="800" height="211.6"/></clipPath><clipPath class="axesclip" id="clip70dd40xy"><rect x="56" y="80" width="733" height="211.6"/></clipPath><clipPath class="axesclip" id="clip70dd40y2"><rect x="0" y="328.4" width="800" height="211.60000000000002"/></clipPath><clipPath class="axesclip" id="clip70dd40xy2"><rect x="56" y="328.4" width="733" height="211.60000000000002"/></clipPath><clipPath class="axesclip" id="clip70dd40x2"><rect x="56" y="0" width="733" height="600"/></clipPath><clipPath class="axesclip" id="clip70dd40x2y"><rect x="56" y="80" width="733" height="211.6"/></clipPath><clipPath class="axesclip" id="clip70dd40x2y2"><rect x="56" y="328.4" width="733" height="211.60000000000002"/></clipPath></g><g class="gradients"/><g class="patterns"/></defs><g class="bglayer"/><g class="layer-below"><g class="imagelayer"/><g class="shapelayer"/></g><g class="cartesianlayer"><g class="subplot xy"><g class="layer-subplot"><g class="shapelayer"/><g class="imagelayer"/></g><g class="minor-gridlayer"><g class="x"/><g class="y"/></g><g class="gridlayer"><g class="x"><path class="xgrid crisp" transform="translate(153.87,0)" d="M0,80v211.6" style="stroke: rgb(204, 204, 204); stroke-opacity: 1; stroke-width: 1px;"/><path class="xgrid crisp" transform="translate(275.7,0)" d="M0,80v211.6" style="stroke: rgb(204, 204, 204); stroke-opacity: 1; stroke-width: 1px;"/><path class="xgrid crisp" transform="translate(397.53,0)" d="M0,80v211.6" style="stroke: rgb(204, 204, 204); stroke-opacity: 1; stroke-width: 1px;"/><path class="xgrid crisp" transform="translate(515.37,0)" d="M0,80v211.6" style="stroke: rgb(204, 204, 204); stroke-opacity: 1; stroke-width: 1px;"/><path class="xgrid crisp" transform="translate(637.21,0)" d="M0,80v211.6" style="stroke: rgb(204, 204, 204); stroke-opacity: 1; stroke-width: 1px;"/><path class="xgrid crisp" transform="translate(759.04,0)" d="M0,80v211.6" style="stroke: rgb(204, 204, 204); stroke-opacity: 1; stroke-width: 1px;"/></g><g class="y"><path class="ygrid crisp" transform="translate(0,268.46000000000004)" d="M56,0h733" style="stroke: rgb(204, 204, 204); stroke-opacity: 1; stroke-width: 1px;"/><path class="ygrid crisp" transform="translate(0,232.47)" d="M56,0h733" style="stroke: rgb(204, 204, 204); stroke-opacity: 1; stroke-width: 1px;"/><path class="ygrid crisp" transform="translate(0,196.48000000000002)" d="M56,0h733" style="stroke: rgb(204, 204, 204); stroke-opacity: 1; stroke-width: 1px;"/><path class="ygrid crisp" transform="translate(0,160.49)" d="M56,0h733" style="stroke: rgb(204, 204, 204); stroke-opacity: 1; stroke-width: 1px;"/><path class="ygrid crisp" transform="translate(0,124.5)" d="M56,0h733" style="stroke: rgb(204, 204, 204); stroke-opacity: 1; stroke-width: 1px;"/><path class="ygrid crisp" transform="translate(0,88.51)" d="M56,0h733" style="stroke: rgb(204, 204, 204); stroke-opacity: 1; stroke-width: 1px;"/></g></g><g class="zerolinelayer"/><g class="layer-between"><g class="shapelayer"/><g class="imagelayer"/></g><path class="xlines-below"/><path class="ylines-below"/><g class="overlines-below"/><g class="xaxislayer-below"/><g class="yaxislayer-below"/><g class="overaxes-below"/><g class="overplot"><g class="xy" transform="translate(56,80)" clip-path="url(#clip70dd40xyplot)"><g class="scatterlayer mlayer"><g class="trace scatter trace7d4829" style="stroke-miterlimit: 2; opacity: 1;"><g class="fills"/><g class="errorbars"/><g class="lines"><path class="js-line" d="M0,138.98Q1.47,152.91 2,153.01C2.28,153.06 3.58,149.76 3.99,149.59C4.28,149.47 5.71,150.28 5.99,150.13C6.47,149.88 7.58,145.76 7.99,144.56C8.73,142.42 13.29,129.1 13.98,126.56C14.47,124.74 15.66,117.01 15.98,117.02C16.33,117.03 17.36,127.5 17.98,128.36C18.26,128.74 19.69,129.55 19.97,129.44C20.43,129.26 21.44,123.94 21.97,123.86C22.65,123.75 27.27,131.81 27.96,131.6C29.06,131.27 29.54,106.96 29.96,106.94C30.25,106.93 31.55,118.6 31.96,118.64C32.25,118.67 33.67,114.36 33.95,113.06C34.54,110.27 34.56,88.45 35.95,86.07C36.67,84.85 41.26,82.87 41.94,82.11C42.47,81.51 43.65,78.11 43.94,78.15C44.38,78.21 45.32,87.74 45.94,88.41C46.22,88.71 47.65,88.66 47.93,88.95C48.53,89.58 49.12,98.09 49.93,98.49C50.6,98.82 55.25,95.28 55.92,95.61C56.71,95.99 57.62,104.61 57.92,104.6C58.31,104.58 59.59,89.49 59.92,89.49C60.25,89.49 61.57,102.24 61.92,104.6C62.24,106.7 63.04,115.13 63.91,116.48C64.58,117.52 69.23,120.72 69.9,120.44C70.7,120.11 71.32,111.2 71.9,110.36C72.18,109.96 73.62,109 73.9,109.1C74.37,109.27 75.61,115.42 75.9,115.4C76.32,115.36 76.86,101.99 77.89,101.37C78.58,100.96 83.22,102.77 83.89,103.53C84.7,104.45 85.3,112.17 85.88,112.52C86.16,112.69 87.6,112.28 87.88,111.98C88.5,111.32 89.55,101.91 89.88,101.91C90.21,101.91 91.22,110.2 91.87,111.98C92.69,114.25 99.02,126.73 99.86,126.56C100.79,126.37 101.35,108.72 101.86,106.4C102.14,105.13 103.58,101.99 103.86,100.65C104.46,97.76 105.04,76.69 105.86,72.57C106.53,69.19 111.11,54.59 111.85,54.58C112.26,54.58 113.54,60.18 113.84,60.16C114.23,60.13 115.43,51.46 115.84,50.08C116.13,49.08 117.55,45.01 117.84,45.04C118.25,45.08 119.16,54.96 119.84,55.12C120.51,55.28 125.09,48.29 125.83,47.38C126.24,46.87 127.55,44.97 127.83,45.04C128.32,45.16 129.5,52.45 129.82,54.04C130.17,55.82 131.47,63.59 131.82,65.37C132.14,66.96 133,73.51 133.82,74.37C134.49,75.07 139.14,76.35 139.81,75.99C140.49,75.62 141.46,69.88 141.81,69.87C142.13,69.86 143.38,74.34 143.8,74.91C144.09,75.31 145.5,76.18 145.8,76.53C146.18,76.97 147.41,79.98 147.8,79.95C148.58,79.9 153.05,65.38 153.79,65.37C154.2,65.36 155.48,69.89 155.79,69.87C156.16,69.85 157.43,64.12 157.78,63.04C158.1,62.06 159.45,57.46 159.78,57.46C160.12,57.46 161.31,62.39 161.78,63.57C162.48,65.3 167.1,76.07 167.77,75.99C168.33,75.92 169.17,67.09 169.77,66.45C170.05,66.16 171.47,65.79 171.77,65.91C172.17,66.07 173.48,69.22 173.76,69.15C174.48,68.98 174.31,44.36 175.76,43.42C176.48,42.95 181.08,45.91 181.75,45.58C182.42,45.25 183.41,39.46 183.75,39.46C184.08,39.46 185.47,45.07 185.75,45.04C186.21,44.99 187.31,29.42 187.74,29.38C188.03,29.36 189.13,35.87 189.74,36.04C190.41,36.22 195.06,31.56 195.73,30.46C196.37,29.39 197.24,23.82 197.73,23.08C198.01,22.65 199.45,21.38 199.73,21.47C200.23,21.64 201.33,28.26 201.72,29.38C202.02,30.25 203.15,33.69 203.72,33.88C204.39,34.1 209.04,31.23 209.71,30.46C210.3,29.78 211.43,25.38 211.71,25.42C212.18,25.48 213.35,38.2 213.71,40.54C214.02,42.57 215.29,50.38 215.71,51.88C216,52.91 217.09,56.29 217.7,56.92C218.37,57.62 223.02,59.88 223.69,59.62C224.27,59.4 225.41,55.08 225.69,55.12C226.22,55.2 227.34,72.57 227.69,72.57C228.01,72.57 229.13,58.67 229.69,58.54C229.97,58.47 231.16,61.09 231.68,61.42C232.36,61.86 237.01,62.95 237.68,62.5C238.51,61.95 239.18,54.48 239.67,53.5C239.95,52.94 241.39,51.09 241.67,51.16C242.17,51.29 243.34,59.22 243.67,60.88C244.01,62.61 244.84,71.14 245.66,71.49C246.33,71.78 250.9,67.76 251.66,67.53C252.06,67.41 253.35,67.39 253.65,67.53C254.03,67.7 255.36,69.93 255.65,69.87C256.06,69.79 257.31,65.06 257.65,64.11C257.98,63.17 259.14,59.55 259.65,58.54C260.33,57.18 264.97,50.98 265.64,49.54C266.18,48.39 267.26,42.9 267.63,42.88C267.94,42.86 269.22,46.55 269.63,47.38C270.16,48.45 272.99,53 273.63,54.58C274.7,57.2 278.67,76.3 279.62,76.53C279.96,76.61 281.33,74.87 281.62,74.37C282.05,73.63 283.31,68.05 283.61,68.07C284.01,68.1 285.24,78.18 285.61,79.95C285.92,81.41 287.03,86.56 287.61,87.87C288.28,89.38 292.82,96.77 293.6,96.87C293.99,96.92 295.29,95.45 295.6,95.07C295.97,94.61 297.27,92.27 297.59,91.65C297.94,90.96 299.31,87.11 299.59,87.15C300.12,87.23 300.51,104.09 301.59,104.6C302.28,104.92 306.91,101.62 307.58,100.65C308.34,99.55 309.09,91.77 309.58,91.65C309.86,91.58 311.29,94.06 311.57,93.99C312.04,93.88 313.23,85.54 313.57,85.53C313.89,85.52 314.86,92.02 315.57,92.91C316.24,93.75 320.87,96.3 321.56,96.15C322.05,96.04 323.28,94.07 323.56,93.45C324.03,92.42 324.96,84.61 325.56,84.45C326.05,84.32 328.81,88.94 329.55,88.95C330.44,88.97 334.78,82.75 335.54,82.65C335.94,82.6 337.24,83.59 337.54,83.91C337.94,84.35 339.17,87.06 339.54,87.87C340.11,89.11 342.59,97.15 343.53,97.41C344.33,97.63 348.82,92.81 349.52,92.91C349.99,92.98 351.24,95.68 351.52,95.61C352.08,95.47 353.15,82.12 353.52,82.11C353.83,82.1 355.15,91.64 355.51,91.65C355.82,91.66 356.8,84.78 357.51,84.45C358.18,84.14 362.82,87.36 363.5,87.15C364.02,86.99 365.21,84.62 365.5,83.91C365.95,82.81 366.91,75.39 367.5,74.91C367.78,74.69 369.22,74.67 369.5,74.91C370.28,75.6 370.81,87.8 371.49,90.57C372.31,93.9 378.66,112.06 379.48,111.98C380.1,111.92 381,100.54 381.48,99.03C381.76,98.15 383.12,95.65 383.48,95.07C383.79,94.56 385.06,92.96 385.47,92.37C386.21,91.31 390.79,83.29 391.47,83.37C391.98,83.43 393.15,87.93 393.46,88.95C393.82,90.15 395,96.76 395.46,96.87C395.74,96.94 397.11,94.56 397.46,94.53C397.78,94.5 399.08,95.73 399.46,96.15C400.25,97.01 404.62,104.49 405.45,105.14C405.82,105.43 407.11,105.71 407.44,105.86C407.78,106.01 409.16,107.08 409.44,106.94C410.16,106.57 410.81,93 411.44,91.65C411.72,91.06 412.96,89.75 413.44,89.49C414.13,89.11 418.73,89.15 419.43,88.41C420.58,87.19 420.99,72.07 421.43,72.03C421.72,72.01 423.14,78.9 423.42,78.87C423.91,78.82 424.98,60.26 425.42,57.46C425.71,55.63 426.57,49.54 427.42,48.46C428.25,47.4 434.59,44.14 435.41,44.5C436.14,44.82 436.89,50.87 437.4,51.16C437.68,51.32 439.11,50.48 439.4,50.62C439.84,50.83 440.95,55.1 441.4,55.12C442.11,55.15 446.53,45.17 447.39,44.5C447.75,44.22 449.08,43.87 449.39,43.96C449.76,44.07 451.09,46.19 451.38,46.12C451.82,46.02 453.08,40.71 453.38,39.46C453.76,37.89 454.93,28.67 455.38,28.66C456.09,28.64 460.43,52.46 461.37,54.58C461.71,55.35 463.05,56.93 463.37,57.46C463.73,58.06 465.09,60.52 465.37,61.42C465.89,63.1 466.61,75.67 467.36,76.53C467.64,76.85 468.93,77.05 469.36,77.07C470.09,77.1 474.67,75.71 475.35,75.99C475.87,76.2 477.07,78.1 477.35,78.87C478.07,80.86 478.93,99.26 479.35,102.45C479.64,104.66 480.98,111.91 481.34,113.6C481.65,115.04 482.86,121.5 483.34,121.52C484.03,121.56 488.53,106.8 489.33,105.14C489.71,104.37 491.05,101.86 491.33,101.91C491.8,101.99 492.82,111.85 493.33,111.98C493.61,112.05 495.04,109.55 495.32,109.64C496.27,109.96 496.27,144.98 497.32,145.16C498.01,145.28 502.64,131.03 503.31,131.1C503.86,131.16 505.01,141.24 505.31,141.23C505.7,141.22 506.97,124.36 507.31,124.36C507.64,124.36 508.92,137.85 509.31,140.1C509.61,141.82 510.86,149.09 511.3,149.1C512.01,149.11 516.54,128.22 517.29,125.48C517.69,124.01 518.87,118.8 519.29,118.73C519.58,118.68 520.97,121.04 521.29,121.54C521.63,122.07 522.77,124.82 523.29,124.92C524.13,125.08 530.46,118.46 531.28,118.73C531.97,118.95 532.97,125.5 533.27,125.48C533.67,125.45 534.62,113.42 535.27,113.11C535.55,112.98 536.99,113.88 537.27,114.23C537.75,114.81 538.69,120.3 539.26,120.42C539.93,120.56 544.59,114.97 545.26,113.67C545.93,112.35 546.87,104.69 547.25,104.67C547.55,104.65 548.95,109.2 549.25,110.3C549.65,111.78 550.94,120.99 551.25,120.98C551.62,120.97 552.15,106.96 553.25,105.8C553.94,105.07 558.57,104.23 559.24,104.67C560.04,105.19 560.66,112.52 561.23,113.11C561.51,113.4 562.95,113.41 563.23,113.67C563.71,114.12 564.84,119.24 565.23,119.29C565.53,119.33 566.77,116.53 567.23,116.48C567.93,116.41 572.52,121.3 573.22,122.11C573.68,122.63 574.94,124.22 575.22,124.92C575.8,126.4 576.63,139.95 577.21,140.1C577.49,140.17 578.9,137.83 579.21,137.29C579.58,136.64 580.81,132.77 581.21,132.79C581.97,132.82 586.52,149.71 587.2,149.66C587.72,149.62 588.9,141.43 589.2,139.54C589.58,137.15 590.78,123.25 591.19,123.23C591.48,123.21 592.84,131.66 593.19,131.67C593.51,131.68 594.66,124.43 595.19,124.36C595.87,124.28 600.51,133.13 601.18,135.04C601.85,136.97 602.71,145.95 603.18,147.41C603.46,148.28 604.87,151.38 605.17,151.35C605.56,151.31 606.89,144.01 607.17,144.04C607.75,144.1 607.64,174.37 609.17,177.22C609.9,178.57 614.49,180.65 615.16,181.72C615.95,182.97 616.86,191.85 617.16,191.84C617.56,191.82 618.3,173.5 619.16,172.72C619.44,172.47 620.87,172.92 621.15,172.72C621.65,172.35 622.65,167.8 623.15,166.53C624,164.34 630.24,150.97 631.14,149.1C631.57,148.2 632.84,145.94 633.14,145.16C633.53,144.14 634.82,137.84 635.13,137.85C635.5,137.86 636.22,147.78 637.13,148.54C637.81,149.1 642.45,149.01 643.12,148.54C643.78,148.07 644.81,142.9 645.12,142.91C645.48,142.93 646.7,150.73 647.12,150.79C647.41,150.83 648.83,147.36 649.11,147.41C649.56,147.48 650.35,155.77 651.11,156.97C651.78,158.02 656.43,161.66 657.1,161.47C657.67,161.31 658.75,156.43 659.1,156.41C659.42,156.4 660.82,160.4 661.1,160.35C661.69,160.24 662.59,140.16 663.1,140.1C663.38,140.07 664.47,145.49 665.09,145.72C665.76,145.97 670.4,143.3 671.08,142.35C671.95,141.12 672.57,131.21 673.08,131.1C673.36,131.04 674.78,133.97 675.08,133.92C675.48,133.86 676.53,127.8 677.08,127.73C677.91,127.62 684.15,140.03 685.07,140.1C685.49,140.13 686.78,138.49 687.06,137.85C687.83,136.07 688.11,115.66 689.06,114.79C689.34,114.53 690.74,114.87 691.06,114.79C691.4,114.7 692.61,113.79 693.05,113.67C693.76,113.48 698.37,113.09 699.05,113.67C700.01,114.49 700.73,123.39 701.04,125.48C701.4,127.85 702.52,138.98 703.04,140.66C703.32,141.56 704.43,144.16 705.04,144.6C705.87,145.19 712.17,144.87 713.03,145.72C714.13,146.8 714.64,156.78 715.02,158.66C715.32,160.14 716.62,166.49 717.02,166.53C717.32,166.56 718.7,162.59 719.02,162.6C719.37,162.62 720.51,166.76 721.02,167.66C721.7,168.87 726.2,175.26 727.01,175.53Q727.38,175.65 729.01,174.97" style="vector-effect: none; fill: none; stroke: rgb(0, 73, 25); stroke-opacity: 1; stroke-width: 2px; opacity: 1;"/></g><g class="points"/><g class="text"/></g></g></g></g><g class="zerolinelayer-above"/><path class="xlines-above crisp" d="M55,292.1H790M55,79.5H790" style="fill: none; stroke-width: 1px; stroke: rgb(204, 204, 204); stroke-opacity: 1;"/><path class="ylines-above crisp" d="M55.5,80V291.6M789.5,80V291.6" style="fill: none; stroke-width: 1px; stroke: rgb(204, 204, 204); stroke-opacity: 1;"/><g class="overlines-above"/><g class="xaxislayer-above"/><g class="yaxislayer-above"><path class="ytick ticks crisp" d="M55,0h-6" transform="translate(0,268.46000000000004)" style="stroke: rgb(255, 255, 255); stroke-opacity: 1; stroke-width: 1px;"/><path class="ytick ticks crisp" d="M55,0h-6" transform="translate(0,232.47)" style="stroke: rgb(255, 255, 255); stroke-opacity: 1; stroke-width: 1px;"/><path class="ytick ticks crisp" d="M55,0h-6" transform="translate(0,196.48000000000002)" style="stroke: rgb(255, 255, 255); stroke-opacity: 1; stroke-width: 1px;"/><path class="ytick ticks crisp" d="M55,0h-6" transform="translate(0,160.49)" style="stroke: rgb(255, 255, 255); stroke-opacity: 1; stroke-width: 1px;"/><path class="ytick ticks crisp" d="M55,0h-6" transform="translate(0,124.5)" style="stroke: rgb(255, 255, 255); stroke-opacity: 1; stroke-width: 1px;"/><path class="ytick ticks crisp" d="M55,0h-6" transform="translate(0,88.51)" style="stroke: rgb(255, 255, 255); stroke-opacity: 1; stroke-width: 1px;"/><g class="ytick"><text text-anchor="end" x="46.6" y="4.199999999999999" transform="translate(0,268.46000000000004)" style="font-family: Arial, sans-serif; font-size: 12px; fill: rgb(51, 51, 51); fill-opacity: 1; white-space: pre;">110.00</text></g><g class="ytick"><text text-anchor="end" x="46.6" y="4.199999999999999" style="font-family: Arial, sans-serif; font-size: 12px; fill: rgb(51, 51, 51); fill-opacity: 1; white-space: pre;" transform="translate(0,232.47)">112.00</text></g><g class="ytick"><text text-anchor="end" x="46.6" y="4.199999999999999" style="font-family: Arial, sans-serif; font-size: 12px; fill: rgb(51, 51, 51); fill-opacity: 1; white-space: pre;" transform="translate(0,196.48000000000002)">114.00</text></g><g class="ytick"><text text-anchor="end" x="46.6" y="4.199999999999999" style="font-family: Arial, sans-serif; font-size: 12px; fill: rgb(51, 51, 51); fill-opacity: 1; white-space: pre;" transform="translate(0,160.49)">116.00</text></g><g class="ytick"><text text-anchor="end" x="46.6" y="4.199999999999999" style="font-family: Arial, sans-serif; font-size: 12px; fill: rgb(51, 51, 51); fill-opacity: 1; white-space: pre;" transform="translate(0,124.5)">118.00</text></g><g class="ytick"><text text-anchor="end" x="46.6" y="4.199999999999999" style="font-family: Arial, sans-serif; font-size: 12px; fill: rgb(51, 51, 51); fill-opacity: 1; white-space: pre;" transform="translate(0,88.51)">120.00</text></g></g><g class="overaxes-above"/></g><g class="subplot x2y2"><g class="layer-subplot"><g class="shapelayer"/><g class="imagelayer"/></g><g class="minor-gridlayer"><g class="x2"/><g class="y2"/></g><g class="gridlayer"><g class="x2"><path class="x2grid crisp" transform="translate(153.87,0)" d="M0,328.4v211.60000000000002" style="stroke: rgb(204, 204, 204); stroke-opacity: 1; stroke-width: 1px;"/><path class="x2grid crisp" transform="translate(275.7,0)" d="M0,328.4v211.60000000000002" style="stroke: rgb(204, 204, 204); stroke-opacity: 1; stroke-width: 1px;"/><path class="x2grid crisp" transform="translate(397.53,0)" d="M0,328.4v211.60000000000002" style="stroke: rgb(204, 204, 204); stroke-opacity: 1; stroke-width: 1px;"/><path class="x2grid crisp" transform="translate(515.37,0)" d="M0,328.4v211.60000000000002" style="stroke: rgb(204, 204, 204); stroke-opacity: 1; stroke-width: 1px;"/><path class="x2grid crisp" transform="translate(637.21,0)" d="M0,328.4v211.60000000000002" style="stroke: rgb(204, 204, 204); stroke-opacity: 1; stroke-width: 1px;"/><path class="x2grid crisp" transform="translate(759.04,0)" d="M0,328.4v211.60000000000002" style="stroke: rgb(204, 204, 204); stroke-opacity: 1; stroke-width: 1px;"/></g><g class="y2"><path class="y2grid crisp" transform="translate(0,487.23)" d="M56,0h733" style="stroke: rgb(204, 204, 204); stroke-opacity: 1; stroke-width: 1px;"/><path class="y2grid crisp" transform="translate(0,444.19)" d="M56,0h733" style="stroke: rgb(204, 204, 204); stroke-opacity: 1; stroke-width: 1px;"/><path class="y2grid crisp" transform="translate(0,401.15)" d="M56,0h733" style="stroke: rgb(204, 204, 204); stroke-opacity: 1; stroke-width: 1px;"/><path class="y2grid crisp" transform="translate(0,358.10999999999996)" d="M56,0h733" style="stroke: rgb(204, 204, 204); stroke-opacity: 1; stroke-width: 1px;"/></g></g><g class="zerolinelayer"><path class="y2zl zl crisp" transform="translate(0,530.27)" d="M56,0h733" style="stroke: rgb(255, 255, 255); stroke-opacity: 1; stroke-width: 2px;"/></g><g class="layer-between"><g class="shapelayer"/><g class="imagelayer"/></g><path class="xlines-below"/><path class="ylines-below"/><g class="overlines-below"/><g class="xaxislayer-below"/><g class="yaxislayer-below"/><g class="overaxes-below"/><g class="overplot"><g class="x2y2" transform="translate(56,328.4)" clip-path="url(#clip70dd40x2y2plot)"><g class="scatterlayer mlayer"><g class="trace scatter tracebb1253" style="stroke-miterlimit: 2; opacity: 1;"><g class="fills"/><g class="errorbars"/><g class="lines"><path class="js-line" d="M0,127.58Q1.72,135.69 2,137.82C2.46,141.27 3.53,161.7 3.99,165.15C4.27,167.28 5.6,173.93 5.99,175.4C6.29,176.54 7.48,181.32 7.99,181.38C8.67,181.46 13.31,173.65 13.98,171.98C14.62,170.37 15.43,162.69 15.98,161.74C16.26,161.26 17.69,159.95 17.98,160.03C18.42,160.15 19.64,166.01 19.97,166.01C20.3,166.01 21.29,160.6 21.97,160.03C22.64,159.47 27.2,160.01 27.96,159.17C30,156.92 29.41,115.66 29.96,115.62C30.24,115.6 31.52,126.66 31.96,126.72C32.25,126.76 33.67,123.57 33.95,122.45C34.77,119.15 34.01,82.85 35.95,81.46C36.7,80.92 41.21,82.26 41.94,83.17C43.55,85.16 43.3,112.96 43.94,113.06C44.22,113.1 45.66,107.89 45.94,107.93C46.51,108.01 47.49,130.96 47.93,130.99C48.22,131.01 49.57,121.58 49.93,121.6C50.79,121.64 54.81,176.07 55.92,176.25C56.24,176.3 57.55,172.58 57.92,171.98C58.23,171.48 59.64,170.14 59.92,169.42C60.73,167.33 61.4,145.23 61.92,142.09C62.2,140.4 63.14,135.01 63.91,134.41C64.58,133.89 69.19,133.77 69.9,134.41C71.19,135.57 71.52,151.19 71.9,154.05C72.2,156.29 73.54,164.14 73.9,166.01C74.22,167.67 75.62,175.42 75.9,175.4C76.36,175.37 76.49,151.48 77.89,150.63C78.61,150.2 83.21,153.42 83.89,153.2C84.42,153.03 85.6,149.71 85.88,149.78C86.76,150 86.6,188.7 87.88,189.92C88.17,190.19 89.59,190.1 89.88,189.92C90.32,189.64 91.38,185.69 91.87,185.65C92.72,185.58 99.03,197.74 99.86,197.6C100.47,197.5 101.33,190.54 101.86,189.92C102.14,189.6 103.57,189.47 103.86,189.06C105.14,187.21 105.08,152.16 105.86,145.51C106.53,139.8 111.07,113.94 111.85,113.91C112.24,113.9 113.54,121.61 113.84,121.6C114.22,121.58 115.48,109.65 115.84,109.64C116.16,109.63 117.52,117.38 117.84,119.04C118.19,120.91 119.33,128.75 119.84,130.99C120.52,133.97 125.16,148.16 125.83,151.49C126.44,154.55 127.38,169.38 127.83,169.42C128.11,169.44 129.39,163.43 129.82,162.59C130.11,162.03 131.54,160.67 131.82,160.03C132.37,158.75 133.08,147.39 133.82,147.22C134.49,147.06 139.13,153.92 139.81,155.76C140.77,158.35 141.04,175.94 141.81,176.25C142.09,176.36 143.51,174.48 143.8,174.55C144.22,174.66 145.33,179.35 145.8,179.67C146.08,179.86 147.43,179.85 147.8,179.67C148.62,179.27 153.12,171.84 153.79,171.98C154.39,172.1 155.4,178.59 155.79,179.67C156.09,180.5 157.5,183 157.78,183.94C158.26,185.55 159.05,196.97 159.78,197.6C160.06,197.84 161.38,197.49 161.78,197.6C162.53,197.8 167.02,200.82 167.77,201.02C168.17,201.13 169.44,201.02 169.77,201.02C170.1,201.02 171.44,201.02 171.77,201.02C172.1,201.02 173.47,201.19 173.76,201.02C174.17,200.78 175.21,197.91 175.76,197.6C176.43,197.21 181.02,197.6 181.75,197.6C182.17,197.6 183.44,197.72 183.75,197.6C184.11,197.47 185.43,196.23 185.75,195.9C186.1,195.53 187.39,193.37 187.74,193.33C188.06,193.3 189.28,194.87 189.74,195.04C190.44,195.3 195.01,195.19 195.73,195.04C196.16,194.95 197.39,194.26 197.73,194.19C198.06,194.12 199.4,194.26 199.73,194.19C200.07,194.12 201.42,193.57 201.72,193.33C202.09,193.04 203.22,191.02 203.72,190.77C204.4,190.44 209.04,190.27 209.71,190.77C210.44,191.31 211.4,197.61 211.71,197.6C212.08,197.58 213.21,188.46 213.71,187.36C213.99,186.74 215.33,184.98 215.71,184.79C216.01,184.64 217.28,184.76 217.7,184.79C218.43,184.84 223.02,185.04 223.69,185.65C224.5,186.39 225.38,194.2 225.69,194.19C226.06,194.18 227.02,182.25 227.69,181.38C227.97,181.02 229.35,180.59 229.69,180.52C230.02,180.45 231.35,180.28 231.68,180.52C232.7,181.25 236.76,198.21 237.68,198.46C238.02,198.55 239.32,196.8 239.67,196.75C239.99,196.7 241.36,197.68 241.67,197.6C242.04,197.5 243.35,195.02 243.67,195.04C244.02,195.06 245.11,198.15 245.66,198.46C246.33,198.85 250.93,198.46 251.66,198.46C252.08,198.46 253.32,198.46 253.65,198.46C253.98,198.46 255.32,198.53 255.65,198.46C255.99,198.39 257.31,197.67 257.65,197.6C257.98,197.53 259.24,197.68 259.65,197.6C260.39,197.45 264.93,195.48 265.64,195.04C266.09,194.76 267.27,193.46 267.63,193.33C267.94,193.21 269.29,193.15 269.63,193.33C270.27,193.67 272.96,199.38 273.63,199.31C274.62,199.21 278.7,185.17 279.62,184.79C279.96,184.65 281.31,185.73 281.62,185.65C281.99,185.55 283.32,183.64 283.61,183.09C284.02,182.33 285.31,177.09 285.61,177.11C286.01,177.14 286.84,186.73 287.61,188.21C288.28,189.49 292.81,193.86 293.6,194.19C293.98,194.35 295.29,194.31 295.6,194.19C295.96,194.06 297.29,192.42 297.59,192.48C297.99,192.57 299.31,196.8 299.59,196.75C300.15,196.66 300.43,178.55 301.59,177.96C302.29,177.6 306.84,181.01 307.58,181.38C307.99,181.59 309.25,182.09 309.58,182.23C309.91,182.37 311.29,183.22 311.57,183.09C312.05,182.88 313.19,177.95 313.57,177.11C313.87,176.44 315.02,173.95 315.57,173.69C316.24,173.36 320.86,174.23 321.56,174.55C322.02,174.76 323.21,176.2 323.56,176.25C323.88,176.3 325.19,175.34 325.56,175.4C326.14,175.49 328.8,178.79 329.55,178.82C330.43,178.86 334.87,174.33 335.54,174.55C336.16,174.75 337.26,179.21 337.54,180.52C338.05,182.9 338.44,200.37 339.54,201.02C340.04,201.32 342.78,199.46 343.53,199.31C344.41,199.13 348.82,199.05 349.52,199.31C349.98,199.48 351.19,201.02 351.52,201.02C351.85,201.02 353.17,199.53 353.52,199.31C353.84,199.11 355.21,198.72 355.51,198.46C355.91,198.11 356.96,195.35 357.51,195.04C358.18,194.65 362.77,195.04 363.5,195.04C363.92,195.04 365.22,194.84 365.5,195.04C366,195.4 367,200.66 367.5,201.02C367.78,201.22 369.21,201.19 369.5,201.02C369.91,200.78 371.12,198.49 371.49,197.6C372.52,195.11 378.64,171.59 379.48,167.71C380.01,165.28 380.94,155.9 381.48,155.76C381.76,155.69 383.1,158.13 383.48,158.32C383.78,158.47 385.1,158.5 385.47,158.32C386.29,157.92 390.78,150.55 391.47,150.63C391.95,150.68 393.13,154.9 393.46,154.9C393.79,154.9 395.11,150.65 395.46,150.63C395.78,150.62 397.08,153.99 397.46,154.05C397.77,154.1 399.06,152.76 399.46,152.34C400.22,151.54 404.78,144.5 405.45,144.66C406.17,144.84 406.96,154.47 407.44,155.76C407.72,156.52 409.16,159.23 409.44,159.17C410.16,159 411.06,132.71 411.44,132.7C411.74,132.69 412.78,147.01 413.44,149.78C414.11,152.56 418.75,166.11 419.43,166.01C420.36,165.87 420.55,135.88 421.43,133.55C421.71,132.82 423.14,131.61 423.42,130.99C423.94,129.83 424.76,120.44 425.42,119.89C425.7,119.66 426.98,119.94 427.42,119.89C428.31,119.8 434.58,117.67 435.41,118.18C436.23,118.69 437.12,124.14 437.4,125.87C437.95,129.27 439.01,152.12 439.4,156.61C439.7,160.13 440.49,175.16 441.4,175.4C442.08,175.58 446.61,166.96 447.39,166.86C447.78,166.81 449.1,168.14 449.39,168.57C449.83,169.23 450.9,174.33 451.38,174.55C451.66,174.68 453.1,174 453.38,173.69C453.86,173.17 455.04,169.23 455.38,167.71C456.35,163.34 459.84,117.67 461.37,115.62C461.68,115.2 463.06,114.69 463.37,114.77C463.74,114.87 465.09,117.4 465.37,117.33C465.89,117.2 466.73,106.57 467.36,106.23C467.64,106.08 469,106.76 469.36,107.08C470.2,107.82 474.51,117.05 475.35,117.33C475.71,117.45 477.07,116.84 477.35,116.47C478.13,115.43 478.57,99.85 479.35,99.4C479.63,99.24 481.02,100.3 481.34,100.25C481.69,100.2 482.91,98.56 483.34,98.54C484.06,98.51 488.65,102.06 489.33,102.81C489.83,103.36 491.02,106.25 491.33,106.23C491.7,106.2 492.88,101.29 493.33,101.1C493.61,100.98 495.03,102.14 495.32,101.96C496.94,100.93 495.24,39.78 497.32,34.49C498.08,32.55 502.52,27.84 503.31,27.66C503.69,27.57 505.03,28.66 505.31,28.51C505.92,28.19 506.81,19.37 507.31,18.27C507.59,17.65 508.94,15.99 509.31,15.7C509.61,15.47 510.89,15.08 511.3,14.85C512.05,14.43 516.62,10.33 517.29,10.58C518.02,10.85 518.71,18.66 519.29,19.12C519.57,19.34 520.98,19 521.29,19.12C521.65,19.25 522.81,20.54 523.29,20.83C524.15,21.37 530.39,24.24 531.28,24.24C531.72,24.24 532.98,23.67 533.27,23.39C533.7,22.98 534.83,19.4 535.27,19.12C535.56,18.94 536.99,18.87 537.27,19.12C538.12,19.89 538.01,36.62 539.26,37.91C539.97,38.64 544.54,38.86 545.26,38.76C545.69,38.7 546.97,37.76 547.25,37.91C547.94,38.3 548.84,51.54 549.25,51.57C549.54,51.59 550.93,45.95 551.25,44.74C551.6,43.4 552.44,36.84 553.25,36.2C553.92,35.67 558.45,35.44 559.24,36.2C561.78,38.66 560.45,93.16 561.23,98.54C561.51,100.46 562.86,105.09 563.23,106.23C563.54,107.18 564.93,110.38 565.23,111.35C565.61,112.58 566.75,118.24 567.23,119.89C567.92,122.26 572.55,134.25 573.22,136.97C573.8,139.34 574.94,147.79 575.22,150.63C575.68,155.26 576.27,184.85 577.21,187.36C577.49,188.11 578.88,189.92 579.21,189.92C579.54,189.92 580.87,188.05 581.21,187.36C582.14,185.48 586.52,167.66 587.2,164.3C587.72,161.74 588.91,153.41 589.2,150.63C589.65,146.3 590.62,117.39 591.19,117.33C591.47,117.3 592.82,124.99 593.19,125.01C593.5,125.03 594.68,120.79 595.19,119.89C595.87,118.69 600.45,113.14 601.18,112.2C601.6,111.66 602.8,109.83 603.18,109.64C603.48,109.49 604.84,109.71 605.17,109.64C605.51,109.57 606.88,109.21 607.17,108.79C608.67,106.61 607.93,50.9 609.17,50.72C609.87,50.62 614.49,68.71 615.16,68.65C615.76,68.59 616.81,55.72 617.16,53.28C617.48,51.05 618.49,40.84 619.16,40.47C619.43,40.32 620.83,41.37 621.15,41.32C621.5,41.27 622.73,40.05 623.15,39.62C624.07,38.66 630.17,29.62 631.14,29.37C631.53,29.27 632.85,30.34 633.14,30.22C633.59,30.03 634.82,25.09 635.13,25.1C635.49,25.12 636.41,31.3 637.13,31.93C637.8,32.51 642.44,33.06 643.12,32.78C643.62,32.58 644.84,30.15 645.12,30.22C645.61,30.33 646.77,38.14 647.12,39.62C647.44,40.97 648.7,46.3 649.11,47.3C649.4,48.01 650.57,50.3 651.11,50.72C651.79,51.24 656.43,51.77 657.1,52.43C657.81,53.14 658.79,58 659.1,59.26C659.47,60.79 660.81,69.53 661.1,69.51C661.54,69.49 662.16,46.05 663.1,44.74C663.38,44.35 664.66,43.92 665.09,43.89C665.81,43.84 670.3,44.59 671.08,45.59C673.56,48.77 671.45,106.35 673.08,107.93C673.37,108.21 674.78,107.78 675.08,107.93C675.46,108.12 676.71,109.8 677.08,110.5C678.13,112.52 683.87,135.57 685.07,136.12C685.41,136.28 686.78,135.67 687.06,135.26C688.3,133.48 688.61,94.29 689.06,94.27C689.35,94.26 690.37,109.22 691.06,110.5C691.33,111.01 692.65,111.8 693.05,112.2C693.8,112.94 698.33,119.06 699.05,119.04C699.48,119.03 700.76,117.14 701.04,116.47C701.67,114.92 702.23,100.12 703.04,99.4C703.32,99.15 704.6,99.33 705.04,99.4C705.94,99.54 712.18,102.48 713.03,101.96C714.05,101.33 714.48,90.14 715.02,90C715.3,89.93 716.64,92.37 717.02,92.56C717.32,92.71 718.69,92.63 719.02,92.56C719.36,92.49 720.62,91.96 721.02,91.71C721.78,91.24 726.27,86.27 727.01,86.59Q728.72,87.33 729.01,128.43" style="vector-effect: none; fill: none; stroke: rgb(255, 73, 73); stroke-opacity: 1; stroke-width: 2px; opacity: 1;"/></g><g class="points"/><g class="text"/></g></g></g></g><g class="zerolinelayer-above"/><path class="xlines-above crisp" d="M55,540.5H790M55,327.9H790" style="fill: none; stroke-width: 1px; stroke: rgb(204, 204, 204); stroke-opacity: 1;"/><path class="ylines-above crisp" d="M55.5,328.4V540M789.5,328.4V540" style="fill: none; stroke-width: 1px; stroke: rgb(204, 204, 204); stroke-opacity: 1;"/><g class="overlines-above"/><g class="xaxislayer-above"><g class="x2tick"><text text-anchor="middle" x="0" y="555.4" transform="translate(153.87,0)" style="font-family: Arial, sans-serif; font-size: 12px; fill: rgb(51, 51, 51); fill-opacity: 1; white-space: pre;">Sep 2025</text></g><g class="x2tick"><text text-anchor="middle" x="0" y="555.4" style="font-family: Arial, sans-serif; font-size: 12px; fill: rgb(51, 51, 51); fill-opacity: 1; white-space: pre;" transform="translate(275.7,0)">Nov 2025</text></g><g class="x2tick"><text text-anchor="middle" x="0" y="555.4" style="font-family: Arial, sans-serif; font-size: 12px; fill: rgb(51, 51, 51); fill-opacity: 1; white-space: pre;" transform="translate(397.53,0)">Jan 2026</text></g><g class="x2tick"><text text-anchor="middle" x="0" y="555.4" style="font-family: Arial, sans-serif; font-size: 12px; fill: rgb(51, 51, 51); fill-opacity: 1; white-space: pre;" transform="translate(515.37,0)">Mar 2026</text></g><g class="x2tick"><text text-anchor="middle" x="0" y="555.4" style="font-family: Arial, sans-serif; font-size: 12px; fill: rgb(51, 51, 51); fill-opacity: 1; white-space: pre;" transform="translate(637.21,0)">May 2026</text></g><g class="x2tick"><text text-anchor="middle" x="0" y="555.4" style="font-family: Arial, sans-serif; font-size: 12px; fill: rgb(51, 51, 51); fill-opacity: 1; white-space: pre;" transform="translate(759.04,0)">Jul 2026</text></g></g><g class="yaxislayer-above"><path class="y2tick ticks crisp" d="M55,0h-6" transform="translate(0,530.27)" style="stroke: rgb(255, 255, 255); stroke-opacity: 1; stroke-width: 1px;"/><path class="y2tick ticks crisp" d="M55,0h-6" transform="translate(0,487.23)" style="stroke: rgb(255, 255, 255); stroke-opacity: 1; stroke-width: 1px;"/><path class="y2tick ticks crisp" d="M55,0h-6" transform="translate(0,444.19)" style="stroke: rgb(255, 255, 255); stroke-opacity: 1; stroke-width: 1px;"/><path class="y2tick ticks crisp" d="M55,0h-6" transform="translate(0,401.15)" style="stroke: rgb(255, 255, 255); stroke-opacity: 1; stroke-width: 1px;"/><path class="y2tick ticks crisp" d="M55,0h-6" transform="translate(0,358.10999999999996)" style="stroke: rgb(255, 255, 255); stroke-opacity: 1; stroke-width: 1px;"/><g class="y2tick"><text text-anchor="end" x="46.6" y="4.199999999999999" transform="translate(0,530.27)" style="font-family: Arial, sans-serif; font-size: 12px; fill: rgb(51, 51, 51); fill-opacity: 1; white-space: pre;">0</text></g><g class="y2tick"><text text-anchor="end" x="46.6" y="4.199999999999999" style="font-family: Arial, sans-serif; font-size: 12px; fill: rgb(51, 51, 51); fill-opacity: 1; white-space: pre;" transform="translate(0,487.23)">20</text></g><g class="y2tick"><text text-anchor="end" x="46.6" y="4.199999999999999" style="font-family: Arial, sans-serif; font-size: 12px; fill: rgb(51, 51, 51); fill-opacity: 1; white-space: pre;" transform="translate(0,444.19)">40</text></g><g class="y2tick"><text text-anchor="end" x="46.6" y="4.199999999999999" style="font-family: Arial, sans-serif; font-size: 12px; fill: rgb(51, 51, 51); fill-opacity: 1; white-space: pre;" transform="translate(0,401.15)">60</text></g><g class="y2tick"><text text-anchor="end" x="46.6" y="4.199999999999999" style="font-family: Arial, sans-serif; font-size: 12px; fill: rgb(51, 51, 51); fill-opacity: 1; white-space: pre;" transform="translate(0,358.10999999999996)">80</text></g></g><g class="overaxes-above"/></g></g><g class="polarlayer"/><g class="smithlayer"/><g class="ternarylayer"/><g class="geolayer"/><g class="funnelarealayer"/><g class="pielayer"/><g class="iciclelayer"/><g class="treemaplayer"/><g class="sunburstlayer"/><g class="glimages"/><defs id="topdefs-70dd40"><g class="clips"/></defs><g class="layer-above"><g class="imagelayer"/><g class="shapelayer"><g class="shape-group" data-index="0" clip-path="url(#clip70dd40y)"><path data-index="0" fill-rule="evenodd" d="M56,254.97L789,254.97" style="opacity: 1; stroke: rgb(136, 136, 136); stroke-opacity: 1; fill: rgb(0, 0, 0); fill-opacity: 0; stroke-dasharray: 3px, 3px; stroke-width: 1px;"/></g><g class="shape-group" data-index="1" clip-path="url(#clip70dd40y)"><path data-index="1" fill-rule="evenodd" d="M56,2247.98L789,2247.98" style="opacity: 1; stroke: rgb(204, 204, 204); stroke-opacity: 1; fill: rgb(0, 0, 0); fill-opacity: 0; stroke-width: 1px;"/></g><g class="shape-group" data-index="2" clip-path="url(#clip70dd40y2)"><path data-index="2" fill-rule="evenodd" d="M56,530.27L789,530.27" style="opacity: 1; stroke: rgb(204, 204, 204); stroke-opacity: 1; fill: rgb(0, 0, 0); fill-opacity: 0; stroke-width: 1px;"/></g></g></g><g class="infolayer"><g class="g-gtitle"/><g class="g-xtitle"/><g class="g-x2title"><text class="x2title" x="422.5" y="582.000390625" text-anchor="middle" style="opacity: 1; font-family: Arial, sans-serif; font-size: 13px; fill: rgb(51, 51, 51); fill-opacity: 1; white-space: pre;"><tspan style="font-weight:bold">Last 52 Weeks</tspan></text></g><g class="g-ytitle"/><g class="g-y2title"/><g class="annotation" data-index="0" style="opacity: 1;"><g class="annotation-text-g" transform="rotate(0,422.5,64.89999999999999)"><g class="cursor-pointer" transform="translate(401,54)"><rect class="bg" x="0.5" y="0.5" width="42" height="20" style="stroke-width: 1px; stroke: rgb(0, 0, 0); stroke-opacity: 0; fill: rgb(0, 0, 0); fill-opacity: 0;"/><text class="annotation-text" text-anchor="middle" x="21.5703125" y="16" style="font-family: Arial, sans-serif; font-size: 16px; fill: rgb(51, 51, 51); fill-opacity: 1; white-space: pre;"><tspan style="font-weight:bold">Price</tspan></text></g></g></g><g class="annotation" data-index="1" style="opacity: 1;"><g class="annotation-text-g" transform="rotate(0,422.5,313.3)"><g class="cursor-pointer" transform="translate(341,303)"><rect class="bg" x="0.5" y="0.5" width="163" height="20" style="stroke-width: 1px; stroke: rgb(0, 0, 0); stroke-opacity: 0; fill: rgb(0, 0, 0); fill-opacity: 0;"/><text class="annotation-text" text-anchor="middle" x="81.8984375" y="16" style="font-family: Arial, sans-serif; font-size: 16px; fill: rgb(51, 51, 51); fill-opacity: 1; white-space: pre;"><tspan style="font-weight:bold">21-Day RV Percentile</tspan></text></g></g></g><g class="annotation" data-index="2" style="opacity: 1;"><g class="annotation-text-g" transform="rotate(0,28.869,254.79)"><g class="cursor-pointer" transform="translate(7,244)"><rect class="bg" x="0.5" y="0.5" width="43" height="21" style="stroke-width: 1px; stroke: rgb(0, 0, 0); stroke-opacity: 0; fill: rgb(255, 255, 255); fill-opacity: 1;"/><text class="annotation-text" text-anchor="middle" x="21.90625" y="15" style="font-family: Arial, sans-serif; font-size: 12px; fill: rgb(51, 51, 51); fill-opacity: 1; white-space: pre;">110.75</text></g></g></g></g></svg>