<svg class="main-svg" xmlns="http://www.w3.org/2000/svg" xmlns:xlink="http://www.w3.org/1999/xlink" width="800" height="500" style="" viewBox="0 0 800 500"><rect x="0" y="0" width="800" height="500" style="fill: rgb(255, 255, 255); fill-opacity: 1;"/><defs id="defs-92d781"><g class="clips"><clipPath id="clip92d781xyplot" class="plotclip"><rect width="647" height="380"/></clipPath><clipPath class="axesclip" id="clip92d781x"><rect x="57" y="0" width="647" height="500"/></clipPath><clipPath class="axesclip" id="clip92d781y"><rect x="0" y="60" width="800" height="380"/></clipPath><clipPath class="axesclip" id="clip92d781xy"><rect x="57" y="60" width="647" height="380"/></clipPath></g><g class="gradients"/><g class="patterns"/></defs><g class="bglayer"/><g class="layer-below"><g class="imagelayer"/><g class="shapelayer"/></g><g class="cartesianlayer"><g class="subplot xy"><g class="layer-subplot"><g class="shapelayer"/><g class="imagelayer"/></g><g class="minor-gridlayer"><g class="x"/><g class="y"/></g><g class="gridlayer"><g class="x"><path class="xgrid crisp" transform="translate(182.81,0)" d="M0,60v380" style="stroke: rgb(204, 204, 204); stroke-opacity: 1; stroke-width: 1px;"/><path class="xgrid crisp" transform="translate(311.18,0)" d="M0,60v380" style="stroke: rgb(204, 204, 204); stroke-opacity: 1; stroke-width: 1px;"/><path class="xgrid crisp" transform="translate(439.55,0)" d="M0,60v380" style="stroke: rgb(204, 204, 204); stroke-opacity: 1; stroke-width: 1px;"/><path class="xgrid crisp" transform="translate(567.9200000000001,0)" d="M0,60v380" style="stroke: rgb(204, 204, 204); stroke-opacity: 1; stroke-width: 1px;"/><path class="xgrid crisp" transform="translate(696.3,0)" d="M0,60v380" style="stroke: rgb(204, 204, 204); stroke-opacity: 1; stroke-width: 1px;"/></g><g class="y"><path class="ygrid crisp" transform="translate(0,409.1)" d="M57,0h647" style="stroke: rgb(204, 204, 204); stroke-opacity: 1; stroke-width: 1px;"/><path class="ygrid crisp" transform="translate(0,361.99)" d="M57,0h647" style="stroke: rgb(204, 204, 204); stroke-opacity: 1; stroke-width: 1px;"/><path class="ygrid crisp" transform="translate(0,314.88)" d="M57,0h647" style="stroke: rgb(204, 204, 204); stroke-opacity: 1; stroke-width: 1px;"/><path class="ygrid crisp" transform="translate(0,267.76)" d="M57,0h647" style="stroke: rgb(204, 204, 204); stroke-opacity: 1; stroke-width: 1px;"/><path class="ygrid crisp" transform="translate(0,173.54000000000002)" d="M57,0h647" style="stroke: rgb(204, 204, 204); stroke-opacity: 1; stroke-width: 1px;"/><path class="ygrid crisp" transform="translate(0,126.42)" d="M57,0h647" style="stroke: rgb(204, 204, 204); stroke-opacity: 1; stroke-width: 1px;"/><path class="ygrid crisp" transform="translate(0,79.31)" d="M57,0h647" style="stroke: rgb(204, 204, 204); stroke-opacity: 1; stroke-width: 1px;"/></g></g><g class="zerolinelayer"><path class="yzl zl crisp" transform="translate(0,220.65)" d="M57,0h647" style="stroke: rgb(204, 204, 204); stroke-opacity: 1; stroke-width: 1px;"/></g><g class="layer-between"><g class="shapelayer"/><g class="imagelayer"/></g><path class="xlines-below"/><path class="ylines-below"/><g class="overlines-below"/><g class="xaxislayer-below"/><g class="yaxislayer-below"/><g class="overaxes-below"/><g class="overplot"><g class="xy" transform="translate(57,60)" clip-path="url(#clip92d781xyplot)"><g class="scatterlayer mlayer"><g class="trace scatter tracec6b14b" style="stroke-miterlimit: 2; opacity: 1;"><g class="fills"/><g class="errorbars"/><g class="lines"><path class="js-line" d="M0,160.65L2.57,154.75L5.13,179.11L7.7,194.52L10.27,185L12.84,187.29L15.4,192.04L17.97,181.39L20.54,178.35L23.11,212.97L25.67,218.3L28.24,234.85L30.81,233.14L33.38,219.44L35.94,236.76L38.51,247.98L41.08,236.76L43.65,241.51L46.21,223.06L48.78,209.36L51.35,188.62L53.92,156.47L56.48,196.8L59.05,230.86L61.62,214.12L64.19,217.16L66.75,239.04L69.32,240.37L71.89,236.19L74.46,271.77L77.02,261.11L79.59,254.45L82.16,267.01L84.73,265.3L87.29,276.52L89.86,270.05L92.43,251.03L95,259.97L97.56,265.3L100.13,256.93L102.7,232.57L105.27,240.94L107.83,217.16L110.4,202.89L112.97,200.42L115.54,204.6L118.1,206.31L123.24,228.39L125.81,257.5L128.37,257.5L130.94,267.58L133.51,257.5L136.08,255.78L138.64,252.17L141.21,236.19L143.78,244.94L146.35,239.61L148.91,229.53L151.48,224.2L154.05,260.54L156.62,275.95L159.18,275.38L161.75,262.82L164.32,279.57L166.88,287.94L169.45,271.19L172.02,317.05L174.59,323.52L177.15,304.49L179.72,341.97L182.29,347.87L184.86,330.56L187.42,343.69L189.99,335.31L192.56,336.08L195.13,333.03L197.69,349.01L200.26,360.43L202.83,349.58L205.4,336.08L207.96,350.35L210.53,327.7L213.1,325.23L215.67,310.39L218.23,305.06L220.8,294.41L223.37,302.78L225.94,293.27L228.5,306.77L233.64,292.5L236.21,267.58L238.77,272.91L241.34,282.99L243.91,287.75L246.48,282.42L249.04,283.75L251.61,293.84L254.18,291.93L256.75,312.29L259.31,333.03L261.88,315.72L264.45,303.35L267.02,273.48L272.15,243.23L274.72,239.61L277.29,278.23L279.85,290.22L282.42,274.81L284.99,247.41L290.12,223.06L292.69,239.61L295.26,223.63L297.83,233.14L300.39,233.71L302.96,230.67L305.53,227.81L308.1,251.03L310.66,243.8L313.23,262.82L315.8,305.63L318.37,294.98L320.93,269.48L323.5,253.88L326.07,250.46L328.63,261.68L331.2,255.78L333.77,234.85L336.34,232.57L338.9,247.41L341.47,225.91L344.04,221.16L349.17,247.98L351.74,254.45L354.31,249.69L356.88,268.72L362.01,243.8L364.58,237.9L369.71,215.83L372.28,182.53L374.85,134.39L377.42,127.93L382.55,184.43L385.12,192.62L387.69,175.49L390.25,167.12L395.39,142.77L397.96,167.69L400.52,160.08L403.09,149.81L408.23,127.35L410.79,152.85L413.36,142.2L415.93,143.34L418.5,150.57L421.06,153.99L423.63,161.22L426.2,173.59L431.33,134.39L433.9,125.45L439.04,115.94L441.6,101.67L444.17,104.14L446.74,112.51L451.87,96.34L454.44,102.24L459.58,135.54L462.14,133.25L467.28,137.44L469.85,151.71L472.41,150.57L474.98,140.29L477.55,153.42L480.12,138.01L485.25,167.69L487.82,195.66L490.38,208.22L492.95,211.64L495.52,218.3L498.09,229.53L500.65,225.91L503.22,237.33L505.79,212.97L508.36,207.65L510.92,233.14L513.49,228.39L516.06,258.07L518.63,262.25L521.19,270.62L523.76,256.93L526.33,265.87L528.9,277.66L531.46,277.09L534.03,270.05L536.6,271.77L539.17,293.84L541.73,277.09L544.3,268.15L546.87,304.49L549.44,288.51L552,274.24L554.57,277.66L557.14,303.35L559.71,312.29L562.27,298.59L564.84,303.35L567.41,303.35L569.98,291.93L575.11,306.77L577.68,303.92L580.25,265.87L582.81,270.62L587.95,242.66L590.52,239.04L593.08,248.55L595.65,237.33L598.22,235.43L600.79,230.1L603.35,245.7L605.92,251.6L613.62,304.49L616.19,305.63L618.76,301.45L621.33,327.13L623.89,346.73L626.46,337.79L629.03,355.67L631.6,349.58L634.16,348.44L636.73,361L639.3,345.59L641.87,350.35" style="vector-effect: none; fill: none; stroke: rgb(255, 73, 73); stroke-opacity: 1; stroke-width: 2px; opacity: 1;"/></g><g class="points"/><g class="text"/></g><g class="trace scatter trace6593f2" style="stroke-miterlimit: 2; opacity: 1;"><g class="fills"/><g class="errorbars"/><g class="lines"><path class="js-line" d="M0,160.65L2.57,165.21L5.13,173.49L7.7,193.58L10.27,197.51L12.84,213.05L15.4,220.91L17.97,219.47L20.54,185.92L23.11,176.18L25.67,174.32L28.24,162.51L30.81,167.07L33.38,178.67L35.94,172.25L38.51,147.6L41.08,153.61L43.65,153.61L46.21,141.81L48.78,157.34L51.35,147.6L53.92,139.94L56.48,110.74L59.05,112.19L61.62,123.79L64.19,126.27L66.75,139.32L69.32,167.69L71.89,134.76L74.46,123.79L77.02,141.81L79.59,142.43L82.16,134.14L84.73,112.19L87.29,107.01L89.86,79.68L92.43,66.84L95,78.44L97.56,66.22L100.13,51.31L102.7,63.52L105.27,77.81L107.83,86.3L110.4,100.39L112.97,74.5L115.54,94.59L118.1,103.08L120.67,90.03L123.24,98.52L128.37,88.17L130.94,82.99L133.51,78.44L136.08,85.48L138.64,105.56L141.21,101.84L146.35,121.1L148.91,91.48L151.48,87.55L154.05,60.42L156.62,72.64L159.18,43.44L161.75,19L164.32,80.3L166.88,119.23L169.45,144.5L174.59,172.25L177.15,145.12L182.29,128.97L184.86,143.88L187.42,175.56L189.99,163.96L192.56,152.16L195.13,130.83L202.83,92.1L205.4,101.01L210.53,136.63L213.1,145.12L215.67,139.94L218.23,126.89L220.8,146.98L223.37,148.43L228.5,182.6L231.07,189.02L233.64,174.94L236.21,168.31L238.77,180.74L241.34,185.29L243.91,222.16L246.48,213.67L249.04,203.93L251.61,178.05L254.18,189.85L256.75,172.25L259.31,172.25L261.88,189.02L264.45,183.85L267.02,154.23L269.58,167.07L272.15,194.2L277.29,185.29L279.85,170.38L282.42,149.05L284.99,171.01L287.56,183.22L290.12,162.51L292.69,163.14L295.26,160.03L297.83,148.43L300.39,140.56L302.96,143.88L305.53,136.01L308.1,145.74L310.66,125.03L313.23,126.89L315.8,141.18L318.37,150.3L320.93,171.63L323.5,175.56L326.07,154.23L328.63,150.3L331.2,178.05L333.77,181.36L336.34,197.51L338.9,193.58L341.47,194.2L344.04,187.78L346.61,167.07L349.17,156.09L351.74,169.14L354.31,170.38L356.88,163.96L359.44,172.87L362.01,144.5L364.58,157.96L367.15,151.54L369.71,120.48L372.28,115.92L374.85,111.36L377.42,123.17L379.98,123.79L382.55,134.76L385.12,131.45L387.69,141.81L390.25,124.41L392.82,141.81L395.39,155.47L397.96,160.03L400.52,148.43L403.09,146.98L405.66,154.23L408.23,138.08L410.79,140.56L413.36,150.92L415.93,150.3L418.5,138.7L421.06,150.3L423.63,167.07L426.2,143.88L428.77,137.25L431.33,104.94L433.9,84.23L436.47,90.65L439.04,79.06L441.6,73.26L444.17,84.86L446.74,75.95L449.31,73.26L457.01,107.01L459.58,108.88L462.14,101.84L464.71,107.64L467.28,109.5L469.85,113.43L472.41,96.66L474.98,101.84L480.12,87.55L482.68,94.59L485.25,108.88L487.82,97.9L490.38,97.28L492.95,101.01L495.52,71.39L498.09,73.88L500.65,66.84L503.22,73.26L505.79,55.24L508.36,62.9L510.92,56.48L513.49,47.99L516.06,46.13L518.63,55.24L521.19,60.42L523.76,56.48L526.33,50.69L528.9,68.08L531.46,81.13L534.03,86.93L536.6,90.03L539.17,84.86L541.73,104.94L544.3,88.79L546.87,92.1L549.44,93.35L552,82.99L554.57,80.3L559.71,103.7L562.27,99.14L564.84,99.14L567.41,101.84L572.54,88.79L575.11,78.44L577.68,70.77L580.25,75.95L582.81,84.23L585.38,109.5L587.95,107.01L590.52,99.77L593.08,113.43L595.65,122.55L598.22,132.9L600.79,130.83L605.92,121.72L608.49,141.81L611.06,137.25L613.62,126.89L616.19,129.59L618.76,119.85L621.33,128.34L623.89,132.07L626.46,128.97L629.03,118.61L631.6,123.79L634.16,116.54L636.73,117.99L639.3,122.55" style="vector-effect: none; fill: none; stroke: rgb(255, 121, 25); stroke-opacity: 1; stroke-width: 2px; opacity: 1;"/></g><g class="points"/><g class="text"/></g><g class="trace scatter trace533201" style="stroke-miterlimit: 2; opacity: 1;"><g class="fills"/><g class="errorbars"/><g class="lines"><path class="js-line" d="M0,160.65L2.57,155.53L5.13,158.6L7.7,143.25L10.27,154.1L12.84,145.91L15.4,148.98L17.97,145.3L20.54,135.06L23.11,135.06L25.67,152.87L28.24,177.23L30.81,162.49L35.94,154.92L38.51,144.68L41.08,151.03L43.65,160.04L46.21,157.38L48.78,159.22L51.35,169.45L53.92,170.27L56.48,171.5L59.05,154.1L61.62,151.64L64.19,150.41L66.75,131.78L69.32,139.56L71.89,115.2L74.46,104.96L77.02,100.46L79.59,108.03L82.16,107.42L84.73,112.54L87.29,100.46L89.86,99.84L92.43,102.3L95,94.73L97.56,82.44L100.13,111.92L102.7,115.2L105.27,119.7L107.83,136.9L110.4,137.52L112.97,136.29L115.54,139.56L118.1,166.38L120.67,179.08L123.24,188.09L125.81,169.45L128.37,165.77L130.94,177.23L133.51,174.57L136.08,214.98L138.64,198.99L141.21,210.5L143.78,191.31L146.35,209.22L148.91,219.46L151.48,192.59L154.05,184.91L156.62,188.11L159.18,191.95L161.75,184.91L164.32,192.59L166.88,178.51L169.45,179.79L172.02,186.83L174.59,179.15L177.15,168.92L179.72,175.32L182.29,187.47L184.86,170.2L187.42,168.92L189.99,178.51L192.56,179.15L195.13,185.55L197.69,182.35L200.26,188.75L202.83,191.95L205.4,209.22L207.96,206.03L210.53,200.91L213.1,220.1L215.67,208.58L218.23,190.03L220.8,199.63L223.37,191.31L228.5,217.54L231.07,222.02L233.64,213.7L236.21,251.45L238.77,256.57L241.34,268.09L243.91,246.33L246.48,246.33L249.04,239.29L251.61,219.46L254.18,214.98L256.75,206.66L259.31,218.82L261.88,218.82L264.45,212.42L267.02,221.38L269.58,217.54L272.15,228.42L274.72,233.54L277.29,227.78L279.85,232.26L282.42,209.22L284.99,215.62L287.56,211.78L290.12,198.99L292.69,202.19L295.26,195.15L297.83,209.22L300.39,206.66L302.96,180.43L305.53,180.43L308.1,179.15L310.66,179.15L313.23,192.59L315.8,209.86L318.37,214.34L320.93,215.62L323.5,230.34L326.07,239.29L328.63,234.82L331.2,240.57L333.77,249.53L336.34,248.89" style="vector-effect: none; fill: none; stroke: rgb(0, 73, 25); stroke-opacity: 1; stroke-width: 2px; opacity: 1;"/></g><g class="points"/><g class="text"/></g></g></g></g><g class="zerolinelayer-above"/><path class="xlines-above crisp" d="M56,440.5H705M56,59.5H705" style="fill: none; stroke-width: 1px; stroke: rgb(204, 204, 204); stroke-opacity: 1;"/><path class="ylines-above crisp" d="M56.5,60V440M704.5,60V440" style="fill: none; stroke-width: 1px; stroke: rgb(204, 204, 204); stroke-opacity: 1;"/><g class="overlines-above"/><g class="xaxislayer-above"><g class="xtick"><text text-anchor="middle" x="0" y="455.4" transform="translate(182.81,0)" style="font-family: Arial, sans-serif; font-size: 12px; fill: rgb(51, 51, 51); fill-opacity: 1; white-space: pre;">50</text></g><g class="xtick"><text text-anchor="middle" x="0" y="455.4" style="font-family: Arial, sans-serif; font-size: 12px; fill: rgb(51, 51, 51); fill-opacity: 1; white-space: pre;" transform="translate(311.18,0)">100</text></g><g class="xtick"><text text-anchor="middle" x="0" y="455.4" style="font-family: Arial, sans-serif; font-size: 12px; fill: rgb(51, 51, 51); fill-opacity: 1; white-space: pre;" transform="translate(439.55,0)">150</text></g><g class="xtick"><text text-anchor="middle" x="0" y="455.4" style="font-family: Arial, sans-serif; font-size: 12px; fill: rgb(51, 51, 51); fill-opacity: 1; white-space: pre;" transform="translate(567.9200000000001,0)">200</text></g><g class="xtick"><text text-anchor="middle" x="0" y="455.4" style="font-family: Arial, sans-serif; font-size: 12px; fill: rgb(51, 51, 51); fill-opacity: 1; white-space: pre;" transform="translate(696.3,0)">250</text></g></g><g class="yaxislayer-above"><path class="ytick ticks crisp" d="M56,0h-6" transform="translate(0,409.1)" style="stroke: rgb(255, 255, 255); stroke-opacity: 1; stroke-width: 1px;"/><path class="ytick ticks crisp" d="M56,0h-6" transform="translate(0,361.99)" style="stroke: rgb(255, 255, 255); stroke-opacity: 1; stroke-width: 1px;"/><path class="ytick ticks crisp" d="M56,0h-6" transform="translate(0,314.88)" style="stroke: rgb(255, 255, 255); stroke-opacity: 1; stroke-width: 1px;"/><path class="ytick ticks crisp" d="M56,0h-6" transform="translate(0,267.76)" style="stroke: rgb(255, 255, 255); stroke-opacity: 1; stroke-width: 1px;"/><path class="ytick ticks crisp" d="M56,0h-6" transform="translate(0,220.65)" style="stroke: rgb(255, 255, 255); stroke-opacity: 1; stroke-width: 1px;"/><path class="ytick ticks crisp" d="M56,0h-6" transform="translate(0,173.54000000000002)" style="stroke: rgb(255, 255, 255); stroke-opacity: 1; stroke-width: 1px;"/><path class="ytick ticks crisp" d="M56,0h-6" transform="translate(0,126.42)" style="stroke: rgb(255, 255, 255); stroke-opacity: 1; stroke-width: 1px;"/><path class="ytick ticks crisp" d="M56,0h-6" transform="translate(0,79.31)" style="stroke: rgb(255, 255, 255); stroke-opacity: 1; stroke-width: 1px;"/><g class="ytick"><text text-anchor="end" x="47.6" y="4.199999999999999" transform="translate(0,409.1)" style="font-family: Arial, sans-serif; font-size: 12px; fill: rgb(51, 51, 51); fill-opacity: 1; white-space: pre;">−8</text></g><g class="ytick"><text text-anchor="end" x="47.6" y="4.199999999999999" style="font-family: Arial, sans-serif; font-size: 12px; fill: rgb(51, 51, 51); fill-opacity: 1; white-space: pre;" transform="translate(0,361.99)">−6</text></g><g class="ytick"><text text-anchor="end" x="47.6" y="4.199999999999999" style="font-family: Arial, sans-serif; font-size: 12px; fill: rgb(51, 51, 51); fill-opacity: 1; white-space: pre;" transform="translate(0,314.88)">−4</text></g><g class="ytick"><text text-anchor="end" x="47.6" y="4.199999999999999" style="font-family: Arial, sans-serif; font-size: 12px; fill: rgb(51, 51, 51); fill-opacity: 1; white-space: pre;" transform="translate(0,267.76)">−2</text></g><g class="ytick"><text text-anchor="end" x="47.6" y="4.199999999999999" style="font-family: Arial, sans-serif; font-size: 12px; fill: rgb(51, 51, 51); fill-opacity: 1; white-space: pre;" transform="translate(0,220.65)">0</text></g><g class="ytick"><text text-anchor="end" x="47.6" y="4.199999999999999" style="font-family: Arial, sans-serif; font-size: 12px; fill: rgb(51, 51, 51); fill-opacity: 1; white-space: pre;" transform="translate(0,173.54000000000002)">2</text></g><g class="ytick"><text text-anchor="end" x="47.6" y="4.199999999999999" style="font-family: Arial, sans-serif; font-size: 12px; fill: rgb(51, 51, 51); fill-opacity: 1; white-space: pre;" transform="translate(0,126.42)">4</text></g><g class="ytick"><text text-anchor="end" x="47.6" y="4.199999999999999" style="font-family: Arial, sans-serif; font-size: 12px; fill: rgb(51, 51, 51); fill-opacity: 1; white-space: pre;" transform="translate(0,79.31)">6</text></g></g><g class="overaxes-above"/></g></g><g class="polarlayer"/><g class="smithlayer"/><g class="ternarylayer"/><g class="geolayer"/><g class="funnelarealayer"/><g class="pielayer"/><g class="iciclelayer"/><g class="treemaplayer"/><g class="sunburstlayer"/><g class="glimages"/><defs id="topdefs-92d781"><g class="clips"/><clipPath id="legend92d781"><rect width="73" height="67" x="0" y="0"/></clipPath></defs><g class="layer-above"><g class="imagelayer"/><g class="shapelayer"><g class="shape-group" data-index="0" clip-path="url(#clip92d781x)"><path data-index="0" fill-rule="evenodd" d="M393.34,440L393.34,60" style="opacity: 1; stroke: rgb(136, 136, 136); stroke-opacity: 1; fill: rgb(0, 0, 0); fill-opacity: 0; stroke-dasharray: 3px, 3px; stroke-width: 1px;"/></g><g class="shape-group" data-index="1" clip-path="url(#clip92d781x)"><path data-index="1" fill-rule="evenodd" d="M393.34,440L393.34,60" style="opacity: 1; stroke: rgb(136, 136, 136); stroke-opacity: 1; fill: rgb(0, 0, 0); fill-opacity: 0; stroke-dasharray: 3px, 3px; stroke-width: 1px;"/></g><g class="shape-group" data-index="2" clip-path="url(#clip92d781x)"><path data-index="2" fill-rule="evenodd" d="M393.34,440L393.34,60" style="opacity: 1; stroke: rgb(136, 136, 136); stroke-opacity: 1; fill: rgb(0, 0, 0); fill-opacity: 0; stroke-dasharray: 3px, 3px; stroke-width: 1px;"/></g></g></g><g class="infolayer"><g class="legend" pointer-events="all" transform="translate(716.94,60)"><rect class="bg" shape-rendering="crispEdges" style="stroke: rgb(68, 68, 68); stroke-opacity: 1; fill: rgb(255, 255, 255); fill-opacity: 1; stroke-width: 0px;" width="73" height="67" x="0" y="0"/><g class="scrollbox" transform="" clip-path="url(#legend92d781)"><g class="groups"><g class="traces" transform="translate(0,14.5)" style="opacity: 1;"><text class="legendtext" text-anchor="start" x="40" y="4.680000000000001" style="font-family: Arial, sans-serif; font-size: 12px; fill: rgb(51, 51, 51); fill-opacity: 1; white-space: pre;">2024</text><g class="layers" style="opacity: 1;"><g class="legendfill"/><g class="legendlines"><path class="js-line" d="M5,0h30" style="fill: none; stroke: rgb(255, 73, 73); stroke-opacity: 1; stroke-width: 2px;"/></g><g class="legendsymbols"><g class="legendpoints"/></g></g><rect class="legendtoggle" x="0" y="-9.5" width="67.021484375" height="19" style="fill: rgb(0, 0, 0); fill-opacity: 0;"/></g><g class="traces" transform="translate(0,33.5)" style="opacity: 1;"><text class="legendtext" text-anchor="start" x="40" y="4.680000000000001" style="font-family: Arial, sans-serif; font-size: 12px; fill: rgb(51, 51, 51); fill-opacity: 1; white-space: pre;">2025</text><g class="layers" style="opacity: 1;"><g class="legendfill"/><g class="legendlines"><path class="js-line" d="M5,0h30" style="fill: none; stroke: rgb(255, 121, 25); stroke-opacity: 1; stroke-width: 2px;"/></g><g class="legendsymbols"><g class="legendpoints"/></g></g><rect class="legendtoggle" x="0" y="-9.5" width="67.021484375" height="19" style="fill: rgb(0, 0, 0); fill-opacity: 0;"/></g><g class="traces" transform="translate(0,52.5)" style="opacity: 1;"><text class="legendtext" text-anchor="start" x="40" y="4.680000000000001" style="font-family: Arial, sans-serif; font-size: 12px; fill: rgb(51, 51, 51); fill-opacity: 1; white-space: pre;">2026</text><g class="layers" style="opacity: 1;"><g class="legendfill"/><g class="legendlines"><path class="js-line" d="M5,0h30" style="fill: none; stroke: rgb(0, 73, 25); stroke-opacity: 1; stroke-width: 2px;"/></g><g class="legendsymbols"><g class="legendpoints"/></g></g><rect class="legendtoggle" x="0" y="-9.5" width="67.021484375" height="19" style="fill: rgb(0, 0, 0); fill-opacity: 0;"/></g></g></g><rect class="scrollbar" rx="20" ry="3" width="0" height="0" style="fill: rgb(128, 139, 164); fill-opacity: 1;" x="0" y="0"/></g><g class="g-gtitle"><text class="gtitle" x="400" y="30" text-anchor="middle" dy="0em" style="opacity: 1; font-family: Arial, sans-serif; font-size: 16px; fill: rgb(51, 51, 51); fill-opacity: 1; white-space: pre;"><tspan style="font-weight:bold">Seasonality (Normalized)</tspan></text></g><g class="g-xtitle"><text class="xtitle" x="380.5" y="482.000390625" text-anchor="middle" style="opacity: 1; font-family: Arial, sans-serif; font-size: 13px; fill: rgb(51, 51, 51); fill-opacity: 1; white-space: pre;"><tspan style="font-weight:bold">Trading Day of the Year</tspan></text></g><g class="g-ytitle"><text class="ytitle" transform="rotate(-90,14.862109375000003,250)" x="14.862109375000003" y="250" text-anchor="middle" style="opacity: 1; font-family: Arial, sans-serif; font-size: 13px; fill: rgb(51, 51, 51); fill-opacity: 1; white-space: pre;"><tspan style="font-weight:bold">Cumulative Return (%)</tspan></text></g><g class="annotation" data-index="0" style="opacity: 1;"><g class="annotation-text-g" transform="rotate(0,393.34,46.30000000000004)"><g class="cursor-pointer" transform="translate(376,38)"><rect class="bg" x="0.5" y="0.5" width="34" height="15" style="stroke-width: 1px; stroke: rgb(0, 0, 0); stroke-opacity: 0; fill: rgb(0, 0, 0); fill-opacity: 0;"/><text class="annotation-text" text-anchor="middle" x="17.6796875" y="12" style="font-family: Arial, sans-serif; font-size: 11px; fill: rgb(102, 102, 102); fill-opacity: 1; white-space: pre;">Today</text></g></g></g><g class="annotation" data-index="1" style="opacity: 1;"><g class="annotation-text-g" transform="rotate(0,393.34,46.30000000000004)"><g class="cursor-pointer" transform="translate(376,38)"><rect class="bg" x="0.5" y="0.5" width="34" height="15" style="stroke-width: 1px; stroke: rgb(0, 0, 0); stroke-opacity: 0; fill: rgb(0, 0, 0); fill-opacity: 0;"/><text class="annotation-text" text-anchor="middle" x="17.6796875" y="12" style="font-family: Arial, sans-serif; font-size: 11px; fill: rgb(102, 102, 102); fill-opacity: 1; white-space: pre;">Today</text></g></g></g><g class="annotation" data-index="2" style="opacity: 1;"><g class="annotation-text-g" transform="rotate(0,393.34,46.30000000000004)"><g class="cursor-pointer" transform="translate(376,38)"><rect class="bg" x="0.5" y="0.5" width="34" height="15" style="stroke-width: 1px; stroke: rgb(0, 0, 0); stroke-opacity: 0; fill: rgb(0, 0, 0); fill-opacity: 0;"/><text class="annotation-text" text-anchor="middle" x="17.6796875" y="12" style="font-family: Arial, sans-serif; font-size: 11px; fill: rgb(102, 102, 102); fill-opacity: 1; white-space: pre;">Today</text></g></g></g></g></svg>